<?xml version="1.0" standalone="no"?>
<!DOCTYPE svg PUBLIC "-//W3C//DTD SVG 1.1//EN" "http://www.w3.org/Graphics/SVG/1.1/DTD/svg11.dtd">
<svg xmlns="http://www.w3.org/2000/svg">
<defs >
<font id="AzeretMono" horiz-adv-x="685" ><font-face
    font-family="Azeret Mono Thin Medium"
    units-per-em="1000"
    panose-1="0 0 0 0 0 0 0 0 0 0"
    ascent="937"
    descent="-230"
    alphabetic="0" />
<glyph unicode=" " horiz-adv-x="650" />
<glyph unicode="!" horiz-adv-x="650" d="M264 200L319 579L345 698H484L459 579L354 200H264ZM194 0L224 140H367L337 0H194Z" />
<glyph unicode="&quot;" horiz-adv-x="650" d="M417 478L461 754H590L517 478H417ZM477 478L521 754H650L577 478H477Z" />
<glyph unicode="#" horiz-adv-x="650" d="M232 0L573 699H679L338 0H232ZM-18 176L32 280H583L532 176H-18ZM3 0L343 699H450L109 0H3ZM97 415L147 519H697L648 415H97Z" />
<glyph unicode="$" horiz-adv-x="650" d="M343 680L368 797H487L462 680H343ZM177 -100L203 20H322L296 -100H177ZM312 -12Q227 -12 167 20T76 112T49 250H173Q173 178 210 136T320 93Q356 93 383 106T426 142T442 194Q442 222 425 241T378 275T313 303T243 332T179
370T132 423T114 501Q114 564 146 610T236 683T377 710Q450 710 505 683T593 605T624 485H499Q495 540 460 572T368 605Q334 605 307 593T264 560T248 511Q248 484 266 466T313 433T377 407T447 378T511 340T558 285T576 205Q576 137 541 89T447 14T312 -12Z" />
<glyph unicode="%" horiz-adv-x="650" d="M-19 0L571 698H669L79 0H-19ZM450 -12Q395 -12 360 24T324 118Q324 172 344 219T404 295T499 324Q555 324 590 287T626 192Q626 140 606 93T546 17T450 -12ZM458 65Q477 65 492 78T517 110T532 150T537 187Q537 215 525
231T491 247Q472 247 458 234T434 201T419 160T414 123Q414 96 426 81T458 65ZM182 375Q127 375 92 411T56 505Q56 559 76 606T136 682T231 711Q287 711 322 674T358 579Q358 527 337 481T277 405T182 375ZM190 452Q209 452 224 465T249 497T264 537T269 574Q269
602 257 618T223 634Q204 634 190 621T165 588T150 547T145 510Q145 483 157 468T190 452Z" />
<glyph unicode="&amp;" horiz-adv-x="650" d="M212 -12Q153 -12 108 11T37 77T12 175Q12 245 55 298T181 387Q156 423 142 458T127 532Q127 581 150 621T219 686T328 710Q385 710 425 689T488 634T510 556Q510 508 491 472T434 407T343 355L436 220Q457 247 475
280T508 348H628Q602 288 569 233T493 132L583 0H441L404 56Q363 25 316 7T212 -12ZM228 91Q262 91 294 103T351 137L234 308Q200 293 177 275T141 234T128 184Q128 141 155 116T228 91ZM291 433Q329 450 352 467T385 503T396 545Q396 571 379 590T328 610Q291
610 270 590T248 533Q248 506 261 481T291 433Z" />
<glyph unicode="&apos;" horiz-adv-x="650" d="M318 476L362 752H491L418 476H318Z" />
<glyph unicode="(" horiz-adv-x="650" d="M262 -97Q238 -33 227 37T215 166Q215 317 264 444T422 698H553Q442 574 388 443T334 164Q334 105 345 35T383 -97H262Z" />
<glyph unicode=")" horiz-adv-x="650" d="M240 -97H108Q220 26 273 158T326 437Q326 496 315 566T277 698H398Q423 633 434 563T446 434Q446 284 397 156T240 -97Z" />
<glyph unicode="*" horiz-adv-x="650" d="M235 388L184 464L304 529L194 608L249 676L349 592L393 715L480 684L436 561L567 560L566 472L430 484L482 355L394 330L350 460L235 388Z" />
<glyph unicode="+" horiz-adv-x="650" d="M66 256L88 360H597L575 256H66ZM225 52L333 561H437L329 52H225Z" />
<glyph unicode="," horiz-adv-x="650" d="M194 0L224 140H367L337 0L221 -181H113L167 -114L272 1L194 0Z" />
<glyph unicode="-" horiz-adv-x="650" d="M163 257L185 361H501L478 257H163Z" />
<glyph unicode="." horiz-adv-x="650" d="M195 0L225 140H367L337 0H195Z" />
<glyph unicode="/" horiz-adv-x="650" d="M-10 -97L547 699H672L115 -97H-10Z" />
<glyph unicode="0" horiz-adv-x="650" d="M269 -12Q200 -12 152 17T79 100T54 228Q54 317 78 403T150 558T263 669T413 710Q482 710 530 682T603 600T628 472Q628 382 604 296T532 140T419 29T269 -12ZM290 93Q331 93 364 116T422 179T465 268T490 369T499 469Q499
535 472 570T392 605Q351 605 318 582T260 519T217 430T192 330T183 231Q183 164 210 129T290 93Z" />
<glyph unicode="1" horiz-adv-x="650" d="M244 0L331 410L368 549L246 466L90 361L121 506L427 698H518L370 0H244ZM13 0L36 105H550L528 0H13Z" />
<glyph unicode="2" horiz-adv-x="650" d="M20 0L38 88Q150 159 233 217T373 324T457 416T486 499Q486 547 458 575T379 604Q343 604 312 589T260 543T237 466H111Q119 545 157 599T256 682T391 710Q493 710 554 656T616 509Q616 447 586 393T502 291T380 196T231
105H551L529 0H20Z" />
<glyph unicode="3" horiz-adv-x="650" d="M300 -12Q216 -12 160 21T78 110T60 234H186Q181 187 196 156T241 110T307 95Q368 95 403 127T439 208Q439 256 404 282T311 308H275L297 412H336Q372 412 402 426T450 465T468 523Q468 559 443 581T373 604Q317 604 282
571T242 479H117Q123 550 157 601T248 681T379 710Q446 710 495 688T571 627T598 533Q598 469 556 425T450 368Q485 361 512 339T554 283T569 212Q569 145 537 95T444 16T300 -12Z" />
<glyph unicode="4" horiz-adv-x="650" d="M314 0L348 162H10L29 250L418 698H591L500 267H615L593 162H477L443 0H314ZM168 267H371L409 448L445 589L347 473L168 267Z" />
<glyph unicode="5" horiz-adv-x="650" d="M297 -11Q224 -11 171 17T89 92T63 196H188Q190 163 205 140T245 106T304 94Q346 94 379 116T432 175T452 260Q452 292 440 318T403 359T344 375Q303 375 268 355T206 304H90L233 698H637L615 593H314L249 418Q277 446
315 463T401 481Q455 481 496 456T559 386T582 278Q582 193 546 128T445 26T297 -11Z" />
<glyph unicode="6" horiz-adv-x="650" d="M395 456Q449 456 492 432T560 364T586 257Q586 177 551 117T452 22T304 -12Q233 -12 179 20T95 110T65 248Q65 307 79 371T121 495T191 604T289 681T413 710Q482 710 529 687T603 621T633 521H505Q500 560 476 582T410
605Q361 605 323 577T258 499T218 382Q256 419 300 437T395 456ZM311 93Q353 93 385 112T435 167T453 249Q453 302 425 327T348 353Q306 353 266 332T194 271Q187 190 219 142T311 93Z" />
<glyph unicode="7" horiz-adv-x="650" d="M166 0Q190 103 227 192T311 355T410 489T518 593H136L158 698H688L669 610Q580 533 517 460T412 314T342 164T293 0H166ZM158 698H277L225 453H106L158 698Z" />
<glyph unicode="8" horiz-adv-x="650" d="M285 -12Q214 -12 162 11T81 76T52 174Q52 217 73 256T134 326T225 372H452Q483 361 508 338T548 283T563 215Q563 150 527 99T428 18T285 -12ZM289 93Q331 93 363 109T414 151T432 211Q432 252 403 278T328 307Q286 305
253 289T202 245T183 183Q183 144 211 119T289 93ZM348 403Q387 406 417 421T465 463T483 522Q483 559 457 583T386 608Q326 608 291 577T256 493Q256 458 281 433T348 403ZM233 349Q203 361 179 383T140 433T125 491Q125 556 159 605T254 682T390 710Q457 710
507 688T586 626T614 532Q614 486 593 451T536 390T454 349H233Z" />
<glyph unicode="9" horiz-adv-x="650" d="M291 242Q237 242 194 266T126 334T100 441Q100 521 135 581T234 676T382 710Q453 710 507 678T591 588T621 450Q621 391 607 327T565 203T495 94T397 17T273 -12Q204 -12 157 11T83 77T53 177H181Q186 138 210 116T276
93Q325 93 363 121T428 199T468 316Q430 279 386 261T291 242ZM375 605Q333 605 301 586T251 531T233 449Q233 396 261 371T338 345Q380 345 420 366T492 427Q499 508 467 556T375 605Z" />
<glyph unicode=":" horiz-adv-x="650" d="M270 358L300 498H442L412 358H270ZM195 0L225 140H367L337 0H195Z" />
<glyph unicode=";" horiz-adv-x="650" d="M190 0L221 149H372L340 0L226 -186H116L265 0H190ZM269 357L299 497H441L411 357H269Z" />
<glyph unicode="&lt;" horiz-adv-x="650" d="M537 65L62 255L85 359L640 549L617 432L213 301L561 170L537 65Z" />
<glyph unicode="=" horiz-adv-x="650" d="M86 366L108 470H623L602 366H86ZM39 142L60 246H576L554 142H39Z" />
<glyph unicode="&gt;" horiz-adv-x="650" d="M17 65L42 181L447 313L98 443L120 549L595 359L573 255L17 65Z" />
<glyph unicode="?" horiz-adv-x="650" d="M265 196L269 219Q276 263 295 293T339 344T391 383T441 418T478 460T493 519Q493 561 464 586T388 611Q321 611 286 570T249 466H128Q132 540 166 594T258 679T393 710Q462 710 512 687T590 622T618 526Q618 474 603
440T563 382T510 341T455 308T408 271T380 219L374 196H265ZM213 0L243 140H385L355 0H213Z" />
<glyph unicode="@" horiz-adv-x="650" d="M259 -169Q193 -169 146 -142T69 -66T25 46T11 185Q11 255 26 328T71 469T147 591T255 676T395 707Q471 707 529 671T619 567T652 406Q652 368 646 322T624 231T584 147T522 86T435 63H338L342 127Q327 93 305 74T254
54Q214 54 190 94T166 211Q166 243 172 280T191 354T223 421T270 470T330 489Q359 489 379 469T403 412L421 480H505L433 143H453Q475 143 492 161T521 207T542 270T554 339T558 401Q558 472 537 521T476 595T387 621Q332 621 287 594T209 521T153 418T119 302T108
190Q108 113 125 51T178 -47T266 -83H423L349 -169H259ZM298 163Q319 163 335 182T363 237L378 306Q381 336 371 358T338 380Q317 380 303 363T279 320T266 268T262 225Q262 198 271 181T298 163Z" />
<glyph unicode="A" horiz-adv-x="650" d="M108 162L130 267H527L505 162H108ZM321 698H505L561 0H437L404 443L397 605L321 443L101 0H-29L321 698Z" />
<glyph unicode="B" horiz-adv-x="650" d="M493 357Q537 343 564 309T592 224Q592 153 553 103T448 27T300 0H19L167 698H427Q492 698 539 677T612 619T638 535Q638 493 619 458T568 396T493 357ZM408 593H271L231 407H370Q410 407 440 420T488 458T506 514Q506
549 480 571T408 593ZM167 105H317Q382 105 421 136T460 216Q460 255 432 278T352 302H209L167 105Z" />
<glyph unicode="C" horiz-adv-x="650" d="M307 -12Q222 -12 163 24T74 124T43 270Q43 365 68 445T140 585T255 677T406 710Q481 710 537 682T625 600T655 469H518Q515 535 484 570T394 605Q340 605 299 576T230 499T189 393T175 277Q175 225 190 183T236 117T314
93Q378 93 420 131T478 235H616Q599 160 560 105T457 19T307 -12Z" />
<glyph unicode="D" horiz-adv-x="650" d="M5 0L153 698H366Q431 698 481 677T567 618T620 530T638 421Q638 330 609 253T525 120T396 32T229 0H5ZM153 105H249Q309 105 356 130T437 200T488 300T506 416Q506 494 465 543T346 593H257L153 105Z" />
<glyph unicode="E" horiz-adv-x="650" d="M21 0L169 698H676L654 593H273L235 414H492L469 309H212L169 105H554L531 0H21Z" />
<glyph unicode="F" horiz-adv-x="650" d="M13 0L162 698H675L653 593H265L227 414H491L468 309H204L139 0H13Z" />
<glyph unicode="G" horiz-adv-x="650" d="M303 -12Q221 -12 161 23T69 121T36 270Q36 358 58 437T126 578T239 675T400 710Q481 710 537 679T621 593T648 469H511Q510 526 482 565T388 605Q330 605 288 575T220 495T181 389T168 277Q168 222 185 181T235 116T310
93Q356 93 392 108T460 151L485 269L372 265L398 371H631L576 115Q540 75 499 47T410 3T303 -12Z" />
<glyph unicode="H" horiz-adv-x="650" d="M408 0L557 698H682L534 0H408ZM-1 0L148 698H273L125 0H-1ZM175 309L198 414H511L488 309H175Z" />
<glyph unicode="I" horiz-adv-x="650" d="M203 0L351 698H477L329 0H203ZM182 698H647L625 593H160L182 698ZM56 105H521L498 0H33L56 105Z" />
<glyph unicode="J" horiz-adv-x="650" d="M38 0L61 105H309Q359 105 384 127T420 194L527 698H652L544 185Q534 143 518 109T475 51T408 13T313 0H38ZM272 698H643L621 593H250L272 698Z" />
<glyph unicode="K" horiz-adv-x="650" d="M10 0L158 698H284L246 519L208 387L325 505L541 698H697L185 232L136 0H10ZM420 0L261 386L376 449L563 0H420Z" />
<glyph unicode="L" horiz-adv-x="650" d="M42 0L191 698H316L191 105H547L524 0H42Z" />
<glyph unicode="M" horiz-adv-x="650" d="M-37 0L163 698H314L309 310L301 185L347 310L511 698H668L571 0H448L513 394L547 565L483 394L317 0H214V394L225 568L185 394L82 0H-37Z" />
<glyph unicode="N" horiz-adv-x="650" d="M3 0L151 698H302L454 159L493 388L559 698H679L531 0H381L225 532L189 310L123 0H3Z" />
<glyph unicode="O" horiz-adv-x="650" d="M284 -12Q212 -12 157 19T70 111T38 254Q38 345 61 427T131 572T244 673T399 710Q471 710 526 680T612 591T644 445Q644 355 621 273T551 126T438 25T284 -12ZM297 93Q349 93 389 123T456 205T498 317T513 439Q513 521
479 563T386 605Q333 605 293 575T226 495T184 384T170 259Q170 208 185 171T229 113T297 93Z" />
<glyph unicode="P" horiz-adv-x="650" d="M157 243L179 348H357Q405 348 441 365T497 414T518 488Q518 530 490 561T412 593H232L254 698H426Q498 698 548 670T624 594T651 493Q651 432 627 385T559 307T458 259T334 243H157ZM15 0L164 698H289L141 0H15Z" />
<glyph unicode="Q" horiz-adv-x="650" d="M280 -12Q202 -12 145 21T58 116T27 259Q27 355 51 437T123 580T237 675T390 710Q470 710 525 677T610 583T639 440Q639 383 627 328T589 224T529 136T448 71L528 88L607 93L557 -12H280ZM289 93Q339 93 379 120T447 194T491
303T507 435Q507 488 491 526T446 584T377 605Q328 605 288 580T219 507T175 399T159 264Q159 179 196 136T289 93Z" />
<glyph unicode="R" horiz-adv-x="650" d="M169 281L192 386H369Q438 386 478 418T519 504Q519 544 491 568T416 593H236L258 698H437Q502 698 550 675T625 610T652 512Q652 459 631 417T571 344T477 297T353 281H169ZM19 0L168 698H293L145 0H19ZM435 0Q433 70
409 129T339 235T221 317L358 347Q429 305 473 252T540 136T565 0H435Z" />
<glyph unicode="S" horiz-adv-x="650" d="M312 -12Q227 -12 167 20T76 112T49 250H173Q173 178 210 136T320 93Q356 93 383 106T426 142T442 194Q442 222 425 241T378 275T313 303T243 332T179 370T132 423T114 501Q114 564 146 610T236 683T377 710Q450 710 505
683T593 605T624 485H499Q495 540 460 572T368 605Q334 605 307 593T264 560T248 511Q248 484 266 466T313 433T377 407T447 378T511 340T558 285T576 205Q576 137 541 89T447 14T312 -12Z" />
<glyph unicode="T" horiz-adv-x="650" d="M203 0L329 593H111L133 698H695L673 593H455L329 0H203Z" />
<glyph unicode="U" horiz-adv-x="650" d="M288 -12Q203 -12 142 20T54 113T44 255L138 698H265L169 248Q159 201 172 167T217 113T295 94Q341 94 376 113T436 166T469 248L565 698H691L596 248Q579 170 540 112T439 21T288 -12Z" />
<glyph unicode="V" horiz-adv-x="650" d="M175 0L119 698H243L281 263L285 101L355 262L579 698H712L359 0H175Z" />
<glyph unicode="W" horiz-adv-x="650" d="M35 0L106 698H225L180 319L150 131L214 319L363 698H463L454 319L438 131L487 319L602 698H724L496 0H344L357 338L375 502L323 338L195 0H35Z" />
<glyph unicode="X" horiz-adv-x="650" d="M-30 0L268 357L127 698H263L308 585L359 446L452 572L556 698H703L416 358L563 0H428L377 129L326 267L233 142L116 0H-30Z" />
<glyph unicode="Y" horiz-adv-x="650" d="M201 0L261 282L122 698H254L313 527L344 390L431 521L568 698H707L387 282L327 0H201Z" />
<glyph unicode="Z" horiz-adv-x="650" d="M-8 0L11 88L398 494L502 593H355H132L154 698H686L667 610L281 204L177 105H324H560L537 0H-8Z" />
<glyph unicode="[" horiz-adv-x="650" d="M135 -97L305 699H423L253 -97H135ZM174 -97L194 -4H414L394 -97H174ZM323 606L344 699H564L543 606H323Z" />
<glyph unicode="\" horiz-adv-x="650" d="M498 -97H380L162 698H280L498 -97Z" />
<glyph unicode="]" horiz-adv-x="650" d="M356 -97H238L408 699H526L356 -97ZM317 -97H97L117 -4H337L317 -97ZM467 606H247L267 699H487L467 606Z" />
<glyph unicode="^" horiz-adv-x="650" d="M120 354L367 698H464L565 354H455L394 569L241 354H120Z" />
<glyph unicode="_" horiz-adv-x="650" d="M8 -104V0H506V-104H8Z" />
<glyph unicode="`" horiz-adv-x="650" d="M505 615H411L336 785H453L505 615Z" />
<glyph unicode="a" horiz-adv-x="650" d="M398 0L418 117L467 346Q476 386 462 415T418 461T345 477Q288 477 248 452T200 375H83Q91 433 127 475T222 540T351 564Q432 564 489 536T572 455T582 331L513 0H398ZM236 -12Q186 -12 147 8T85 63T62 144Q62 209 94
250T182 310T308 330H477L459 244L302 243Q247 243 216 220T184 156Q184 122 206 103T266 84Q319 84 363 114T442 197L439 110Q401 48 353 18T236 -12Z" />
<glyph unicode="b" horiz-adv-x="650" d="M391 564Q455 564 503 538T578 461T605 343Q605 262 583 197T520 85T424 13T303 -12Q252 -12 208 10T138 70L120 0H7L163 737H282L231 492Q263 529 305 546T391 564ZM295 87Q346 87 389 117T457 202T483 331Q483 393 453
429T365 465Q309 465 270 436T201 358L166 189Q178 143 212 115T295 87Z" />
<glyph unicode="c" horiz-adv-x="650" d="M301 -12Q229 -12 173 18T85 104T53 234Q53 306 74 366T137 470T237 539T367 564Q435 564 488 539T573 468T601 356H482Q478 408 446 436T361 465Q314 465 279 446T220 393T186 321T175 241Q175 164 213 125T307 85Q366
85 405 113T462 192H581Q563 128 525 83T431 13T301 -12Z" />
<glyph unicode="d" horiz-adv-x="654" d="M345 564Q394 564 441 546T514 492L568 737H686L529 0H416L427 70Q395 33 357 11T269 -12Q199 -12 149 18T73 101T46 217Q46 291 66 354T125 464T219 537T345 564ZM291 87Q341 87 381 116T452 194L488 363Q477 409 440
437T353 465Q299 465 257 434T192 350T168 228Q168 186 183 155T225 105T291 87Z" />
<glyph unicode="e" horiz-adv-x="650" d="M298 -12Q224 -12 168 17T79 101T47 228Q47 299 68 360T130 467T228 538T360 564Q445 564 502 529T583 429T591 276H144L163 362H476Q477 410 446 439T355 468Q288 468 247 434T188 347T169 234Q169 189 185 156T233 105T305
86Q372 86 411 115T463 189H583Q565 128 529 83T435 13T298 -12Z" />
<glyph unicode="f" horiz-adv-x="650" d="M187 0L320 628Q338 709 391 750T529 792H700L679 695H539Q500 695 474 680T436 614L305 0H187ZM160 455L180 552H583L562 455H160ZM17 0L37 97H541L520 0H17Z" />
<glyph unicode="g" horiz-adv-x="650" d="M509 480L527 552H641L531 35Q507 -79 434 -134T250 -190Q178 -190 123 -171T38 -113T6 -12H130Q131 -53 164 -72T254 -92Q325 -92 362 -59T411 34L425 102Q395 66 357 47T270 28Q201 28 152 58T78 138T52 250Q52 321
72 378T131 477T224 540T346 563Q398 563 442 541T509 480ZM296 120Q349 120 388 152T455 236L481 362Q474 412 438 441T347 471Q293 471 254 443T194 367T173 261Q173 197 205 159T296 120Z" />
<glyph unicode="h" horiz-adv-x="650" d="M401 0L475 344Q486 398 464 430T393 463Q338 463 287 424T187 301L194 419Q243 492 301 528T425 564Q488 564 530 538T591 463T595 351L521 0H401ZM16 0L172 737H292L135 0H16Z" />
<glyph unicode="i" horiz-adv-x="650" d="M210 0L327 552H447L329 0H210ZM15 0L36 97H537L516 0H15ZM183 455L204 552H387L366 455H183ZM342 640L368 762H499L473 640H342Z" />
<glyph unicode="j" horiz-adv-x="650" d="M537 552L417 -12Q402 -86 358 -132T227 -178H-18L3 -81H191Q236 -81 263 -65T300 1L417 552H537ZM273 455L294 552H477L456 455H273ZM432 640L458 762H589L563 640H432Z" />
<glyph unicode="k" horiz-adv-x="650" d="M1 0L157 737H276L222 478L181 327L301 431L458 552H621L160 191L120 0H1ZM375 0L258 331L368 379L506 0H375Z" />
<glyph unicode="l" horiz-adv-x="650" d="M207 0L363 737H482L326 0H207ZM12 0L32 97H544L523 0H12ZM219 640L240 737H423L402 640H219Z" />
<glyph unicode="m" horiz-adv-x="650" d="M435 0L520 398Q527 430 519 448T488 466Q456 466 424 425T361 290L369 371Q388 462 434 513T542 564Q576 564 600 548T633 497T631 409L544 0H435ZM-11 0L106 552H211L192 446L97 0H-11ZM212 0L297 398Q304 432 295 449T264
466Q230 466 198 422T137 290L154 375Q167 434 193 476T253 541T322 564Q373 564 398 524T407 411L320 0H212Z" />
<glyph unicode="n" horiz-adv-x="650" d="M401 0L474 344Q486 398 464 430T393 463Q338 463 287 424T187 301L194 419Q242 492 300 528T428 564Q488 564 530 538T590 463T595 351L520 0H401ZM16 0L133 552H247L228 435L135 0H16Z" />
<glyph unicode="o" horiz-adv-x="650" d="M293 -12Q218 -12 163 17T77 100T46 227Q46 329 85 405T195 522T357 564Q433 564 488 535T573 452T603 326Q603 224 564 148T455 30T293 -12ZM297 86Q353 86 394 115T458 197T481 320Q481 387 446 426T354 466Q298 466
257 437T192 356T168 232Q168 189 184 157T229 105T297 86Z" />
<glyph unicode="p" horiz-adv-x="650" d="M393 564Q462 564 509 536T580 456T604 336Q604 263 583 200T523 89T428 15T299 -12Q252 -12 209 9T139 67L87 -178H-32L123 552H237L225 483Q258 520 301 542T393 564ZM292 87Q349 87 392 120T458 207T482 325Q482 363
471 395T435 446T366 465Q319 465 274 436T201 358L165 189Q175 142 209 115T292 87Z" />
<glyph unicode="q" horiz-adv-x="650" d="M344 564Q395 564 440 543T511 485L530 552H644L489 -178H369L422 69Q390 32 350 10T262 -12Q193 -12 144 16T69 95T43 215Q43 286 63 349T121 460T215 536T344 564ZM282 87Q330 87 374 116T448 194L484 362Q474 409 440
437T353 465Q297 465 255 432T188 344T164 223Q164 162 194 125T282 87Z" />
<glyph unicode="r" horiz-adv-x="650" d="M470 302L484 367Q493 411 475 437T410 463Q354 463 300 422T195 293L203 405Q238 457 275 492T354 546T445 564Q502 564 542 542T600 475T603 367L589 302H470ZM34 0L152 552H265L246 435L154 0H34Z" />
<glyph unicode="s" horiz-adv-x="650" d="M312 -12Q260 -12 216 2T138 43T85 110T66 197H184Q185 143 220 110T316 77Q370 77 398 98T426 149Q426 176 404 192T348 220T275 244T202 273T145 318T123 390Q123 444 152 483T234 543T356 564Q422 564 474 543T558
482T592 382H474Q469 430 435 452T352 475Q301 475 273 454T245 402Q245 375 267 360T323 333T397 311T470 282T526 235T548 158Q548 106 520 68T440 9T312 -12Z" />
<glyph unicode="t" horiz-adv-x="650" d="M315 0Q261 0 227 22T181 84T180 179L281 652L414 712L300 179Q295 154 297 135T315 107T363 97H534L513 0H315ZM116 455L137 552H539L519 455H116Z" />
<glyph unicode="u" horiz-adv-x="650" d="M242 552L169 208Q157 154 179 122T250 89Q305 89 356 128T456 251L449 133Q401 60 343 24T215 -12Q155 -12 113 14T53 89T48 201L123 552H242ZM627 552L510 0H396L415 117L508 552H627Z" />
<glyph unicode="v" horiz-adv-x="650" d="M198 0L106 552H226L275 237L285 107L351 237L533 552H660L334 0H198Z" />
<glyph unicode="w" horiz-adv-x="650" d="M47 0L79 553H183L162 251L150 122L203 251L328 553H433L435 251L431 120L476 251L582 553H689L487 0H350L347 287L361 441L308 287L184 0H47Z" />
<glyph unicode="x" horiz-adv-x="650" d="M398 273L524 0H400L360 84L309 196L216 85L138 0H4L252 288L128 552H252L290 477L341 364L435 475L506 552H640L398 273Z" />
<glyph unicode="y" horiz-adv-x="650" d="M271 303L294 158L369 287L535 552H662L283 -43Q248 -99 213 -131T139 -176T54 -190H-50L-30 -93H63Q90 -93 110 -82T149 -49T189 8L211 42L106 552H223L271 303Z" />
<glyph unicode="z" horiz-adv-x="650" d="M31 0L50 87L334 360L442 455H296H142L162 552H616L598 467L311 192L202 97H350H519L499 0H31Z" />
<glyph unicode="{" horiz-adv-x="650" d="M357 -97Q305 -97 264 -76T204 -12T198 91L215 173Q223 213 208 234T160 259L178 343Q214 346 237 364T268 421L290 528Q302 584 331 621T403 678T496 698H567L547 604H514Q472 604 444 584T407 519L386 422Q378 380 358
352T310 307T246 281L254 310Q284 300 305 283T334 239T334 174L317 98Q307 49 327 23T388 -4H418L398 -97H357Z" />
<glyph unicode="|" horiz-adv-x="650" d="M163 -190L360 738H485L289 -190H163Z" />
<glyph unicode="}" horiz-adv-x="650" d="M140 -97H93L113 -4H146Q188 -4 216 16T253 83L272 174Q280 212 299 239T347 283T410 310L405 281Q374 290 353 306T324 351T325 422L343 507Q353 553 334 578T272 604H242L262 698H320Q371 698 408 677T460 614T462 505L443
421Q434 382 450 364T500 343L482 259Q449 256 424 235T390 173L369 76Q357 18 326 -20T247 -78T140 -97Z" />
<glyph unicode="~" horiz-adv-x="650" d="M435 217Q401 217 372 229T319 257T271 284T225 296Q192 296 174 276T147 221H44Q54 277 80 316T145 376T228 397Q263 397 292 385T345 358T393 330T439 318Q471 318 488 338T516 393H619Q610 338 584 299T519 238T435 217Z" />
<glyph unicode="&#xa0;" horiz-adv-x="650" />
<glyph unicode="&#xa1;" horiz-adv-x="650" d="M309 552H459L427 403H277L309 552ZM387 352L331 -26L306 -146H166L192 -26L297 352H387Z" />
<glyph unicode="&#xa2;" horiz-adv-x="650" d="M311 531L337 655H456L429 531H311ZM177 -97L201 17H320L296 -97H177ZM301 -12Q229 -12 173 18T85 104T53 234Q53 306 74 366T137 470T237 539T367 564Q435 564 488 539T573 468T601 356H482Q478 408 446 436T361
465Q314 465 279 446T220 393T186 321T175 241Q175 164 213 125T307 85Q366 85 405 113T462 192H581Q563 128 525 83T431 13T301 -12Z" />
<glyph unicode="&#xa3;" horiz-adv-x="650" d="M27 0L50 105Q94 133 126 158T174 212T191 276Q191 305 182 338T163 409T153 487Q153 547 181 598T262 679T389 710Q456 710 503 684T577 610T602 495H479Q477 544 456 574T384 605Q347 605 324 589T290 547T279
490Q279 457 287 420T304 346T313 279Q313 232 290 196T230 131T149 77L137 105H526L504 0H27ZM87 296L106 383H529L511 296H87Z" />
<glyph unicode="&#xa4;" horiz-adv-x="650" d="M152 458L22 596L104 679L242 533L152 458ZM105 -11L23 72L150 208L240 132L105 -11ZM569 -11L432 135L521 211L651 72L569 -11ZM522 458L431 536L569 679L651 596L522 458ZM343 47Q262 47 200 85T103 188T68 334Q68
415 103 479T200 582T343 620Q424 620 486 582T582 480T617 334Q617 253 583 188T486 85T343 47ZM342 148Q388 148 424 172T482 238T504 334Q504 389 483 430T425 495T342 519Q296 519 260 496T202 431T181 334Q181 280 202 238T259 172T342 148Z" />
<glyph unicode="&#xa5;" horiz-adv-x="650" d="M73 267L91 354H588L569 267H73ZM201 0L261 282L122 698H254L313 527L344 390L431 521L568 698H707L387 282L327 0H201Z" />
<glyph unicode="&#xa6;" horiz-adv-x="650" d="M280 363L360 738H485L406 363H280ZM163 -190L242 184H367L289 -190H163Z" />
<glyph unicode="&#xa7;" horiz-adv-x="650" d="M277 -190Q190 -190 134 -158T50 -71T24 49H147Q148 -17 180 -55T282 -94Q320 -94 346 -82T385 -48T399 -1Q399 28 382 45T336 74T273 95T204 116T141 144T95 190T77 260Q77 300 98 339T160 404Q140 423 126 452T112
516Q112 579 146 622T237 687T365 710Q435 710 491 686T580 615T612 505H487Q485 555 449 584T360 614Q308 614 277 592T246 531Q246 504 263 487T310 458T374 437T443 416T507 386T554 341T572 271Q572 223 551 187T491 121Q505 105 519 82T533 17Q533 -44 501
-91T412 -164T277 -190ZM399 173Q417 190 428 209T439 252Q439 276 422 292T376 319T315 339T249 359Q227 343 216 323T204 280Q204 259 216 245T248 221T293 204T346 190T399 173Z" />
<glyph unicode="&#xa8;" horiz-adv-x="650" d="M546 641L572 763H702L676 641H546ZM338 641L364 763H494L468 641H338Z" />
<glyph unicode="&#xa9;" horiz-adv-x="650" d="M343 152Q295 152 259 178T202 249T182 353Q182 412 202 457T259 528T344 553Q402 553 441 514T485 413H411Q407 446 388 468T341 490Q303 490 280 452T256 354Q256 295 278 256T340 216Q371 216 390 238T414 296H486Q480
233 441 193T343 152ZM342 -12Q251 -12 182 34T74 162T34 349Q34 454 73 535T182 663T342 710Q431 710 500 664T608 536T648 349Q648 244 609 163T500 35T342 -12ZM341 52Q409 52 461 90T544 195T574 349Q574 436 544 503T462 608T341 646Q272 646 220 608T138
503T108 349Q108 262 137 196T219 91T341 52Z" />
<glyph unicode="&#xaa;" horiz-adv-x="650" d="M406 335L422 422L452 564Q461 603 442 623T384 643Q349 643 326 626T298 578H214Q224 635 270 671T385 707Q435 707 472 690T528 639T536 552L489 335H406ZM309 327Q277 327 252 340T212 376T197 430Q197 477 220
505T284 546T374 560H460L446 496H360Q326 496 306 482T286 440Q286 420 300 408T340 395Q378 395 402 420T451 491L455 440Q432 380 396 354T309 327Z" />
<glyph unicode="&#xab;" horiz-adv-x="650" d="M436 63L340 271L525 481H649L459 268L556 63H436ZM387 63L291 271L476 481H600L410 268L507 63H387Z" />
<glyph unicode="&#xac;" horiz-adv-x="650" d="M431 116L481 360H600L549 116H431ZM63 256L85 360H600L578 256H63Z" />
<glyph unicode="&#xad;" horiz-adv-x="650" d="M163 257L185 361H501L478 257H163Z" />
<glyph unicode="&#xae;" horiz-adv-x="650" d="M329 480V528H384Q398 528 407 536T416 557Q416 569 408 576T385 584H329V632H385Q427 632 450 612T474 557Q474 523 448 502T382 480H329ZM291 405V632H348V405H291ZM417 405Q414 420 409 436T389 469T347 495L401
512Q433 492 451 466T477 405H417ZM375 294Q308 294 257 323T176 403T146 517Q146 579 175 629T256 708T375 738Q441 738 492 709T573 630T603 517Q603 454 574 404T493 324T375 294ZM374 342Q423 342 461 364T522 427T545 517Q545 568 523 607T462 668T374 691Q326
691 288 669T227 607T204 517Q204 466 226 427T286 365T374 342Z" />
<glyph unicode="&#xaf;" horiz-adv-x="651" d="M344 657L363 747H698L679 657H344Z" />
<glyph unicode="&#xb0;" horiz-adv-x="650" d="M357 374Q320 374 292 391T247 437T231 504Q231 558 251 605T311 681T406 711Q443 711 471 694T516 647T533 579Q533 527 512 480T452 404T357 374ZM365 452Q384 452 399 464T424 496T439 536T444 573Q444 601 432
617T398 633Q379 633 365 620T340 587T325 546T320 509Q320 482 332 467T365 452Z" />
<glyph unicode="&#xb1;" horiz-adv-x="650" d="M82 333L104 437H614L591 333H82ZM245 152L344 616H450L352 152H245ZM9 0L31 104H546L524 0H9Z" />
<glyph unicode="&#xb2;" horiz-adv-x="650" d="M162 301L176 369Q245 410 296 444T381 509T431 566T448 621Q448 644 434 659T392 675Q359 675 340 654T320 595H223Q231 669 276 712T401 755Q444 755 478 739T531 695T551 628Q551 580 521 538T441 457T329 381H513L496
301H162Z" />
<glyph unicode="&#xb3;" horiz-adv-x="650" d="M359 295Q280 295 237 340T194 456H290Q289 419 308 398T363 376Q394 376 413 394T432 441Q432 469 413 484T362 499H339L354 568H378Q414 568 432 585T451 631Q451 652 436 664T397 677Q367 677 348 659T326 607H230Q240
676 287 716T404 757Q448 757 481 743T533 702T551 639Q551 601 528 571T465 531Q497 525 515 499T533 436Q533 373 485 334T359 295Z" />
<glyph unicode="&#xb4;" horiz-adv-x="650" d="M458 615L578 785H706L562 615H458Z" />
<glyph unicode="&#xb5;" horiz-adv-x="650" d="M-35 -190L65 279L184 281L143 96L129 71L73 -190H-35ZM242 552L169 208Q158 154 180 122T250 89Q305 89 356 128T456 251L450 133Q401 60 344 24T215 -12Q156 -12 114 14T53 89T48 201L123 552H242ZM628 552L510
0H396L416 117L508 552H628Z" />
<glyph unicode="&#xb6;" horiz-adv-x="650" d="M169 -190L266 266Q181 271 133 322T84 448Q84 524 120 580T220 667T364 698H466L277 -190H169ZM372 -190L561 698H669L480 -190H372Z" />
<glyph unicode="&#xb7;" horiz-adv-x="627" d="M222 240L252 380H394L364 240H222Z" />
<glyph unicode="&#xb8;" horiz-adv-x="650" d="M370 -220Q344 -220 322 -216T279 -203L290 -147Q307 -153 325 -156T364 -160Q388 -160 406 -153T424 -128Q424 -116 412 -110T382 -103Q372 -103 362 -104T339 -109L325 -76L407 25L465 4L415 -53Q423 -51 427 -51T438
-51Q469 -51 492 -69T516 -119Q516 -153 496 -175T443 -209T370 -220Z" />
<glyph unicode="&#xb9;" horiz-adv-x="650" d="M321 301L394 645L217 531L237 630L428 748H514L419 301H321ZM183 381H556L539 301H166L183 381Z" />
<glyph unicode="&#xba;" horiz-adv-x="650" d="M351 327Q303 327 268 345T214 397T195 474Q195 544 221 596T294 678T401 708Q449 708 484 690T538 638T557 560Q557 490 531 438T458 356T351 327ZM358 393Q389 393 414 413T454 471T469 557Q469 595 450 618T395
641Q362 641 337 621T298 564T283 478Q283 440 303 417T358 393Z" />
<glyph unicode="&#xbb;" horiz-adv-x="650" d="M163 63H38L228 275L133 481H252L347 271L163 63ZM382 63H257L447 275L352 481H471L566 271L382 63Z" />
<glyph unicode="&#xbc;" horiz-adv-x="1300" d="M257 251L330 595L153 481L173 580L364 698H450L355 251H257ZM119 331H492L475 251H102L119 331ZM321 0L911 698H1022L432 0H321ZM902 0L923 98H701L715 165L976 447H1095L1038 178H1124L1106 98H1020L1000 0H902ZM816
178H940L977 351L816 178Z" />
<glyph unicode="&#xbd;" horiz-adv-x="1300" d="M257 251L330 595L153 481L173 580L364 698H450L355 251H257ZM119 331H492L475 251H102L119 331ZM321 0L911 698H1022L432 0H321ZM775 0L789 68Q858 109 909 143T994 208T1044 265T1061 320Q1061 343 1047 358T1005
374Q972 374 953 353T933 294H836Q844 368 889 411T1014 454Q1057 454 1091 438T1144 394T1164 327Q1164 279 1134 237T1054 156T942 80H1126L1109 0H775Z" />
<glyph unicode="&#xbe;" horiz-adv-x="1300" d="M349 245Q270 245 227 290T184 406H280Q279 369 298 348T353 326Q384 326 403 344T422 391Q422 419 403 434T352 449H329L344 518H368Q404 518 422 535T441 581Q441 602 426 614T387 627Q357 627 338 609T316 557H220Q230
626 277 666T394 707Q438 707 471 693T523 652T541 589Q541 551 518 521T455 481Q487 475 505 449T523 386Q523 323 475 284T349 245ZM325 0L915 698H1026L436 0H325ZM908 0L929 98H707L721 165L982 447H1101L1044 178H1130L1112 98H1026L1006 0H908ZM822 178H946L983
351L822 178Z" />
<glyph unicode="&#xbf;" horiz-adv-x="650" d="M385 356L381 333Q374 289 355 259T311 208T259 169T209 134T172 92T157 33Q157 -9 186 -34T262 -59Q329 -59 364 -18T401 86H522Q518 12 484 -42T392 -127T257 -158Q188 -158 138 -135T60 -70T32 26Q32 78 47 112T87
170T140 211T195 244T242 281T270 333L276 356H385ZM437 552L407 412H265L295 552H437Z" />
<glyph unicode="&#xc0;" horiz-adv-x="650" d="M108 162L130 267H527L505 162H108ZM321 698H505L561 0H437L404 443L397 605L321 443L101 0H-29L321 698ZM488 761H394L319 931H436L488 761Z" />
<glyph unicode="&#xc1;" horiz-adv-x="650" d="M108 162L130 267H527L505 162H108ZM321 698H505L561 0H437L404 443L397 605L321 443L101 0H-29L321 698ZM349 760L469 930H597L453 760H349Z" />
<glyph unicode="&#xc2;" horiz-adv-x="650" d="M108 162L130 267H527L505 162H108ZM321 698H505L561 0H437L404 443L397 605L321 443L101 0H-29L321 698ZM236 761L392 931H521L608 761H499L447 868L353 761H236Z" />
<glyph unicode="&#xc3;" horiz-adv-x="650" d="M108 162L130 267H527L505 162H108ZM321 698H505L561 0H437L404 443L397 605L321 443L101 0H-29L321 698ZM314 768L229 782Q247 843 279 879T363 916Q395 916 420 905T466 881T506 869Q528 869 543 884T566 922L653
908Q633 848 600 811T515 774Q486 774 462 786T416 811T373 823Q352 823 337 807T314 768Z" />
<glyph unicode="&#xc4;" horiz-adv-x="650" d="M108 162L130 267H527L505 162H108ZM321 698H505L561 0H437L404 443L397 605L321 443L101 0H-29L321 698ZM468 786L494 908H624L598 786H468ZM260 786L286 908H416L390 786H260Z" />
<glyph unicode="&#xc5;" horiz-adv-x="650" d="M108 162L130 267H527L505 162H108ZM321 698H505L561 0H437L404 443L397 605L321 443L101 0H-29L321 698ZM429 738Q381 738 351 766T320 837Q320 893 357 929T454 965Q504 965 535 937T566 865Q566 809 528 774T429
738ZM435 799Q461 799 478 816T495 860Q495 879 483 891T450 904Q423 904 407 887T390 843Q390 824 402 812T435 799Z" />
<glyph unicode="&#xc6;" horiz-adv-x="650" d="M-49 0L373 698H479L65 0H-49ZM120 148L142 253H372L350 148H120ZM282 0L430 698H723L701 593H514L475 414H616L593 309H453L410 105H601L579 0H282Z" />
<glyph unicode="&#xc7;" horiz-adv-x="650" d="M307 -12Q222 -12 163 24T74 124T43 270Q43 365 68 445T140 585T255 677T406 710Q481 710 537 682T625 600T655 469H518Q515 535 484 570T394 605Q340 605 299 576T230 499T189 393T175 277Q175 225 190 183T236
117T314 93Q378 93 420 131T478 235H616Q599 160 560 105T457 19T307 -12ZM260 -220Q234 -220 212 -216T169 -203L180 -147Q197 -153 215 -156T254 -160Q278 -160 296 -153T314 -128Q314 -116 302 -110T272 -103Q262 -103 252 -104T229 -109L215 -76L297 25L355
4L305 -53Q313 -51 317 -51T328 -51Q359 -51 382 -69T406 -119Q406 -153 386 -175T333 -209T260 -220Z" />
<glyph unicode="&#xc8;" horiz-adv-x="650" d="M21 0L169 698H676L654 593H273L235 414H492L469 309H212L169 105H554L531 0H21ZM494 762H400L325 932H442L494 762Z" />
<glyph unicode="&#xc9;" horiz-adv-x="650" d="M21 0L169 698H676L654 593H273L235 414H492L469 309H212L169 105H554L531 0H21ZM355 761L475 931H603L459 761H355Z" />
<glyph unicode="&#xca;" horiz-adv-x="650" d="M21 0L169 698H676L654 593H273L235 414H492L469 309H212L169 105H554L531 0H21ZM242 762L398 932H527L614 762H505L453 869L359 762H242Z" />
<glyph unicode="&#xcb;" horiz-adv-x="650" d="M21 0L169 698H676L654 593H273L235 414H492L469 309H212L169 105H554L531 0H21ZM474 787L500 909H630L604 787H474ZM266 787L292 909H422L396 787H266Z" />
<glyph unicode="&#xcc;" horiz-adv-x="650" d="M203 0L351 698H477L329 0H203ZM182 698H647L625 593H160L182 698ZM56 105H521L498 0H33L56 105ZM486 762H392L317 932H434L486 762Z" />
<glyph unicode="&#xcd;" horiz-adv-x="650" d="M203 0L351 698H477L329 0H203ZM182 698H647L625 593H160L182 698ZM56 105H521L498 0H33L56 105ZM348 761L468 931H596L452 761H348Z" />
<glyph unicode="&#xce;" horiz-adv-x="650" d="M203 0L351 698H477L329 0H203ZM182 698H647L625 593H160L182 698ZM56 105H521L498 0H33L56 105ZM235 762L391 932H520L607 762H498L446 869L352 762H235Z" />
<glyph unicode="&#xcf;" horiz-adv-x="650" d="M203 0L351 698H477L329 0H203ZM182 698H647L625 593H160L182 698ZM56 105H521L498 0H33L56 105ZM467 787L493 909H623L597 787H467ZM259 787L285 909H415L389 787H259Z" />
<glyph unicode="&#xd0;" horiz-adv-x="650" d="M7 303L28 399H404L383 303H7ZM5 0L153 698H366Q431 698 481 677T567 618T620 530T638 421Q638 330 609 253T525 120T396 32T229 0H5ZM153 105H249Q309 105 356 130T437 200T488 300T506 416Q506 494 465 543T346
593H257L153 105Z" />
<glyph unicode="&#xd1;" horiz-adv-x="650" d="M3 0L151 698H302L454 159L493 388L559 698H679L531 0H381L225 532L189 310L123 0H3ZM323 769L238 783Q256 844 288 880T372 917Q404 917 429 906T475 882T515 870Q537 870 552 885T575 923L662 909Q642 849 609
812T524 775Q495 775 471 787T425 812T382 824Q361 824 346 808T323 769Z" />
<glyph unicode="&#xd2;" horiz-adv-x="650" d="M284 -12Q212 -12 157 19T70 111T38 254Q38 345 61 427T131 572T244 673T399 710Q471 710 526 680T612 591T644 445Q644 355 621 273T551 126T438 25T284 -12ZM297 93Q349 93 389 123T456 205T498 317T513 439Q513
521 479 563T386 605Q333 605 293 575T226 495T184 384T170 259Q170 208 185 171T229 113T297 93ZM475 763H381L306 933H423L475 763Z" />
<glyph unicode="&#xd3;" horiz-adv-x="650" d="M284 -12Q212 -12 157 19T70 111T38 254Q38 345 61 427T131 572T244 673T399 710Q471 710 526 680T612 591T644 445Q644 355 621 273T551 126T438 25T284 -12ZM297 93Q349 93 389 123T456 205T498 317T513 439Q513
521 479 563T386 605Q333 605 293 575T226 495T184 384T170 259Q170 208 185 171T229 113T297 93ZM337 762L457 932H585L441 762H337Z" />
<glyph unicode="&#xd4;" horiz-adv-x="650" d="M284 -12Q212 -12 157 19T70 111T38 254Q38 345 61 427T131 572T244 673T399 710Q471 710 526 680T612 591T644 445Q644 355 621 273T551 126T438 25T284 -12ZM297 93Q349 93 389 123T456 205T498 317T513 439Q513
521 479 563T386 605Q333 605 293 575T226 495T184 384T170 259Q170 208 185 171T229 113T297 93ZM224 763L380 933H509L596 763H487L435 870L341 763H224Z" />
<glyph unicode="&#xd5;" horiz-adv-x="650" d="M284 -12Q212 -12 157 19T70 111T38 254Q38 345 61 427T131 572T244 673T399 710Q471 710 526 680T612 591T644 445Q644 355 621 273T551 126T438 25T284 -12ZM297 93Q349 93 389 123T456 205T498 317T513 439Q513
521 479 563T386 605Q333 605 293 575T226 495T184 384T170 259Q170 208 185 171T229 113T297 93ZM302 770L217 784Q235 845 267 881T351 918Q383 918 408 907T454 883T494 871Q516 871 531 886T554 924L641 910Q621 850 588 813T503 776Q474 776 450 788T404 813T361
825Q340 825 325 809T302 770Z" />
<glyph unicode="&#xd6;" horiz-adv-x="650" d="M284 -12Q212 -12 157 19T70 111T38 254Q38 345 61 427T131 572T244 673T399 710Q471 710 526 680T612 591T644 445Q644 355 621 273T551 126T438 25T284 -12ZM297 93Q349 93 389 123T456 205T498 317T513 439Q513
521 479 563T386 605Q333 605 293 575T226 495T184 384T170 259Q170 208 185 171T229 113T297 93ZM456 788L482 910H612L586 788H456ZM248 788L274 910H404L378 788H248Z" />
<glyph unicode="&#xd7;" horiz-adv-x="650" d="M131 76L72 152L534 533L593 457L131 76ZM441 76L138 461L224 533L527 147L441 76Z" />
<glyph unicode="&#xd8;" horiz-adv-x="650" d="M291 -12Q216 -12 158 19T66 111T33 258Q33 349 57 430T127 575T240 674T392 710Q468 710 525 679T616 588T649 441Q649 351 625 270T555 125T442 25T291 -12ZM298 93Q350 93 390 123T459 203T502 314T517 436Q517
518 481 561T385 605Q332 605 292 576T223 497T180 387T165 263Q165 182 201 138T298 93ZM114 -66L26 -22L562 764L650 721L114 -66Z" />
<glyph unicode="&#xd9;" horiz-adv-x="650" d="M288 -12Q203 -12 142 20T54 113T44 255L138 698H265L169 248Q159 201 172 167T217 113T295 94Q341 94 376 113T436 166T469 248L565 698H691L596 248Q579 170 540 112T439 21T288 -12ZM485 762H391L316 932H433L485 762Z" />
<glyph unicode="&#xda;" horiz-adv-x="650" d="M288 -12Q203 -12 142 20T54 113T44 255L138 698H265L169 248Q159 201 172 167T217 113T295 94Q341 94 376 113T436 166T469 248L565 698H691L596 248Q579 170 540 112T439 21T288 -12ZM347 761L467 931H595L451 761H347Z" />
<glyph unicode="&#xdb;" horiz-adv-x="650" d="M288 -12Q203 -12 142 20T54 113T44 255L138 698H265L169 248Q159 201 172 167T217 113T295 94Q341 94 376 113T436 166T469 248L565 698H691L596 248Q579 170 540 112T439 21T288 -12ZM234 762L390 932H519L606
762H497L445 869L351 762H234Z" />
<glyph unicode="&#xdc;" horiz-adv-x="650" d="M288 -12Q203 -12 142 20T54 113T44 255L138 698H265L169 248Q159 201 172 167T217 113T295 94Q341 94 376 113T436 166T469 248L565 698H691L596 248Q579 170 540 112T439 21T288 -12ZM466 787L492 909H622L596
787H466ZM258 787L284 909H414L388 787H258Z" />
<glyph unicode="&#xdd;" horiz-adv-x="650" d="M201 0L261 282L122 698H254L313 527L344 390L431 521L568 698H707L387 282L327 0H201ZM354 761L474 931H602L458 761H354Z" />
<glyph unicode="&#xde;" horiz-adv-x="650" d="M139 133L162 238H341Q388 238 424 255T480 303T501 375Q501 418 474 450T394 483H213L236 588H402Q471 588 523 560T604 486T634 382Q634 302 593 246T480 162T317 133H139ZM21 0L169 698H295L147 0H21Z" />
<glyph unicode="&#xdf;" horiz-adv-x="650" d="M313 -13Q284 -13 249 -9T191 2L212 101Q228 94 258 90T316 85Q396 85 441 122T486 218Q486 270 449 300T348 331H261L282 429H361Q401 429 431 443T477 484T494 546Q494 588 464 613T382 639Q326 639 285 606T231
507L123 0H5L113 513Q129 586 167 635T262 711T388 737Q457 737 508 715T587 652T616 555Q616 506 592 467T527 399T431 358L434 386Q486 385 524 364T585 308T607 224Q607 153 572 100T470 17T313 -13Z" />
<glyph unicode="&#xe0;" horiz-adv-x="650" d="M398 0L418 117L467 346Q476 386 462 415T418 461T345 477Q288 477 248 452T200 375H83Q91 433 127 475T222 540T351 564Q432 564 489 536T572 455T582 331L513 0H398ZM236 -12Q186 -12 147 8T85 63T62 144Q62 209
94 250T182 310T308 330H477L459 244L302 243Q247 243 216 220T184 156Q184 122 206 103T266 84Q319 84 363 114T442 197L439 110Q401 48 353 18T236 -12ZM445 615H351L276 785H393L445 615Z" />
<glyph unicode="&#xe1;" horiz-adv-x="650" d="M398 0L418 117L467 346Q476 386 462 415T418 461T345 477Q288 477 248 452T200 375H83Q91 433 127 475T222 540T351 564Q432 564 489 536T572 455T582 331L513 0H398ZM236 -12Q186 -12 147 8T85 63T62 144Q62 209
94 250T182 310T308 330H477L459 244L302 243Q247 243 216 220T184 156Q184 122 206 103T266 84Q319 84 363 114T442 197L439 110Q401 48 353 18T236 -12ZM306 870L426 1040H554L410 870H306Z" />
<glyph unicode="&#xe2;" horiz-adv-x="650" d="M398 0L418 117L467 346Q476 386 462 415T418 461T345 477Q288 477 248 452T200 375H83Q91 433 127 475T222 540T351 564Q432 564 489 536T572 455T582 331L513 0H398ZM236 -12Q186 -12 147 8T85 63T62 144Q62 209
94 250T182 310T308 330H477L459 244L302 243Q247 243 216 220T184 156Q184 122 206 103T266 84Q319 84 363 114T442 197L439 110Q401 48 353 18T236 -12ZM449 615L605 785H734L821 615H712L660 722L566 615H449Z" />
<glyph unicode="&#xe3;" horiz-adv-x="650" d="M398 0L418 117L467 346Q476 386 462 415T418 461T345 477Q288 477 248 452T200 375H83Q91 433 127 475T222 540T351 564Q432 564 489 536T572 455T582 331L513 0H398ZM236 -12Q186 -12 147 8T85 63T62 144Q62 209
94 250T182 310T308 330H477L459 244L302 243Q247 243 216 220T184 156Q184 122 206 103T266 84Q319 84 363 114T442 197L439 110Q401 48 353 18T236 -12ZM528 878L443 892Q461 953 493 989T577 1026Q609 1026 634 1015T680 991T720 979Q742 979 757 994T780 1032L867
1018Q847 958 814 921T729 884Q700 884 676 896T630 921T587 933Q566 933 551 917T528 878Z" />
<glyph unicode="&#xe4;" horiz-adv-x="650" d="M398 0L418 117L467 346Q476 386 462 415T418 461T345 477Q288 477 248 452T200 375H83Q91 433 127 475T222 540T351 564Q432 564 489 536T572 455T582 331L513 0H398ZM236 -12Q186 -12 147 8T85 63T62 144Q62 209
94 250T182 310T308 330H477L459 244L302 243Q247 243 216 220T184 156Q184 122 206 103T266 84Q319 84 363 114T442 197L439 110Q401 48 353 18T236 -12ZM682 896L708 1018H838L812 896H682ZM474 896L500 1018H630L604 896H474Z" />
<glyph unicode="&#xe5;" horiz-adv-x="650" d="M398 0L418 117L467 346Q476 386 462 415T418 461T345 477Q288 477 248 452T200 375H83Q91 433 127 475T222 540T351 564Q432 564 489 536T572 455T582 331L513 0H398ZM236 -12Q186 -12 147 8T85 63T62 144Q62 209
94 250T182 310T308 330H477L459 244L302 243Q247 243 216 220T184 156Q184 122 206 103T266 84Q319 84 363 114T442 197L439 110Q401 48 353 18T236 -12ZM642 848Q594 848 564 876T533 947Q533 1003 570 1039T667 1075Q717 1075 748 1047T779 975Q779 919 741
884T642 848ZM648 909Q674 909 691 926T708 970Q708 989 696 1001T663 1014Q636 1014 620 997T603 953Q603 934 615 922T648 909Z" />
<glyph unicode="&#xe6;" horiz-adv-x="650" d="M213 118L268 374Q274 400 272 420T258 453T224 465Q193 465 174 442T144 375H25Q41 464 95 514T233 564Q292 564 328 537T377 463T378 360L326 118H213ZM124 -12Q62 -12 25 26T-13 128Q-13 191 17 235T98 302T213
326H269L250 242H208Q161 242 129 213T97 139Q97 115 110 100T145 85Q177 85 200 116T242 216L293 145Q267 67 227 28T124 -12ZM411 -12Q359 -12 321 13T262 84T240 190Q240 236 250 287T279 387T329 476T398 540T488 564Q539 564 571 541T620 479T638 387T626
276H347L366 360H535Q540 390 535 415T516 456T478 472Q448 472 427 449T391 391T369 318T357 248T353 203Q353 170 360 143T382 101T420 85Q453 85 474 112T510 186H613Q588 94 539 41T411 -12Z" />
<glyph unicode="&#xe7;" horiz-adv-x="650" d="M301 -12Q229 -12 173 18T85 104T53 234Q53 306 74 366T137 470T237 539T367 564Q435 564 488 539T573 468T601 356H482Q478 408 446 436T361 465Q314 465 279 446T220 393T186 321T175 241Q175 164 213 125T307
85Q366 85 405 113T462 192H581Q563 128 525 83T431 13T301 -12ZM250 -220Q224 -220 202 -216T159 -203L170 -147Q187 -153 205 -156T244 -160Q268 -160 286 -153T304 -128Q304 -116 292 -110T262 -103Q252 -103 242 -104T219 -109L205 -76L287 25L345 4L295 -53Q303
-51 307 -51T318 -51Q349 -51 372 -69T396 -119Q396 -153 376 -175T323 -209T250 -220Z" />
<glyph unicode="&#xe8;" horiz-adv-x="650" d="M298 -12Q224 -12 168 17T79 101T47 228Q47 299 68 360T130 467T228 538T360 564Q445 564 502 529T583 429T591 276H144L163 362H476Q477 410 446 439T355 468Q288 468 247 434T188 347T169 234Q169 189 185 156T233
105T305 86Q372 86 411 115T463 189H583Q565 128 529 83T435 13T298 -12ZM445 615H351L276 785H393L445 615Z" />
<glyph unicode="&#xe9;" horiz-adv-x="650" d="M298 -12Q224 -12 168 17T79 101T47 228Q47 299 68 360T130 467T228 538T360 564Q445 564 502 529T583 429T591 276H144L163 362H476Q477 410 446 439T355 468Q288 468 247 434T188 347T169 234Q169 189 185 156T233
105T305 86Q372 86 411 115T463 189H583Q565 128 529 83T435 13T298 -12ZM306 870L426 1040H554L410 870H306Z" />
<glyph unicode="&#xea;" horiz-adv-x="650" d="M298 -12Q224 -12 168 17T79 101T47 228Q47 299 68 360T130 467T228 538T360 564Q445 564 502 529T583 429T591 276H144L163 362H476Q477 410 446 439T355 468Q288 468 247 434T188 347T169 234Q169 189 185 156T233
105T305 86Q372 86 411 115T463 189H583Q565 128 529 83T435 13T298 -12ZM449 615L605 785H734L821 615H712L660 722L566 615H449Z" />
<glyph unicode="&#xeb;" horiz-adv-x="650" d="M298 -12Q224 -12 168 17T79 101T47 228Q47 299 68 360T130 467T228 538T360 564Q445 564 502 529T583 429T591 276H144L163 362H476Q477 410 446 439T355 468Q288 468 247 434T188 347T169 234Q169 189 185 156T233
105T305 86Q372 86 411 115T463 189H583Q565 128 529 83T435 13T298 -12ZM681 896L707 1018H837L811 896H681ZM473 896L499 1018H629L603 896H473Z" />
<glyph unicode="&#xec;" horiz-adv-x="650" d="M210 0L327 552H447L329 0H210ZM15 0L36 97H537L516 0H15ZM183 455L204 552H387L366 455H183ZM464 616H370L295 786H412L464 616Z" />
<glyph unicode="&#xed;" horiz-adv-x="650" d="M210 0L327 552H447L329 0H210ZM15 0L36 97H537L516 0H15ZM183 455L204 552H387L366 455H183ZM325 615L445 785H573L429 615H325Z" />
<glyph unicode="&#xee;" horiz-adv-x="650" d="M210 0L327 552H447L329 0H210ZM15 0L36 97H537L516 0H15ZM183 455L204 552H387L366 455H183ZM212 616L368 786H497L584 616H475L423 723L329 616H212Z" />
<glyph unicode="&#xef;" horiz-adv-x="650" d="M210 0L327 552H447L329 0H210ZM15 0L36 97H537L516 0H15ZM183 455L204 552H387L366 455H183ZM445 641L471 763H601L575 641H445ZM237 641L263 763H393L367 641H237Z" />
<glyph unicode="&#xf0;" horiz-adv-x="650" d="M270 736H418Q476 696 517 640T580 517T602 379Q602 297 581 226T518 101T419 18T288 -12Q217 -12 163 16T79 96T49 217Q49 298 82 358T176 452T319 485Q396 485 445 451T515 345L483 225Q484 274 466 311T414 370T334
392Q281 392 244 370T189 310T171 223Q171 181 186 150T230 102T295 85Q344 85 379 112T436 183T470 278T481 376Q481 454 455 519T381 638T270 736ZM284 524L275 599L620 707L630 633L284 524Z" />
<glyph unicode="&#xf1;" horiz-adv-x="650" d="M401 0L474 344Q486 398 464 430T393 463Q338 463 287 424T187 301L194 419Q242 492 300 528T428 564Q488 564 530 538T590 463T595 351L520 0H401ZM16 0L133 552H247L228 435L135 0H16ZM292 623L207 637Q225 698
257 734T341 771Q373 771 398 760T444 736T484 724Q506 724 521 739T544 777L631 763Q611 703 578 666T493 629Q464 629 440 641T394 666T351 678Q330 678 315 662T292 623Z" />
<glyph unicode="&#xf2;" horiz-adv-x="650" d="M293 -12Q218 -12 163 17T77 100T46 227Q46 329 85 405T195 522T357 564Q433 564 488 535T573 452T603 326Q603 224 564 148T455 30T293 -12ZM297 86Q353 86 394 115T458 197T481 320Q481 387 446 426T354 466Q298
466 257 437T192 356T168 232Q168 189 184 157T229 105T297 86ZM445 616H351L276 786H393L445 616Z" />
<glyph unicode="&#xf3;" horiz-adv-x="650" d="M293 -12Q218 -12 163 17T77 100T46 227Q46 329 85 405T195 522T357 564Q433 564 488 535T573 452T603 326Q603 224 564 148T455 30T293 -12ZM297 86Q353 86 394 115T458 197T481 320Q481 387 446 426T354 466Q298
466 257 437T192 356T168 232Q168 189 184 157T229 105T297 86ZM307 615L427 785H555L411 615H307Z" />
<glyph unicode="&#xf4;" horiz-adv-x="650" d="M293 -12Q218 -12 163 17T77 100T46 227Q46 329 85 405T195 522T357 564Q433 564 488 535T573 452T603 326Q603 224 564 148T455 30T293 -12ZM297 86Q353 86 394 115T458 197T481 320Q481 387 446 426T354 466Q298
466 257 437T192 356T168 232Q168 189 184 157T229 105T297 86ZM450 616L606 786H735L822 616H713L661 723L567 616H450Z" />
<glyph unicode="&#xf5;" horiz-adv-x="650" d="M293 -12Q218 -12 163 17T77 100T46 227Q46 329 85 405T195 522T357 564Q433 564 488 535T573 452T603 326Q603 224 564 148T455 30T293 -12ZM297 86Q353 86 394 115T458 197T481 320Q481 387 446 426T354 466Q298
466 257 437T192 356T168 232Q168 189 184 157T229 105T297 86ZM528 623L443 637Q461 698 493 734T577 771Q609 771 634 760T680 736T720 724Q742 724 757 739T780 777L867 763Q847 703 814 666T729 629Q700 629 676 641T630 666T587 678Q566 678 551 662T528 623Z"
/>
<glyph unicode="&#xf6;" horiz-adv-x="650" d="M293 -12Q218 -12 163 17T77 100T46 227Q46 329 85 405T195 522T357 564Q433 564 488 535T573 452T603 326Q603 224 564 148T455 30T293 -12ZM297 86Q353 86 394 115T458 197T481 320Q481 387 446 426T354 466Q298
466 257 437T192 356T168 232Q168 189 184 157T229 105T297 86ZM682 641L708 763H838L812 641H682ZM474 641L500 763H630L604 641H474Z" />
<glyph unicode="&#xf7;" horiz-adv-x="650" d="M63 256L85 360H600L578 256H63ZM205 59L235 199H377L347 59H205ZM285 422L315 562H457L427 422H285Z" />
<glyph unicode="&#xf8;" horiz-adv-x="650" d="M103 -82L29 -31L541 628L615 577L103 -82ZM293 -12Q218 -12 163 17T77 100T46 227Q46 329 85 405T195 522T357 564Q433 564 488 535T573 452T603 326Q603 224 564 148T455 30T293 -12ZM297 86Q353 86 394 115T458
197T481 320Q481 387 446 426T354 466Q298 466 257 437T192 356T168 232Q168 189 184 157T229 105T297 86Z" />
<glyph unicode="&#xf9;" horiz-adv-x="650" d="M242 552L169 208Q157 154 179 122T250 89Q305 89 356 128T456 251L449 133Q401 60 343 24T215 -12Q155 -12 113 14T53 89T48 201L123 552H242ZM627 552L510 0H396L415 117L508 552H627ZM441 615H347L272 785H389L441 615Z" />
<glyph unicode="&#xfa;" horiz-adv-x="650" d="M242 552L169 208Q157 154 179 122T250 89Q305 89 356 128T456 251L449 133Q401 60 343 24T215 -12Q155 -12 113 14T53 89T48 201L123 552H242ZM627 552L510 0H396L415 117L508 552H627ZM302 870L422 1040H550L406 870H302Z" />
<glyph unicode="&#xfb;" horiz-adv-x="650" d="M242 552L169 208Q157 154 179 122T250 89Q305 89 356 128T456 251L449 133Q401 60 343 24T215 -12Q155 -12 113 14T53 89T48 201L123 552H242ZM627 552L510 0H396L415 117L508 552H627ZM445 615L601 785H730L817
615H708L656 722L562 615H445Z" />
<glyph unicode="&#xfc;" horiz-adv-x="650" d="M242 552L169 208Q157 154 179 122T250 89Q305 89 356 128T456 251L449 133Q401 60 343 24T215 -12Q155 -12 113 14T53 89T48 201L123 552H242ZM627 552L510 0H396L415 117L508 552H627ZM678 896L704 1018H834L808
896H678ZM470 896L496 1018H626L600 896H470Z" />
<glyph unicode="&#xfd;" horiz-adv-x="650" d="M271 303L294 158L369 287L535 552H662L283 -43Q248 -99 213 -131T139 -176T54 -190H-50L-30 -93H63Q90 -93 110 -82T149 -49T189 8L211 42L106 552H223L271 303ZM308 615L428 785H556L412 615H308Z" />
<glyph unicode="&#xfe;" horiz-adv-x="650" d="M407 564Q474 564 520 534T592 449T617 323Q617 258 596 198T535 91T437 16T304 -12Q249 -12 208 10T145 67L93 -178H-26L168 737H287L234 485Q270 522 312 543T407 564ZM303 87Q346 87 381 106T442 157T481 231T495
318Q495 385 464 425T373 465Q324 465 280 436T206 357L171 190Q181 143 216 115T303 87Z" />
<glyph unicode="&#xff;" horiz-adv-x="650" d="M271 303L294 158L369 287L535 552H662L283 -43Q248 -99 213 -131T139 -176T54 -190H-50L-30 -93H63Q90 -93 110 -82T149 -49T189 8L211 42L106 552H223L271 303ZM683 641L709 763H839L813 641H683ZM475 641L501
763H631L605 641H475Z" />
<glyph unicode="&#x2013;" horiz-adv-x="650" d="M49 257L72 361H615L593 257H49Z" />
<glyph unicode="&#x2014;" horiz-adv-x="1300" d="M131 256L153 360H1182L1161 256H131Z" />
<glyph unicode="&#x2018;" horiz-adv-x="650" d="M478 599L448 459H304L334 599L433 755H541L491 689L400 599H478Z" />
<glyph unicode="&#x2019;" horiz-adv-x="650" d="M313 616L343 756H487L457 616L358 460H250L300 526L391 616H313Z" />
<glyph unicode="&#x201a;" horiz-adv-x="650" d="M182 0L212 140H356L326 0L227 -156H119L169 -90L260 0H182Z" />
<glyph unicode="&#x201c;" horiz-adv-x="650" d="M373 600L343 460H199L229 600L328 756H436L386 690L295 600H373ZM567 600L537 460H393L423 600L522 756H630L580 690L489 600H567Z" />
<glyph unicode="&#x201d;" horiz-adv-x="650" d="M416 616L446 756H590L560 616L461 460H353L403 526L494 616H416ZM222 616L252 756H396L366 616L267 460H159L209 526L300 616H222Z" />
<glyph unicode="&#x201e;" horiz-adv-x="650" d="M285 0L315 140H459L429 0L330 -156H222L272 -90L363 0H285ZM347 0L377 140H521L491 0L392 -156H284L334 -90L425 0H347Z" />
<glyph unicode="&#x2022;" horiz-adv-x="650" d="M193 191L239 408H466L421 191H193Z" />
<glyph unicode="&#x2039;" horiz-adv-x="650" d="M285 63L189 271L374 481H498L308 268L405 63H285Z" />
<glyph unicode="&#x203a;" horiz-adv-x="650" d="M275 63H150L340 275L245 481H364L459 271L275 63Z" />
</font>
</defs>
</svg>
