<?xml version="1.0" standalone="no"?>
<!DOCTYPE svg PUBLIC "-//W3C//DTD SVG 1.1//EN" "http://www.w3.org/Graphics/SVG/1.1/DTD/svg11.dtd">
<svg xmlns="http://www.w3.org/2000/svg">
<defs >
<font id="AzeretMono" horiz-adv-x="685" ><font-face
    font-family="Azeret Mono Thin SemiBold"
    units-per-em="1000"
    panose-1="0 0 0 0 0 0 0 0 0 0"
    ascent="937"
    descent="-230"
    alphabetic="0" />
<glyph unicode=" " horiz-adv-x="650" />
<glyph unicode="!" horiz-adv-x="650" d="M259 208L309 579L334 698H494L469 579L362 208H259ZM185 0L218 157H379L346 0H185Z" />
<glyph unicode="&quot;" horiz-adv-x="650" d="M412 465L458 759H606L528 465H412ZM459 465L505 759H653L575 465H459Z" />
<glyph unicode="#" horiz-adv-x="650" d="M223 0L563 700H685L344 0H223ZM-22 164L35 283H584L526 164H-22ZM-3 0L338 700H460L119 0H-3ZM95 408L152 526H700L643 408H95Z" />
<glyph unicode="$" horiz-adv-x="650" d="M335 680L360 797H497L472 680H335ZM169 -99L195 20H332L306 -99H169ZM310 -12Q224 -12 163 21T71 113T46 252H189Q188 185 220 147T320 108Q352 108 375 119T412 151T426 197Q426 222 409 240T364 271T302 297T234 325T172
363T126 418T109 495Q109 560 141 608T233 683T379 710Q452 710 509 682T598 603T629 480H484Q482 530 450 560T368 590Q338 590 315 580T278 551T264 508Q264 482 281 466T326 437T389 412T456 384T518 346T563 291T580 210Q580 140 545 90T449 14T310 -12Z" />
<glyph unicode="%" horiz-adv-x="650" d="M-18 0L572 698H682L92 0H-18ZM445 -12Q390 -12 355 25T320 118Q320 174 340 222T400 302T497 333Q552 333 587 295T623 200Q623 147 602 98T542 19T445 -12ZM454 76Q471 76 484 88T505 120T518 159T523 194Q523 217 514
231T487 245Q471 245 459 232T438 199T425 159T420 125Q420 102 429 89T454 76ZM185 367Q130 367 95 404T59 497Q59 553 80 601T140 681T236 712Q292 712 327 674T362 579Q362 526 342 478T282 398T185 367ZM194 455Q211 455 223 467T245 499T258 538T262 573Q262
596 253 610T227 624Q210 624 198 611T177 578T165 538T160 504Q160 481 169 468T194 455Z" />
<glyph unicode="&amp;" horiz-adv-x="650" d="M206 -12Q146 -12 100 12T29 78T4 177Q4 246 45 299T165 387Q141 423 128 457T114 528Q114 577 137 618T207 685T322 710Q380 710 422 689T487 633T511 552Q511 505 493 468T439 402T352 351L431 235Q450 260 467
292T496 354H636Q609 294 574 238T496 135L586 0H423L391 48Q353 22 308 5T206 -12ZM226 106Q254 106 282 115T331 140L225 297Q197 284 177 268T147 232T137 188Q137 150 161 128T226 106ZM292 440Q323 453 342 468T371 501T381 539Q381 562 366 579T322 597Q291
597 273 580T254 529Q254 505 265 484T292 440Z" />
<glyph unicode="&apos;" horiz-adv-x="650" d="M307 463L353 757H501L423 463H307Z" />
<glyph unicode="(" horiz-adv-x="650" d="M254 -98Q229 -33 217 37T205 166Q205 316 253 444T412 698H563Q451 575 398 443T344 163Q344 104 355 34T393 -98H254Z" />
<glyph unicode=")" horiz-adv-x="650" d="M249 -98H98Q210 25 263 157T317 437Q317 496 305 566T267 698H406Q431 632 443 563T455 434Q455 285 407 157T249 -98Z" />
<glyph unicode="*" horiz-adv-x="650" d="M233 377L177 462L295 526L187 602L250 679L345 596L389 717L488 681L444 560L571 562L570 463L438 474L490 349L390 320L348 447L233 377Z" />
<glyph unicode="+" horiz-adv-x="650" d="M63 247L88 367H599L575 247H63ZM217 50L326 563H445L336 50H217Z" />
<glyph unicode="," horiz-adv-x="650" d="M185 0L218 156H379L346 0L222 -186H96L159 -110L270 2L185 0Z" />
<glyph unicode="-" horiz-adv-x="650" d="M156 248L182 368H507L481 248H156Z" />
<glyph unicode="." horiz-adv-x="650" d="M185 0L219 157H380L347 0H185Z" />
<glyph unicode="/" horiz-adv-x="650" d="M-20 -98L537 700H682L124 -98H-20Z" />
<glyph unicode="0" horiz-adv-x="650" d="M266 -12Q197 -12 148 17T74 101T49 230Q49 319 75 405T149 560T264 669T415 710Q485 710 533 682T607 599T632 470Q632 380 607 295T533 140T418 29T266 -12ZM291 108Q328 108 359 131T413 191T452 276T475 373T483 467Q483
527 460 558T390 590Q353 590 323 568T269 507T230 421T207 325T199 233Q199 172 222 140T291 108Z" />
<glyph unicode="1" horiz-adv-x="650" d="M230 0L313 388L351 529L227 445L74 341L110 507L418 698H524L376 0H230ZM2 0L28 120H562L536 0H2Z" />
<glyph unicode="2" horiz-adv-x="650" d="M11 0L32 101Q148 172 231 229T367 333T445 419T471 494Q471 537 446 563T375 589Q343 589 315 575T268 533T247 461H103Q111 542 150 597T251 681T390 710Q494 710 557 656T620 506Q620 444 592 392T513 293T397 204T255
120H556L530 0H11Z" />
<glyph unicode="3" horiz-adv-x="650" d="M300 -12Q211 -12 154 23T71 115T56 240H200Q195 197 208 168T247 125T308 111Q362 111 393 138T424 209Q424 252 392 275T308 299H272L298 418H336Q369 418 396 430T438 465T453 516Q453 549 431 569T369 589Q320 589
288 559T253 477H108Q114 548 148 600T241 681T376 710Q445 710 495 688T574 624T603 528Q603 466 562 424T460 367Q494 360 519 337T559 282T574 215Q574 147 541 96T447 17T300 -12Z" />
<glyph unicode="4" horiz-adv-x="650" d="M301 0L334 157H4L26 257L398 698H599L509 277H622L596 157H484L451 0H301ZM184 277H360L393 432L430 576L334 457L184 277Z" />
<glyph unicode="5" horiz-adv-x="650" d="M296 -11Q219 -11 165 18T82 96T57 200H201Q202 172 215 152T251 120T305 109Q344 109 374 129T421 185T438 262Q438 291 427 315T394 352T342 366Q303 366 271 347T216 301H83L227 698H641L616 578H322L265 430Q293 456
329 471T410 487Q464 487 503 462T565 392T588 284Q588 197 551 131T449 27T296 -11Z" />
<glyph unicode="6" horiz-adv-x="650" d="M402 456Q455 456 497 432T565 362T591 255Q591 175 555 115T455 22T305 -12Q231 -12 176 20T90 112T59 252Q59 313 74 377T118 500T189 606T288 682T412 710Q483 710 532 686T608 618T640 515H491Q487 550 466 570T408
590Q364 590 330 565T273 497T237 396Q275 426 314 441T402 456ZM312 108Q350 108 378 125T422 173T438 245Q438 293 413 315T345 337Q310 337 275 322T210 276Q202 200 230 154T312 108Z" />
<glyph unicode="7" horiz-adv-x="650" d="M150 0Q172 99 209 186T293 346T392 478T496 578H126L151 698H693L671 598Q579 520 515 447T409 301T341 154T296 0H150ZM151 698H288L234 440H97L151 698Z" />
<glyph unicode="8" horiz-adv-x="650" d="M287 -12Q213 -12 160 11T77 78T47 178Q47 219 67 257T125 325T214 374H466Q495 362 518 338T554 283T568 217Q568 152 532 100T432 18T287 -12ZM291 108Q328 108 356 122T401 159T417 212Q417 249 391 273T325 299Q288
297 260 283T215 244T199 189Q199 154 224 131T291 108ZM348 409Q384 411 411 425T453 462T469 516Q469 549 445 571T384 593Q330 593 299 565T268 490Q268 459 290 436T348 409ZM222 347Q193 360 169 382T132 432T118 487Q118 554 153 604T249 682T388 710Q457
710 509 688T590 624T619 527Q619 483 599 449T544 389T464 347H222Z" />
<glyph unicode="9" horiz-adv-x="650" d="M284 242Q231 242 189 266T121 336T95 443Q95 523 131 583T231 676T381 710Q455 710 510 678T596 586T627 446Q627 385 612 321T568 198T497 92T398 16T274 -12Q203 -12 154 12T78 80T46 183H195Q199 148 220 128T278
108Q322 108 356 133T413 201T449 302Q411 272 372 257T284 242ZM374 590Q336 590 308 573T264 525T248 453Q248 405 273 383T341 361Q376 361 411 376T476 422Q484 498 456 544T374 590Z" />
<glyph unicode=":" horiz-adv-x="650" d="M257 348L291 505H452L419 348H257ZM185 0L219 157H380L347 0H185Z" />
<glyph unicode=";" horiz-adv-x="650" d="M179 0L215 166H386L350 0L229 -188H103L265 0H179ZM257 347L290 503H452L418 347H257Z" />
<glyph unicode="&lt;" horiz-adv-x="650" d="M535 61L59 247L85 367L640 553L613 418L232 300L562 181L535 61Z" />
<glyph unicode="=" horiz-adv-x="650" d="M85 361L110 481H625L600 361H85ZM36 129L61 249H576L551 129H36Z" />
<glyph unicode="&gt;" horiz-adv-x="650" d="M16 61L45 194L425 313L96 431L121 553L597 367L570 247L16 61Z" />
<glyph unicode="?" horiz-adv-x="650" d="M262 206L265 226Q271 268 289 297T331 348T382 385T430 420T467 460T482 514Q482 553 456 575T387 598Q325 598 292 558T258 461H119Q123 536 158 592T253 679T392 710Q464 710 516 686T596 620T624 523Q624 471 610
436T571 379T519 339T465 307T419 273T393 226L388 206H262ZM206 0L239 157H401L367 0H206Z" />
<glyph unicode="@" horiz-adv-x="650" d="M256 -172Q190 -172 143 -145T67 -69T24 45T10 186Q10 257 25 330T71 471T148 592T257 677T395 709Q469 709 527 672T619 566T653 403Q653 363 646 318T624 227T583 144T520 84T430 61H329L331 123Q319 91 298 72T249
52Q211 52 189 91T166 210Q166 243 172 281T190 355T222 421T267 469T325 487Q353 487 371 468T393 415L410 479H505L435 151H450Q470 151 486 168T513 211T532 271T544 336T548 396Q548 467 527 515T469 587T387 612Q334 612 292 585T217 514T163 414T130 302T119
192Q119 116 135 56T183 -40T264 -75H420L339 -172H256ZM302 178Q319 178 332 193T353 239L367 301Q370 323 362 342T335 362Q318 362 307 347T288 309T277 264T274 228Q274 206 281 192T302 178Z" />
<glyph unicode="A" horiz-adv-x="650" d="M103 148L129 268H533L508 148H103ZM306 698H521L564 0H420L400 419L396 594L316 419L118 0H-31L306 698Z" />
<glyph unicode="B" horiz-adv-x="650" d="M503 356Q547 341 573 308T599 227Q599 155 558 104T449 27T299 0H13L161 698H427Q494 698 542 676T616 617T643 533Q643 492 625 458T576 397T503 356ZM403 578H281L246 412H371Q407 412 434 424T476 457T491 507Q491
538 468 558T403 578ZM184 120H320Q377 120 411 147T446 219Q446 252 421 272T352 292H220L184 120Z" />
<glyph unicode="C" horiz-adv-x="650" d="M307 -12Q222 -12 163 23T72 123T40 270Q40 368 65 448T138 587T253 678T405 710Q480 710 537 682T628 599T660 466H501Q498 526 471 558T392 590Q341 590 303 562T241 488T204 387T192 278Q192 230 205 192T246 131T315
108Q372 108 410 142T462 237H621Q605 161 565 105T461 19T307 -12Z" />
<glyph unicode="D" horiz-adv-x="650" d="M0 0L148 698H367Q433 698 484 677T570 618T624 529T642 419Q642 328 612 251T528 118T397 31T230 0H0ZM171 120H254Q309 120 353 144T427 210T474 304T490 414Q490 486 453 532T343 578H269L171 120Z" />
<glyph unicode="E" horiz-adv-x="650" d="M18 0L166 698H677L652 578H286L252 421H494L469 301H227L189 120H559L533 0H18Z" />
<glyph unicode="F" horiz-adv-x="650" d="M9 0L157 698H677L652 578H277L244 421H494L468 301H218L154 0H9Z" />
<glyph unicode="G" horiz-adv-x="650" d="M302 -12Q218 -12 157 23T64 121T31 269Q31 360 53 440T122 581T236 676T396 710Q478 710 535 679T623 592T651 466H492Q491 517 466 553T384 590Q330 590 292 561T230 485T195 384T183 278Q183 227 198 189T241 129T309
108Q351 108 383 121T445 158L467 257L363 252L393 374H634L580 117Q542 77 501 48T412 4T302 -12Z" />
<glyph unicode="H" horiz-adv-x="650" d="M396 0L544 698H690L542 0H396ZM-8 0L140 698H285L137 0H-8ZM185 301L210 421H501L475 301H185Z" />
<glyph unicode="I" horiz-adv-x="650" d="M193 0L341 698H487L338 0H193ZM176 698H651L626 578H151L176 698ZM54 120H529L503 0H28L54 120Z" />
<glyph unicode="J" horiz-adv-x="650" d="M35 0L61 120H306Q355 120 378 141T411 205L516 698H661L554 193Q545 150 529 114T485 53T415 14T313 0H35ZM271 698H649L624 578H246L271 698Z" />
<glyph unicode="K" horiz-adv-x="650" d="M0 0L148 698H293L257 529L216 397L336 522L526 698H703L192 220L145 0H0ZM402 0L260 382L394 452L567 0H402Z" />
<glyph unicode="L" horiz-adv-x="650" d="M33 0L181 698H327L204 120H552L526 0H33Z" />
<glyph unicode="M" horiz-adv-x="650" d="M-40 0L157 698H330L318 347L307 214L354 347L494 698H672L574 0H433L496 361L535 545L467 361L323 0H208L215 361L228 548L187 361L97 0H-40Z" />
<glyph unicode="N" horiz-adv-x="650" d="M-2 0L146 698H321L447 182L488 423L547 698H684L536 0H361L231 509L193 275L135 0H-2Z" />
<glyph unicode="O" horiz-adv-x="650" d="M283 -12Q212 -12 156 19T67 110T34 255Q34 343 57 424T127 570T241 672T400 710Q471 710 527 680T615 591T648 444Q648 356 625 275T556 129T441 26T283 -12ZM299 108Q348 108 384 138T446 218T483 326T496 438Q496 513
466 551T383 590Q334 590 298 560T236 482T198 375T185 261Q185 212 199 178T239 126T299 108Z" />
<glyph unicode="P" horiz-adv-x="650" d="M161 231L187 351H355Q398 351 431 367T483 412T502 480Q502 518 477 548T405 578H235L260 698H421Q496 698 547 668T626 590T654 486Q654 424 629 376T559 296T456 248T329 231H161ZM8 0L156 698H302L154 0H8Z" />
<glyph unicode="Q" horiz-adv-x="650" d="M279 -12Q199 -12 142 21T54 115T24 259Q24 354 48 436T120 579T235 675T388 710Q469 710 525 677T609 584T638 440Q638 387 626 336T592 237T537 152T464 85L542 104L612 109L559 -12H279ZM290 108Q333 108 369 133T432
204T472 308T486 434Q486 484 473 518T434 571T372 590Q328 590 292 565T230 496T190 392T176 265Q176 184 209 146T290 108Z" />
<glyph unicode="R" horiz-adv-x="650" d="M174 270L199 390H366Q429 390 465 419T501 497Q501 534 476 556T409 578H240L265 698H433Q500 698 550 674T627 608T654 506Q654 453 633 409T571 335T475 287T349 270H174ZM12 0L160 698H305L157 0H12ZM422 0Q421 70
398 129T330 235T216 312L376 345Q443 307 486 254T550 137T572 0H422Z" />
<glyph unicode="S" horiz-adv-x="650" d="M310 -12Q224 -12 163 21T71 113T46 252H189Q188 185 220 147T320 108Q352 108 375 119T412 151T426 197Q426 222 409 240T364 271T302 297T234 325T172 363T126 418T109 495Q109 560 141 608T233 683T379 710Q452 710
509 682T598 603T629 480H484Q482 530 450 560T368 590Q338 590 315 580T278 551T264 508Q264 482 281 466T326 437T389 412T456 384T518 346T563 291T580 210Q580 140 545 90T449 14T310 -12Z" />
<glyph unicode="T" horiz-adv-x="650" d="M193 0L316 578H105L130 698H698L673 578H462L338 0H193Z" />
<glyph unicode="U" horiz-adv-x="650" d="M290 -12Q202 -12 139 21T49 114T39 258L133 698H278L183 249Q174 206 186 175T227 127T298 109Q340 109 372 126T425 175T455 249L551 698H696L601 249Q584 171 545 112T442 21T290 -12Z" />
<glyph unicode="V" horiz-adv-x="650" d="M159 0L117 698H260L287 285V114L357 285L561 698H713L374 0H159Z" />
<glyph unicode="W" horiz-adv-x="650" d="M27 0L105 698H243L194 354L158 151L225 354L356 698H468L456 354L438 151L489 354L584 698H725L504 0H331L347 295L368 471L314 295L209 0H27Z" />
<glyph unicode="X" horiz-adv-x="650" d="M-36 0L259 357L120 698H277L314 602L363 461L450 585L540 698H710L426 359L571 0H414L372 111L323 251L235 127L132 0H-36Z" />
<glyph unicode="Y" horiz-adv-x="650" d="M191 0L251 282L115 698H268L320 543L347 404L434 541L554 698H713L397 282L337 0H191Z" />
<glyph unicode="Z" horiz-adv-x="650" d="M-11 0L11 101L372 479L478 578H329H125L150 698H688L667 598L307 219L201 120H350H566L540 0H-11Z" />
<glyph unicode="[" horiz-adv-x="650" d="M123 -98L293 700H430L260 -98H123ZM169 -98L192 9H421L398 -98H169ZM316 593L339 700H567L544 593H316Z" />
<glyph unicode="\" horiz-adv-x="650" d="M508 -98H371L152 698H289L508 -98Z" />
<glyph unicode="]" horiz-adv-x="650" d="M368 -98H231L401 700H538L368 -98ZM322 -98H93L116 9H345L322 -98ZM468 593H240L263 700H492L468 593Z" />
<glyph unicode="^" horiz-adv-x="650" d="M107 348L360 698H471L575 348H449L391 551L246 348H107Z" />
<glyph unicode="_" horiz-adv-x="650" d="M-1 -119V0H513V-119H-1Z" />
<glyph unicode="`" horiz-adv-x="650" d="M512 615H405L327 786H460L512 615Z" />
<glyph unicode="a" horiz-adv-x="650" d="M386 0L403 108L455 349Q463 385 451 412T411 453T344 467Q292 467 257 446T213 377H79Q86 434 123 476T219 542T351 566Q434 566 493 537T577 455T588 330L518 0H386ZM231 -12Q181 -12 141 8T77 64T54 145Q54 214 87
255T177 314T301 332H466L445 235H295Q248 235 221 215T194 160Q194 131 214 115T268 98Q317 98 357 124T431 198L427 102Q389 43 344 16T231 -12Z" />
<glyph unicode="b" horiz-adv-x="650" d="M393 566Q457 566 505 540T580 463T607 345Q607 263 585 198T522 85T426 13T303 -12Q256 -12 214 8T146 63L130 0H-2L155 738H291L242 503Q271 535 311 550T393 566ZM292 102Q340 102 379 130T443 209T467 331Q467 387
441 419T361 452Q308 452 272 425T209 351L177 201Q186 156 217 129T292 102Z" />
<glyph unicode="c" horiz-adv-x="650" d="M305 -12Q232 -12 175 19T84 106T50 237Q50 310 72 369T137 473T238 542T369 566Q437 566 492 540T579 467T608 353H470Q467 401 438 427T362 453Q318 453 286 434T233 385T202 318T191 245Q191 171 226 135T311 99Q365
99 401 125T451 197H589Q573 133 535 86T439 14T305 -12Z" />
<glyph unicode="d" horiz-adv-x="655" d="M344 566Q390 566 436 550T508 503L559 738H696L539 0H407L417 63Q387 29 351 9T270 -12Q197 -12 147 20T71 105T45 220Q45 293 65 356T123 467T218 540T344 566ZM296 102Q342 102 380 130T445 203L477 353Q469 398 436
425T355 452Q306 452 268 424T207 347T185 233Q185 194 198 165T237 119T296 102Z" />
<glyph unicode="e" horiz-adv-x="650" d="M298 -12Q226 -12 168 17T77 100T44 231Q44 302 64 362T125 469T224 540T359 566Q450 566 508 529T589 424T595 265H152L174 362H463Q464 404 437 431T353 458Q290 458 253 426T200 343T184 238Q184 198 198 167T241 117T307
99Q369 99 404 125T450 192H588Q571 129 534 83T439 13T298 -12Z" />
<glyph unicode="f" horiz-adv-x="650" d="M178 0L312 630Q330 714 385 757T534 801H705L682 690H546Q505 690 481 676T444 612L314 0H178ZM154 443L178 554H580L556 443H154ZM13 0L37 111H547L524 0H13Z" />
<glyph unicode="g" horiz-adv-x="650" d="M500 489L517 554H648L539 35Q514 -81 439 -135T252 -190Q179 -190 123 -171T35 -113T3 -12H145Q147 -47 177 -62T257 -78Q324 -78 356 -49T400 34L412 92Q383 58 348 42T269 25Q199 25 150 56T75 138T49 250Q49 321 69
379T128 479T221 542T344 565Q393 565 435 545T500 489ZM301 131Q350 131 384 160T444 238L468 356Q463 403 431 431T347 459Q297 459 262 432T208 361T189 264Q189 203 218 167T301 131Z" />
<glyph unicode="h" horiz-adv-x="650" d="M388 0L461 343Q472 392 453 421T391 451Q342 451 297 417T201 308L207 433Q257 502 312 534T429 566Q492 566 535 539T596 464T601 351L526 0H388ZM10 0L167 738H304L148 0H10Z" />
<glyph unicode="i" horiz-adv-x="650" d="M199 0L317 554H454L337 0H199ZM12 0L35 111H545L521 0H12ZM176 443L200 554H386L362 443H176ZM331 636L360 769H508L479 636H331Z" />
<glyph unicode="j" horiz-adv-x="650" d="M539 554L421 -5Q405 -82 359 -130T222 -178H-27L-3 -67H178Q224 -67 250 -52T287 11L402 554H539ZM261 443L285 554H471L447 443H261ZM416 636L445 769H593L564 636H416Z" />
<glyph unicode="k" horiz-adv-x="650" d="M-8 0L149 738H287L235 493L192 337L313 447L446 554H631L169 183L130 0H-8ZM363 0L250 326L377 378L514 0H363Z" />
<glyph unicode="l" horiz-adv-x="650" d="M197 0L354 738H492L335 0H197ZM10 0L34 111H548L525 0H10ZM214 627L237 738H423L399 627H214Z" />
<glyph unicode="m" horiz-adv-x="650" d="M422 0L505 395Q511 423 505 438T479 454Q452 454 425 417T368 293L375 371Q391 462 436 514T545 566Q578 566 602 550T635 499T633 409L546 0H422ZM-13 0L104 554H224L205 450L110 0H-13ZM204 0L288 395Q294 425 287
439T261 454Q231 454 204 414T150 293L167 376Q178 435 203 477T262 543T331 566Q381 566 405 526T415 411L328 0H204Z" />
<glyph unicode="n" horiz-adv-x="650" d="M388 0L461 343Q471 392 452 421T391 451Q342 451 297 417T201 308L207 433Q257 502 311 534T433 566Q493 566 535 539T596 464T601 351L526 0H388ZM10 0L128 554H260L242 446L148 0H10Z" />
<glyph unicode="o" horiz-adv-x="650" d="M295 -12Q217 -12 161 17T73 101T42 228Q42 331 82 407T192 524T356 566Q433 566 489 537T576 453T607 326Q607 224 568 148T458 30T295 -12ZM298 100Q349 100 387 127T446 204T467 321Q467 381 436 417T352 454Q302 454
264 427T204 350T183 233Q183 194 197 164T238 117T298 100Z" />
<glyph unicode="p" horiz-adv-x="650" d="M394 566Q464 566 511 537T582 457T606 336Q606 263 586 200T526 89T431 15T302 -12Q257 -12 215 7T148 60L97 -178H-41L115 554H248L237 492Q267 526 308 546T394 566ZM291 102Q344 102 383 132T444 214T466 322Q466
357 457 386T425 434T362 452Q317 452 277 425T210 353L177 199Q185 154 215 128T291 102Z" />
<glyph unicode="q" horiz-adv-x="650" d="M341 566Q388 566 432 547T502 494L520 554H653L497 -178H359L411 62Q381 28 345 8T263 -12Q193 -12 143 16T67 96T40 217Q40 287 59 350T117 461T211 538T341 566ZM287 102Q331 102 372 129T440 202L472 353Q465 398
433 425T352 452Q301 452 262 422T202 340T180 227Q180 169 207 136T287 102Z" />
<glyph unicode="r" horiz-adv-x="650" d="M457 290L472 360Q481 401 464 426T404 451Q353 451 303 416T202 299L212 420Q247 468 283 500T359 549T446 566Q504 566 546 543T606 474T610 360L595 290H457ZM24 0L142 554H273L257 446L162 0H24Z" />
<glyph unicode="s" horiz-adv-x="650" d="M311 -12Q258 -12 212 2T132 43T78 109T58 198H194Q195 148 227 119T316 89Q364 89 389 107T414 152Q414 176 393 191T337 217T266 239T194 268T139 314T117 388Q117 443 147 483T232 545T359 566Q426 566 479 545T564
482T598 381H462Q459 423 429 444T354 465Q309 465 284 448T258 401Q258 377 279 362T335 337T406 314T477 285T532 238T554 162Q554 109 525 70T442 10T311 -12Z" />
<glyph unicode="t" horiz-adv-x="650" d="M313 0Q258 0 223 24T175 91T173 189L272 651L423 716L311 189Q306 164 309 147T327 120T372 111H538L514 0H313ZM111 443L134 554H536L512 443H111Z" />
<glyph unicode="u" horiz-adv-x="650" d="M254 554L181 211Q171 162 190 133T251 103Q300 103 345 137T441 246L435 121Q385 52 331 20T209 -12Q149 -12 107 15T46 90T41 203L116 554H254ZM632 554L514 0H382L400 108L494 554H632Z" />
<glyph unicode="v" horiz-adv-x="650" d="M187 0L101 554H239L280 256L288 122L353 256L520 554H666L345 0H187Z" />
<glyph unicode="w" horiz-adv-x="650" d="M40 0L78 555H197L172 262L159 139L206 262L320 555H441L436 262L429 136L469 262L568 555H691L494 0H336L339 273L358 429L309 273L197 0H40Z" />
<glyph unicode="x" horiz-adv-x="650" d="M409 271L530 0H386L353 74L306 183L213 70L150 0H-4L240 289L121 554H264L296 488L343 377L437 490L494 554H648L409 271Z" />
<glyph unicode="y" horiz-adv-x="650" d="M277 332L300 186L374 317L522 554H668L294 -35Q257 -93 220 -126T141 -175T49 -190H-57L-34 -79H59Q86 -79 106 -67T145 -33T183 20L204 52L100 554H236L277 332Z" />
<glyph unicode="z" horiz-adv-x="650" d="M29 0L50 100L310 348L420 443H271H135L159 554H620L599 456L337 206L226 111H375H526L502 0H29Z" />
<glyph unicode="{" horiz-adv-x="650" d="M356 -98Q304 -98 261 -76T197 -9T190 99L205 171Q213 211 199 230T153 253L174 350Q208 352 229 367T258 422L278 520Q290 579 321 618T398 678T495 698H570L548 591H518Q478 591 450 572T413 510L394 420Q386 376 365
348T315 303T248 277L257 312Q289 301 311 284T342 241T342 174L328 109Q318 60 337 35T396 9H424L401 -98H356Z" />
<glyph unicode="|" horiz-adv-x="650" d="M153 -190L350 739H495L298 -190H153Z" />
<glyph unicode="}" horiz-adv-x="650" d="M137 -98H88L111 9H143Q183 9 210 27T247 91L264 174Q272 214 292 240T342 284T407 312L401 277Q369 286 346 303T315 348T316 420L333 499Q342 542 323 566T264 591H235L258 698H322Q375 698 413 677T468 612T470 498L453
422Q444 383 458 368T506 350L486 253Q455 250 432 231T399 171L380 82Q368 24 335 -16T251 -77T137 -98Z" />
<glyph unicode="~" horiz-adv-x="650" d="M433 211Q399 211 370 222T317 248T270 275T226 287Q196 287 179 268T153 214H35Q45 274 73 316T142 380T230 403Q265 403 293 392T347 365T394 339T437 327Q466 327 483 346T510 399H628Q619 340 591 298T522 233T433 211Z" />
<glyph unicode="&#xa0;" horiz-adv-x="650" />
<glyph unicode="&#xa1;" horiz-adv-x="650" d="M299 554H469L434 388H264L299 554ZM392 346L342 -25L317 -144H156L181 -25L289 346H392Z" />
<glyph unicode="&#xa2;" horiz-adv-x="650" d="M302 529L329 655H465L439 529H302ZM169 -97L193 18H330L306 -97H169ZM305 -12Q232 -12 175 19T84 106T50 237Q50 310 72 369T137 473T238 542T369 566Q437 566 492 540T579 467T608 353H470Q467 401 438 427T362
453Q318 453 286 434T233 385T202 318T191 245Q191 171 226 135T311 99Q365 99 401 125T451 197H589Q573 133 535 86T439 14T305 -12Z" />
<glyph unicode="&#xa3;" horiz-adv-x="650" d="M22 0L48 120Q92 147 121 170T166 219T182 277Q182 304 173 336T155 405T146 482Q146 544 174 596T257 679T387 710Q458 710 507 683T582 606T606 484H463Q464 532 446 561T381 590Q348 590 328 575T299 537T290
486Q290 454 298 417T313 345T321 281Q321 234 299 200T240 138T158 88L148 120H533L507 0H22ZM80 292L101 390H534L514 292H80Z" />
<glyph unicode="&#xa4;" horiz-adv-x="650" d="M152 451L22 592L116 688L257 537L152 451ZM116 -19L22 77L152 218L255 131L116 -19ZM558 -19L418 132L521 219L652 77L558 -19ZM522 451L417 541L558 688L652 592L522 451ZM340 42Q258 42 195 80T97 185T61 335Q61
417 96 483T195 587T340 626Q422 626 485 588T583 483T619 335Q619 251 584 185T485 81T340 42ZM339 157Q382 157 416 179T469 242T489 335Q489 387 470 427T416 489T339 512Q297 512 263 490T210 427T191 335Q191 283 210 243T263 180T339 157Z" />
<glyph unicode="&#xa5;" horiz-adv-x="650" d="M67 263L88 362H593L573 263H67ZM191 0L251 282L115 698H268L320 543L347 404L434 541L554 698H713L397 282L337 0H191Z" />
<glyph unicode="&#xa6;" horiz-adv-x="650" d="M270 363L350 739H495L415 363H270ZM153 -190L232 185H377L298 -190H153Z" />
<glyph unicode="&#xa7;" horiz-adv-x="650" d="M277 -190Q187 -190 130 -157T45 -68T19 51H161Q161 -8 190 -44T283 -80Q317 -80 339 -70T373 -41T385 2Q385 29 368 45T324 71T262 90T195 110T133 138T88 183T71 253Q71 292 92 331T152 396Q133 415 119 445T105
510Q105 575 140 619T235 687T366 710Q435 710 492 685T583 613T618 499H473Q471 546 439 573T360 601Q314 601 287 582T259 529Q259 503 276 487T322 460T385 440T453 419T515 390T561 345T579 275Q579 227 559 191T501 125Q513 110 526 88T539 24Q539 -39 507
-87T415 -163T277 -190ZM394 186Q408 201 416 216T425 251Q425 273 410 286T370 309T315 327T254 345Q237 331 228 314T218 278Q218 260 228 248T256 227T297 212T345 200T394 186Z" />
<glyph unicode="&#xa8;" horiz-adv-x="650" d="M526 637L555 770H702L674 637H526ZM304 637L332 770H480L451 637H304Z" />
<glyph unicode="&#xa9;" horiz-adv-x="650" d="M342 152Q296 152 260 178T204 249T184 353Q184 412 204 457T261 529T344 554Q400 553 438 513T482 410H402Q398 442 381 463T340 484Q307 484 286 448T265 355Q265 297 285 260T340 222Q367 222 384 243T405 298H483Q478
235 439 194T342 152ZM341 -12Q251 -12 182 34T74 162T34 349Q34 454 73 535T182 663T341 710Q431 710 500 664T608 536T648 349Q648 244 609 163T500 35T341 -12ZM340 58Q407 58 458 95T538 198T567 349Q567 434 538 500T458 603T340 640Q274 640 223 603T144
500T115 349Q115 264 143 199T223 96T340 58Z" />
<glyph unicode="&#xaa;" horiz-adv-x="650" d="M399 332L414 415L446 564Q453 600 436 618T384 636Q351 636 331 621T304 578H210Q220 636 267 671T385 707Q435 707 474 690T533 638T540 551L493 332H399ZM304 324Q273 324 248 337T207 373T192 429Q192 476 216
504T282 546T373 560H454L438 489L357 488Q327 488 310 476T293 441Q293 423 306 412T342 400Q380 400 403 426T448 497L451 440Q429 376 392 350T304 324Z" />
<glyph unicode="&#xab;" horiz-adv-x="650" d="M424 62L327 272L513 484H656L464 268L562 62H424ZM382 62L285 272L471 484H614L422 268L520 62H382Z" />
<glyph unicode="&#xac;" horiz-adv-x="650" d="M412 114L464 367H601L549 114H412ZM61 247L86 367H601L576 247H61Z" />
<glyph unicode="&#xad;" horiz-adv-x="650" d="M156 248L182 368H507L481 248H156Z" />
<glyph unicode="&#xae;" horiz-adv-x="650" d="M329 477V528H382Q395 528 403 536T411 555Q411 567 404 573T383 580H329V631H384Q427 631 451 612T475 555Q475 521 448 499T382 477H329ZM290 405V631H352V405H290ZM413 405Q411 418 406 434T388 466T347 492L405
510Q436 491 454 466T478 405H413ZM374 292Q307 292 255 322T173 402T143 517Q143 579 172 630T254 710T374 740Q443 740 495 711T576 631T606 517Q606 453 577 403T495 322T374 292ZM373 343Q422 343 460 365T521 427T543 517Q543 568 521 606T461 667T373 690Q325
690 287 668T228 607T206 517Q206 466 227 427T287 366T373 343Z" />
<glyph unicode="&#xaf;" horiz-adv-x="651" d="M327 652L348 754H699L678 652H327Z" />
<glyph unicode="&#xb0;" horiz-adv-x="650" d="M355 366Q318 366 290 383T246 429T229 497Q229 552 250 601T310 680T406 711Q444 711 472 694T516 647T532 578Q532 525 512 477T452 397T355 366ZM364 454Q381 454 393 467T415 499T428 538T432 572Q432 596 423
609T397 623Q380 623 368 610T347 577T335 537T330 503Q330 480 339 467T364 454Z" />
<glyph unicode="&#xb1;" horiz-adv-x="650" d="M81 337L107 456H619L593 337H81ZM240 165L337 625H460L362 165H240ZM9 0L34 120H549L524 0H9Z" />
<glyph unicode="&#xb2;" horiz-adv-x="650" d="M159 301L175 377Q246 420 296 453T377 515T423 568T438 618Q438 638 426 651T389 664Q360 664 344 645T327 591H217Q226 667 270 711T399 755Q444 755 479 739T535 694T556 625Q556 577 528 537T452 461T347 392H519L501
301H159Z" />
<glyph unicode="&#xb3;" horiz-adv-x="650" d="M358 295Q279 295 234 340T191 460H300Q298 426 315 407T362 387Q389 387 406 402T423 444Q423 468 406 481T360 494H338L355 571H378Q409 571 425 586T441 627Q441 645 428 655T394 666Q368 666 352 650T333 606H223Q233
675 282 716T402 757Q448 757 482 742T536 700T555 636Q555 598 533 569T472 528Q502 522 519 497T536 436Q536 373 487 334T358 295Z" />
<glyph unicode="&#xb4;" horiz-adv-x="650" d="M440 615L560 786H706L560 615H440Z" />
<glyph unicode="&#xb5;" horiz-adv-x="650" d="M-42 -190L60 286L196 289L154 92L137 68L82 -190H-42ZM254 554L181 211Q171 163 190 133T252 103Q300 103 345 137T442 246L435 121Q386 52 332 20T209 -12Q151 -12 108 15T47 90T42 203L117 554H254ZM632 554L515
0H382L400 108L495 554H632Z" />
<glyph unicode="&#xb6;" horiz-adv-x="650" d="M158 -190L253 257Q171 264 124 314T77 440Q77 518 113 575T211 665T355 698H469L281 -190H158ZM373 -190L561 698H684L496 -190H373Z" />
<glyph unicode="&#xb7;" horiz-adv-x="621" d="M218 237L252 394H413L380 237H218Z" />
<glyph unicode="&#xb8;" horiz-adv-x="650" d="M364 -221Q339 -221 316 -216T271 -204L284 -141Q299 -147 318 -150T356 -154Q378 -154 395 -148T412 -126Q412 -116 400 -110T371 -104Q362 -104 352 -105T332 -110L318 -74L400 27L465 4L418 -48Q424 -47 428 -47T436
-47Q468 -47 492 -65T516 -116Q516 -151 495 -174T439 -209T364 -221Z" />
<glyph unicode="&#xb9;" horiz-adv-x="650" d="M319 301L390 633L214 521L237 631L428 748H526L431 301H319ZM190 392H564L546 301H171L190 392Z" />
<glyph unicode="&#xba;" horiz-adv-x="650" d="M350 324Q302 324 267 343T212 395T192 472Q192 543 219 596T293 678T401 708Q449 708 485 690T540 639T559 560Q559 489 533 436T459 354T350 324ZM357 399Q386 399 409 418T446 473T459 556Q459 592 442 612T395
633Q365 633 342 613T306 558T292 476Q292 441 309 420T357 399Z" />
<glyph unicode="&#xbb;" horiz-adv-x="650" d="M164 62H21L213 276L116 484H254L350 272L164 62ZM395 62H251L443 276L346 484H485L580 272L395 62Z" />
<glyph unicode="&#xbc;" horiz-adv-x="1300" d="M251 251L322 583L146 471L169 581L360 698H458L363 251H251ZM122 342H496L478 251H103L122 342ZM315 0L905 698H1032L442 0H315ZM897 0L916 95H698L715 170L970 447H1103L1047 185H1131L1112 95H1028L1008 0H897ZM829
185H936L969 337L829 185Z" />
<glyph unicode="&#xbd;" horiz-adv-x="1300" d="M251 251L322 583L146 471L169 581L360 698H458L363 251H251ZM122 342H496L478 251H103L122 342ZM315 0L905 698H1032L442 0H315ZM774 0L790 76Q861 119 911 152T992 214T1038 267T1053 317Q1053 337 1041 350T1004
363Q975 363 959 344T942 290H832Q841 366 885 410T1014 454Q1059 454 1094 438T1150 393T1171 324Q1171 276 1143 236T1067 160T962 91H1134L1116 0H774Z" />
<glyph unicode="&#xbe;" horiz-adv-x="1300" d="M348 245Q269 245 224 290T181 410H290Q288 376 305 357T352 337Q379 337 396 352T413 394Q413 418 396 431T350 444H328L345 521H368Q399 521 415 536T431 577Q431 595 418 605T384 616Q358 616 342 600T323 556H213Q223
625 272 666T392 707Q438 707 472 692T526 650T545 586Q545 548 523 519T462 478Q492 472 509 447T526 386Q526 323 477 284T348 245ZM317 0L907 698H1034L444 0H317ZM906 0L925 95H707L724 170L979 447H1112L1056 185H1140L1121 95H1037L1017 0H906ZM838 185H945L978
337L838 185Z" />
<glyph unicode="&#xbf;" horiz-adv-x="650" d="M388 348L385 328Q379 286 361 257T319 206T268 169T220 134T183 94T168 40Q168 1 194 -21T263 -44Q325 -44 358 -4T392 93H531Q527 18 492 -38T397 -125T258 -156Q186 -156 134 -132T54 -66T26 31Q26 83 40 118T79
175T131 215T185 247T231 281T257 328L262 348H388ZM444 554L411 397H249L283 554H444Z" />
<glyph unicode="&#xc0;" horiz-adv-x="650" d="M103 148L129 268H533L508 148H103ZM306 698H521L564 0H420L400 419L396 594L316 419L118 0H-31L306 698ZM491 759H384L306 930H439L491 759Z" />
<glyph unicode="&#xc1;" horiz-adv-x="650" d="M103 148L129 268H533L508 148H103ZM306 698H521L564 0H420L400 419L396 594L316 419L118 0H-31L306 698ZM339 758L459 929H605L459 758H339Z" />
<glyph unicode="&#xc2;" horiz-adv-x="650" d="M103 148L129 268H533L508 148H103ZM306 698H521L564 0H420L400 419L396 594L316 419L118 0H-31L306 698ZM226 759L380 930H530L616 759H491L444 860L359 759H226Z" />
<glyph unicode="&#xc3;" horiz-adv-x="650" d="M103 148L129 268H533L508 148H103ZM306 698H521L564 0H420L400 419L396 594L316 419L118 0H-31L306 698ZM316 760L219 776Q238 840 271 880T360 920Q395 920 419 909T462 887T500 875Q522 875 536 890T559 927L658
911Q637 848 602 808T513 767Q482 767 459 779T415 802T374 813Q352 813 338 797T316 760Z" />
<glyph unicode="&#xc4;" horiz-adv-x="650" d="M103 148L129 268H533L508 148H103ZM306 698H521L564 0H420L400 419L396 594L316 419L118 0H-31L306 698ZM464 780L493 913H640L612 780H464ZM242 780L270 913H418L389 780H242Z" />
<glyph unicode="&#xc5;" horiz-adv-x="650" d="M103 148L129 268H533L508 148H103ZM306 698H521L564 0H420L400 419L396 594L316 419L118 0H-31L306 698ZM428 734Q377 734 345 763T313 837Q313 894 352 931T451 968Q503 968 535 939T568 864Q568 807 529 771T428
734ZM434 802Q459 802 475 818T491 858Q491 876 479 888T447 900Q422 900 407 884T391 844Q391 825 403 814T434 802Z" />
<glyph unicode="&#xc6;" horiz-adv-x="650" d="M-52 0L362 698H482L78 0H-52ZM121 140L147 260H375L349 140H121ZM283 0L432 698H722L697 578H527L493 421H622L596 301H467L430 120H603L577 0H283Z" />
<glyph unicode="&#xc7;" horiz-adv-x="650" d="M307 -12Q222 -12 163 23T72 123T40 270Q40 368 65 448T138 587T253 678T405 710Q480 710 537 682T628 599T660 466H501Q498 526 471 558T392 590Q341 590 303 562T241 488T204 387T192 278Q192 230 205 192T246
131T315 108Q372 108 410 142T462 237H621Q605 161 565 105T461 19T307 -12ZM258 -221Q233 -221 210 -216T165 -204L178 -141Q193 -147 212 -150T250 -154Q272 -154 289 -148T306 -126Q306 -116 294 -110T265 -104Q256 -104 246 -105T226 -110L212 -74L294 27L359
4L312 -48Q318 -47 322 -47T330 -47Q362 -47 386 -65T410 -116Q410 -151 389 -174T333 -209T258 -221Z" />
<glyph unicode="&#xc8;" horiz-adv-x="650" d="M18 0L166 698H677L652 578H286L252 421H494L469 301H227L189 120H559L533 0H18ZM496 760H389L311 931H444L496 760Z" />
<glyph unicode="&#xc9;" horiz-adv-x="650" d="M18 0L166 698H677L652 578H286L252 421H494L469 301H227L189 120H559L533 0H18ZM344 759L464 930H610L464 759H344Z" />
<glyph unicode="&#xca;" horiz-adv-x="650" d="M18 0L166 698H677L652 578H286L252 421H494L469 301H227L189 120H559L533 0H18ZM232 760L386 931H536L622 760H497L450 861L365 760H232Z" />
<glyph unicode="&#xcb;" horiz-adv-x="650" d="M18 0L166 698H677L652 578H286L252 421H494L469 301H227L189 120H559L533 0H18ZM469 781L498 914H645L617 781H469ZM247 781L275 914H423L394 781H247Z" />
<glyph unicode="&#xcc;" horiz-adv-x="650" d="M193 0L341 698H487L338 0H193ZM176 698H651L626 578H151L176 698ZM54 120H529L503 0H28L54 120ZM490 760H383L305 931H438L490 760Z" />
<glyph unicode="&#xcd;" horiz-adv-x="650" d="M193 0L341 698H487L338 0H193ZM176 698H651L626 578H151L176 698ZM54 120H529L503 0H28L54 120ZM337 759L457 930H603L457 759H337Z" />
<glyph unicode="&#xce;" horiz-adv-x="650" d="M193 0L341 698H487L338 0H193ZM176 698H651L626 578H151L176 698ZM54 120H529L503 0H28L54 120ZM225 760L379 931H529L615 760H490L443 861L358 760H225Z" />
<glyph unicode="&#xcf;" horiz-adv-x="650" d="M193 0L341 698H487L338 0H193ZM176 698H651L626 578H151L176 698ZM54 120H529L503 0H28L54 120ZM463 781L492 914H639L611 781H463ZM241 781L269 914H417L388 781H241Z" />
<glyph unicode="&#xd0;" horiz-adv-x="650" d="M5 296L29 407H408L385 296H5ZM0 0L148 698H367Q433 698 484 677T570 618T624 529T642 419Q642 328 612 251T528 118T397 31T230 0H0ZM171 120H254Q309 120 353 144T427 210T474 304T490 414Q490 486 453 532T343
578H269L171 120Z" />
<glyph unicode="&#xd1;" horiz-adv-x="650" d="M-2 0L146 698H321L447 182L488 423L547 698H684L536 0H361L231 509L193 275L135 0H-2ZM327 761L230 777Q249 841 282 881T371 921Q406 921 430 910T473 888T511 876Q533 876 547 891T570 928L669 912Q648 849 613
809T524 768Q493 768 470 780T426 803T385 814Q363 814 349 798T327 761Z" />
<glyph unicode="&#xd2;" horiz-adv-x="650" d="M283 -12Q212 -12 156 19T67 110T34 255Q34 343 57 424T127 570T241 672T400 710Q471 710 527 680T615 591T648 444Q648 356 625 275T556 129T441 26T283 -12ZM299 108Q348 108 384 138T446 218T483 326T496 438Q496
513 466 551T383 590Q334 590 298 560T236 482T198 375T185 261Q185 212 199 178T239 126T299 108ZM480 761H373L295 932H428L480 761Z" />
<glyph unicode="&#xd3;" horiz-adv-x="650" d="M283 -12Q212 -12 156 19T67 110T34 255Q34 343 57 424T127 570T241 672T400 710Q471 710 527 680T615 591T648 444Q648 356 625 275T556 129T441 26T283 -12ZM299 108Q348 108 384 138T446 218T483 326T496 438Q496
513 466 551T383 590Q334 590 298 560T236 482T198 375T185 261Q185 212 199 178T239 126T299 108ZM327 760L447 931H593L447 760H327Z" />
<glyph unicode="&#xd4;" horiz-adv-x="650" d="M283 -12Q212 -12 156 19T67 110T34 255Q34 343 57 424T127 570T241 672T400 710Q471 710 527 680T615 591T648 444Q648 356 625 275T556 129T441 26T283 -12ZM299 108Q348 108 384 138T446 218T483 326T496 438Q496
513 466 551T383 590Q334 590 298 560T236 482T198 375T185 261Q185 212 199 178T239 126T299 108ZM215 761L369 932H519L605 761H480L433 862L348 761H215Z" />
<glyph unicode="&#xd5;" horiz-adv-x="650" d="M283 -12Q212 -12 156 19T67 110T34 255Q34 343 57 424T127 570T241 672T400 710Q471 710 527 680T615 591T648 444Q648 356 625 275T556 129T441 26T283 -12ZM299 108Q348 108 384 138T446 218T483 326T496 438Q496
513 466 551T383 590Q334 590 298 560T236 482T198 375T185 261Q185 212 199 178T239 126T299 108ZM305 762L208 778Q227 842 260 882T349 922Q384 922 408 911T451 889T489 877Q511 877 525 892T548 929L647 913Q626 850 591 810T502 769Q471 769 448 781T404
804T363 815Q341 815 327 799T305 762Z" />
<glyph unicode="&#xd6;" horiz-adv-x="650" d="M283 -12Q212 -12 156 19T67 110T34 255Q34 343 57 424T127 570T241 672T400 710Q471 710 527 680T615 591T648 444Q648 356 625 275T556 129T441 26T283 -12ZM299 108Q348 108 384 138T446 218T483 326T496 438Q496
513 466 551T383 590Q334 590 298 560T236 482T198 375T185 261Q185 212 199 178T239 126T299 108ZM453 782L482 915H629L601 782H453ZM231 782L259 915H407L378 782H231Z" />
<glyph unicode="&#xd7;" horiz-adv-x="650" d="M135 70L66 157L530 539L598 452L135 70ZM435 70L130 456L230 539L533 151L435 70Z" />
<glyph unicode="&#xd8;" horiz-adv-x="650" d="M292 -12Q216 -12 157 19T65 110T31 257Q31 345 54 426T124 571T237 672T391 710Q467 710 525 680T617 590T651 443Q651 355 627 274T558 128T445 26T292 -12ZM300 108Q348 108 385 138T447 218T486 324T499 437Q499
511 468 550T383 590Q334 590 297 561T235 483T196 377T183 263Q183 189 214 149T300 108ZM120 -70L20 -20L556 769L656 720L120 -70Z" />
<glyph unicode="&#xd9;" horiz-adv-x="650" d="M290 -12Q202 -12 139 21T49 114T39 258L133 698H278L183 249Q174 206 186 175T227 127T298 109Q340 109 372 126T425 175T455 249L551 698H696L601 249Q584 171 545 112T442 21T290 -12ZM488 760H381L303 931H436L488 760Z" />
<glyph unicode="&#xda;" horiz-adv-x="650" d="M290 -12Q202 -12 139 21T49 114T39 258L133 698H278L183 249Q174 206 186 175T227 127T298 109Q340 109 372 126T425 175T455 249L551 698H696L601 249Q584 171 545 112T442 21T290 -12ZM336 759L456 930H602L456 759H336Z" />
<glyph unicode="&#xdb;" horiz-adv-x="650" d="M290 -12Q202 -12 139 21T49 114T39 258L133 698H278L183 249Q174 206 186 175T227 127T298 109Q340 109 372 126T425 175T455 249L551 698H696L601 249Q584 171 545 112T442 21T290 -12ZM223 760L377 931H527L613
760H488L441 861L356 760H223Z" />
<glyph unicode="&#xdc;" horiz-adv-x="650" d="M290 -12Q202 -12 139 21T49 114T39 258L133 698H278L183 249Q174 206 186 175T227 127T298 109Q340 109 372 126T425 175T455 249L551 698H696L601 249Q584 171 545 112T442 21T290 -12ZM461 781L490 914H637L609
781H461ZM239 781L267 914H415L386 781H239Z" />
<glyph unicode="&#xdd;" horiz-adv-x="650" d="M191 0L251 282L115 698H268L320 543L347 404L434 541L554 698H713L397 282L337 0H191ZM345 759L465 930H611L465 759H345Z" />
<glyph unicode="&#xde;" horiz-adv-x="650" d="M145 128L170 248H340Q383 248 415 264T467 309T486 374Q486 414 462 444T388 475H218L244 595H397Q468 595 522 567T607 490T638 383Q638 301 596 244T480 158T314 128H145ZM14 0L162 698H307L159 0H14Z" />
<glyph unicode="&#xdf;" horiz-adv-x="650" d="M317 -12Q289 -12 254 -8T196 2L220 115Q234 108 264 104T319 100Q393 100 434 133T475 220Q475 268 441 296T349 324H265L289 436H362Q399 436 426 449T467 485T482 542Q482 580 454 603T378 627Q327 627 290 597T240
507L132 0H-5L104 515Q120 588 159 638T256 713T385 738Q456 738 509 715T592 651T622 553Q622 505 599 466T535 398T439 355L443 386Q495 385 533 365T593 309T615 228Q615 155 579 101T477 18T317 -12Z" />
<glyph unicode="&#xe0;" horiz-adv-x="650" d="M386 0L403 108L455 349Q463 385 451 412T411 453T344 467Q292 467 257 446T213 377H79Q86 434 123 476T219 542T351 566Q434 566 493 537T577 455T588 330L518 0H386ZM231 -12Q181 -12 141 8T77 64T54 145Q54 214
87 255T177 314T301 332H466L445 235H295Q248 235 221 215T194 160Q194 131 214 115T268 98Q317 98 357 124T431 198L427 102Q389 43 344 16T231 -12ZM448 615H341L263 786H396L448 615Z" />
<glyph unicode="&#xe1;" horiz-adv-x="650" d="M386 0L403 108L455 349Q463 385 451 412T411 453T344 467Q292 467 257 446T213 377H79Q86 434 123 476T219 542T351 566Q434 566 493 537T577 455T588 330L518 0H386ZM231 -12Q181 -12 141 8T77 64T54 145Q54 214
87 255T177 314T301 332H466L445 235H295Q248 235 221 215T194 160Q194 131 214 115T268 98Q317 98 357 124T431 198L427 102Q389 43 344 16T231 -12ZM296 870L416 1041H562L416 870H296Z" />
<glyph unicode="&#xe2;" horiz-adv-x="650" d="M386 0L403 108L455 349Q463 385 451 412T411 453T344 467Q292 467 257 446T213 377H79Q86 434 123 476T219 542T351 566Q434 566 493 537T577 455T588 330L518 0H386ZM231 -12Q181 -12 141 8T77 64T54 145Q54 214
87 255T177 314T301 332H466L445 235H295Q248 235 221 215T194 160Q194 131 214 115T268 98Q317 98 357 124T431 198L427 102Q389 43 344 16T231 -12ZM439 615L593 786H743L829 615H704L657 716L572 615H439Z" />
<glyph unicode="&#xe3;" horiz-adv-x="650" d="M386 0L403 108L455 349Q463 385 451 412T411 453T344 467Q292 467 257 446T213 377H79Q86 434 123 476T219 542T351 566Q434 566 493 537T577 455T588 330L518 0H386ZM231 -12Q181 -12 141 8T77 64T54 145Q54 214
87 255T177 314T301 332H466L445 235H295Q248 235 221 215T194 160Q194 131 214 115T268 98Q317 98 357 124T431 198L427 102Q389 43 344 16T231 -12ZM529 872L432 888Q451 952 484 992T573 1032Q608 1032 632 1021T675 999T713 987Q735 987 749 1002T772 1039L871
1023Q850 960 815 920T726 879Q695 879 672 891T628 914T587 925Q565 925 551 909T529 872Z" />
<glyph unicode="&#xe4;" horiz-adv-x="650" d="M386 0L403 108L455 349Q463 385 451 412T411 453T344 467Q292 467 257 446T213 377H79Q86 434 123 476T219 542T351 566Q434 566 493 537T577 455T588 330L518 0H386ZM231 -12Q181 -12 141 8T77 64T54 145Q54 214
87 255T177 314T301 332H466L445 235H295Q248 235 221 215T194 160Q194 131 214 115T268 98Q317 98 357 124T431 198L427 102Q389 43 344 16T231 -12ZM677 892L706 1025H853L825 892H677ZM455 892L483 1025H631L602 892H455Z" />
<glyph unicode="&#xe5;" horiz-adv-x="650" d="M386 0L403 108L455 349Q463 385 451 412T411 453T344 467Q292 467 257 446T213 377H79Q86 434 123 476T219 542T351 566Q434 566 493 537T577 455T588 330L518 0H386ZM231 -12Q181 -12 141 8T77 64T54 145Q54 214
87 255T177 314T301 332H466L445 235H295Q248 235 221 215T194 160Q194 131 214 115T268 98Q317 98 357 124T431 198L427 102Q389 43 344 16T231 -12ZM641 846Q590 846 558 875T526 949Q526 1006 565 1043T664 1080Q716 1080 748 1051T781 976Q781 919 742 883T641
846ZM647 914Q672 914 688 930T704 970Q704 988 692 1000T660 1012Q635 1012 620 996T604 956Q604 937 616 926T647 914Z" />
<glyph unicode="&#xe6;" horiz-adv-x="650" d="M204 119L260 379Q265 401 263 417T252 443T226 453Q201 453 186 433T161 376H24Q40 465 95 515T236 566Q295 566 333 539T385 466T386 361L334 119H204ZM127 -12Q63 -12 25 27T-13 131Q-13 195 17 239T97 306T211
330H261L239 236H207Q168 236 141 209T113 145Q113 125 123 112T152 99Q179 99 199 130T235 232L294 152Q269 71 230 30T127 -12ZM406 -12Q354 -12 315 14T253 86T231 191Q231 240 241 292T272 392T323 480T394 543T483 566Q536 566 570 543T620 478T636 382T623
267H350L372 361H519Q524 388 521 410T505 447T471 461Q445 461 427 440T395 385T375 315T364 250T361 207Q361 179 366 155T384 115T418 100Q446 100 463 124T494 188H612Q587 96 537 42T406 -12Z" />
<glyph unicode="&#xe7;" horiz-adv-x="650" d="M305 -12Q232 -12 175 19T84 106T50 237Q50 310 72 369T137 473T238 542T369 566Q437 566 492 540T579 467T608 353H470Q467 401 438 427T362 453Q318 453 286 434T233 385T202 318T191 245Q191 171 226 135T311
99Q365 99 401 125T451 197H589Q573 133 535 86T439 14T305 -12ZM251 -221Q226 -221 203 -216T158 -204L171 -141Q186 -147 205 -150T243 -154Q265 -154 282 -148T299 -126Q299 -116 287 -110T258 -104Q249 -104 239 -105T219 -110L205 -74L287 27L352 4L305 -48Q311
-47 315 -47T323 -47Q355 -47 379 -65T403 -116Q403 -151 382 -174T326 -209T251 -221Z" />
<glyph unicode="&#xe8;" horiz-adv-x="650" d="M298 -12Q226 -12 168 17T77 100T44 231Q44 302 64 362T125 469T224 540T359 566Q450 566 508 529T589 424T595 265H152L174 362H463Q464 404 437 431T353 458Q290 458 253 426T200 343T184 238Q184 198 198 167T241
117T307 99Q369 99 404 125T450 192H588Q571 129 534 83T439 13T298 -12ZM446 615H339L261 786H394L446 615Z" />
<glyph unicode="&#xe9;" horiz-adv-x="650" d="M298 -12Q226 -12 168 17T77 100T44 231Q44 302 64 362T125 469T224 540T359 566Q450 566 508 529T589 424T595 265H152L174 362H463Q464 404 437 431T353 458Q290 458 253 426T200 343T184 238Q184 198 198 167T241
117T307 99Q369 99 404 125T450 192H588Q571 129 534 83T439 13T298 -12ZM294 870L414 1041H560L414 870H294Z" />
<glyph unicode="&#xea;" horiz-adv-x="650" d="M298 -12Q226 -12 168 17T77 100T44 231Q44 302 64 362T125 469T224 540T359 566Q450 566 508 529T589 424T595 265H152L174 362H463Q464 404 437 431T353 458Q290 458 253 426T200 343T184 238Q184 198 198 167T241
117T307 99Q369 99 404 125T450 192H588Q571 129 534 83T439 13T298 -12ZM438 615L592 786H742L828 615H703L656 716L571 615H438Z" />
<glyph unicode="&#xeb;" horiz-adv-x="650" d="M298 -12Q226 -12 168 17T77 100T44 231Q44 302 64 362T125 469T224 540T359 566Q450 566 508 529T589 424T595 265H152L174 362H463Q464 404 437 431T353 458Q290 458 253 426T200 343T184 238Q184 198 198 167T241
117T307 99Q369 99 404 125T450 192H588Q571 129 534 83T439 13T298 -12ZM675 892L704 1025H851L823 892H675ZM453 892L481 1025H629L600 892H453Z" />
<glyph unicode="&#xec;" horiz-adv-x="650" d="M199 0L317 554H454L337 0H199ZM12 0L35 111H545L521 0H12ZM176 443L200 554H386L362 443H176ZM468 616H361L283 787H416L468 616Z" />
<glyph unicode="&#xed;" horiz-adv-x="650" d="M199 0L317 554H454L337 0H199ZM12 0L35 111H545L521 0H12ZM176 443L200 554H386L362 443H176ZM315 615L435 786H581L435 615H315Z" />
<glyph unicode="&#xee;" horiz-adv-x="650" d="M199 0L317 554H454L337 0H199ZM12 0L35 111H545L521 0H12ZM176 443L200 554H386L362 443H176ZM203 616L357 787H507L593 616H468L421 717L336 616H203Z" />
<glyph unicode="&#xef;" horiz-adv-x="650" d="M199 0L317 554H454L337 0H199ZM12 0L35 111H545L521 0H12ZM176 443L200 554H386L362 443H176ZM440 637L469 770H616L588 637H440ZM218 637L246 770H394L365 637H218Z" />
<glyph unicode="&#xf0;" horiz-adv-x="650" d="M261 738H429Q483 696 522 639T583 515T605 378Q605 293 583 221T520 98T421 17T291 -12Q217 -12 162 16T76 97T45 219Q45 298 78 357T171 448T311 481Q386 481 433 451T505 352L471 224Q471 268 453 302T403 356T331
375Q282 375 250 356T201 304T185 226Q185 187 199 159T239 114T298 98Q342 98 373 124T425 193T455 283T464 375Q464 451 438 516T367 637T261 738ZM278 516L269 601L631 707L640 622L278 516Z" />
<glyph unicode="&#xf1;" horiz-adv-x="650" d="M388 0L461 343Q471 392 452 421T391 451Q342 451 297 417T201 308L207 433Q257 502 311 534T433 566Q493 566 535 539T596 464T601 351L526 0H388ZM10 0L128 554H260L242 446L148 0H10ZM297 617L200 633Q219 697
252 737T341 777Q376 777 400 766T443 744T481 732Q503 732 517 747T540 784L639 768Q618 705 583 665T494 624Q463 624 440 636T396 659T355 670Q333 670 319 654T297 617Z" />
<glyph unicode="&#xf2;" horiz-adv-x="650" d="M295 -12Q217 -12 161 17T73 101T42 228Q42 331 82 407T192 524T356 566Q433 566 489 537T576 453T607 326Q607 224 568 148T458 30T295 -12ZM298 100Q349 100 387 127T446 204T467 321Q467 381 436 417T352 454Q302
454 264 427T204 350T183 233Q183 194 197 164T238 117T298 100ZM449 616H342L264 787H397L449 616Z" />
<glyph unicode="&#xf3;" horiz-adv-x="650" d="M295 -12Q217 -12 161 17T73 101T42 228Q42 331 82 407T192 524T356 566Q433 566 489 537T576 453T607 326Q607 224 568 148T458 30T295 -12ZM298 100Q349 100 387 127T446 204T467 321Q467 381 436 417T352 454Q302
454 264 427T204 350T183 233Q183 194 197 164T238 117T298 100ZM297 615L417 786H563L417 615H297Z" />
<glyph unicode="&#xf4;" horiz-adv-x="650" d="M295 -12Q217 -12 161 17T73 101T42 228Q42 331 82 407T192 524T356 566Q433 566 489 537T576 453T607 326Q607 224 568 148T458 30T295 -12ZM298 100Q349 100 387 127T446 204T467 321Q467 381 436 417T352 454Q302
454 264 427T204 350T183 233Q183 194 197 164T238 117T298 100ZM440 616L594 787H744L830 616H705L658 717L573 616H440Z" />
<glyph unicode="&#xf5;" horiz-adv-x="650" d="M295 -12Q217 -12 161 17T73 101T42 228Q42 331 82 407T192 524T356 566Q433 566 489 537T576 453T607 326Q607 224 568 148T458 30T295 -12ZM298 100Q349 100 387 127T446 204T467 321Q467 381 436 417T352 454Q302
454 264 427T204 350T183 233Q183 194 197 164T238 117T298 100ZM531 617L434 633Q453 697 486 737T575 777Q610 777 634 766T677 744T715 732Q737 732 751 747T774 784L873 768Q852 705 817 665T728 624Q697 624 674 636T630 659T589 670Q567 670 553 654T531
617Z" />
<glyph unicode="&#xf6;" horiz-adv-x="650" d="M295 -12Q217 -12 161 17T73 101T42 228Q42 331 82 407T192 524T356 566Q433 566 489 537T576 453T607 326Q607 224 568 148T458 30T295 -12ZM298 100Q349 100 387 127T446 204T467 321Q467 381 436 417T352 454Q302
454 264 427T204 350T183 233Q183 194 197 164T238 117T298 100ZM678 637L707 770H854L826 637H678ZM456 637L484 770H632L603 637H456Z" />
<glyph unicode="&#xf7;" horiz-adv-x="650" d="M61 247L86 367H601L576 247H61ZM192 49L226 206H387L354 49H192ZM275 416L309 573H470L437 416H275Z" />
<glyph unicode="&#xf8;" horiz-adv-x="650" d="M106 -88L22 -29L537 635L620 576L106 -88ZM295 -12Q217 -12 161 17T73 101T42 228Q42 331 82 407T192 524T356 566Q433 566 489 537T576 453T607 326Q607 224 568 148T458 30T295 -12ZM298 100Q349 100 387 127T446
204T467 321Q467 381 436 417T352 454Q302 454 264 427T204 350T183 233Q183 194 197 164T238 117T298 100Z" />
<glyph unicode="&#xf9;" horiz-adv-x="650" d="M254 554L181 211Q171 162 190 133T251 103Q300 103 345 137T441 246L435 121Q385 52 331 20T209 -12Q149 -12 107 15T46 90T41 203L116 554H254ZM632 554L514 0H382L400 108L494 554H632ZM445 615H338L260 786H393L445
615Z" />
<glyph unicode="&#xfa;" horiz-adv-x="650" d="M254 554L181 211Q171 162 190 133T251 103Q300 103 345 137T441 246L435 121Q385 52 331 20T209 -12Q149 -12 107 15T46 90T41 203L116 554H254ZM632 554L514 0H382L400 108L494 554H632ZM293 870L413 1041H559L413
870H293Z" />
<glyph unicode="&#xfb;" horiz-adv-x="650" d="M254 554L181 211Q171 162 190 133T251 103Q300 103 345 137T441 246L435 121Q385 52 331 20T209 -12Q149 -12 107 15T46 90T41 203L116 554H254ZM632 554L514 0H382L400 108L494 554H632ZM436 615L590 786H740L826
615H701L654 716L569 615H436Z" />
<glyph unicode="&#xfc;" horiz-adv-x="650" d="M254 554L181 211Q171 162 190 133T251 103Q300 103 345 137T441 246L435 121Q385 52 331 20T209 -12Q149 -12 107 15T46 90T41 203L116 554H254ZM632 554L514 0H382L400 108L494 554H632ZM674 892L703 1025H850L822
892H674ZM452 892L480 1025H628L599 892H452Z" />
<glyph unicode="&#xfd;" horiz-adv-x="650" d="M277 332L300 186L374 317L522 554H668L294 -35Q257 -93 220 -126T141 -175T49 -190H-57L-34 -79H59Q86 -79 106 -67T145 -33T183 20L204 52L100 554H236L277 332ZM296 615L416 786H562L416 615H296Z" />
<glyph unicode="&#xfe;" horiz-adv-x="650" d="M411 566Q479 566 525 535T596 448T621 320Q621 257 601 198T541 91T442 16T306 -12Q254 -12 215 8T154 61L103 -178H-33L161 738H298L247 493Q282 528 321 547T411 566ZM304 102Q345 102 377 119T432 167T468 236T481
314Q481 378 452 415T369 452Q322 452 282 425T216 351L183 200Q191 155 224 129T304 102Z" />
<glyph unicode="&#xff;" horiz-adv-x="650" d="M277 332L300 186L374 317L522 554H668L294 -35Q257 -93 220 -126T141 -175T49 -190H-57L-34 -79H59Q86 -79 106 -67T145 -33T183 20L204 52L100 554H236L277 332ZM677 637L706 770H853L825 637H677ZM455 637L483
770H631L602 637H455Z" />
<glyph unicode="&#x2013;" horiz-adv-x="650" d="M43 248L69 368H621L595 248H43Z" />
<glyph unicode="&#x2014;" horiz-adv-x="1300" d="M124 247L148 367H1189L1165 247H124Z" />
<glyph unicode="&#x2018;" horiz-adv-x="650" d="M489 603L456 446H294L327 603L431 761H556L500 688L403 603H489Z" />
<glyph unicode="&#x2019;" horiz-adv-x="650" d="M300 604L333 761H495L462 604L358 446H233L289 519L386 604H300Z" />
<glyph unicode="&#x201a;" horiz-adv-x="650" d="M172 0L205 157H367L334 0L230 -158H105L161 -85L258 0H172Z" />
<glyph unicode="&#x201c;" horiz-adv-x="650" d="M376 603L343 446H181L214 603L318 761H443L387 688L290 603H376ZM588 603L555 446H393L426 603L530 761H655L599 688L502 603H588Z" />
<glyph unicode="&#x201d;" horiz-adv-x="650" d="M412 604L445 761H607L574 604L470 446H345L401 519L498 604H412ZM201 604L234 761H396L363 604L259 446H134L190 519L287 604H201Z" />
<glyph unicode="&#x201e;" horiz-adv-x="650" d="M284 0L317 157H479L446 0L342 -158H217L273 -85L370 0H284ZM328 0L361 157H523L490 0L386 -158H261L317 -85L414 0H328Z" />
<glyph unicode="&#x2022;" horiz-adv-x="650" d="M184 184L232 416H476L428 184H184Z" />
<glyph unicode="&#x2039;" horiz-adv-x="650" d="M276 62L179 272L365 484H508L316 268L414 62H276Z" />
<glyph unicode="&#x203a;" horiz-adv-x="650" d="M284 62H140L332 276L235 484H374L469 272L284 62Z" />
</font>
</defs>
</svg>
