<?xml version="1.0" standalone="no"?>
<!DOCTYPE svg PUBLIC "-//W3C//DTD SVG 1.1//EN" "http://www.w3.org/Graphics/SVG/1.1/DTD/svg11.dtd">
<svg xmlns="http://www.w3.org/2000/svg">
<defs >
<font id="AzeretMono" horiz-adv-x="685" ><font-face
    font-family="Azeret Mono Thin ExtraBold"
    units-per-em="1000"
    panose-1="0 0 0 0 0 0 0 0 0 0"
    ascent="937"
    descent="-230"
    alphabetic="0" />
<glyph unicode=" " horiz-adv-x="650" />
<glyph unicode="!" horiz-adv-x="650" d="M245 230L284 569L312 699H516L489 569L384 230H245ZM170 0L209 184H400L360 0H170Z" />
<glyph unicode="&quot;" horiz-adv-x="650" d="M412 437L462 770H651L558 437H412ZM416 437L466 770H655L562 437H416Z" />
<glyph unicode="#" horiz-adv-x="650" d="M218 0L549 700H687L356 0H218ZM-30 132L41 281H581L508 132H-30ZM-2 0L330 700H468L136 0H-2ZM95 399L167 547H705L635 399H95Z" />
<glyph unicode="$" horiz-adv-x="650" d="M313 680L338 797H522L497 680H313ZM148 -94L172 20H357L333 -94H148ZM304 -12Q217 -12 155 21T61 113T33 252H225Q222 205 244 177T315 148Q337 148 353 155T378 177T388 209Q388 229 372 242T330 267T272 289T209 314T151
351T108 404T92 481Q92 550 127 601T226 681T381 710Q461 710 521 681T614 599T644 473H452Q451 510 428 530T371 551Q351 551 335 545T310 526T301 496Q301 477 317 465T359 442T417 422T480 398T538 362T581 309T597 231Q597 156 560 102T456 18T304 -12Z" />
<glyph unicode="%" horiz-adv-x="650" d="M-17 0L574 698H696L105 0H-17ZM439 -12Q382 -12 347 26T311 123Q311 180 333 229T395 310T489 341Q546 341 581 303T617 204Q617 148 595 99T534 19T439 -12ZM451 91Q464 91 474 102T490 130T498 165T501 197Q501 216
495 227T477 238Q464 238 455 226T439 197T430 161T427 130Q427 112 433 102T451 91ZM192 359Q135 359 100 397T64 494Q64 551 86 600T148 681T242 712Q299 712 334 674T370 575Q370 519 348 470T287 390T192 359ZM204 462Q217 462 227 473T243 501T251 536T254
568Q254 587 248 598T230 609Q217 609 208 597T192 568T183 532T180 501Q180 483 186 473T204 462Z" />
<glyph unicode="&amp;" horiz-adv-x="650" d="M197 -12Q137 -12 92 12T21 78T-5 174Q-5 239 34 294T145 385Q129 414 117 446T105 518Q105 569 130 613T204 683T327 710Q386 710 429 689T497 632T521 551Q521 504 502 466T449 400T369 350L425 261Q440 283 452
308T473 362H640Q615 298 580 241T499 136L583 0H377L356 34Q320 13 282 1T197 -12ZM228 129Q246 129 263 133T293 146L215 272Q198 263 186 251T168 224T162 193Q162 164 180 147T228 129ZM303 451Q324 461 337 473T357 500T364 532Q364 551 354 563T324 575Q301
575 289 560T277 521Q277 504 284 486T303 451Z" />
<glyph unicode="&apos;" horiz-adv-x="650" d="M285 435L335 768H524L431 435H285Z" />
<glyph unicode="(" horiz-adv-x="650" d="M220 -98Q194 -36 182 35T169 169Q169 317 218 447T378 698H571Q460 580 406 446T351 164Q351 102 363 32T401 -98H220Z" />
<glyph unicode=")" horiz-adv-x="650" d="M268 -98H75Q183 22 239 155T295 434Q295 497 283 568T245 698H426Q452 635 464 564T477 430Q477 281 425 152T268 -98Z" />
<glyph unicode="*" horiz-adv-x="650" d="M230 351L158 460L275 517L172 588L253 685L337 606L379 722L505 675L464 560L580 566L579 439L455 452L507 333L380 296L341 418L230 351Z" />
<glyph unicode="+" horiz-adv-x="650" d="M54 226L88 386H607L573 226H54ZM195 46L306 566H466L355 46H195Z" />
<glyph unicode="," horiz-adv-x="650" d="M169 0L209 184H399L360 0L226 -190H67L141 -103L265 2L169 0Z" />
<glyph unicode="-" horiz-adv-x="650" d="M133 227L167 387H528L494 227H133Z" />
<glyph unicode="." horiz-adv-x="650" d="M171 0L210 184H401L361 0H171Z" />
<glyph unicode="/" horiz-adv-x="650" d="M-44 -98L514 700H706L148 -98H-44Z" />
<glyph unicode="0" horiz-adv-x="650" d="M268 -12Q199 -12 147 17T67 102T38 235Q38 324 63 409T136 562T253 670T411 710Q481 710 533 681T613 597T642 465Q642 375 617 290T544 137T427 28T268 -12ZM297 147Q325 147 348 168T388 224T417 300T434 384T440 461Q440
506 426 529T381 552Q353 552 331 531T291 474T263 396T245 313T239 237Q239 192 253 170T297 147Z" />
<glyph unicode="1" horiz-adv-x="650" d="M196 0L269 344L309 486L182 402L49 315L94 525L388 698H542L393 0H196ZM-18 0L16 160H584L550 0H-18Z" />
<glyph unicode="2" horiz-adv-x="650" d="M-6 0L22 134Q117 188 193 236T324 327T407 409T436 483Q436 514 419 532T369 550Q344 550 323 538T289 503T276 446H82Q90 528 130 587T237 678T393 710Q508 710 574 655T641 504Q641 446 616 397T547 307T446 230T325
160H576L542 0H-6Z" />
<glyph unicode="3" horiz-adv-x="650" d="M302 -12Q208 -12 147 25T59 122T42 253H236Q231 221 239 198T265 162T310 149Q349 149 370 170T392 222Q392 252 369 270T307 289H273L302 424H339Q364 424 382 433T411 460T422 497Q422 522 406 536T363 550Q330 550
309 529T285 470H92Q97 541 135 595T237 679T379 710Q453 710 507 688T591 625T621 529Q621 469 584 425T487 365Q518 356 542 334T579 282T593 216Q593 148 557 97T456 17T302 -12Z" />
<glyph unicode="4" horiz-adv-x="650" d="M280 0L310 144H-5L24 278L367 698H624L539 299H632L599 144H506L475 0H280ZM217 299H343L363 393L405 540L308 417L217 299Z" />
<glyph unicode="5" horiz-adv-x="650" d="M295 -10Q215 -10 158 20T72 99T45 206H236Q238 189 246 176T269 156T305 149Q332 149 353 163T386 203T398 258Q398 280 390 296T367 322T332 331Q301 331 279 318T242 284H62L212 698H649L615 539H336L297 439Q328 461
356 471T424 481Q478 481 518 458T580 391T602 284Q602 199 564 133T457 28T295 -10Z" />
<glyph unicode="6" horiz-adv-x="650" d="M419 456Q472 456 513 431T578 361T603 256Q603 175 565 115T460 21T301 -12Q225 -12 167 21T78 115T46 257Q46 324 62 389T110 513T186 615T288 685T412 710Q488 710 540 684T622 610T654 499H463Q459 523 445 538T401
554Q368 554 343 536T302 486T278 418Q313 439 348 447T419 456ZM314 148Q339 148 358 160T387 193T398 243Q398 279 381 295T334 311Q313 311 291 303T247 278Q239 219 257 184T314 148Z" />
<glyph unicode="7" horiz-adv-x="650" d="M130 0Q148 93 182 176T260 328T351 451T442 539H100L133 698H707L679 565Q583 487 520 413T417 268T358 130T325 0H130ZM133 698H311L254 431H76L133 698Z" />
<glyph unicode="8" horiz-adv-x="650" d="M286 -12Q209 -12 153 12T66 81T35 183Q35 221 52 256T104 321T189 371H491Q517 358 537 334T569 280T580 215Q580 149 543 98T440 17T286 -12ZM297 146Q323 146 342 155T373 181T384 220Q384 245 366 262T318 280Q292
279 272 269T242 242T231 204Q231 178 249 162T297 146ZM352 422Q377 423 396 433T425 460T436 498Q436 523 419 539T375 555Q339 555 317 535T295 481Q295 459 310 442T352 422ZM194 345Q168 358 147 380T114 430T102 485Q102 553 138 603T238 682T386 710Q459
710 514 688T601 623T632 525Q632 484 613 449T560 388T481 345H194Z" />
<glyph unicode="9" horiz-adv-x="650" d="M262 242Q209 242 168 267T103 337T78 442Q78 523 116 583T221 677T380 710Q456 710 514 677T603 583T635 441Q635 374 619 309T571 185T495 83T393 13T269 -12Q193 -12 141 14T59 88T27 199H218Q222 175 236 160T280
144Q313 144 338 162T379 212T403 280Q368 259 333 251T262 242ZM367 550Q342 550 323 538T294 505T283 455Q283 419 300 403T347 387Q368 387 390 395T434 420Q442 479 424 514T367 550Z" />
<glyph unicode=":" horiz-adv-x="650" d="M241 332L280 516H471L431 332H241ZM171 0L210 184H401L361 0H171Z" />
<glyph unicode=";" horiz-adv-x="650" d="M165 0L207 194H407L366 0L243 -190H84L262 0H165ZM240 331L280 515H470L431 331H240Z" />
<glyph unicode="&lt;" horiz-adv-x="650" d="M530 44L53 224L88 388L641 568L607 401L265 300L563 198L530 44Z" />
<glyph unicode="=" horiz-adv-x="650" d="M83 351L116 510H631L597 351H83ZM29 96L62 255H577L543 96H29Z" />
<glyph unicode="&gt;" horiz-adv-x="650" d="M14 44L50 211L391 313L93 414L125 568L602 388L567 224L14 44Z" />
<glyph unicode="?" horiz-adv-x="650" d="M260 223L262 239Q267 279 282 307T319 355T364 391T407 422T440 457T453 501Q453 530 435 547T385 564Q335 564 311 531T286 448H100Q104 530 141 588T243 678T397 710Q468 710 523 687T609 620T641 516Q641 469 627
436T590 381T541 342T490 311T447 279T422 238L418 223H260ZM198 0L238 184H428L389 0H198Z" />
<glyph unicode="@" horiz-adv-x="650" d="M254 -176Q189 -176 142 -150T64 -77T19 36T4 179Q4 250 19 324T64 468T140 592T249 679T392 711Q471 711 530 672T623 563T657 402Q657 361 650 314T625 222T581 139T515 80T424 58H313V113Q302 85 282 67T237 49Q204
49 185 89T165 207Q165 238 170 275T188 350T218 418T260 467T316 486Q341 486 358 467T378 420L393 478H504L437 163H448Q465 163 478 178T502 219T520 275T530 337T534 394Q534 460 514 505T460 573T384 597Q333 597 293 571T223 500T173 401T143 292T133 188Q133
109 148 52T194 -37T273 -68H415L322 -176H254ZM307 201Q319 201 327 212T339 241L350 294Q353 304 348 319T330 334Q319 334 312 324T299 297T292 265T290 237Q290 219 294 210T307 201Z" />
<glyph unicode="A" horiz-adv-x="650" d="M87 129L121 284H548L514 129H87ZM271 698H556L568 0H371L382 341L385 557L296 341L162 0H-37L271 698Z" />
<glyph unicode="B" horiz-adv-x="650" d="M515 360Q559 345 584 310T609 228Q609 157 569 106T460 28T303 0H-7L142 698H424Q493 698 543 677T621 618T649 533Q649 494 632 460T585 401T515 360ZM384 539H305L281 424H364Q389 424 407 432T436 455T446 490Q446
511 430 525T384 539ZM224 160H319Q357 160 381 178T406 227Q406 249 390 263T341 278H249L224 160Z" />
<glyph unicode="C" horiz-adv-x="650" d="M309 -12Q225 -12 163 24T66 124T31 273Q31 366 56 446T128 585T244 677T398 710Q477 710 537 679T630 589T660 451H458Q456 497 438 524T384 551Q344 551 316 525T269 459T243 372T234 285Q234 244 243 213T272 165T322
148Q364 148 391 176T426 252H629Q611 172 573 113T470 21T309 -12Z" />
<glyph unicode="D" horiz-adv-x="650" d="M-16 0L132 698H362Q432 698 485 675T575 612T629 521T647 412Q647 321 617 246T530 115T398 30T228 0H-16ZM215 160H258Q302 160 336 181T394 237T430 315T443 404Q443 465 414 502T333 539H295L215 160Z" />
<glyph unicode="E" horiz-adv-x="650" d="M0 0L149 698H683L649 539H312L290 435H504L471 280H257L231 160H573L539 0H0Z" />
<glyph unicode="F" horiz-adv-x="650" d="M-1 0L147 698H687L653 539H310L288 435H507L474 280H255L196 0H-1Z" />
<glyph unicode="G" horiz-adv-x="650" d="M303 -12Q224 -12 161 22T61 120T24 275Q24 358 45 436T112 576T226 674T390 710Q471 710 531 678T624 591T652 463H445Q445 497 428 524T374 551Q335 551 307 527T262 462T235 375T226 283Q226 246 235 215T265 166T316
148Q344 148 363 156T406 180L419 245L342 240L379 391H646L588 121Q548 79 508 50T419 4T303 -12Z" />
<glyph unicode="H" horiz-adv-x="650" d="M356 0L505 698H702L553 0H356ZM-21 0L127 698H324L176 0H-21ZM217 280L251 439H467L433 280H217Z" />
<glyph unicode="I" horiz-adv-x="650" d="M167 0L315 698H512L364 0H167ZM166 698H661L627 539H132L166 698ZM52 160H547L513 0H18L52 160Z" />
<glyph unicode="J" horiz-adv-x="650" d="M17 0L51 159H290Q333 159 352 178T379 232L479 698H676L574 221Q564 174 547 134T500 64T422 17T301 0H17ZM241 698H661L627 539H207L241 698Z" />
<glyph unicode="K" horiz-adv-x="650" d="M-24 0L124 698H321L295 576L244 420L365 563L495 698H718L214 193L173 0H-24ZM361 0L256 367L434 450L576 0H361Z" />
<glyph unicode="L" horiz-adv-x="650" d="M10 0L159 698H356L241 160H567L533 0H10Z" />
<glyph unicode="M" horiz-adv-x="650" d="M-44 0L142 698H363L337 412L319 264L363 412L459 698H687L576 0H405L468 313L511 518L442 313L331 0H198L221 313L240 522L195 313L123 0H-44Z" />
<glyph unicode="N" horiz-adv-x="650" d="M-13 0L135 698H360L433 236L469 478L516 698H694L546 0H317L243 449L212 221L165 0H-13Z" />
<glyph unicode="O" horiz-adv-x="650" d="M288 -12Q213 -12 155 21T65 116T32 259Q32 347 55 428T124 572T237 673T394 710Q469 710 526 678T616 585T649 441Q649 353 626 272T558 127T445 26T288 -12ZM305 148Q340 148 367 173T414 239T443 330T453 432Q453 491
432 521T376 551Q341 551 314 526T268 460T238 369T228 267Q228 228 238 202T265 162T305 148Z" />
<glyph unicode="P" horiz-adv-x="650" d="M178 210L212 369H345Q377 369 401 381T438 414T452 464Q452 493 432 516T377 539H248L282 698H411Q489 698 544 667T628 586T657 478Q657 411 630 361T556 277T447 227T317 210H178ZM-8 0L141 698H338L189 0H-8Z" />
<glyph unicode="Q" horiz-adv-x="650" d="M279 -12Q200 -12 144 20T58 111T28 250Q28 343 51 425T120 572T232 673T383 710Q462 710 517 678T601 587T631 449Q631 400 622 353T595 263T551 182T491 113L575 142L625 149L564 -12H279ZM294 148Q326 148 351 174T395
244T424 339T434 441Q434 477 426 501T403 538T364 551Q332 551 306 525T262 455T234 361T224 258Q224 200 243 174T294 148Z" />
<glyph unicode="R" horiz-adv-x="650" d="M187 243L221 403H359Q402 403 428 424T454 479Q454 505 437 522T386 539H250L284 698H427Q499 698 551 673T631 602T660 495Q660 438 635 392T564 313T459 261T328 243H187ZM-7 0L142 698H339L190 0H-7ZM383 0Q382 69
365 129T309 233T209 297L419 340Q480 307 515 255T564 138T580 0H383Z" />
<glyph unicode="S" horiz-adv-x="650" d="M304 -12Q217 -12 155 21T61 113T33 252H225Q222 205 244 177T315 148Q337 148 353 155T378 177T388 209Q388 229 372 242T330 267T272 289T209 314T151 351T108 404T92 481Q92 550 127 601T226 681T381 710Q461 710 521
681T614 599T644 473H452Q451 510 428 530T371 551Q351 551 335 545T310 526T301 496Q301 477 317 465T359 442T417 422T480 398T538 362T581 309T597 231Q597 156 560 102T456 18T304 -12Z" />
<glyph unicode="T" horiz-adv-x="650" d="M167 0L282 539H89L123 698H706L672 539H479L364 0H167Z" />
<glyph unicode="U" horiz-adv-x="650" d="M289 -12Q195 -12 130 21T38 115T28 262L121 698H318L223 252Q216 220 224 197T253 161T303 148Q334 148 356 160T394 196T416 252L511 698H708L614 257Q596 175 556 115T449 21T289 -12Z" />
<glyph unicode="V" horiz-adv-x="650" d="M124 0L113 698H301L300 315L291 147L353 315L515 698H718L408 0H124Z" />
<glyph unicode="W" horiz-adv-x="650" d="M13 0L101 698H269L222 411L181 183L247 411L344 698H477L454 411L427 183L482 411L557 698H727L515 0H303L324 204L348 387L295 204L232 0H13Z" />
<glyph unicode="X" horiz-adv-x="650" d="M-43 0L208 356L109 698H317L339 596L360 460L429 585L503 698H719L475 360L577 0H374L349 100L319 226L250 110L175 0H-43Z" />
<glyph unicode="Y" horiz-adv-x="650" d="M164 0L224 282L104 698H298L330 565L350 425L431 567L518 698H723L421 282L361 0H164Z" />
<glyph unicode="Z" horiz-adv-x="650" d="M-21 0L7 134L309 442L425 539H268H104L138 698H699L671 565L365 256L248 160H405H585L551 0H-21Z" />
<glyph unicode="[" horiz-adv-x="650" d="M96 -98L266 699H451L281 -98H96ZM161 -98L191 43H442L411 -98H161ZM300 558L331 699H581L551 558H300Z" />
<glyph unicode="\" horiz-adv-x="650" d="M530 -98H347L129 698H311L530 -98Z" />
<glyph unicode="]" horiz-adv-x="650" d="M393 -98H208L378 699H563L393 -98ZM329 -98H78L109 43H359L329 -98ZM468 558H218L248 699H499L468 558Z" />
<glyph unicode="^" horiz-adv-x="650" d="M79 333L344 698H486L595 333H429L383 517L257 333H79Z" />
<glyph unicode="_" horiz-adv-x="650" d="M-27 -160V0H527V-160H-27Z" />
<glyph unicode="`" horiz-adv-x="650" d="M514 615H381L299 788H463L514 615Z" />
<glyph unicode="a" horiz-adv-x="650" d="M350 0L363 87L422 361Q427 387 419 405T391 433T344 443Q306 443 282 428T252 381H73Q82 437 118 480T214 547T354 572Q444 572 505 544T591 461T601 331L531 0H350ZM214 -12Q162 -12 123 10T63 69T42 146Q42 213 74
256T162 321T289 342H433L406 221L283 220Q252 219 236 206T220 171Q220 152 234 141T273 129Q309 129 339 145T394 193L388 84Q352 34 313 11T214 -12Z" />
<glyph unicode="b" horiz-adv-x="650" d="M412 572Q476 572 523 544T595 466T620 346Q620 271 600 206T541 92T446 16T319 -12Q275 -12 239 5T178 51L164 0H-16L141 740H326L279 516Q304 542 339 557T412 572ZM300 140Q339 140 368 164T413 229T430 319Q430 367
410 393T350 420Q315 420 289 401T243 347L217 220Q221 184 242 162T300 140Z" />
<glyph unicode="c" horiz-adv-x="650" d="M304 -12Q227 -12 168 19T75 106T41 236Q41 313 65 374T134 480T237 548T366 572Q443 572 501 543T590 462T617 336H435Q435 376 416 398T359 421Q328 421 304 407T264 367T240 310T231 244Q231 191 256 164T317 136Q356
136 383 157T419 218H601Q586 148 548 97T450 17T304 -12Z" />
<glyph unicode="d" horiz-adv-x="653" d="M329 572Q374 572 412 558T474 516L522 740H708L550 0H369L377 51Q349 22 318 5T245 -12Q175 -12 128 19T56 104T31 221Q31 294 51 357T109 469T202 544T329 572ZM305 140Q337 140 363 160T410 213L436 340Q432 377 410
398T349 420Q310 420 282 396T237 332T221 245Q221 217 230 193T257 155T305 140Z" />
<glyph unicode="e" horiz-adv-x="650" d="M300 -12Q224 -12 164 17T70 102T36 240Q36 306 57 366T119 472T221 545T360 572Q457 572 518 533T601 420T605 246H173L199 362L434 363Q435 395 415 415T352 436Q303 436 275 410T235 339T223 243Q223 212 233 188T264
149T312 135Q355 135 380 152T412 196H596Q581 135 545 88T449 14T300 -12Z" />
<glyph unicode="f" horiz-adv-x="650" d="M146 0L280 630Q302 730 365 777T542 825H717L685 676H547Q509 676 490 662T461 610L331 0H146ZM123 411L155 560H588L556 411H123ZM4 0L36 149H562L530 0H4Z" />
<glyph unicode="g" horiz-adv-x="650" d="M472 511L485 560H665L555 38Q529 -82 450 -136T248 -190Q170 -190 110 -170T17 -107T-18 1H175Q177 -24 199 -35T258 -47Q307 -47 333 -27T369 39L380 90Q354 61 323 48T251 34Q182 34 134 64T61 146T35 262Q35 328 55
384T114 483T205 548T324 571Q370 571 410 556T472 511ZM308 172Q345 172 370 194T414 252L436 353Q432 390 409 412T347 434Q308 434 281 412T238 355T223 275Q223 228 245 200T308 172Z" />
<glyph unicode="h" horiz-adv-x="650" d="M353 0L425 338Q432 373 419 394T376 415Q338 415 305 391T225 312L238 455Q291 517 343 544T449 572Q510 572 552 546T612 471T615 357L539 0H353ZM-9 0L148 740H334L177 0H-9Z" />
<glyph unicode="i" horiz-adv-x="650" d="M183 0L302 560H488L369 0H183ZM3 0L35 149H568L536 0H3ZM160 411L192 560H395L363 411H160ZM315 624L349 781H541L507 624H315Z" />
<glyph unicode="j" horiz-adv-x="650" d="M578 560L461 9Q443 -75 388 -126T235 -178H-28L4 -29H201Q236 -29 254 -17T279 29L392 560H578ZM250 411L282 560H445L413 411H250ZM404 624L438 781H630L596 624H404Z" />
<glyph unicode="k" horiz-adv-x="650" d="M-18 0L139 740H325L285 548L231 376L361 504L426 560H665L208 188L168 0H-18ZM344 0L248 321L416 394L541 0H344Z" />
<glyph unicode="l" horiz-adv-x="650" d="M173 0L330 740H516L359 0H173ZM-2 0L30 149H568L536 0H-2ZM188 591L220 740H423L391 591H188Z" />
<glyph unicode="m" horiz-adv-x="650" d="M405 0L485 379Q490 400 485 411T465 422Q445 422 426 392T378 287L386 375Q397 465 440 518T548 572Q583 572 608 555T642 503T640 412L553 0H405ZM-22 0L97 560H240L223 459L126 0H-22ZM192 0L272 379Q277 402 271 412T252
422Q229 422 211 391T166 287L188 381Q195 439 218 482T275 548T342 572Q392 572 417 530T427 414L339 0H192Z" />
<glyph unicode="n" horiz-adv-x="650" d="M355 0L427 338Q434 373 421 394T378 415Q340 415 307 391T227 312L240 455Q293 517 345 544T453 572Q513 572 554 546T613 471T617 357L541 0H355ZM-7 0L112 560H293L280 473L179 0H-7Z" />
<glyph unicode="o" horiz-adv-x="650" d="M296 -12Q216 -12 157 18T65 102T32 230Q32 334 73 410T186 529T355 572Q435 572 494 542T585 458T617 331Q617 227 577 150T464 31T296 -12ZM303 137Q340 137 368 160T412 225T429 323Q429 368 407 395T348 423Q311 423
282 400T237 336T221 237Q221 207 231 185T259 150T303 137Z" />
<glyph unicode="p" horiz-adv-x="650" d="M412 572Q480 572 526 543T596 462T620 342Q620 269 601 205T543 92T449 16T320 -12Q276 -12 241 4T180 49L132 -178H-54L103 560H284L276 509Q303 538 338 555T412 572ZM301 140Q343 140 371 166T415 232T430 315Q430
345 422 369T397 406T350 420Q316 420 290 400T244 349L217 219Q221 183 243 162T301 140Z" />
<glyph unicode="q" horiz-adv-x="650" d="M327 572Q371 572 408 556T470 511L485 560H666L510 -178H324L373 51Q347 23 315 6T242 -12Q176 -12 128 16T54 97T28 222Q28 288 46 350T102 462T195 542T327 572ZM299 140Q332 140 359 159T407 211L433 340Q429 376
407 398T346 420Q305 420 277 394T233 328T218 242Q218 194 239 167T299 140Z" />
<glyph unicode="r" horiz-adv-x="650" d="M413 263L429 341Q437 376 426 397T382 418Q349 418 311 394T227 312L239 449Q274 488 306 515T374 557T456 572Q516 572 557 545T614 466T615 341L599 263H413ZM-2 0L117 560H298L285 473L184 0H-2Z" />
<glyph unicode="s" horiz-adv-x="650" d="M302 -12Q252 -12 206 1T124 41T66 105T44 192H215Q217 157 240 138T309 118Q345 118 365 130T386 163Q386 181 366 192T313 212T244 231T175 260T121 307T100 383Q100 444 133 486T225 550T359 572Q425 572 479 551T566
488T603 384H432Q429 412 407 427T352 442Q318 442 300 431T281 399Q281 381 301 370T354 351T424 332T493 304T546 257T567 180Q567 118 534 76T442 11T302 -12Z" />
<glyph unicode="t" horiz-adv-x="650" d="M309 0Q248 0 208 23T152 92T150 208L247 662L449 740L338 217Q332 188 338 174T361 154T407 149H553L521 0H309ZM83 411L115 560H548L516 411H83Z" />
<glyph unicode="u" horiz-adv-x="650" d="M291 560L219 222Q212 187 225 166T268 145Q306 145 339 169T419 248L406 105Q353 43 301 16T193 -12Q133 -12 92 14T33 89T29 203L105 560H291ZM653 560L534 0H353L366 87L467 560H653Z" />
<glyph unicode="v" horiz-adv-x="650" d="M157 0L83 560H270L292 304L293 159L358 304L486 560H685L374 0H157Z" />
<glyph unicode="w" horiz-adv-x="650" d="M29 0L72 560H223L193 282L176 169L211 282L307 560H456L439 282L424 163L457 282L544 560H697L504 0H319L332 274L353 411L315 274L213 0H29Z" />
<glyph unicode="x" horiz-adv-x="650" d="M439 277L553 0H355L331 66L302 161L230 61L182 0H-27L211 287L98 560H296L318 502L349 404L422 505L465 560H670L439 277Z" />
<glyph unicode="y" horiz-adv-x="650" d="M293 390L309 241L378 374L488 560H686L319 -21Q281 -80 243 -117T157 -172T45 -190H-67L-36 -40H43Q74 -40 94 -30T130 -2T161 41L181 71L81 560H266L293 390Z" />
<glyph unicode="z" horiz-adv-x="650" d="M17 0L45 135L243 317L358 409L207 410H114L146 560H634L605 428L403 242L288 151L439 150H547L515 0H17Z" />
<glyph unicode="{" horiz-adv-x="650" d="M343 -98Q286 -98 241 -75T176 -7T171 105L185 169Q193 207 180 223T133 241L159 364Q192 364 211 376T238 422L259 519Q272 576 304 616T384 677T493 698H588L558 557H524Q489 557 467 540T436 486L421 413Q413 369 389
343T331 301T257 278L267 320Q303 310 330 295T369 253T373 186L359 124Q351 84 367 64T417 43H449L418 -98H343Z" />
<glyph unicode="|" horiz-adv-x="650" d="M128 -190L325 741H521L323 -190H128Z" />
<glyph unicode="}" horiz-adv-x="650" d="M151 -98H71L100 43H133Q168 43 191 58T222 114L237 186Q246 227 269 253T326 294T400 320L392 278Q355 286 328 301T288 342T285 413L300 481Q308 518 292 537T241 557H210L240 698H325Q386 698 427 676T486 609T488
494L473 424Q465 389 480 377T526 364L501 241Q471 240 450 226T419 174L401 87Q389 29 356 -12T271 -76T151 -98Z" />
<glyph unicode="~" horiz-adv-x="650" d="M425 194Q389 194 361 204T312 228T272 252T235 263Q209 263 195 247T174 198H16Q27 269 57 317T134 391T236 417Q273 417 301 407T350 383T390 359T426 349Q451 349 464 365T487 413H645Q635 345 605 296T529 221T425 194Z" />
<glyph unicode="&#xa0;" horiz-adv-x="650" />
<glyph unicode="&#xa1;" horiz-adv-x="650" d="M284 560H484L443 366H243L284 560ZM406 331L366 -9L339 -138H134L162 -9L266 331H406Z" />
<glyph unicode="&#xa2;" horiz-adv-x="650" d="M282 528L309 657H494L467 528H282ZM150 -95L175 24H359L334 -95H150ZM304 -12Q227 -12 168 19T75 106T41 236Q41 313 65 374T134 480T237 548T366 572Q443 572 501 543T590 462T617 336H435Q435 376 416 398T359
421Q328 421 304 407T264 367T240 310T231 244Q231 191 256 164T317 136Q356 136 383 157T419 218H601Q586 148 548 97T450 17T304 -12Z" />
<glyph unicode="&#xa3;" horiz-adv-x="650" d="M6 0L40 160Q82 182 107 203T144 246T155 294Q155 317 147 344T130 405T121 476Q121 541 152 594T241 678T380 710Q456 710 510 683T593 602T617 470H428Q430 507 418 529T374 551Q351 551 338 541T319 513T313 476Q313
449 321 419T336 360T344 305Q344 266 325 231T271 167T183 115L178 160H550L516 0H6ZM56 279L81 394H535L510 279H56Z" />
<glyph unicode="&#xa4;" horiz-adv-x="650" d="M149 445L22 589L142 706L280 550L149 445ZM142 -34L22 83L149 227L280 122L142 -34ZM532 -34L394 122L525 227L652 83L532 -34ZM525 445L394 553L532 706L652 589L525 445ZM339 30Q258 30 195 70T95 180T58 336Q58
422 94 491T194 600T339 641Q420 641 483 601T583 491T619 336Q619 249 583 180T484 71T339 30ZM338 177Q374 177 401 197T444 253T460 336Q460 383 445 419T402 475T338 495Q303 495 276 475T233 419T218 336Q218 289 233 253T275 197T338 177Z" />
<glyph unicode="&#xa5;" horiz-adv-x="650" d="M54 256L78 371H605L580 256H54ZM164 0L224 282L104 698H298L330 565L350 425L431 567L518 698H723L421 282L361 0H164Z" />
<glyph unicode="&#xa6;" horiz-adv-x="650" d="M245 363L325 741H521L440 363H245ZM128 -190L208 188H403L323 -190H128Z" />
<glyph unicode="&#xa7;" horiz-adv-x="650" d="M275 -190Q188 -190 127 -159T33 -74T1 48H192Q193 6 215 -19T278 -45Q303 -45 318 -38T341 -19T349 9Q349 29 333 40T290 60T231 76T166 94T108 122T65 167T49 235Q49 278 71 315T132 378Q114 398 101 428T87 491Q87
561 123 610T223 684T365 710Q435 710 495 684T593 609T633 491H438Q436 525 414 545T359 565Q329 565 311 553T293 518Q293 498 309 485T351 464T410 447T474 427T532 397T575 350T591 279Q591 235 572 200T515 134Q529 119 542 95T555 35Q555 -34 519 -84T420
-162T275 -190ZM378 210Q385 219 389 228T394 248Q394 263 383 272T352 287T310 299T263 312Q254 303 249 294T244 272Q244 260 251 252T272 238T302 228T338 220T378 210Z" />
<glyph unicode="&#xa8;" horiz-adv-x="651" d="M498 628L531 780H708L675 628H498ZM253 628L285 780H462L430 628H253Z" />
<glyph unicode="&#xa9;" horiz-adv-x="650" d="M343 160Q297 160 262 184T207 253T187 355Q187 413 207 456T262 524T344 547Q403 546 441 504T481 394H389Q386 423 373 441T341 460Q316 460 300 431T284 357Q284 307 300 277T341 246Q362 246 375 265T390 314H482Q478
245 439 203T343 160ZM340 -12Q251 -12 182 34T74 162T35 349Q35 454 74 535T182 663T340 710Q429 710 498 664T607 536T646 349Q646 244 607 163T499 35T340 -12ZM339 69Q400 69 447 105T522 204T550 349Q550 431 523 494T448 593T339 629Q278 629 231 593T157
494T130 348Q130 267 156 204T230 105T339 69Z" />
<glyph unicode="&#xaa;" horiz-adv-x="650" d="M381 324L395 397L430 564Q436 592 423 605T384 618Q360 618 345 607T326 577H202Q214 640 262 674T389 708Q442 708 483 691T545 639T555 551L506 324H381ZM295 316Q265 316 239 328T196 366T180 427Q180 471 203
500T267 545T361 561H439L420 473L351 472Q332 472 321 464T310 441Q310 428 319 421T345 414Q381 414 402 439T442 513L443 441Q426 378 386 347T295 316Z" />
<glyph unicode="&#xab;" horiz-adv-x="650" d="M385 60L287 275L476 490H658L461 271L561 60H385ZM382 60L284 275L473 490H655L458 271L558 60H382Z" />
<glyph unicode="&#xac;" horiz-adv-x="650" d="M362 109L420 386H605L546 109H362ZM56 226L90 386H605L571 226H56Z" />
<glyph unicode="&#xad;" horiz-adv-x="650" d="M133 227L167 387H528L494 227H133Z" />
<glyph unicode="&#xae;" horiz-adv-x="650" d="M330 470V527H379Q390 527 397 533T404 550Q404 560 397 565T380 571H330V628H382Q427 628 451 609T476 550Q476 515 448 493T381 470H330ZM286 404V628H358V404H286ZM406 404Q405 416 402 431T387 462T349 483L412
505Q440 487 458 463T481 404H406ZM374 287Q304 287 250 317T166 398T136 514Q136 578 166 629T250 711T374 742Q445 742 498 712T582 630T612 514Q612 450 582 399T499 317T374 287ZM373 345Q422 345 460 366T519 426T541 514Q541 565 520 603T460 662T373 684Q325
684 288 663T229 603T207 514Q207 464 228 426T287 367T373 345Z" />
<glyph unicode="&#xaf;" horiz-adv-x="651" d="M297 641L324 766H704L677 641H297Z" />
<glyph unicode="&#xb0;" horiz-adv-x="650" d="M356 349Q311 349 276 368T221 420T201 495Q201 554 225 603T295 681T400 711Q446 711 481 692T536 639T556 562Q556 505 531 457T462 379T356 349ZM365 459Q379 459 389 468T408 492T419 523T423 555Q423 576 414
588T390 601Q377 601 367 592T349 567T338 534T334 503Q334 482 342 471T365 459Z" />
<glyph unicode="&#xb1;" horiz-adv-x="650" d="M79 346L113 505H633L599 346H79ZM227 200L323 651H485L389 200H227ZM11 0L45 160H559L525 0H11Z" />
<glyph unicode="&#xb2;" horiz-adv-x="650" d="M154 305L174 399Q232 432 278 462T357 518T407 568T425 614Q425 629 417 639T390 649Q368 649 356 633T343 588H208Q218 671 265 715T403 759Q451 759 488 743T546 697T568 626Q568 583 542 545T474 475T385 416H534L511
305H154Z" />
<glyph unicode="&#xb3;" horiz-adv-x="650" d="M355 294Q273 294 226 341T182 466H317Q314 439 326 423T361 406Q381 406 392 417T404 448Q404 465 392 475T358 485H337L357 575H379Q400 575 411 586T422 617Q422 630 413 637T390 645Q371 645 360 634T347 602H212Q220
672 271 714T401 756Q451 756 487 740T544 697T565 633Q565 597 545 569T487 528Q514 518 530 494T546 437Q546 373 494 334T355 294Z" />
<glyph unicode="&#xb4;" horiz-adv-x="650" d="M408 615L528 788H708L557 615H408Z" />
<glyph unicode="&#xb5;" horiz-adv-x="650" d="M-50 -190L56 306L241 308L192 80L169 59L116 -190H-50ZM296 560L224 222Q217 188 230 167T273 145Q311 145 344 169T424 248L411 105Q358 43 307 16T198 -12Q139 -12 97 14T38 89T34 203L110 560H296ZM658 560L539
0H358L371 87L472 560H658Z" />
<glyph unicode="&#xb6;" horiz-adv-x="650" d="M141 -190L231 235Q156 246 112 298T67 427Q67 504 101 565T196 662T339 698H476L288 -190H141ZM372 -190L561 698H708L519 -190H372Z" />
<glyph unicode="&#xb7;" horiz-adv-x="633" d="M191 212L230 396H421L381 212H191Z" />
<glyph unicode="&#xb8;" horiz-adv-x="650" d="M358 -221Q332 -221 309 -217T261 -204L276 -132Q290 -136 308 -140T345 -145Q364 -145 376 -140T389 -124Q389 -116 380 -112T356 -107Q346 -107 337 -108T319 -113L305 -71L389 31L465 6L422 -42Q425 -41 428 -41T433
-41Q466 -41 492 -60T519 -114Q519 -152 496 -176T435 -210T358 -221Z" />
<glyph unicode="&#xb9;" horiz-adv-x="650" d="M303 301L368 608L195 502L223 636L412 748H535L440 301H303ZM181 412H575L552 301H157L181 412Z" />
<glyph unicode="&#xba;" horiz-adv-x="650" d="M347 318Q300 318 263 336T205 389T183 470Q183 539 210 592T286 677T403 708Q450 708 487 690T545 638T566 557Q566 488 540 434T464 349T347 318ZM358 413Q383 413 401 433T430 484T440 551Q440 579 427 595T393
612Q367 612 349 593T320 542T310 475Q310 447 323 430T358 413Z" />
<glyph unicode="&#xbb;" horiz-adv-x="650" d="M168 60H-14L183 279L83 490H260L357 275L168 60ZM430 60H248L445 279L345 490H522L619 275L430 60Z" />
<glyph unicode="&#xbc;" horiz-adv-x="1300" d="M242 251L307 558L134 452L162 586L351 698H474L379 251H242ZM120 362H514L491 251H96L120 362ZM309 0L899 698H1051L460 0H309ZM889 0L908 87H698L720 190L955 447H1122L1069 198H1149L1126 87H1045L1027 0H889ZM853
198H931L956 315L853 198Z" />
<glyph unicode="&#xbd;" horiz-adv-x="1300" d="M242 251L307 558L134 452L162 586L351 698H474L379 251H242ZM120 362H514L491 251H96L120 362ZM309 0L899 698H1051L460 0H309ZM765 0L785 94Q843 127 889 157T968 213T1018 263T1036 309Q1036 324 1028 334T1001
344Q979 344 967 328T954 283H819Q829 366 876 410T1014 454Q1062 454 1099 438T1157 392T1179 321Q1179 278 1153 240T1085 170T996 111H1145L1122 0H765Z" />
<glyph unicode="&#xbe;" horiz-adv-x="1300" d="M335 244Q253 244 206 291T162 416H297Q294 389 306 373T341 356Q361 356 372 367T384 398Q384 415 372 425T338 435H317L337 525H359Q380 525 391 536T402 567Q402 580 393 587T370 595Q351 595 340 584T327 552H192Q200
622 251 664T381 706Q431 706 467 690T524 647T545 583Q545 547 525 519T467 478Q494 468 510 444T526 387Q526 323 474 284T335 244ZM302 0L892 698H1044L453 0H302ZM894 0L913 87H703L725 190L960 447H1127L1074 198H1154L1131 87H1050L1032 0H894ZM858 198H936L961
315L858 198Z" />
<glyph unicode="&#xbf;" horiz-adv-x="650" d="M390 337L388 321Q383 281 368 253T331 205T286 169T243 138T210 103T197 59Q197 30 215 13T265 -4Q315 -4 339 29T364 112H550Q546 30 509 -28T407 -118T253 -150Q182 -150 127 -127T41 -60T9 44Q9 91 23 124T60
179T109 218T160 249T203 281T228 322L232 337H390ZM452 560L412 376H222L261 560H452Z" />
<glyph unicode="&#xc0;" horiz-adv-x="650" d="M87 129L121 284H548L514 129H87ZM271 698H556L568 0H371L382 341L385 557L296 341L162 0H-37L271 698ZM505 754H372L290 927H454L505 754Z" />
<glyph unicode="&#xc1;" horiz-adv-x="650" d="M87 129L121 284H548L514 129H87ZM271 698H556L568 0H371L382 341L385 557L296 341L162 0H-37L271 698ZM327 753L447 926H627L476 753H327Z" />
<glyph unicode="&#xc2;" horiz-adv-x="650" d="M87 129L121 284H548L514 129H87ZM271 698H556L568 0H371L382 341L385 557L296 341L162 0H-37L271 698ZM201 753L353 926H555L638 753H473L439 840L375 753H201Z" />
<glyph unicode="&#xc3;" horiz-adv-x="650" d="M87 129L121 284H548L514 129H87ZM271 698H556L568 0H371L382 341L385 557L296 341L162 0H-37L271 698ZM324 747L197 768Q217 839 255 883T355 927Q393 927 417 918T460 900T495 890Q513 890 526 902T546 934L675
914Q653 843 614 799T513 755Q480 755 455 765T411 784T372 794Q355 794 343 781T324 747Z" />
<glyph unicode="&#xc4;" horiz-adv-x="650" d="M87 129L121 284H548L514 129H87ZM271 698H556L568 0H371L382 341L385 557L296 341L162 0H-37L271 698ZM457 766L490 918H667L634 766H457ZM212 766L244 918H421L389 766H212Z" />
<glyph unicode="&#xc5;" horiz-adv-x="650" d="M87 129L121 284H548L514 129H87ZM271 698H556L568 0H371L382 341L385 557L296 341L162 0H-37L271 698ZM427 726Q374 726 340 756T306 834Q306 893 346 931T451 969Q505 969 539 938T574 859Q574 800 533 763T427
726ZM434 805Q456 805 469 818T483 853Q483 868 473 879T445 890Q424 890 410 877T396 842Q396 826 407 816T434 805Z" />
<glyph unicode="&#xc6;" horiz-adv-x="650" d="M-54 0L325 698H479L118 0H-54ZM134 119L168 279H367L333 119H134ZM281 0L430 698H723L689 539H553L531 435H638L605 280H498L472 160H612L578 0H281Z" />
<glyph unicode="&#xc7;" horiz-adv-x="650" d="M309 -12Q225 -12 163 24T66 124T31 273Q31 366 56 446T128 585T244 677T398 710Q477 710 537 679T630 589T660 451H458Q456 497 438 524T384 551Q344 551 316 525T269 459T243 372T234 285Q234 244 243 213T272
165T322 148Q364 148 391 176T426 252H629Q611 172 573 113T470 21T309 -12ZM269 -221Q243 -221 220 -217T172 -204L187 -132Q201 -136 219 -140T256 -145Q275 -145 287 -140T300 -124Q300 -116 291 -112T267 -107Q257 -107 248 -108T230 -113L216 -71L300 31L376
6L333 -42Q336 -41 339 -41T344 -41Q377 -41 403 -60T430 -114Q430 -152 407 -176T346 -210T269 -221Z" />
<glyph unicode="&#xc8;" horiz-adv-x="650" d="M0 0L149 698H683L649 539H312L290 435H504L471 280H257L231 160H573L539 0H0ZM505 755H372L290 928H454L505 755Z" />
<glyph unicode="&#xc9;" horiz-adv-x="650" d="M0 0L149 698H683L649 539H312L290 435H504L471 280H257L231 160H573L539 0H0ZM326 754L446 927H626L475 754H326Z" />
<glyph unicode="&#xca;" horiz-adv-x="650" d="M0 0L149 698H683L649 539H312L290 435H504L471 280H257L231 160H573L539 0H0ZM200 754L352 927H554L637 754H472L438 841L374 754H200Z" />
<glyph unicode="&#xcb;" horiz-adv-x="650" d="M0 0L149 698H683L649 539H312L290 435H504L471 280H257L231 160H573L539 0H0ZM457 767L490 919H667L634 767H457ZM212 767L244 919H421L389 767H212Z" />
<glyph unicode="&#xcc;" horiz-adv-x="650" d="M167 0L315 698H512L364 0H167ZM166 698H661L627 539H132L166 698ZM52 160H547L513 0H18L52 160ZM504 755H371L289 928H453L504 755Z" />
<glyph unicode="&#xcd;" horiz-adv-x="650" d="M167 0L315 698H512L364 0H167ZM166 698H661L627 539H132L166 698ZM52 160H547L513 0H18L52 160ZM326 754L446 927H626L475 754H326Z" />
<glyph unicode="&#xce;" horiz-adv-x="650" d="M167 0L315 698H512L364 0H167ZM166 698H661L627 539H132L166 698ZM52 160H547L513 0H18L52 160ZM200 754L352 927H554L637 754H472L438 841L374 754H200Z" />
<glyph unicode="&#xcf;" horiz-adv-x="650" d="M167 0L315 698H512L364 0H167ZM166 698H661L627 539H132L166 698ZM52 160H547L513 0H18L52 160ZM456 767L489 919H666L633 767H456ZM211 767L243 919H420L388 767H211Z" />
<glyph unicode="&#xd0;" horiz-adv-x="650" d="M2 285L30 416H398L370 285H2ZM-16 0L132 698H362Q432 698 485 675T575 612T629 521T647 412Q647 321 617 246T530 115T398 30T228 0H-16ZM215 160H258Q302 160 336 181T394 237T430 315T443 404Q443 465 414 502T333
539H295L215 160Z" />
<glyph unicode="&#xd1;" horiz-adv-x="650" d="M-13 0L135 698H360L433 236L469 478L516 698H694L546 0H317L243 449L212 221L165 0H-13ZM337 748L210 769Q230 840 268 884T368 928Q406 928 430 919T473 901T508 891Q526 891 539 903T559 935L688 915Q666 844
627 800T526 756Q493 756 468 766T424 785T385 795Q368 795 356 782T337 748Z" />
<glyph unicode="&#xd2;" horiz-adv-x="650" d="M288 -12Q213 -12 155 21T65 116T32 259Q32 347 55 428T124 572T237 673T394 710Q469 710 526 678T616 585T649 441Q649 353 626 272T558 127T445 26T288 -12ZM305 148Q340 148 367 173T414 239T443 330T453 432Q453
491 432 521T376 551Q341 551 314 526T268 460T238 369T228 267Q228 228 238 202T265 162T305 148ZM489 756H356L274 929H438L489 756Z" />
<glyph unicode="&#xd3;" horiz-adv-x="650" d="M288 -12Q213 -12 155 21T65 116T32 259Q32 347 55 428T124 572T237 673T394 710Q469 710 526 678T616 585T649 441Q649 353 626 272T558 127T445 26T288 -12ZM305 148Q340 148 367 173T414 239T443 330T453 432Q453
491 432 521T376 551Q341 551 314 526T268 460T238 369T228 267Q228 228 238 202T265 162T305 148ZM311 755L431 928H611L460 755H311Z" />
<glyph unicode="&#xd4;" horiz-adv-x="650" d="M288 -12Q213 -12 155 21T65 116T32 259Q32 347 55 428T124 572T237 673T394 710Q469 710 526 678T616 585T649 441Q649 353 626 272T558 127T445 26T288 -12ZM305 148Q340 148 367 173T414 239T443 330T453 432Q453
491 432 521T376 551Q341 551 314 526T268 460T238 369T228 267Q228 228 238 202T265 162T305 148ZM185 755L337 928H539L622 755H457L423 842L359 755H185Z" />
<glyph unicode="&#xd5;" horiz-adv-x="650" d="M288 -12Q213 -12 155 21T65 116T32 259Q32 347 55 428T124 572T237 673T394 710Q469 710 526 678T616 585T649 441Q649 353 626 272T558 127T445 26T288 -12ZM305 148Q340 148 367 173T414 239T443 330T453 432Q453
491 432 521T376 551Q341 551 314 526T268 460T238 369T228 267Q228 228 238 202T265 162T305 148ZM308 749L181 770Q201 841 239 885T339 929Q377 929 401 920T444 902T479 892Q497 892 510 904T530 936L659 916Q637 845 598 801T497 757Q464 757 439 767T395
786T356 796Q339 796 327 783T308 749Z" />
<glyph unicode="&#xd6;" horiz-adv-x="650" d="M288 -12Q213 -12 155 21T65 116T32 259Q32 347 55 428T124 572T237 673T394 710Q469 710 526 678T616 585T649 441Q649 353 626 272T558 127T445 26T288 -12ZM305 148Q340 148 367 173T414 239T443 330T453 432Q453
491 432 521T376 551Q341 551 314 526T268 460T238 369T228 267Q228 228 238 202T265 162T305 148ZM441 768L474 920H651L618 768H441ZM196 768L228 920H405L373 768H196Z" />
<glyph unicode="&#xd7;" horiz-adv-x="650" d="M143 55L56 166L522 551L609 439L143 55ZM422 55L115 445L243 551L549 160L422 55Z" />
<glyph unicode="&#xd8;" horiz-adv-x="650" d="M293 -12Q215 -12 157 21T65 116T32 259Q32 347 55 428T123 572T235 673T389 710Q466 710 524 678T616 585T649 441Q649 353 626 272T558 127T447 26T293 -12ZM308 139Q345 139 374 165T423 234T454 331T465 441Q465
497 442 528T380 560Q343 560 314 534T265 465T233 368T222 258Q222 203 245 171T308 139ZM137 -78L13 -17L550 782L674 722L137 -78Z" />
<glyph unicode="&#xd9;" horiz-adv-x="650" d="M289 -12Q195 -12 130 21T38 115T28 262L121 698H318L223 252Q216 220 224 197T253 161T303 148Q334 148 356 160T394 196T416 252L511 698H708L614 257Q596 175 556 115T449 21T289 -12ZM501 755H368L286 928H450L501 755Z" />
<glyph unicode="&#xda;" horiz-adv-x="650" d="M289 -12Q195 -12 130 21T38 115T28 262L121 698H318L223 252Q216 220 224 197T253 161T303 148Q334 148 356 160T394 196T416 252L511 698H708L614 257Q596 175 556 115T449 21T289 -12ZM323 754L443 927H623L472 754H323Z" />
<glyph unicode="&#xdb;" horiz-adv-x="650" d="M289 -12Q195 -12 130 21T38 115T28 262L121 698H318L223 252Q216 220 224 197T253 161T303 148Q334 148 356 160T394 196T416 252L511 698H708L614 257Q596 175 556 115T449 21T289 -12ZM197 754L349 927H551L634
754H469L435 841L371 754H197Z" />
<glyph unicode="&#xdc;" horiz-adv-x="650" d="M289 -12Q195 -12 130 21T38 115T28 262L121 698H318L223 252Q216 220 224 197T253 161T303 148Q334 148 356 160T394 196T416 252L511 698H708L614 257Q596 175 556 115T449 21T289 -12ZM453 767L486 919H663L630
767H453ZM208 767L240 919H417L385 767H208Z" />
<glyph unicode="&#xdd;" horiz-adv-x="650" d="M164 0L224 282L104 698H298L330 565L350 425L431 567L518 698H723L421 282L361 0H164ZM324 754L444 927H624L473 754H324Z" />
<glyph unicode="&#xde;" horiz-adv-x="650" d="M161 120L195 279H329Q361 279 385 291T422 324T436 372Q436 402 417 425T360 449H230L264 608H389Q465 608 522 578T610 498T641 387Q641 304 598 244T477 152T298 120H161ZM-6 0L143 698H340L191 0H-6Z" />
<glyph unicode="&#xdf;" horiz-adv-x="650" d="M319 -11Q293 -11 264 -8T209 2L241 152Q253 146 276 142T324 138Q380 138 411 164T442 234Q442 271 418 292T348 314H275L304 448H352Q381 448 403 458T437 486T449 529Q449 559 430 576T372 594Q329 594 301 570T262
496L157 0H-29L78 505Q93 575 133 628T237 710T388 740Q465 740 521 717T607 651T637 551Q637 499 614 462T549 400T454 361L459 398Q513 398 550 375T608 316T628 236Q628 161 589 106T481 20T319 -11Z" />
<glyph unicode="&#xe0;" horiz-adv-x="650" d="M350 0L363 87L422 361Q427 387 419 405T391 433T344 443Q306 443 282 428T252 381H73Q82 437 118 480T214 547T354 572Q444 572 505 544T591 461T601 331L531 0H350ZM214 -12Q162 -12 123 10T63 69T42 146Q42 213
74 256T162 321T289 342H433L406 221L283 220Q252 219 236 206T220 171Q220 152 234 141T273 129Q309 129 339 145T394 193L388 84Q352 34 313 11T214 -12ZM464 615H331L249 788H413L464 615Z" />
<glyph unicode="&#xe1;" horiz-adv-x="650" d="M350 0L363 87L422 361Q427 387 419 405T391 433T344 443Q306 443 282 428T252 381H73Q82 437 118 480T214 547T354 572Q444 572 505 544T591 461T601 331L531 0H350ZM214 -12Q162 -12 123 10T63 69T42 146Q42 213
74 256T162 321T289 342H433L406 221L283 220Q252 219 236 206T220 171Q220 152 234 141T273 129Q309 129 339 145T394 193L388 84Q352 34 313 11T214 -12ZM286 870L406 1043H586L435 870H286Z" />
<glyph unicode="&#xe2;" horiz-adv-x="650" d="M350 0L363 87L422 361Q427 387 419 405T391 433T344 443Q306 443 282 428T252 381H73Q82 437 118 480T214 547T354 572Q444 572 505 544T591 461T601 331L531 0H350ZM214 -12Q162 -12 123 10T63 69T42 146Q42 213
74 256T162 321T289 342H433L406 221L283 220Q252 219 236 206T220 171Q220 152 234 141T273 129Q309 129 339 145T394 193L388 84Q352 34 313 11T214 -12ZM416 615L568 788H770L853 615H688L654 702L590 615H416Z" />
<glyph unicode="&#xe3;" horiz-adv-x="650" d="M350 0L363 87L422 361Q427 387 419 405T391 433T344 443Q306 443 282 428T252 381H73Q82 437 118 480T214 547T354 572Q444 572 505 544T591 461T601 331L531 0H350ZM214 -12Q162 -12 123 10T63 69T42 146Q42 213
74 256T162 321T289 342H433L406 221L283 220Q252 219 236 206T220 171Q220 152 234 141T273 129Q309 129 339 145T394 193L388 84Q352 34 313 11T214 -12ZM283 864L156 885Q176 956 214 1000T314 1044Q352 1044 376 1035T419 1017T454 1007Q472 1007 485 1019T505
1051L634 1031Q612 960 573 916T472 872Q439 872 414 882T370 901T331 911Q314 911 302 898T283 864Z" />
<glyph unicode="&#xe4;" horiz-adv-x="650" d="M350 0L363 87L422 361Q427 387 419 405T391 433T344 443Q306 443 282 428T252 381H73Q82 437 118 480T214 547T354 572Q444 572 505 544T591 461T601 331L531 0H350ZM214 -12Q162 -12 123 10T63 69T42 146Q42 213
74 256T162 321T289 342H433L406 221L283 220Q252 219 236 206T220 171Q220 152 234 141T273 129Q309 129 339 145T394 193L388 84Q352 34 313 11T214 -12ZM672 883L705 1035H882L849 883H672ZM427 883L459 1035H636L604 883H427Z" />
<glyph unicode="&#xe5;" horiz-adv-x="650" d="M350 0L363 87L422 361Q427 387 419 405T391 433T344 443Q306 443 282 428T252 381H73Q82 437 118 480T214 547T354 572Q444 572 505 544T591 461T601 331L531 0H350ZM214 -12Q162 -12 123 10T63 69T42 146Q42 213
74 256T162 321T289 342H433L406 221L283 220Q252 219 236 206T220 171Q220 152 234 141T273 129Q309 129 339 145T394 193L388 84Q352 34 313 11T214 -12ZM642 843Q589 843 555 873T521 951Q521 1010 561 1048T666 1086Q720 1086 754 1055T789 976Q789 917 748
880T642 843ZM649 922Q671 922 684 935T698 970Q698 985 688 996T660 1007Q639 1007 625 994T611 959Q611 943 622 933T649 922Z" />
<glyph unicode="&#xe6;" horiz-adv-x="650" d="M195 119L252 386Q256 404 255 416T247 435T230 441Q213 441 201 426T183 381H26Q46 470 102 521T242 572Q304 572 342 546T395 472T396 365L344 119H195ZM127 -12Q61 -12 24 29T-13 131Q-13 195 16 240T95 310T211
335H253L228 223H206Q176 223 156 203T135 155Q135 140 142 130T163 120Q185 120 201 149T230 251L300 161Q275 74 235 31T127 -12ZM395 -12Q342 -12 303 12T241 81T219 183Q219 232 229 285T261 389T313 481T385 547T477 572Q534 572 569 547T621 479T637 379T624
257H354L379 365H494Q499 387 497 405T487 434T462 446Q441 446 426 426T400 374T383 308T375 247T372 207Q372 185 375 167T388 137T412 125Q432 125 446 143T471 193H614Q589 97 533 43T395 -12Z" />
<glyph unicode="&#xe7;" horiz-adv-x="650" d="M304 -12Q227 -12 168 19T75 106T41 236Q41 313 65 374T134 480T237 548T366 572Q443 572 501 543T590 462T617 336H435Q435 376 416 398T359 421Q328 421 304 407T264 367T240 310T231 244Q231 191 256 164T317
136Q356 136 383 157T419 218H601Q586 148 548 97T450 17T304 -12ZM252 -221Q226 -221 203 -217T155 -204L170 -132Q184 -136 202 -140T239 -145Q258 -145 270 -140T283 -124Q283 -116 274 -112T250 -107Q240 -107 231 -108T213 -113L199 -71L283 31L359 6L316
-42Q319 -41 322 -41T327 -41Q360 -41 386 -60T413 -114Q413 -152 390 -176T329 -210T252 -221Z" />
<glyph unicode="&#xe8;" horiz-adv-x="650" d="M300 -12Q224 -12 164 17T70 102T36 240Q36 306 57 366T119 472T221 545T360 572Q457 572 518 533T601 420T605 246H173L199 362L434 363Q435 395 415 415T352 436Q303 436 275 410T235 339T223 243Q223 212 233
188T264 149T312 135Q355 135 380 152T412 196H596Q581 135 545 88T449 14T300 -12ZM456 616H323L241 789H405L456 616Z" />
<glyph unicode="&#xe9;" horiz-adv-x="650" d="M300 -12Q224 -12 164 17T70 102T36 240Q36 306 57 366T119 472T221 545T360 572Q457 572 518 533T601 420T605 246H173L199 362L434 363Q435 395 415 415T352 436Q303 436 275 410T235 339T223 243Q223 212 233
188T264 149T312 135Q355 135 380 152T412 196H596Q581 135 545 88T449 14T300 -12ZM277 615L397 788H577L426 615H277Z" />
<glyph unicode="&#xea;" horiz-adv-x="650" d="M300 -12Q224 -12 164 17T70 102T36 240Q36 306 57 366T119 472T221 545T360 572Q457 572 518 533T601 420T605 246H173L199 362L434 363Q435 395 415 415T352 436Q303 436 275 410T235 339T223 243Q223 212 233
188T264 149T312 135Q355 135 380 152T412 196H596Q581 135 545 88T449 14T300 -12ZM407 615L559 788H761L844 615H679L645 702L581 615H407Z" />
<glyph unicode="&#xeb;" horiz-adv-x="650" d="M300 -12Q224 -12 164 17T70 102T36 240Q36 306 57 366T119 472T221 545T360 572Q457 572 518 533T601 420T605 246H173L199 362L434 363Q435 395 415 415T352 436Q303 436 275 410T235 339T223 243Q223 212 233
188T264 149T312 135Q355 135 380 152T412 196H596Q581 135 545 88T449 14T300 -12ZM664 628L697 780H874L841 628H664ZM419 628L451 780H628L596 628H419Z" />
<glyph unicode="&#xec;" horiz-adv-x="650" d="M183 0L302 560H488L369 0H183ZM3 0L35 149H568L536 0H3ZM160 411L192 560H395L363 411H160ZM492 616H359L277 789H441L492 616Z" />
<glyph unicode="&#xed;" horiz-adv-x="650" d="M183 0L302 560H488L369 0H183ZM3 0L35 149H568L536 0H3ZM160 411L192 560H395L363 411H160ZM314 615L434 788H614L463 615H314Z" />
<glyph unicode="&#xee;" horiz-adv-x="650" d="M183 0L302 560H488L369 0H183ZM3 0L35 149H568L536 0H3ZM160 411L192 560H395L363 411H160ZM188 616L340 789H542L625 616H460L426 703L362 616H188Z" />
<glyph unicode="&#xef;" horiz-adv-x="650" d="M183 0L302 560H488L369 0H183ZM3 0L35 149H568L536 0H3ZM160 411L192 560H395L363 411H160ZM444 628L477 780H654L621 628H444ZM199 628L231 780H408L376 628H199Z" />
<glyph unicode="&#xf0;" horiz-adv-x="650" d="M247 740H453Q497 704 533 648T592 524T614 378Q614 297 594 226T534 102T434 19T292 -12Q213 -12 155 17T66 100T34 223Q34 303 66 361T159 451T300 483Q368 483 418 451T500 356L442 230Q440 267 426 294T387 336T331
351Q290 351 266 335T232 293T221 235Q221 202 230 179T258 144T302 131Q339 131 363 156T401 223T420 310T426 398Q426 467 406 524T347 635T247 740ZM267 510L260 610L649 714L658 614L267 510Z" />
<glyph unicode="&#xf1;" horiz-adv-x="650" d="M355 0L427 338Q434 373 421 394T378 415Q340 415 307 391T227 312L240 455Q293 517 345 544T453 572Q513 572 554 546T613 471T617 357L541 0H355ZM-7 0L112 560H293L280 473L179 0H-7ZM306 609L179 630Q199 701
237 745T337 789Q375 789 399 780T442 762T477 752Q495 752 508 764T528 796L657 776Q635 705 596 661T495 617Q462 617 437 627T393 646T354 656Q337 656 325 643T306 609Z" />
<glyph unicode="&#xf2;" horiz-adv-x="650" d="M296 -12Q216 -12 157 18T65 102T32 230Q32 334 73 410T186 529T355 572Q435 572 494 542T585 458T617 331Q617 227 577 150T464 31T296 -12ZM303 137Q340 137 368 160T412 225T429 323Q429 368 407 395T348 423Q311
423 282 400T237 336T221 237Q221 207 231 185T259 150T303 137ZM468 616H335L253 789H417L468 616Z" />
<glyph unicode="&#xf3;" horiz-adv-x="650" d="M296 -12Q216 -12 157 18T65 102T32 230Q32 334 73 410T186 529T355 572Q435 572 494 542T585 458T617 331Q617 227 577 150T464 31T296 -12ZM303 137Q340 137 368 160T412 225T429 323Q429 368 407 395T348 423Q311
423 282 400T237 336T221 237Q221 207 231 185T259 150T303 137ZM289 615L409 788H589L438 615H289Z" />
<glyph unicode="&#xf4;" horiz-adv-x="650" d="M296 -12Q216 -12 157 18T65 102T32 230Q32 334 73 410T186 529T355 572Q435 572 494 542T585 458T617 331Q617 227 577 150T464 31T296 -12ZM303 137Q340 137 368 160T412 225T429 323Q429 368 407 395T348 423Q311
423 282 400T237 336T221 237Q221 207 231 185T259 150T303 137ZM419 616L571 789H773L856 616H691L657 703L593 616H419Z" />
<glyph unicode="&#xf5;" horiz-adv-x="650" d="M296 -12Q216 -12 157 18T65 102T32 230Q32 334 73 410T186 529T355 572Q435 572 494 542T585 458T617 331Q617 227 577 150T464 31T296 -12ZM303 137Q340 137 368 160T412 225T429 323Q429 368 407 395T348 423Q311
423 282 400T237 336T221 237Q221 207 231 185T259 150T303 137ZM287 609L160 630Q180 701 218 745T318 789Q356 789 380 780T423 762T458 752Q476 752 489 764T509 796L638 776Q616 705 577 661T476 617Q443 617 418 627T374 646T335 656Q318 656 306 643T287
609Z" />
<glyph unicode="&#xf6;" horiz-adv-x="650" d="M296 -12Q216 -12 157 18T65 102T32 230Q32 334 73 410T186 529T355 572Q435 572 494 542T585 458T617 331Q617 227 577 150T464 31T296 -12ZM303 137Q340 137 368 160T412 225T429 323Q429 368 407 395T348 423Q311
423 282 400T237 336T221 237Q221 207 231 185T259 150T303 137ZM676 628L709 780H886L853 628H676ZM431 628L463 780H640L608 628H431Z" />
<glyph unicode="&#xf7;" horiz-adv-x="650" d="M56 226L90 386H605L571 226H56ZM172 17L211 201H402L362 17H172ZM260 420L299 604H490L450 420H260Z" />
<glyph unicode="&#xf8;" horiz-adv-x="650" d="M105 -97L15 -30L535 642L625 576L105 -97ZM297 -12Q217 -12 158 18T67 102T34 230Q34 334 74 410T186 529T354 572Q434 572 493 542T584 458T617 331Q617 227 577 150T465 31T297 -12ZM305 137Q343 137 370 160T413
225T428 323Q428 368 406 395T346 423Q309 423 281 400T238 336T222 237Q222 207 232 185T262 150T305 137Z" />
<glyph unicode="&#xf9;" horiz-adv-x="650" d="M291 560L219 222Q212 187 225 166T268 145Q306 145 339 169T419 248L406 105Q353 43 301 16T193 -12Q133 -12 92 14T33 89T29 203L105 560H291ZM653 560L534 0H353L366 87L467 560H653ZM468 615H335L253 788H417L468 615Z" />
<glyph unicode="&#xfa;" horiz-adv-x="650" d="M291 560L219 222Q212 187 225 166T268 145Q306 145 339 169T419 248L406 105Q353 43 301 16T193 -12Q133 -12 92 14T33 89T29 203L105 560H291ZM653 560L534 0H353L366 87L467 560H653ZM289 870L409 1043H589L438 870H289Z" />
<glyph unicode="&#xfb;" horiz-adv-x="650" d="M291 560L219 222Q212 187 225 166T268 145Q306 145 339 169T419 248L406 105Q353 43 301 16T193 -12Q133 -12 92 14T33 89T29 203L105 560H291ZM653 560L534 0H353L366 87L467 560H653ZM419 615L571 788H773L856
615H691L657 702L593 615H419Z" />
<glyph unicode="&#xfc;" horiz-adv-x="650" d="M291 560L219 222Q212 187 225 166T268 145Q306 145 339 169T419 248L406 105Q353 43 301 16T193 -12Q133 -12 92 14T33 89T29 203L105 560H291ZM653 560L534 0H353L366 87L467 560H653ZM676 883L709 1035H886L853
883H676ZM431 883L463 1035H640L608 883H431Z" />
<glyph unicode="&#xfd;" horiz-adv-x="650" d="M293 390L309 241L378 374L488 560H686L319 -21Q281 -80 243 -117T157 -172T45 -190H-67L-36 -40H43Q74 -40 94 -30T130 -2T161 41L181 71L81 560H266L293 390ZM286 615L406 788H586L435 615H286Z" />
<glyph unicode="&#xfe;" horiz-adv-x="650" d="M426 572Q490 572 536 541T608 452T633 318Q633 255 613 196T552 90T454 16T322 -12Q276 -12 240 5T182 49L134 -178H-52L143 740H329L280 511Q313 539 347 555T426 572ZM309 140Q340 140 364 154T406 193T433 248T443
310Q443 358 422 389T358 420Q321 420 293 399T244 340L218 219Q223 183 248 162T309 140Z" />
<glyph unicode="&#xff;" horiz-adv-x="650" d="M293 390L309 241L378 374L488 560H686L319 -21Q281 -80 243 -117T157 -172T45 -190H-67L-36 -40H43Q74 -40 94 -30T130 -2T161 41L181 71L81 560H266L293 390ZM672 628L705 780H882L849 628H672ZM427 628L459 780H636L604
628H427Z" />
<glyph unicode="&#x2013;" horiz-adv-x="650" d="M30 227L64 387H632L598 227H30Z" />
<glyph unicode="&#x2014;" horiz-adv-x="1300" d="M88 226L121 386H1224L1190 226H88Z" />
<glyph unicode="&#x2018;" horiz-adv-x="650" d="M494 607L455 423H264L303 607L412 772H571L503 688L394 607H494Z" />
<glyph unicode="&#x2019;" horiz-adv-x="651" d="M287 588L326 772H517L478 588L369 423H210L278 507L387 588H287Z" />
<glyph unicode="&#x201a;" horiz-adv-x="650" d="M162 0L201 184H392L353 0L244 -165H85L153 -81L262 0H162Z" />
<glyph unicode="&#x201c;" horiz-adv-x="651" d="M368 607L329 423H138L177 607L286 772H445L377 688L268 607H368ZM620 607L581 423H390L429 607L538 772H697L629 688L520 607H620Z" />
<glyph unicode="&#x201d;" horiz-adv-x="650" d="M418 588L457 772H648L609 588L500 423H341L409 507L518 588H418ZM166 588L205 772H396L357 588L248 423H89L157 507L266 588H166Z" />
<glyph unicode="&#x201e;" horiz-adv-x="650" d="M293 0L332 184H523L484 0L375 -165H216L284 -81L393 0H293ZM297 0L336 184H527L488 0L379 -165H220L288 -81L397 0H297Z" />
<glyph unicode="&#x2022;" horiz-adv-x="650" d="M158 166L215 439H502L444 166H158Z" />
<glyph unicode="&#x2039;" horiz-adv-x="650" d="M257 60L159 275L348 490H530L333 271L433 60H257Z" />
<glyph unicode="&#x203a;" horiz-adv-x="650" d="M301 60H119L316 279L215 490H392L489 275L301 60Z" />
</font>
</defs>
</svg>
