<?xml version="1.0" standalone="no"?>
<!DOCTYPE svg PUBLIC "-//W3C//DTD SVG 1.1//EN" "http://www.w3.org/Graphics/SVG/1.1/DTD/svg11.dtd">
<svg xmlns="http://www.w3.org/2000/svg">
<defs >
<font id="AzeretMono" horiz-adv-x="685" ><font-face
    font-family="Azeret Mono Thin ExtraLight"
    units-per-em="1000"
    panose-1="0 0 0 0 0 0 0 0 0 0"
    ascent="937"
    descent="-230"
    alphabetic="0" />
<glyph unicode=" " horiz-adv-x="650" />
<glyph unicode="!" horiz-adv-x="650" d="M281 176L351 577L377 698H455L429 577L329 176H281ZM223 0L242 91H329L309 0H223Z" />
<glyph unicode="&quot;" horiz-adv-x="650" d="M429 518L466 741H539L481 518H429ZM529 518L566 741H639L581 518H529Z" />
<glyph unicode="#" horiz-adv-x="650" d="M261 0L601 698H661L321 0H261ZM-4 213L23 271H579L552 213H-4ZM19 0L359 698H419L79 0H19ZM105 438L133 496H689L661 438H105Z" />
<glyph unicode="$" horiz-adv-x="650" d="M369 680L394 797H459L434 680H369ZM202 -105L229 20H294L267 -105H202ZM316 -12Q236 -12 178 20T88 109T59 246H127Q128 155 179 102T319 48Q370 48 408 66T468 115T490 184Q490 220 471 244T419 286T349 319T272 350T201
389T150 441T130 517Q130 574 160 617T245 685T373 710Q442 710 494 684T578 612T610 502H542Q536 571 489 610T369 650Q320 650 282 633T223 587T201 522Q201 488 220 465T272 424T343 392T419 361T490 322T542 268T562 189Q562 129 530 84T443 13T316 -12Z" />
<glyph unicode="%" horiz-adv-x="650" d="M-23 0L568 698H630L40 0H-23ZM467 -13Q411 -13 375 23T338 116Q338 166 358 207T416 274T507 299Q565 299 601 263T637 170Q637 121 617 80T558 13T467 -13ZM471 34Q497 34 518 46T552 78T573 121T581 168Q581 207 560
229T503 252Q477 252 457 241T422 209T401 166T394 119Q394 80 415 57T471 34ZM175 398Q118 398 82 434T45 527Q45 577 65 618T123 685T214 710Q272 710 308 674T344 581Q344 532 324 491T266 424T175 398ZM178 445Q205 445 225 457T259 489T280 532T288 579Q288
618 267 640T210 663Q184 663 164 652T129 620T108 577T101 530Q101 491 122 468T178 445Z" />
<glyph unicode="&amp;" horiz-adv-x="650" d="M231 -12Q174 -12 131 10T63 73T38 168Q38 244 85 295T228 387Q201 425 184 463T167 545Q167 593 189 630T251 688T347 710Q402 710 437 690T489 637T506 567Q506 517 484 481T419 418T318 366L453 173Q480 206 501
244T542 328H606Q580 268 552 217T486 123L572 0H494L441 78Q395 36 344 12T231 -12ZM236 48Q287 48 330 69T409 126L259 342Q211 319 176 296T122 243T103 171Q103 115 139 82T236 48ZM288 413Q348 439 381 461T429 508T443 565Q443 597 419 624T345 651Q289 651
261 622T232 545Q232 508 250 474T288 413Z" />
<glyph unicode="&apos;" horiz-adv-x="650" d="M350 516L387 739H460L402 516H350Z" />
<glyph unicode="(" horiz-adv-x="650" d="M286 -96Q264 -32 254 38T243 168Q243 319 295 445T451 698H525Q415 572 361 443T306 166Q306 106 317 36T353 -96H286Z" />
<glyph unicode=")" horiz-adv-x="650" d="M215 -96H140Q250 30 302 160T355 436Q355 497 344 567T309 698H376Q398 634 409 564T420 433Q420 283 369 156T215 -96Z" />
<glyph unicode="*" horiz-adv-x="650" d="M239 422L207 468L329 540L213 626L246 669L359 581L406 710L458 691L411 562L556 556L554 501L408 512L460 375L405 360L358 497L239 422Z" />
<glyph unicode="+" horiz-adv-x="650" d="M77 281L90 338H589L577 281H77ZM251 57L356 557H414L308 57H251Z" />
<glyph unicode="," horiz-adv-x="650" d="M223 0L242 90H329L309 0L220 -168H165L191 -127L276 0H223Z" />
<glyph unicode="-" horiz-adv-x="650" d="M184 282L196 339H482L470 282H184Z" />
<glyph unicode="." horiz-adv-x="650" d="M223 0L242 91H329L309 0H223Z" />
<glyph unicode="/" horiz-adv-x="650" d="M20 -96L575 698H644L89 -96H20Z" />
<glyph unicode="0" horiz-adv-x="650" d="M277 -12Q211 -12 164 16T92 97T67 222Q67 312 89 398T155 556T262 668T407 710Q472 710 519 683T591 603T617 479Q617 389 595 302T529 144T422 30T277 -12ZM286 48Q338 48 379 74T451 143T504 242T536 358T546 477Q546
560 508 605T398 650Q347 650 305 625T232 556T179 457T148 342T137 224Q137 141 176 95T286 48Z" />
<glyph unicode="1" horiz-adv-x="650" d="M287 0L387 477L418 611L302 531L138 421L156 505L453 698H502L354 0H287ZM48 0L62 60H516L503 0H48Z" />
<glyph unicode="2" horiz-adv-x="650" d="M46 0L57 51Q155 118 241 178T392 295T493 405T530 514Q530 577 494 613T390 650Q343 650 303 630T237 573T205 483H136Q144 553 180 604T272 682T396 710Q491 710 546 659T602 520Q602 458 567 400T471 285T330 172T160
60H538L525 0H46Z" />
<glyph unicode="3" horiz-adv-x="650" d="M302 -12Q232 -12 179 16T98 95T74 214H143Q141 159 162 122T222 67T306 49Q388 49 436 92T485 203Q485 267 439 302T320 337H282L294 394H335Q379 394 420 412T487 464T513 545Q513 591 480 620T387 650Q307 650 263
606T211 487H142Q149 555 181 605T266 682T390 710Q451 710 494 690T561 633T585 549Q585 478 538 431T419 370Q459 365 490 343T538 286T556 205Q556 141 525 92T437 16T302 -12Z" />
<glyph unicode="4" horiz-adv-x="650" d="M353 0L391 176H29L40 227L478 698H569L471 236H594L582 176H458L421 0H353ZM122 236H403L459 496L488 629L388 522L122 236Z" />
<glyph unicode="5" horiz-adv-x="650" d="M299 -12Q240 -12 190 12T111 79T82 183H148Q152 138 173 108T228 63T303 48Q354 48 397 74T467 146T494 254Q494 293 478 327T431 382T352 404Q305 404 259 380T176 315H113L252 698H627L614 638H292L199 382Q231 418
277 441T373 465Q430 465 473 440T541 368T566 260Q566 179 530 118T434 22T299 -12Z" />
<glyph unicode="6" horiz-adv-x="650" d="M373 458Q432 458 476 436T546 370T572 264Q572 183 538 121T443 23T303 -12Q239 -12 189 17T110 102T81 237Q81 291 93 355T131 482T197 596T292 679T418 710Q477 710 520 689T588 630T614 539H545Q540 592 506 621T415
650Q350 650 300 612T215 504T163 342Q201 396 258 427T373 458ZM306 48Q362 48 405 75T474 151T500 260Q500 328 461 363T358 399Q295 399 239 360T148 255Q144 162 186 105T306 48Z" />
<glyph unicode="7" horiz-adv-x="650" d="M213 0Q242 115 279 210T364 383T466 524T582 638H164L177 698H675L664 648Q581 572 521 502T418 357T343 196T285 0H213ZM177 698H242L198 493H133L177 698Z" />
<glyph unicode="8" horiz-adv-x="650" d="M281 -12Q215 -12 167 10T92 71T65 162Q65 213 91 255T161 327T257 368H411Q447 360 478 337T528 280T548 208Q548 146 514 96T419 17T281 -12ZM283 48Q341 48 384 69T452 127T476 206Q476 260 437 293T335 333Q280 328
235 307T163 250T137 166Q137 115 176 82T283 48ZM346 386Q398 391 439 410T503 463T527 542Q527 590 493 620T394 651Q312 651 266 610T220 503Q220 457 254 425T346 386ZM266 357Q232 366 206 387T164 439T148 501Q148 564 179 610T267 683T396 710Q458 710 503
689T574 632T599 546Q599 496 576 458T513 394T425 357H266Z" />
<glyph unicode="9" horiz-adv-x="650" d="M315 240Q256 240 212 262T142 328T116 434Q116 515 150 577T245 675T385 710Q449 710 499 681T578 596T607 461Q607 407 595 343T557 216T491 102T396 19T270 -12Q211 -12 168 9T100 68T74 159H143Q148 106 182 77T273
48Q338 48 388 86T473 194T525 356Q487 302 430 271T315 240ZM382 650Q326 650 283 623T214 547T188 438Q188 370 227 335T330 299Q393 299 449 338T540 443Q544 536 502 593T382 650Z" />
<glyph unicode=":" horiz-adv-x="650" d="M305 390L324 481H411L391 390H305ZM223 0L242 91H329L309 0H223Z" />
<glyph unicode=";" horiz-adv-x="650" d="M221 0L241 98H332L311 0L218 -180H157L266 0H221ZM304 389L324 480H410L391 389H304Z" />
<glyph unicode="&lt;" horiz-adv-x="650" d="M544 79L71 281L83 336L642 538L629 472L154 304L558 136L544 79Z" />
<glyph unicode="=" horiz-adv-x="650" d="M90 379L102 436H618L606 379H90ZM47 181L59 239H575L563 181H47Z" />
<glyph unicode="&gt;" horiz-adv-x="650" d="M21 79L35 144L511 312L106 480L119 538L591 336L580 281L21 79Z" />
<glyph unicode="?" horiz-adv-x="650" d="M273 165L280 197Q290 246 312 278T362 333T419 375T472 415T512 463T528 532Q528 587 489 619T391 652Q311 652 268 606T223 483H155Q160 552 189 603T271 682T394 710Q454 710 500 689T572 628T598 535Q598 484 582
450T541 391T485 347T426 308T375 262T343 197L334 165H273ZM233 0L253 91H339L320 0H233Z" />
<glyph unicode="@" horiz-adv-x="650" d="M268 -160Q201 -160 153 -133T74 -59T29 51T14 182Q14 251 28 323T71 464T144 586T251 671T393 703Q475 703 532 668T619 569T650 417Q650 381 644 336T623 244T585 158T529 94T451 70H365L375 140Q353 101 328 81T271
60Q222 60 195 102T168 212Q168 242 174 279T194 354T229 423T279 473T346 493Q379 493 402 470T431 404L452 483H504L427 120H460Q488 120 509 141T545 197T571 270T585 348T590 414Q590 488 567 540T498 621T389 650Q324 650 273 621T185 542T123 431T86 306T74
185Q74 106 96 40T163 -67T271 -107H430L381 -160H268ZM286 118Q320 118 347 147T394 233L413 320Q416 376 398 405T346 435Q313 435 291 411T255 352T235 279T228 217Q228 176 242 147T286 118Z" />
<glyph unicode="A" horiz-adv-x="650" d="M121 204L133 263H510L498 204H121ZM368 698H456L554 0H488L416 513L402 640L337 513L52 0H-21L368 698Z" />
<glyph unicode="B" horiz-adv-x="650" d="M461 359Q506 349 539 312T573 213Q573 148 539 100T444 26T303 0H39L187 698H429Q488 698 532 679T600 625T624 542Q624 497 602 459T544 395T461 359ZM422 638H241L188 390H369Q421 390 462 409T527 461T551 535Q551
584 517 611T422 638ZM118 60H310Q398 60 449 102T501 209Q501 266 462 298T351 330H175L118 60Z" />
<glyph unicode="C" horiz-adv-x="650" d="M306 -12Q221 -12 165 26T81 129T52 269Q52 358 76 438T147 579T259 675T408 710Q484 710 536 683T616 604T642 478H568Q566 563 526 606T400 650Q336 650 285 618T198 532T143 410T124 273Q124 210 144 159T207 78T311
48Q394 48 449 98T528 230H603Q583 158 543 103T444 18T306 -12Z" />
<glyph unicode="D" horiz-adv-x="650" d="M20 0L169 698H362Q425 698 474 678T557 622T610 536T628 428Q628 338 600 260T518 124T392 33T228 0H20ZM100 60H235Q307 60 366 89T467 170T533 286T556 424Q556 520 505 579T356 638H223L100 60Z" />
<glyph unicode="E" horiz-adv-x="650" d="M32 0L180 698H671L658 638H234L182 392H484L471 332H169L111 60H539L526 0H32Z" />
<glyph unicode="F" horiz-adv-x="650" d="M27 0L176 698H668L655 638H230L178 392H481L468 332H164L94 0H27Z" />
<glyph unicode="G" horiz-adv-x="650" d="M308 -12Q229 -12 172 24T83 124T51 272Q51 354 72 432T138 573T250 673T413 710Q490 710 541 680T618 597T641 478H567Q566 555 529 602T402 650Q329 650 277 616T190 525T140 404T123 275Q123 206 147 155T213 76T311
48Q370 48 419 72T503 129L541 307L399 304L414 364H620L566 108Q532 71 491 44T405 3T308 -12Z" />
<glyph unicode="H" horiz-adv-x="650" d="M445 0L594 698H660L512 0H445ZM22 0L171 698H238L89 0H22ZM147 332L160 392H541L528 332H147Z" />
<glyph unicode="I" horiz-adv-x="650" d="M233 0L382 698H449L300 0H233ZM198 698H633L620 638H185L198 698ZM62 60H497L484 0H49L62 60Z" />
<glyph unicode="J" horiz-adv-x="650" d="M49 0L63 60H316Q369 60 401 86T445 162L559 698H626L512 161Q503 124 487 94T445 43T387 11T312 0H49ZM273 698H623L610 638H260L273 698Z" />
<glyph unicode="K" horiz-adv-x="650" d="M42 0L190 698H257L213 491L182 357L291 452L588 698H679L166 269L108 0H42ZM473 0L263 400L321 439L552 0H473Z" />
<glyph unicode="L" horiz-adv-x="650" d="M70 0L219 698H285L150 60H534L520 0H70Z" />
<glyph unicode="M" horiz-adv-x="650" d="M-26 0L179 698H265L283 200V100L327 200L562 698H654L561 0H495L562 495L583 623L529 495L298 0H232L213 495L217 626L181 495L39 0H-26Z" />
<glyph unicode="N" horiz-adv-x="650" d="M20 0L168 698H244L474 92L509 284L597 698H664L515 0H440L208 603L175 415L86 0H20Z" />
<glyph unicode="O" horiz-adv-x="650" d="M287 -12Q214 -12 162 21T81 114T52 253Q52 351 75 434T144 579T253 675T398 710Q471 710 523 680T604 590T633 446Q633 350 609 267T538 121T429 23T287 -12ZM292 48Q352 48 401 79T487 164T542 290T562 443Q562 545
518 597T393 650Q330 650 281 620T196 537T142 411T123 255Q123 194 143 147T201 74T292 48Z" />
<glyph unicode="P" horiz-adv-x="650" d="M144 279L157 339H363Q424 339 469 360T541 419T568 511Q568 564 533 601T434 638H221L234 698H442Q503 698 548 673T617 606T641 515Q641 458 619 414T557 340T464 295T350 279H144ZM37 0L186 698H252L104 0H37Z" />
<glyph unicode="Q" horiz-adv-x="650" d="M284 -12Q209 -12 154 22T68 118T38 261Q38 357 61 439T131 582T245 676T398 710Q473 710 528 676T613 582T643 440Q643 371 628 306T581 184T505 88T400 29L486 40L593 47L550 -12H284ZM288 48Q355 48 407 79T496 165T551
290T570 437Q570 502 548 550T486 624T394 650Q328 650 276 622T187 542T130 419T110 263Q110 163 159 106T288 48Z" />
<glyph unicode="R" horiz-adv-x="650" d="M156 312L169 372H376Q467 372 519 413T571 524Q571 576 535 607T439 638H226L239 698H449Q508 698 552 677T620 618T644 528Q644 479 625 439T569 371T481 327T365 312H156ZM42 0L191 698H258L109 0H42ZM475 0Q469 68
443 125T366 234T234 334L306 352Q386 301 436 247T513 132T545 0H475Z" />
<glyph unicode="S" horiz-adv-x="650" d="M316 -12Q236 -12 178 20T88 109T59 246H127Q128 155 179 102T319 48Q370 48 408 66T468 115T490 184Q490 220 471 244T419 286T349 319T272 350T201 389T150 441T130 517Q130 574 160 617T245 685T373 710Q442 710 494
684T578 612T610 502H542Q536 571 489 610T369 650Q320 650 282 633T223 587T201 522Q201 488 220 465T272 424T343 392T419 361T490 322T542 268T562 189Q562 129 530 84T443 13T316 -12Z" />
<glyph unicode="T" horiz-adv-x="650" d="M233 0L369 638H130L143 698H688L675 638H436L300 0H233Z" />
<glyph unicode="U" horiz-adv-x="650" d="M284 -12Q208 -12 151 20T69 110T59 248L155 698H224L127 246Q115 187 131 143T189 73T288 48Q346 48 392 73T469 142T512 246L609 698H677L580 246Q564 169 526 111T427 21T284 -12Z" />
<glyph unicode="V" horiz-adv-x="650" d="M222 0L125 698H193L265 195L279 64L347 193L635 698H707L312 0H222Z" />
<glyph unicode="W" horiz-adv-x="650" d="M60 0L108 698H173L139 213L124 73L179 213L382 698H448L446 213L440 73L483 213L655 698H723L474 0H385L390 469L396 602L348 469L152 0H60Z" />
<glyph unicode="X" horiz-adv-x="650" d="M-13 0L297 359L150 698H221L292 533L349 402L457 531L602 698H682L387 357L541 0H469L391 182L334 313L228 185L67 0H-13Z" />
<glyph unicode="Y" horiz-adv-x="650" d="M232 0L292 283L142 698H214L294 480L335 346L423 463L610 698H688L359 283L299 0H232Z" />
<glyph unicode="Z" horiz-adv-x="650" d="M2 0L13 51L478 539L574 638H435H153L166 698H678L666 648L202 159L107 60H246H542L529 0H2Z" />
<glyph unicode="[" horiz-adv-x="650" d="M171 -96L340 698H404L234 -96H171ZM189 -96L200 -42H395L384 -96H189ZM346 644L358 698H553L541 644H346Z" />
<glyph unicode="\" horiz-adv-x="650" d="M470 -96H409L192 698H254L470 -96Z" />
<glyph unicode="]" horiz-adv-x="650" d="M322 -96H259L428 698H492L322 -96ZM304 -96H110L121 -42H315L304 -96ZM462 644H267L279 698H474L462 644Z" />
<glyph unicode="^" horiz-adv-x="650" d="M157 374L390 698H441L536 374H475L403 625L225 374H157Z" />
<glyph unicode="_" horiz-adv-x="650" d="M35 -57V0H487V-57H35Z" />
<glyph unicode="`" horiz-adv-x="650" d="M481 615H430L361 780H429L481 615Z" />
<glyph unicode="a" horiz-adv-x="650" d="M436 0L461 142L503 338Q514 390 497 427T440 485T349 505Q275 505 223 470T160 370H96Q105 429 141 471T232 535T353 558Q424 558 477 531T556 453T566 334L496 0H436ZM250 -12Q203 -12 167 6T109 59T87 139Q87 196 117
237T201 300T327 322H512L501 269H324Q246 269 200 235T153 143Q153 96 183 70T260 44Q326 44 380 84T477 193V135Q437 65 381 27T250 -12Z" />
<glyph unicode="b" horiz-adv-x="650" d="M384 558Q449 558 497 531T573 455T600 339Q600 259 578 195T515 84T421 13T304 -12Q242 -12 192 16T115 90L92 0H33L189 732H253L196 461Q237 513 287 535T384 558ZM303 44Q366 44 418 80T502 181T533 333Q533 410 491
456T376 502Q312 502 265 468T178 378L131 155Q154 105 200 75T303 44Z" />
<glyph unicode="c" horiz-adv-x="650" d="M289 -12Q220 -12 168 18T88 102T60 227Q60 296 80 355T139 460T234 532T363 558Q427 558 476 535T553 469T580 367H516Q510 430 471 466T359 502Q300 502 256 480T183 419T140 332T126 231Q126 143 173 94T293 44Q371
44 418 77T493 178H558Q535 115 499 73T411 9T289 -12Z" />
<glyph unicode="d" horiz-adv-x="651" d="M347 558Q404 558 456 533T534 461L593 732H657L501 0H442L458 90Q420 44 374 16T266 -12Q206 -12 157 14T80 90T51 210Q51 283 71 346T131 457T225 531T347 558ZM274 44Q340 44 386 78T473 167L520 391Q499 440 452 471T348
502Q277 502 225 463T145 359T117 214Q117 163 136 125T191 65T274 44Z" />
<glyph unicode="e" horiz-adv-x="650" d="M292 -12Q223 -12 171 17T90 99T60 215Q60 288 81 350T141 459T237 532T366 558Q440 558 493 528T570 441T579 306H123L134 360L519 358Q521 425 480 463T363 502Q283 502 231 464T153 361T127 219Q127 168 148 128T208
66T296 44Q376 44 427 80T503 179H567Q546 120 508 77T417 11T292 -12Z" />
<glyph unicode="f" horiz-adv-x="650" d="M214 0L346 624Q361 693 407 728T516 764H683L672 712H519Q484 712 453 692T410 618L278 0H214ZM176 493L187 546H592L581 493H176ZM28 0L39 53H521L510 0H28Z" />
<glyph unicode="g" horiz-adv-x="650" d="M535 452L559 546H618L509 37Q486 -73 420 -131T244 -190Q177 -190 126 -170T46 -111T17 -12H83Q84 -70 126 -102T247 -134Q329 -134 378 -90T445 36L465 134Q429 88 380 62T273 36Q206 36 159 64T87 140T62 250Q62 319
83 375T142 472T233 535T350 558Q415 558 464 529T535 452ZM281 88Q348 88 400 127T487 232L518 380Q506 439 460 472T349 506Q283 506 233 474T155 385T127 254Q127 180 168 134T281 88Z" />
<glyph unicode="h" horiz-adv-x="650" d="M441 0L515 348Q530 417 499 459T401 501Q327 501 259 445T147 278L155 377Q200 463 268 510T414 558Q475 558 517 532T576 459T579 349L505 0H441ZM34 0L189 732H254L98 0H34Z" />
<glyph unicode="i" horiz-adv-x="650" d="M243 0L359 546H424L307 0H243ZM26 0L37 53H513L502 0H26ZM205 493L216 546H392L380 493H205ZM375 654L394 739H471L453 654H375Z" />
<glyph unicode="j" horiz-adv-x="650" d="M529 546L406 -33Q392 -99 356 -138T240 -178H9L20 -125H231Q274 -125 302 -105T341 -31L464 546H529ZM310 493L321 546H497L485 493H310ZM481 654L500 739H577L559 654H481Z" />
<glyph unicode="k" horiz-adv-x="650" d="M26 0L181 732H245L182 434L150 296L265 381L496 546H593L135 216L90 0H26ZM413 0L284 348L339 384L483 0H413Z" />
<glyph unicode="l" horiz-adv-x="650" d="M235 0L390 732H454L299 0H235ZM17 0L28 53H530L519 0H17ZM236 679L247 732H422L411 679H236Z" />
<glyph unicode="m" horiz-adv-x="650" d="M476 0L563 408Q573 453 560 477T514 502Q468 502 422 447T342 281L353 372Q381 462 429 510T535 558Q571 558 594 541T626 491T624 410L537 0H476ZM-3 0L113 546H170L151 436L58 0H-3ZM236 0L323 408Q333 454 320 478T275
502Q229 502 181 446T100 281L115 373Q134 433 162 474T225 536T297 558Q349 558 374 519T385 410L298 0H236Z" />
<glyph unicode="n" horiz-adv-x="650" d="M440 0L514 348Q529 417 498 459T401 501Q326 501 258 445T147 278L154 377Q199 463 267 510T414 558Q475 558 516 532T575 459T579 349L504 0H440ZM33 0L150 546H209L184 404L98 0H33Z" />
<glyph unicode="o" horiz-adv-x="650" d="M289 -12Q219 -12 167 16T87 97T58 223Q58 323 96 398T202 516T362 558Q432 558 484 530T564 449T592 324Q592 224 554 149T448 31T289 -12ZM292 44Q363 44 415 78T496 175T525 319Q525 405 480 453T359 502Q288 502 236
468T154 371T125 227Q125 175 145 134T204 68T292 44Z" />
<glyph unicode="p" horiz-adv-x="650" d="M389 558Q455 558 502 532T573 456T597 335Q597 263 576 200T514 90T418 15T292 -12Q235 -12 187 14T114 87L57 -178H-7L147 546H206L190 456Q229 503 281 530T389 558ZM293 44Q364 44 418 84T502 189T532 332Q532 381
516 419T466 480T380 502Q325 502 268 468T175 375L129 159Q147 104 191 74T293 44Z" />
<glyph unicode="q" horiz-adv-x="650" d="M355 558Q414 558 462 532T536 459L559 546H619L464 -178H400L457 90Q419 44 369 16T261 -12Q195 -12 148 14T76 91T51 211Q51 282 72 345T133 456T229 531T355 558ZM269 44Q325 44 382 78T474 172L520 387Q503 442 459
472T355 502Q284 502 231 462T147 357T117 213Q117 139 155 92T269 44Z" />
<glyph unicode="r" horiz-adv-x="650" d="M509 337L520 389Q531 442 507 471T428 501Q355 501 289 444T174 277L178 360Q211 425 251 469T340 535T441 558Q494 558 530 538T581 480T584 389L573 337H509ZM65 0L181 546H239L215 404L129 0H65Z" />
<glyph unicode="s" horiz-adv-x="650" d="M316 -12Q267 -12 226 2T154 44T106 110T88 195H152Q156 126 199 84T318 42Q388 42 426 71T464 142Q464 178 441 199T380 233T302 257T223 284T163 326T139 398Q139 445 164 481T237 538T349 558Q411 558 461 539T541
482T573 386H509Q501 450 457 477T346 504Q279 504 242 474T205 403Q205 370 228 352T289 321T368 299T447 271T507 225T531 147Q531 97 506 62T432 7T316 -12Z" />
<glyph unicode="t" horiz-adv-x="650" d="M320 0Q272 0 242 17T202 67T202 147L310 657L385 702L266 147Q261 123 263 101T281 66T335 53H524L512 0H320ZM133 493L144 546H549L538 493H133Z" />
<glyph unicode="u" horiz-adv-x="650" d="M207 546L133 198Q118 129 149 87T246 45Q321 45 389 101T500 268L493 169Q448 83 380 36T233 -12Q172 -12 131 14T72 87T68 197L143 546H207ZM614 546L497 0H438L463 142L549 546H614Z" />
<glyph unicode="v" horiz-adv-x="650" d="M231 0L122 546H188L261 182L278 64L346 182L574 546H644L302 0H231Z" />
<glyph unicode="w" horiz-adv-x="650" d="M66 0L81 547H139L130 216L125 70L194 216L354 547H411L433 216L437 70L495 216L626 547H686L468 0H390L370 328L369 471L306 328L146 0H66Z" />
<glyph unicode="x" horiz-adv-x="650" d="M366 277L508 0H442L381 116L320 236L226 132L102 0H28L289 284L150 546H217L273 444L336 324L431 428L543 546H617L366 277Z" />
<glyph unicode="y" horiz-adv-x="650" d="M254 217L278 76L355 199L575 546H644L252 -67Q221 -116 193 -143T134 -180T67 -190H-28L-17 -137H77Q101 -137 120 -128T161 -94T208 -29L234 13L123 546H186L254 217Z" />
<glyph unicode="z" horiz-adv-x="650" d="M39 0L49 47L408 397L507 493H369H161L172 546H604L594 499L235 149L132 53H274H499L488 0H39Z" />
<glyph unicode="{" horiz-adv-x="650" d="M360 -96Q310 -96 275 -76T227 -20T224 68L247 181Q255 220 237 246T182 279L191 322Q231 329 261 354T298 417L326 554Q336 598 359 630T418 680T499 698H556L544 644H504Q456 644 427 619T388 548L363 427Q356 390 339
362T296 317T241 292L244 306Q271 298 288 281T311 236T309 172L286 67Q276 18 297 -12T366 -42H398L387 -96H360Z" />
<glyph unicode="|" horiz-adv-x="650" d="M194 -190L390 733H456L260 -190H194Z" />
<glyph unicode="}" horiz-adv-x="650" d="M149 -96H106L118 -42H157Q205 -42 234 -17T273 59L298 172Q306 208 323 235T365 280T419 306L417 292Q391 300 374 317T351 362T352 427L375 533Q385 584 366 614T295 644H263L275 698H313Q361 698 393 678T437 620T437
526L413 417Q405 380 424 355T480 322L470 279Q430 272 401 246T363 181L337 57Q325 0 298 -33T233 -81T149 -96Z" />
<glyph unicode="~" horiz-adv-x="650" d="M442 237Q408 237 379 250T325 280T274 311T221 324Q182 324 161 302T128 240H71Q81 286 102 317T154 364T224 381Q259 381 287 368T341 337T391 307T444 293Q484 293 505 315T536 377H594Q585 331 564 300T513 253T442 237Z" />
<glyph unicode="&#xa0;" horiz-adv-x="650" />
<glyph unicode="&#xa1;" horiz-adv-x="650" d="M338 547H428L408 449H318L338 547ZM371 371L300 -30L275 -151H197L223 -30L323 371H371Z" />
<glyph unicode="&#xa2;" horiz-adv-x="650" d="M337 535L363 655H427L401 535H337ZM203 -97L226 12H290L268 -97H203ZM289 -12Q220 -12 168 18T88 102T60 227Q60 296 80 355T139 460T234 532T363 558Q427 558 476 535T553 469T580 367H516Q510 430 471 466T359
502Q300 502 256 480T183 419T140 332T126 231Q126 143 173 94T293 44Q371 44 418 77T493 178H558Q535 115 499 73T411 9T289 -12Z" />
<glyph unicode="&#xa3;" horiz-adv-x="650" d="M44 0L58 60Q102 91 139 123T198 191T220 273Q220 307 209 344T187 420T176 501Q176 558 202 606T277 682T395 710Q452 710 494 688T562 626T591 528H525Q518 582 486 616T392 650Q343 650 311 630T262 577T245 504Q245
465 255 426T276 348T287 275Q287 226 263 185T201 109T120 46L102 60H506L493 0H44ZM110 310L121 362H514L504 310H110Z" />
<glyph unicode="&#xa4;" horiz-adv-x="650" d="M150 481L24 608L69 653L199 521L150 481ZM70 12L25 57L146 180L193 137L70 12ZM604 13L476 144L520 188L649 58L604 13ZM524 481L473 521L604 653L648 608L524 481ZM351 64Q272 64 213 99T121 196T88 333Q88 408
121 468T213 564T351 600Q431 600 489 565T580 469T613 333Q613 257 581 196T490 100T351 64ZM350 122Q407 122 451 149T522 223T549 333Q549 394 523 441T452 515T350 542Q295 542 250 516T179 442T153 333Q153 271 179 224T250 149T350 122Z" />
<glyph unicode="&#xa5;" horiz-adv-x="650" d="M91 280L102 332H571L559 280H91ZM232 0L292 283L142 698H214L294 480L335 346L423 463L610 698H688L359 283L299 0H232Z" />
<glyph unicode="&#xa6;" horiz-adv-x="650" d="M311 361L390 733H456L377 361H311ZM194 -190L272 181H338L260 -190H194Z" />
<glyph unicode="&#xa7;" horiz-adv-x="650" d="M278 -190Q200 -190 147 -162T66 -81T38 43H106Q107 -42 148 -88T281 -134Q329 -134 365 -118T421 -73T442 -8Q442 27 423 49T373 85T305 111T230 134T162 165T112 211T93 282Q93 323 116 363T184 429Q163 446 148
473T133 534Q133 590 162 629T244 689T364 710Q434 710 486 687T567 622T595 521H527Q526 584 481 619T360 655Q289 655 247 622T205 539Q205 508 223 488T273 454T341 430T414 407T482 376T531 331T550 260Q550 212 526 173T462 107Q479 91 496 66T513 -2Q513
-57 483 -99T400 -166T278 -190ZM413 135Q444 159 461 188T479 253Q479 287 456 310T395 348T316 375T236 403Q199 381 181 350T163 288Q163 258 179 238T223 205T283 181T350 160T413 135Z" />
<glyph unicode="&#xa8;" horiz-adv-x="650" d="M606 655L624 740H699L680 655H606ZM441 655L460 740H534L516 655H441Z" />
<glyph unicode="&#xa9;" horiz-adv-x="650" d="M345 152Q294 152 257 177T199 247T178 351Q178 410 198 455T257 527T346 552Q406 552 446 517T493 422H439Q434 459 408 483T345 507Q292 507 262 463T231 350Q231 287 259 243T342 199Q385 199 410 224T443 288H495Q488
229 448 191T345 152ZM342 -11Q252 -11 183 35T75 163T35 350Q35 455 74 536T183 664T342 710Q431 710 500 664T608 537T648 350Q648 245 609 164T500 36T342 -11ZM342 34Q417 34 474 74T562 186T594 350Q594 442 563 513T474 624T342 665Q267 665 210 625T121
513T89 350Q89 258 121 187T210 75T342 34Z" />
<glyph unicode="&#xaa;" horiz-adv-x="650" d="M429 345L447 442L472 565Q483 614 458 640T386 666Q343 666 314 643T278 580H228Q238 634 280 671T387 708Q433 708 466 690T516 639T522 557L476 345H429ZM324 337Q291 337 266 349T226 383T212 435Q212 479 233
506T292 546T375 559H480L471 518H370Q321 518 293 498T265 439Q265 413 283 397T333 380Q372 380 402 404T459 472L466 439Q441 390 408 364T324 337Z" />
<glyph unicode="&#xab;" horiz-adv-x="650" d="M476 65L382 269L563 474H631L447 266L540 65H476ZM402 65L308 269L489 474H557L373 266L466 65H402Z" />
<glyph unicode="&#xac;" horiz-adv-x="650" d="M487 123L533 338H597L551 123H487ZM69 281L81 338H597L585 281H69Z" />
<glyph unicode="&#xad;" horiz-adv-x="650" d="M184 282L196 339H482L470 282H184Z" />
<glyph unicode="&#xae;" horiz-adv-x="650" d="M327 490V527H389Q407 527 418 537T429 563Q429 577 418 586T391 596H327V634H387Q426 634 449 614T472 563Q472 531 448 511T383 490H327ZM296 406V634H338V406H296ZM429 406Q425 424 417 441T393 475T345 506L388
517Q426 496 445 468T472 406H429ZM376 301Q313 301 264 329T186 407T157 519Q157 579 185 627T263 703T376 732Q437 732 486 704T563 628T592 519Q592 457 564 408T487 330T376 301ZM375 339Q424 339 463 362T526 427T550 519Q550 570 527 610T464 673T375 696Q327
696 287 673T224 610T200 519Q200 468 223 427T285 363T375 339Z" />
<glyph unicode="&#xaf;" horiz-adv-x="650" d="M397 672L408 726H693L681 672H397Z" />
<glyph unicode="&#xb0;" horiz-adv-x="650" d="M365 398Q327 398 298 414T252 460T235 527Q235 577 255 618T313 685T404 710Q442 710 471 694T517 648T534 581Q534 532 514 491T456 424T365 398ZM368 445Q395 445 415 457T449 489T470 532T478 578Q478 618 457
640T400 663Q374 663 354 651T319 619T298 576T291 529Q291 490 312 468T368 445Z" />
<glyph unicode="&#xb1;" horiz-adv-x="650" d="M85 323L97 381H598L586 323H85ZM262 112L363 587H421L320 112H262ZM9 0L21 58H537L525 0H9Z" />
<glyph unicode="&#xb2;" horiz-adv-x="650" d="M173 301L181 343Q243 382 296 418T391 490T455 560T478 632Q478 664 458 685T401 706Q357 706 329 680T297 606H239Q248 676 292 715T405 755Q446 755 475 740T521 698T538 635Q538 587 503 539T408 444T274 350H493L483
301H173Z" />
<glyph unicode="&#xb3;" horiz-adv-x="650" d="M361 295Q285 295 246 337T205 444H262Q261 399 289 372T364 345Q407 345 434 370T461 434Q461 474 436 493T367 513H344L353 559H379Q428 559 454 583T480 645Q480 674 460 691T406 708Q365 708 339 682T307 612H249Q260
678 303 717T409 757Q449 757 478 744T524 706T541 648Q541 608 515 577T445 538Q481 532 501 504T522 434Q522 373 477 334T361 295Z" />
<glyph unicode="&#xb4;" horiz-adv-x="650" d="M510 615L632 780H707L569 615H510Z" />
<glyph unicode="&#xb5;" horiz-adv-x="650" d="M-15 -190L82 259H146L112 110L104 82L47 -190H-15ZM207 546L133 198Q118 129 149 87T246 45Q321 45 389 101T500 268L493 169Q448 83 381 36T233 -12Q173 -12 131 14T72 87T68 197L143 546H207ZM614 546L497 0H438L463
142L549 546H614Z" />
<glyph unicode="&#xb6;" horiz-adv-x="650" d="M203 -190L305 293Q209 294 158 344T106 470Q106 544 143 594T245 671T393 698H455L266 -190H203ZM370 -190L559 698H622L433 -190H370Z" />
<glyph unicode="&#xb7;" horiz-adv-x="644" d="M230 251L249 342H336L316 251H230Z" />
<glyph unicode="&#xb8;" horiz-adv-x="650" d="M391 -219Q362 -219 342 -214T304 -202L312 -163Q334 -170 351 -174T391 -179Q420 -179 442 -168T464 -132Q464 -116 452 -107T417 -98Q406 -98 393 -99T364 -105L347 -81L430 21L467 2L410 -66Q422 -63 428 -63T444
-62Q476 -62 496 -80T517 -129Q517 -157 501 -177T457 -208T391 -219Z" />
<glyph unicode="&#xb9;" horiz-adv-x="650" d="M325 301L406 683L226 561L239 625L427 748H477L382 301H325ZM162 350H530L520 301H152L162 350Z" />
<glyph unicode="&#xba;" horiz-adv-x="650" d="M355 334Q308 334 275 353T222 405T203 481Q203 548 229 599T300 679T400 708Q447 708 481 689T533 637T552 560Q552 494 526 443T456 363T355 334ZM359 377Q398 377 430 400T481 463T500 558Q500 606 473 635T397
665Q354 665 322 642T273 578T256 483Q256 435 283 406T359 377Z" />
<glyph unicode="&#xbb;" horiz-adv-x="650" d="M160 65H91L275 272L183 474H247L340 269L160 65ZM345 65H276L460 272L368 474H431L525 269L345 65Z" />
<glyph unicode="&#xbc;" horiz-adv-x="1300" d="M271 251L352 633L172 511L185 575L373 698H423L328 251H271ZM108 300H476L466 251H98L108 300ZM339 0L930 698H995L405 0H339ZM917 0L940 109H706L715 150L994 447H1068L1007 158H1099L1088 109H996L973 0H917ZM777
158H950L1001 393L777 158Z" />
<glyph unicode="&#xbd;" horiz-adv-x="1300" d="M271 251L352 633L172 511L185 575L373 698H423L328 251H271ZM108 300H476L466 251H98L108 300ZM339 0L930 698H995L405 0H339ZM779 0L787 42Q849 81 902 117T997 189T1061 259T1084 331Q1084 363 1064 384T1007
405Q963 405 935 379T903 305H845Q854 375 898 414T1011 454Q1052 454 1081 439T1127 397T1144 334Q1144 286 1109 238T1014 143T880 49H1099L1089 0H779Z" />
<glyph unicode="&#xbe;" horiz-adv-x="1300" d="M351 245Q275 245 236 287T195 394H252Q251 349 279 322T354 295Q397 295 424 320T451 384Q451 424 426 443T357 463H334L343 509H369Q418 509 444 533T470 595Q470 624 450 641T396 658Q355 658 329 632T297 562H239Q250
628 293 667T399 707Q439 707 468 694T514 656T531 598Q531 558 505 527T435 488Q471 482 491 454T512 384Q512 323 467 284T351 245ZM347 0L938 698H1003L413 0H347ZM918 0L941 109H707L716 150L995 447H1069L1008 158H1100L1089 109H997L974 0H918ZM778 158H951L1002
393L778 158Z" />
<glyph unicode="&#xbf;" horiz-adv-x="650" d="M377 381L370 349Q360 300 338 268T288 213T231 171T178 131T138 83T122 14Q122 -41 161 -73T259 -106Q339 -106 382 -60T427 63H495Q490 -6 461 -57T379 -136T256 -164Q196 -164 150 -143T78 -82T52 11Q52 62 68
96T109 155T165 199T224 238T275 284T307 349L316 381H377ZM417 546L397 455H311L330 546H417Z" />
<glyph unicode="&#xc0;" horiz-adv-x="650" d="M121 204L133 263H510L498 204H121ZM368 698H456L554 0H488L416 513L402 640L337 513L52 0H-21L368 698ZM476 767H425L356 932H424L476 767Z" />
<glyph unicode="&#xc1;" horiz-adv-x="650" d="M121 204L133 263H510L498 204H121ZM368 698H456L554 0H488L416 513L402 640L337 513L52 0H-21L368 698ZM380 766L502 931H577L439 766H380Z" />
<glyph unicode="&#xc2;" horiz-adv-x="650" d="M121 204L133 263H510L498 204H121ZM368 698H456L554 0H488L416 513L402 640L337 513L52 0H-21L368 698ZM268 766L427 931H496L586 766H524L456 890L337 766H268Z" />
<glyph unicode="&#xc3;" horiz-adv-x="650" d="M121 204L133 263H510L498 204H121ZM368 698H456L554 0H488L416 513L402 640L337 513L52 0H-21L368 698ZM309 792L259 800Q275 851 303 878T372 906Q398 906 425 892T478 864T524 849Q547 849 563 866T588 909L639
901Q623 850 594 823T524 795Q498 795 472 810T421 839T373 853Q351 853 335 836T309 792Z" />
<glyph unicode="&#xc4;" horiz-adv-x="650" d="M121 204L133 263H510L498 204H121ZM368 698H456L554 0H488L416 513L402 640L337 513L52 0H-21L368 698ZM483 806L501 891H576L557 806H483ZM318 806L337 891H411L393 806H318Z" />
<glyph unicode="&#xc5;" horiz-adv-x="650" d="M121 204L133 263H510L498 204H121ZM368 698H456L554 0H488L416 513L402 640L337 513L52 0H-21L368 698ZM434 751Q392 751 366 775T339 839Q339 891 373 924T461 958Q504 958 531 933T558 870Q558 817 523 784T434
751ZM437 792Q469 792 489 813T509 867Q509 888 495 901T458 915Q427 915 407 895T387 842Q387 820 401 806T437 792Z" />
<glyph unicode="&#xc6;" horiz-adv-x="650" d="M-39 0L406 698H471L28 0H-39ZM115 171L128 231H365L352 171H115ZM277 0L426 698H728L715 638H474L422 392H597L584 332H409L352 60H596L583 0H277Z" />
<glyph unicode="&#xc7;" horiz-adv-x="650" d="M306 -12Q221 -12 165 26T81 129T52 269Q52 358 76 438T147 579T259 675T408 710Q484 710 536 683T616 604T642 478H568Q566 563 526 606T400 650Q336 650 285 618T198 532T143 410T124 273Q124 210 144 159T207
78T311 48Q394 48 449 98T528 230H603Q583 158 543 103T444 18T306 -12ZM267 -219Q238 -219 218 -214T180 -202L188 -163Q210 -170 227 -174T267 -179Q296 -179 318 -168T340 -132Q340 -116 328 -107T293 -98Q282 -98 269 -99T240 -105L223 -81L306 21L343 2L286
-66Q298 -63 304 -63T320 -62Q352 -62 372 -80T393 -129Q393 -157 377 -177T333 -208T267 -219Z" />
<glyph unicode="&#xc8;" horiz-adv-x="650" d="M32 0L180 698H671L658 638H234L182 392H484L471 332H169L111 60H539L526 0H32ZM484 768H433L364 933H432L484 768Z" />
<glyph unicode="&#xc9;" horiz-adv-x="650" d="M32 0L180 698H671L658 638H234L182 392H484L471 332H169L111 60H539L526 0H32ZM387 767L509 932H584L446 767H387Z" />
<glyph unicode="&#xca;" horiz-adv-x="650" d="M32 0L180 698H671L658 638H234L182 392H484L471 332H169L111 60H539L526 0H32ZM276 767L435 932H504L594 767H532L464 891L345 767H276Z" />
<glyph unicode="&#xcb;" horiz-adv-x="650" d="M32 0L180 698H671L658 638H234L182 392H484L471 332H169L111 60H539L526 0H32ZM491 807L509 892H584L565 807H491ZM326 807L345 892H419L401 807H326Z" />
<glyph unicode="&#xcc;" horiz-adv-x="650" d="M233 0L382 698H449L300 0H233ZM198 698H633L620 638H185L198 698ZM62 60H497L484 0H49L62 60ZM474 768H423L354 933H422L474 768Z" />
<glyph unicode="&#xcd;" horiz-adv-x="650" d="M233 0L382 698H449L300 0H233ZM198 698H633L620 638H185L198 698ZM62 60H497L484 0H49L62 60ZM378 767L500 932H575L437 767H378Z" />
<glyph unicode="&#xce;" horiz-adv-x="650" d="M233 0L382 698H449L300 0H233ZM198 698H633L620 638H185L198 698ZM62 60H497L484 0H49L62 60ZM266 767L425 932H494L584 767H522L454 891L335 767H266Z" />
<glyph unicode="&#xcf;" horiz-adv-x="650" d="M233 0L382 698H449L300 0H233ZM198 698H633L620 638H185L198 698ZM62 60H497L484 0H49L62 60ZM482 807L500 892H575L556 807H482ZM317 807L336 892H410L392 807H317Z" />
<glyph unicode="&#xd0;" horiz-adv-x="650" d="M14 324L25 377H390L379 324H14ZM20 0L169 698H362Q425 698 474 678T557 622T610 536T628 428Q628 338 600 260T518 124T392 33T228 0H20ZM100 60H235Q307 60 366 89T467 170T533 286T556 424Q556 520 505 579T356
638H223L100 60Z" />
<glyph unicode="&#xd1;" horiz-adv-x="650" d="M20 0L168 698H244L474 92L509 284L597 698H664L515 0H440L208 603L175 415L86 0H20ZM311 793L261 801Q277 852 305 879T374 907Q400 907 427 893T480 865T526 850Q549 850 565 867T590 910L641 902Q625 851 596
824T526 796Q500 796 474 811T423 840T375 854Q353 854 337 837T311 793Z" />
<glyph unicode="&#xd2;" horiz-adv-x="650" d="M287 -12Q214 -12 162 21T81 114T52 253Q52 351 75 434T144 579T253 675T398 710Q471 710 523 680T604 590T633 446Q633 350 609 267T538 121T429 23T287 -12ZM292 48Q352 48 401 79T487 164T542 290T562 443Q562
545 518 597T393 650Q330 650 281 620T196 537T142 411T123 255Q123 194 143 147T201 74T292 48ZM460 769H409L340 934H408L460 769Z" />
<glyph unicode="&#xd3;" horiz-adv-x="650" d="M287 -12Q214 -12 162 21T81 114T52 253Q52 351 75 434T144 579T253 675T398 710Q471 710 523 680T604 590T633 446Q633 350 609 267T538 121T429 23T287 -12ZM292 48Q352 48 401 79T487 164T542 290T562 443Q562
545 518 597T393 650Q330 650 281 620T196 537T142 411T123 255Q123 194 143 147T201 74T292 48ZM364 768L486 933H561L423 768H364Z" />
<glyph unicode="&#xd4;" horiz-adv-x="650" d="M287 -12Q214 -12 162 21T81 114T52 253Q52 351 75 434T144 579T253 675T398 710Q471 710 523 680T604 590T633 446Q633 350 609 267T538 121T429 23T287 -12ZM292 48Q352 48 401 79T487 164T542 290T562 443Q562
545 518 597T393 650Q330 650 281 620T196 537T142 411T123 255Q123 194 143 147T201 74T292 48ZM252 768L411 933H480L570 768H508L440 892L321 768H252Z" />
<glyph unicode="&#xd5;" horiz-adv-x="650" d="M287 -12Q214 -12 162 21T81 114T52 253Q52 351 75 434T144 579T253 675T398 710Q471 710 523 680T604 590T633 446Q633 350 609 267T538 121T429 23T287 -12ZM292 48Q352 48 401 79T487 164T542 290T562 443Q562
545 518 597T393 650Q330 650 281 620T196 537T142 411T123 255Q123 194 143 147T201 74T292 48ZM293 794L243 802Q259 853 287 880T356 908Q382 908 409 894T462 866T508 851Q531 851 547 868T572 911L623 903Q607 852 578 825T508 797Q482 797 456 812T405 841T357
855Q335 855 319 838T293 794Z" />
<glyph unicode="&#xd6;" horiz-adv-x="650" d="M287 -12Q214 -12 162 21T81 114T52 253Q52 351 75 434T144 579T253 675T398 710Q471 710 523 680T604 590T633 446Q633 350 609 267T538 121T429 23T287 -12ZM292 48Q352 48 401 79T487 164T542 290T562 443Q562
545 518 597T393 650Q330 650 281 620T196 537T142 411T123 255Q123 194 143 147T201 74T292 48ZM468 808L486 893H561L542 808H468ZM303 808L322 893H396L378 808H303Z" />
<glyph unicode="&#xd7;" horiz-adv-x="650" d="M121 96L88 139L546 517L580 474L121 96ZM461 96L160 478L206 517L507 134L461 96Z" />
<glyph unicode="&#xd8;" horiz-adv-x="650" d="M290 -12Q215 -12 159 21T71 115T39 263Q39 361 64 443T136 585T249 677T394 710Q470 710 526 678T613 584T645 437Q645 341 619 260T546 117T433 22T290 -12ZM294 48Q354 48 405 77T493 160T552 283T573 435Q573
537 524 593T391 650Q328 650 277 622T189 542T132 420T112 265Q112 163 161 106T294 48ZM98 -52L46 -26L582 750L633 725L98 -52Z" />
<glyph unicode="&#xd9;" horiz-adv-x="650" d="M284 -12Q208 -12 151 20T69 110T59 248L155 698H224L127 246Q115 187 131 143T189 73T288 48Q346 48 392 73T469 142T512 246L609 698H677L580 246Q564 169 526 111T427 21T284 -12ZM475 768H424L355 933H423L475 768Z" />
<glyph unicode="&#xda;" horiz-adv-x="650" d="M284 -12Q208 -12 151 20T69 110T59 248L155 698H224L127 246Q115 187 131 143T189 73T288 48Q346 48 392 73T469 142T512 246L609 698H677L580 246Q564 169 526 111T427 21T284 -12ZM378 767L500 932H575L437 767H378Z" />
<glyph unicode="&#xdb;" horiz-adv-x="650" d="M284 -12Q208 -12 151 20T69 110T59 248L155 698H224L127 246Q115 187 131 143T189 73T288 48Q346 48 392 73T469 142T512 246L609 698H677L580 246Q564 169 526 111T427 21T284 -12ZM267 767L426 932H495L585 767H523L455
891L336 767H267Z" />
<glyph unicode="&#xdc;" horiz-adv-x="650" d="M284 -12Q208 -12 151 20T69 110T59 248L155 698H224L127 246Q115 187 131 143T189 73T288 48Q346 48 392 73T469 142T512 246L609 698H677L580 246Q564 169 526 111T427 21T284 -12ZM482 807L500 892H575L556 807H482ZM317
807L336 892H410L392 807H317Z" />
<glyph unicode="&#xdd;" horiz-adv-x="650" d="M232 0L292 283L142 698H214L294 480L335 346L423 463L610 698H688L359 283L299 0H232ZM380 767L502 932H577L439 767H380Z" />
<glyph unicode="&#xde;" horiz-adv-x="650" d="M123 146L136 206H342Q402 206 448 226T520 285T546 377Q546 430 511 467T412 505H199L212 565H419Q479 565 524 540T595 474T620 381Q620 305 582 253T478 173T328 146H123ZM44 0L192 698H259L110 0H44Z" />
<glyph unicode="&#xdf;" horiz-adv-x="650" d="M303 -14Q270 -14 234 -9T177 3L189 59Q208 52 242 47T305 42Q403 42 461 88T519 210Q519 274 474 314T347 354H251L263 410H359Q409 410 448 429T509 481T531 560Q531 612 495 644T395 676Q324 676 273 631T204
505L97 0H33L141 509Q156 578 192 628T281 705T399 732Q458 732 502 711T572 653T598 563Q598 509 572 469T503 404T406 366L408 387Q458 384 498 362T561 302T585 213Q585 145 550 94T452 14T303 -14Z" />
<glyph unicode="&#xe0;" horiz-adv-x="650" d="M436 0L461 142L503 338Q514 390 497 427T440 485T349 505Q275 505 223 470T160 370H96Q105 429 141 471T232 535T353 558Q424 558 477 531T556 453T566 334L496 0H436ZM250 -12Q203 -12 167 6T109 59T87 139Q87
196 117 237T201 300T327 322H512L501 269H324Q246 269 200 235T153 143Q153 96 183 70T260 44Q326 44 380 84T477 193V135Q437 65 381 27T250 -12ZM434 615H383L314 780H382L434 615Z" />
<glyph unicode="&#xe1;" horiz-adv-x="650" d="M436 0L461 142L503 338Q514 390 497 427T440 485T349 505Q275 505 223 470T160 370H96Q105 429 141 471T232 535T353 558Q424 558 477 531T556 453T566 334L496 0H436ZM250 -12Q203 -12 167 6T109 59T87 139Q87
196 117 237T201 300T327 322H512L501 269H324Q246 269 200 235T153 143Q153 96 183 70T260 44Q326 44 380 84T477 193V135Q437 65 381 27T250 -12ZM337 870L459 1035H534L396 870H337Z" />
<glyph unicode="&#xe2;" horiz-adv-x="650" d="M436 0L461 142L503 338Q514 390 497 427T440 485T349 505Q275 505 223 470T160 370H96Q105 429 141 471T232 535T353 558Q424 558 477 531T556 453T566 334L496 0H436ZM250 -12Q203 -12 167 6T109 59T87 139Q87
196 117 237T201 300T327 322H512L501 269H324Q246 269 200 235T153 143Q153 96 183 70T260 44Q326 44 380 84T477 193V135Q437 65 381 27T250 -12ZM482 870L641 1035H710L800 870H738L670 994L551 870H482Z" />
<glyph unicode="&#xe3;" horiz-adv-x="650" d="M436 0L461 142L503 338Q514 390 497 427T440 485T349 505Q275 505 223 470T160 370H96Q105 429 141 471T232 535T353 558Q424 558 477 531T556 453T566 334L496 0H436ZM250 -12Q203 -12 167 6T109 59T87 139Q87
196 117 237T201 300T327 322H512L501 269H324Q246 269 200 235T153 143Q153 96 183 70T260 44Q326 44 380 84T477 193V135Q437 65 381 27T250 -12ZM523 896L473 904Q489 955 517 982T586 1010Q612 1010 639 996T692 968T738 953Q761 953 777 970T802 1013L853
1005Q837 954 808 927T738 899Q712 899 686 914T635 943T587 957Q565 957 549 940T523 896Z" />
<glyph unicode="&#xe4;" horiz-adv-x="650" d="M436 0L461 142L503 338Q514 390 497 427T440 485T349 505Q275 505 223 470T160 370H96Q105 429 141 471T232 535T353 558Q424 558 477 531T556 453T566 334L496 0H436ZM250 -12Q203 -12 167 6T109 59T87 139Q87
196 117 237T201 300T327 322H512L501 269H324Q246 269 200 235T153 143Q153 96 183 70T260 44Q326 44 380 84T477 193V135Q437 65 381 27T250 -12ZM697 910L715 995H790L771 910H697ZM532 910L551 995H625L607 910H532Z" />
<glyph unicode="&#xe5;" horiz-adv-x="650" d="M436 0L461 142L503 338Q514 390 497 427T440 485T349 505Q275 505 223 470T160 370H96Q105 429 141 471T232 535T353 558Q424 558 477 531T556 453T566 334L496 0H436ZM250 -12Q203 -12 167 6T109 59T87 139Q87
196 117 237T201 300T327 322H512L501 269H324Q246 269 200 235T153 143Q153 96 183 70T260 44Q326 44 380 84T477 193V135Q437 65 381 27T250 -12ZM648 855Q606 855 580 879T553 943Q553 995 587 1028T675 1062Q718 1062 745 1037T772 974Q772 921 737 888T648
855ZM651 896Q683 896 703 917T723 971Q723 992 709 1005T672 1019Q641 1019 621 999T601 946Q601 924 615 910T651 896Z" />
<glyph unicode="&#xe6;" horiz-adv-x="650" d="M241 117L293 360Q301 396 297 428T275 482T218 503Q169 503 137 468T92 370H30Q45 459 98 508T223 558Q281 558 313 530T355 456T353 356L302 117H241ZM117 -12Q57 -12 22 24T-13 118Q-13 181 18 224T102 290T221
313H292L281 262H213Q140 262 95 225T49 123Q49 87 69 65T126 42Q170 42 202 74T261 170L288 123Q260 57 218 23T117 -12ZM424 -12Q376 -12 341 11T287 79T268 188Q268 223 275 271T300 369T344 462T412 531T505 558Q549 558 577 538T622 482T641 401T635 305H338L350
358H582Q586 398 579 431T552 484T499 504Q458 504 428 478T379 411T349 326T332 245T327 192Q327 144 339 110T375 59T428 42Q476 42 508 78T559 178H618Q593 90 547 39T424 -12Z" />
<glyph unicode="&#xe7;" horiz-adv-x="650" d="M289 -12Q220 -12 168 18T88 102T60 227Q60 296 80 355T139 460T234 532T363 558Q427 558 476 535T553 469T580 367H516Q510 430 471 466T359 502Q300 502 256 480T183 419T140 332T126 231Q126 143 173 94T293 44Q371
44 418 77T493 178H558Q535 115 499 73T411 9T289 -12ZM250 -219Q221 -219 201 -214T163 -202L171 -163Q193 -170 210 -174T250 -179Q279 -179 301 -168T323 -132Q323 -116 311 -107T276 -98Q265 -98 252 -99T223 -105L206 -81L289 21L326 2L269 -66Q281 -63 287
-63T303 -62Q335 -62 355 -80T376 -129Q376 -157 360 -177T316 -208T250 -219Z" />
<glyph unicode="&#xe8;" horiz-adv-x="650" d="M292 -12Q223 -12 171 17T90 99T60 215Q60 288 81 350T141 459T237 532T366 558Q440 558 493 528T570 441T579 306H123L134 360L519 358Q521 425 480 463T363 502Q283 502 231 464T153 361T127 219Q127 168 148 128T208
66T296 44Q376 44 427 80T503 179H567Q546 120 508 77T417 11T292 -12ZM438 615H387L318 780H386L438 615Z" />
<glyph unicode="&#xe9;" horiz-adv-x="650" d="M292 -12Q223 -12 171 17T90 99T60 215Q60 288 81 350T141 459T237 532T366 558Q440 558 493 528T570 441T579 306H123L134 360L519 358Q521 425 480 463T363 502Q283 502 231 464T153 361T127 219Q127 168 148 128T208
66T296 44Q376 44 427 80T503 179H567Q546 120 508 77T417 11T292 -12ZM341 870L463 1035H538L400 870H341Z" />
<glyph unicode="&#xea;" horiz-adv-x="650" d="M292 -12Q223 -12 171 17T90 99T60 215Q60 288 81 350T141 459T237 532T366 558Q440 558 493 528T570 441T579 306H123L134 360L519 358Q521 425 480 463T363 502Q283 502 231 464T153 361T127 219Q127 168 148 128T208
66T296 44Q376 44 427 80T503 179H567Q546 120 508 77T417 11T292 -12ZM486 870L645 1035H714L804 870H742L674 994L555 870H486Z" />
<glyph unicode="&#xeb;" horiz-adv-x="650" d="M292 -12Q223 -12 171 17T90 99T60 215Q60 288 81 350T141 459T237 532T366 558Q440 558 493 528T570 441T579 306H123L134 360L519 358Q521 425 480 463T363 502Q283 502 231 464T153 361T127 219Q127 168 148 128T208
66T296 44Q376 44 427 80T503 179H567Q546 120 508 77T417 11T292 -12ZM701 910L719 995H794L775 910H701ZM536 910L555 995H629L611 910H536Z" />
<glyph unicode="&#xec;" horiz-adv-x="650" d="M243 0L359 546H424L307 0H243ZM26 0L37 53H513L502 0H26ZM205 493L216 546H392L380 493H205ZM452 616H401L332 781H400L452 616Z" />
<glyph unicode="&#xed;" horiz-adv-x="650" d="M243 0L359 546H424L307 0H243ZM26 0L37 53H513L502 0H26ZM205 493L216 546H392L380 493H205ZM355 615L477 780H552L414 615H355Z" />
<glyph unicode="&#xee;" horiz-adv-x="650" d="M243 0L359 546H424L307 0H243ZM26 0L37 53H513L502 0H26ZM205 493L216 546H392L380 493H205ZM243 615L402 780H471L561 615H499L431 739L312 615H243Z" />
<glyph unicode="&#xef;" horiz-adv-x="650" d="M243 0L359 546H424L307 0H243ZM26 0L37 53H513L502 0H26ZM205 493L216 546H392L380 493H205ZM459 655L477 740H552L533 655H459ZM294 655L313 740H387L369 655H294Z" />
<glyph unicode="&#xf0;" horiz-adv-x="650" d="M297 731H387Q455 694 500 643T569 527T592 384Q592 311 573 240T514 113T416 22T281 -12Q216 -12 166 15T88 94T60 213Q60 298 94 362T192 463T341 499Q428 499 482 453T544 325L517 230Q525 290 506 338T445 416T343
445Q277 445 228 414T153 332T127 216Q127 164 147 125T203 65T284 44Q348 44 394 74T470 155T515 264T530 381Q530 461 504 525T426 640T297 731ZM302 549L291 595L589 709L600 664L302 549Z" />
<glyph unicode="&#xf1;" horiz-adv-x="650" d="M440 0L514 348Q529 417 498 459T401 501Q326 501 258 445T147 278L154 377Q199 463 267 510T414 558Q475 558 516 532T575 459T579 349L504 0H440ZM33 0L150 546H209L184 404L98 0H33ZM279 641L229 649Q245 700
273 727T342 755Q368 755 395 741T448 713T494 698Q517 698 533 715T558 758L609 750Q593 699 564 672T494 644Q468 644 442 659T391 688T343 702Q321 702 305 685T279 641Z" />
<glyph unicode="&#xf2;" horiz-adv-x="650" d="M289 -12Q219 -12 167 16T87 97T58 223Q58 323 96 398T202 516T362 558Q432 558 484 530T564 449T592 324Q592 224 554 149T448 31T289 -12ZM292 44Q363 44 415 78T496 175T525 319Q525 405 480 453T359 502Q288
502 236 468T154 371T125 227Q125 175 145 134T204 68T292 44ZM432 616H381L312 781H380L432 616Z" />
<glyph unicode="&#xf3;" horiz-adv-x="650" d="M289 -12Q219 -12 167 16T87 97T58 223Q58 323 96 398T202 516T362 558Q432 558 484 530T564 449T592 324Q592 224 554 149T448 31T289 -12ZM292 44Q363 44 415 78T496 175T525 319Q525 405 480 453T359 502Q288
502 236 468T154 371T125 227Q125 175 145 134T204 68T292 44ZM335 615L457 780H532L394 615H335Z" />
<glyph unicode="&#xf4;" horiz-adv-x="650" d="M289 -12Q219 -12 167 16T87 97T58 223Q58 323 96 398T202 516T362 558Q432 558 484 530T564 449T592 324Q592 224 554 149T448 31T289 -12ZM292 44Q363 44 415 78T496 175T525 319Q525 405 480 453T359 502Q288
502 236 468T154 371T125 227Q125 175 145 134T204 68T292 44ZM480 615L639 780H708L798 615H736L668 739L549 615H480Z" />
<glyph unicode="&#xf5;" horiz-adv-x="650" d="M289 -12Q219 -12 167 16T87 97T58 223Q58 323 96 398T202 516T362 558Q432 558 484 530T564 449T592 324Q592 224 554 149T448 31T289 -12ZM292 44Q363 44 415 78T496 175T525 319Q525 405 480 453T359 502Q288
502 236 468T154 371T125 227Q125 175 145 134T204 68T292 44ZM521 641L471 649Q487 700 515 727T584 755Q610 755 637 741T690 713T736 698Q759 698 775 715T800 758L851 750Q835 699 806 672T736 644Q710 644 684 659T633 688T585 702Q563 702 547 685T521 641Z"
/>
<glyph unicode="&#xf6;" horiz-adv-x="650" d="M289 -12Q219 -12 167 16T87 97T58 223Q58 323 96 398T202 516T362 558Q432 558 484 530T564 449T592 324Q592 224 554 149T448 31T289 -12ZM292 44Q363 44 415 78T496 175T525 319Q525 405 480 453T359 502Q288
502 236 468T154 371T125 227Q125 175 145 134T204 68T292 44ZM695 655L713 740H788L769 655H695ZM530 655L549 740H623L605 655H530Z" />
<glyph unicode="&#xf7;" horiz-adv-x="650" d="M69 281L81 338H597L585 281H69ZM240 90L259 181H346L326 90H240ZM315 440L334 531H421L401 440H315Z" />
<glyph unicode="&#xf8;" horiz-adv-x="650" d="M96 -65L50 -38L555 609L600 582L96 -65ZM289 -12Q219 -12 167 16T87 97T58 223Q58 323 96 398T202 516T362 558Q432 558 484 530T564 449T592 324Q592 224 554 149T448 31T289 -12ZM292 44Q363 44 415 78T496 175T525
319Q525 405 480 453T359 502Q288 502 236 468T154 371T125 227Q125 175 145 134T204 68T292 44Z" />
<glyph unicode="&#xf9;" horiz-adv-x="650" d="M207 546L133 198Q118 129 149 87T246 45Q321 45 389 101T500 268L493 169Q448 83 380 36T233 -12Q172 -12 131 14T72 87T68 197L143 546H207ZM614 546L497 0H438L463 142L549 546H614ZM427 615H376L307 780H375L427 615Z" />
<glyph unicode="&#xfa;" horiz-adv-x="650" d="M207 546L133 198Q118 129 149 87T246 45Q321 45 389 101T500 268L493 169Q448 83 380 36T233 -12Q172 -12 131 14T72 87T68 197L143 546H207ZM614 546L497 0H438L463 142L549 546H614ZM330 870L452 1035H527L389 870H330Z" />
<glyph unicode="&#xfb;" horiz-adv-x="650" d="M207 546L133 198Q118 129 149 87T246 45Q321 45 389 101T500 268L493 169Q448 83 380 36T233 -12Q172 -12 131 14T72 87T68 197L143 546H207ZM614 546L497 0H438L463 142L549 546H614ZM475 870L634 1035H703L793
870H731L663 994L544 870H475Z" />
<glyph unicode="&#xfc;" horiz-adv-x="650" d="M207 546L133 198Q118 129 149 87T246 45Q321 45 389 101T500 268L493 169Q448 83 380 36T233 -12Q172 -12 131 14T72 87T68 197L143 546H207ZM614 546L497 0H438L463 142L549 546H614ZM690 910L708 995H783L764
910H690ZM525 910L544 995H618L600 910H525Z" />
<glyph unicode="&#xfd;" horiz-adv-x="650" d="M254 217L278 76L355 199L575 546H644L252 -67Q221 -116 193 -143T134 -180T67 -190H-28L-17 -137H77Q101 -137 120 -128T161 -94T208 -29L234 13L123 546H186L254 217ZM342 615L464 780H539L401 615H342Z" />
<glyph unicode="&#xfe;" horiz-adv-x="650" d="M397 558Q461 558 507 531T578 454T603 334Q603 263 581 200T519 90T423 15T297 -12Q233 -12 187 16T117 87L61 -178H-3L190 732H254L197 459Q236 505 287 531T397 558ZM300 44Q351 44 394 66T470 128T519 220T537
329Q537 408 499 455T385 502Q328 502 271 468T178 375L133 159Q150 108 192 76T300 44Z" />
<glyph unicode="&#xff;" horiz-adv-x="650" d="M254 217L278 76L355 199L575 546H644L252 -67Q221 -116 193 -143T134 -180T67 -190H-28L-17 -137H77Q101 -137 120 -128T161 -94T208 -29L234 13L123 546H186L254 217ZM702 655L720 740H795L776 655H702ZM537 655L556
740H630L612 655H537Z" />
<glyph unicode="&#x2013;" horiz-adv-x="650" d="M68 282L80 339H599L586 282H68Z" />
<glyph unicode="&#x2014;" horiz-adv-x="1300" d="M154 281L166 338H1162L1151 281H154Z" />
<glyph unicode="&#x2018;" horiz-adv-x="650" d="M445 589L425 498H338L358 589L443 739H498L468 692L391 589H445Z" />
<glyph unicode="&#x2019;" horiz-adv-x="650" d="M352 650L372 741H459L439 650L354 500H299L329 547L406 650H352Z" />
<glyph unicode="&#x201a;" horiz-adv-x="650" d="M214 0L234 91H321L301 0L216 -150H161L191 -103L268 0H214Z" />
<glyph unicode="&#x201c;" horiz-adv-x="650" d="M362 590L342 499H255L275 590L360 740H415L385 693L308 590H362ZM504 590L484 499H397L417 590L502 740H557L527 693L450 590H504Z" />
<glyph unicode="&#x201d;" horiz-adv-x="650" d="M431 650L451 741H538L518 650L433 500H378L408 547L485 650H431ZM289 650L309 741H396L376 650L291 500H236L266 547L343 650H289Z" />
<glyph unicode="&#x201e;" horiz-adv-x="650" d="M292 0L312 91H399L379 0L294 -150H239L269 -103L346 0H292ZM406 0L426 91H513L493 0L408 -150H353L383 -103L460 0H406Z" />
<glyph unicode="&#x2022;" horiz-adv-x="650" d="M222 211L258 382H437L402 211H222Z" />
<glyph unicode="&#x2039;" horiz-adv-x="650" d="M314 65L220 269L401 474H469L285 266L378 65H314Z" />
<glyph unicode="&#x203a;" horiz-adv-x="650" d="M250 65H181L365 272L273 474H336L430 269L250 65Z" />
</font>
</defs>
</svg>
