<?xml version="1.0" standalone="no"?>
<!DOCTYPE svg PUBLIC "-//W3C//DTD SVG 1.1//EN" "http://www.w3.org/Graphics/SVG/1.1/DTD/svg11.dtd">
<svg xmlns="http://www.w3.org/2000/svg">
<defs >
<font id="AzeretMono" horiz-adv-x="685" ><font-face
    font-family="Azeret Mono Thin Medium"
    units-per-em="1000"
    panose-1="0 0 0 0 0 0 0 0 0 0"
    ascent="937"
    descent="-230"
    alphabetic="0" />
<glyph unicode=" " horiz-adv-x="650" />
<glyph unicode="!" horiz-adv-x="650" d="M281 200L256 579V698H395V579L370 200H281ZM253 0V140H396V0H253Z" />
<glyph unicode="&quot;" horiz-adv-x="650" d="M374 478L359 754H488L474 478H374ZM434 478L419 754H548L534 478H434Z" />
<glyph unicode="#" horiz-adv-x="650" d="M291 0L482 699H589L397 0H291ZM3 176L31 280H582L553 176H3ZM61 0L253 699H359L168 0H61ZM67 415L96 519H646L618 415H67Z" />
<glyph unicode="$" horiz-adv-x="650" d="M265 680V797H384V680H265ZM265 -100V20H384V-100H265ZM333 -12Q250 -12 190 19T97 109T64 250H188Q188 174 225 134T332 93Q390 93 424 119T459 192Q459 226 439 245T384 278T308 301T226 325T151 361T95 418T74 509Q74
567 105 612T192 683T323 710Q395 710 453 683T547 607T584 486H458Q457 524 439 550T390 591T323 605Q272 605 239 581T205 512Q205 481 226 463T281 434T357 412T438 389T513 352T569 290T590 193Q590 131 557 85T465 14T333 -12Z" />
<glyph unicode="%" horiz-adv-x="650" d="M55 0L497 698H595L153 0H55ZM475 -12Q432 -12 399 9T348 68T329 157Q329 208 347 245T399 304T475 325Q520 325 553 304T604 246T622 157Q622 106 604 68T553 9T475 -12ZM476 66Q503 66 519 91T535 157Q535 197 519 222T476
247Q450 247 434 222T418 157Q418 116 434 91T476 66ZM174 375Q130 375 97 396T46 455T28 544Q28 595 46 632T97 691T174 712Q219 712 251 691T302 633T321 544Q321 493 303 455T252 396T174 375ZM174 453Q201 453 217 478T233 544Q233 584 217 609T174 634Q148
634 132 609T116 544Q116 503 132 478T174 453Z" />
<glyph unicode="&amp;" horiz-adv-x="650" d="M257 -12Q189 -12 139 13T61 82T33 185Q33 230 48 266T92 332T164 382Q133 424 117 458T101 535Q101 588 125 627T193 688T291 710Q345 710 385 690T448 633T471 547Q471 510 456 476T409 414T330 364L447 224Q461
251 473 283T494 348H613Q599 291 576 236T522 135L636 0H485L439 54Q403 23 357 6T257 -12ZM261 91Q294 91 321 103T370 135L226 308Q204 294 186 278T158 242T147 195Q147 150 178 121T261 91ZM268 435Q317 459 338 483T360 539Q360 572 341 591T290 610Q257
610 237 589T216 537Q216 510 230 487T268 435Z" />
<glyph unicode="&apos;" horiz-adv-x="650" d="M275 476L260 752H389L375 476H275Z" />
<glyph unicode="(" horiz-adv-x="650" d="M337 -97Q274 9 248 104T222 300Q222 401 248 496T337 698H458Q394 595 368 497T342 300Q342 203 368 105T458 -97H337Z" />
<glyph unicode=")" horiz-adv-x="650" d="M313 -97H192Q257 6 282 104T308 300Q308 398 283 496T192 698H313Q376 592 402 497T428 300Q428 200 402 105T313 -97Z" />
<glyph unicode="*" horiz-adv-x="650" d="M241 348L168 402L257 505L127 541L156 624L278 579V710H371V579L494 624L523 541L392 505L484 402L410 348L325 455L241 348Z" />
<glyph unicode="+" horiz-adv-x="650" d="M70 256V360H579V256H70ZM273 52V561H377V52H273Z" />
<glyph unicode="," horiz-adv-x="650" d="M253 0V140H395V0L318 -181H210L251 -114L330 1L253 0Z" />
<glyph unicode="-" horiz-adv-x="650" d="M167 257V361H482V257H167Z" />
<glyph unicode="." horiz-adv-x="650" d="M254 0V140H396V0H254Z" />
<glyph unicode="/" horiz-adv-x="650" d="M69 -97L456 699H580L193 -97H69Z" />
<glyph unicode="0" horiz-adv-x="650" d="M325 -12Q239 -12 178 32T85 158T52 349Q52 459 84 540T178 665T325 710Q411 710 472 666T565 541T598 349Q598 239 566 158T472 33T325 -12ZM325 93Q397 93 432 159T468 349Q468 473 433 539T325 605Q255 605 219 539T182
349Q182 226 218 160T325 93Z" />
<glyph unicode="1" horiz-adv-x="650" d="M303 0V408L310 552L195 459L72 361V506L337 698H429V0H303ZM72 0V105H586V0H72Z" />
<glyph unicode="2" horiz-adv-x="650" d="M71 0V88Q206 187 288 260T408 391T446 496Q446 545 415 574T330 604Q272 604 235 568T196 467H70Q74 544 108 598T200 681T333 710Q406 710 460 684T545 611T576 500Q576 434 544 373T443 246T259 105H577V0H71Z" />
<glyph unicode="3" horiz-adv-x="650" d="M330 -12Q258 -12 199 16T104 100T70 234H195Q195 192 212 161T259 112T330 95Q387 95 422 124T457 201Q457 238 437 261T383 296T307 308H271V412H309Q346 412 373 426T414 463T429 514Q429 556 401 580T327 604Q271
604 237 572T202 479H76Q79 554 113 605T204 683T329 710Q398 710 449 687T529 623T558 526Q558 489 543 457T502 402T441 368Q485 360 517 337T568 278T587 199Q587 137 556 90T467 15T330 -12Z" />
<glyph unicode="4" horiz-adv-x="650" d="M373 0V162H35V250L328 698H502V267H617V162H502V0H373ZM165 267H373V452L375 598L299 472L165 267Z" />
<glyph unicode="5" horiz-adv-x="650" d="M321 -11Q249 -11 196 14T112 86T77 196H202Q206 149 238 122T321 94Q363 94 393 112T439 164T456 244Q456 302 422 338T332 375Q291 375 256 355T201 304H85L145 698H548V593H248L219 418Q247 447 285 464T366 481Q430
481 479 452T557 370T586 246Q586 167 553 109T460 20T321 -11Z" />
<glyph unicode="6" horiz-adv-x="650" d="M361 457Q423 457 475 431T558 354T590 231Q590 160 558 105T467 19T333 -12Q249 -12 189 28T97 144T64 323Q64 434 99 521T200 659T356 710Q413 710 454 692T523 644T564 583T580 521H452Q446 560 419 582T352 605Q307
605 275 577T223 499T198 382Q228 419 268 438T361 457ZM334 93Q371 93 399 110T443 157T459 227Q459 266 444 294T400 338T335 354Q289 354 255 332T197 271Q205 189 240 141T334 93Z" />
<glyph unicode="7" horiz-adv-x="650" d="M188 0Q199 86 222 170T279 331T356 476T450 594H68V698H599V611Q537 552 490 484T408 338T350 177T315 0H188ZM68 698H187V453H68V698Z" />
<glyph unicode="8" horiz-adv-x="650" d="M324 -12Q249 -12 192 14T103 87T71 193Q71 236 88 271T136 332T208 371H441Q483 357 513 332T561 272T579 195Q579 134 547 87T457 14T324 -12ZM324 93Q359 93 387 106T431 144T448 199Q448 229 433 252T389 290T324
308Q289 305 261 291T217 253T201 198Q201 167 217 144T262 107T324 93ZM324 404Q358 406 384 419T424 454T439 506Q439 552 407 580T324 608Q276 608 243 580T210 506Q210 477 225 455T266 419T324 404ZM214 349Q175 363 146 386T100 441T84 514Q84 572 114 616T198
685T324 710Q396 710 450 685T535 616T566 512Q566 472 550 441T504 386T435 349H214Z" />
<glyph unicode="9" horiz-adv-x="650" d="M289 241Q227 241 175 267T92 344T60 467Q60 538 92 593T183 679T317 710Q401 710 461 670T553 554T586 375Q586 264 551 177T450 39T294 -12Q237 -12 196 6T127 54T86 115T70 177H198Q204 138 231 116T298 93Q343 93
375 121T427 199T452 316Q422 279 382 260T289 241ZM316 605Q279 605 251 588T207 541T191 471Q191 432 206 404T250 360T315 344Q361 344 395 366T453 427Q445 509 410 557T316 605Z" />
<glyph unicode=":" horiz-adv-x="650" d="M253 358V498H395V358H253ZM254 0V140H396V0H254Z" />
<glyph unicode=";" horiz-adv-x="650" d="M248 0V149H399V0L324 -186H214L324 0H248ZM252 357V497H395V357H252Z" />
<glyph unicode="&lt;" horiz-adv-x="650" d="M582 65L66 256V360L582 550V439L205 309L582 176V65Z" />
<glyph unicode="=" horiz-adv-x="650" d="M67 366V470H582V366H67ZM67 142V246H582V142H67Z" />
<glyph unicode="&gt;" horiz-adv-x="650" d="M62 65V176L439 309L62 439V550L578 360V256L62 65Z" />
<glyph unicode="?" horiz-adv-x="650" d="M266 196V219Q266 262 279 291T313 339T356 375T400 409T433 450T446 509Q446 540 432 562T393 598T333 611Q277 611 240 572T203 466H81Q81 540 113 594T202 679T333 710Q406 710 458 685T539 615T568 510Q568 462 555
430T520 377T474 339T428 306T392 269T377 219L376 196H266ZM248 0V140H391V0H248Z" />
<glyph unicode="@" horiz-adv-x="650" d="M331 -169Q236 -169 166 -116T58 35T19 262Q19 397 58 497T170 652T340 707Q429 707 494 660T595 526T631 323Q631 254 619 205T586 125T538 78T481 63H377L374 131Q366 95 345 75T294 54Q260 54 233 81T190 157T174 271Q174
337 190 386T233 462T294 489Q324 489 345 469T374 412L377 480H461V143H482Q512 143 525 192T538 323Q538 416 514 482T446 585T340 621Q272 621 221 578T142 454T114 262Q114 156 141 79T218 -41T335 -83H499L444 -169H331ZM320 163Q341 163 354 184T372 237V306Q368
338 355 359T320 380Q295 380 281 350T267 271Q267 223 281 193T320 163Z" />
<glyph unicode="A" horiz-adv-x="650" d="M134 162V267H530V162H134ZM233 698H417L620 0H491L366 440L325 604L282 439L156 0H30L233 698Z" />
<glyph unicode="B" horiz-adv-x="650" d="M473 365Q512 354 540 332T584 276T601 198Q601 138 571 94T485 25T354 0H77V698H344Q458 698 521 649T584 521Q584 484 571 454T532 401T473 365ZM337 593H203V408H337Q390 408 421 434T453 502Q453 545 421 569T337
593ZM203 105H351Q405 105 437 131T470 203Q470 250 437 276T344 303H203V105Z" />
<glyph unicode="C" horiz-adv-x="650" d="M335 -12Q242 -12 175 33T70 161T33 349Q33 459 71 540T178 665T340 710Q414 710 474 681T573 599T617 469H480Q473 531 436 568T339 605Q288 605 248 575T186 487T164 349Q164 268 186 211T247 124T335 93Q377 93 408
110T460 160T483 235H621Q614 160 578 105T480 19T335 -12Z" />
<glyph unicode="D" horiz-adv-x="650" d="M64 0V698H285Q363 698 424 674T529 604T595 494T618 351Q618 271 595 207T529 96T425 25T285 0H64ZM189 105H285Q349 105 394 135T463 221T488 351Q488 425 464 479T394 563T285 593H189V105Z" />
<glyph unicode="E" horiz-adv-x="650" d="M80 0V698H586V593H205V414H462V309H205V105H590V0H80Z" />
<glyph unicode="F" horiz-adv-x="650" d="M72 0V698H585V593H198V414H461V309H198V0H72Z" />
<glyph unicode="G" horiz-adv-x="650" d="M334 -12Q242 -12 173 33T66 159T27 349Q27 457 65 538T174 664T341 710Q412 710 471 682T567 600T610 470H472Q465 530 430 567T338 605Q287 605 246 575T182 487T158 349Q158 267 182 210T249 123T345 93Q391 93 426
109T486 151V269L374 265L378 371H610V115Q568 55 498 22T334 -12Z" />
<glyph unicode="H" horiz-adv-x="650" d="M467 0V698H593V0H467ZM58 0V698H184V0H58ZM168 309V414H482V309H168Z" />
<glyph unicode="I" horiz-adv-x="650" d="M262 0V698H387V0H262ZM92 698H557V593H92V698ZM92 105H557V0H92V105Z" />
<glyph unicode="J" horiz-adv-x="650" d="M97 0V105H345Q390 105 413 132T437 207V698H563V214Q563 161 549 122T508 55T440 14T344 0H97ZM182 698H553V593H182V698Z" />
<glyph unicode="K" horiz-adv-x="650" d="M69 0V698H194V529L184 396L286 515L452 698H604L194 237V0H69ZM478 0L237 386L344 449L627 0H478Z" />
<glyph unicode="L" horiz-adv-x="650" d="M101 0V698H227V105H583V0H101Z" />
<glyph unicode="M" horiz-adv-x="650" d="M22 0L73 698H235L307 326L328 174L349 326L417 698H578L629 0H505L489 407L486 574L455 407L375 0H273L194 407L164 575L160 407L145 0H22Z" />
<glyph unicode="N" horiz-adv-x="650" d="M62 0V698H220L479 160L470 388V698H589V0H432L171 531L181 310V0H62Z" />
<glyph unicode="O" horiz-adv-x="650" d="M326 -12Q236 -12 169 32T64 157T27 349Q27 460 64 541T168 666T326 710Q416 710 483 667T587 542T624 349Q624 238 587 157T483 32T326 -12ZM326 93Q375 93 413 124T472 212T494 349Q494 429 473 486T413 574T326 605Q277
605 239 574T179 486T158 349Q158 270 179 213T238 124T326 93Z" />
<glyph unicode="P" horiz-adv-x="650" d="M164 243V348H338Q399 348 436 382T473 473Q473 527 438 560T345 593H164V698H345Q423 698 481 671T572 592T604 473Q604 404 571 352T479 272T339 243H164ZM74 0V698H200V0H74Z" />
<glyph unicode="Q" horiz-adv-x="650" d="M317 -12Q231 -12 165 33T62 159T24 349Q24 459 61 540T165 666T318 710Q405 710 471 666T574 541T612 349Q612 289 597 235T555 138T492 71L568 88L646 93L618 -12H317ZM318 93Q366 93 402 124T458 213T479 349Q479 428
459 485T402 574T318 605Q271 605 235 574T178 486T157 349Q157 271 177 214T234 125T318 93Z" />
<glyph unicode="R" horiz-adv-x="650" d="M167 282V386H338Q377 386 407 399T454 437T471 494Q471 525 456 547T415 581T356 593H167V698H356Q427 698 482 674T570 605T602 494Q602 454 583 416T529 348T444 300T331 282H167ZM77 0V698H203V0H77ZM471 0Q467 46
449 91T399 179T319 256T209 318L349 348Q412 316 458 276T534 191T581 97T600 0H471Z" />
<glyph unicode="S" horiz-adv-x="650" d="M333 -12Q250 -12 190 19T97 109T64 250H188Q188 174 225 134T332 93Q390 93 424 119T459 192Q459 226 439 245T384 278T308 301T226 325T151 361T95 418T74 509Q74 567 105 612T192 683T323 710Q395 710 453 683T547
607T584 486H458Q457 524 439 550T390 591T323 605Q272 605 239 581T205 512Q205 481 226 463T281 434T357 412T438 389T513 352T569 290T590 193Q590 131 557 85T465 14T333 -12Z" />
<glyph unicode="T" horiz-adv-x="650" d="M262 0V593H44V698H605V593H387V0H262Z" />
<glyph unicode="U" horiz-adv-x="650" d="M325 -12Q240 -12 178 20T83 111T49 248V698H175V248Q175 201 193 167T246 113T325 94Q371 94 404 113T456 166T475 248V698H602V248Q602 170 568 112T472 21T325 -12Z" />
<glyph unicode="V" horiz-adv-x="650" d="M233 0L29 698H160L291 263L327 101L362 262L494 698H622L417 0H233Z" />
<glyph unicode="W" horiz-adv-x="650" d="M84 0L17 698H135L170 281L179 109L203 281L271 698H382L453 281L480 104L486 281L519 698H636L567 0H401L348 345L327 518L305 345L250 0H84Z" />
<glyph unicode="X" horiz-adv-x="650" d="M34 0L239 356L41 698H184L275 541L326 441L379 542L470 698H610L411 359L619 0H478L379 171L326 272L273 172L174 0H34Z" />
<glyph unicode="Y" horiz-adv-x="650" d="M260 0V282L32 698H169L266 524L325 389L386 525L483 698H617L386 282V0H260Z" />
<glyph unicode="Z" horiz-adv-x="650" d="M51 0V88L350 484L442 593H295H64V698H596V610L297 214L205 105H352H596V0H51Z" />
<glyph unicode="[" horiz-adv-x="650" d="M214 -97V699H333V-97H214ZM253 -97V-4H473V-97H253ZM253 606V699H473V606H253Z" />
<glyph unicode="\" horiz-adv-x="650" d="M581 -97H457L70 699H194L581 -97Z" />
<glyph unicode="]" horiz-adv-x="650" d="M436 -97H317V699H436V-97ZM397 -97H177V-4H397V-97ZM397 606H177V699H397V606Z" />
<glyph unicode="^" horiz-adv-x="650" d="M102 355L276 698H373L548 355H432L325 570L217 355H102Z" />
<glyph unicode="_" horiz-adv-x="650" d="M76 -104V0H574V-104H76Z" />
<glyph unicode="`" horiz-adv-x="650" d="M438 616H334L224 785H352L438 616Z" />
<glyph unicode="a" horiz-adv-x="650" d="M457 0L452 117V365Q452 417 417 447T320 477Q261 477 224 450T181 376H65Q70 435 103 477T193 541T324 564Q400 564 455 540T541 470T571 358V0H457ZM265 -12Q211 -12 170 8T105 65T82 151Q82 236 148 283T331 331H466V245L327
244Q267 244 233 222T199 157Q199 124 223 104T291 84Q346 84 389 113T460 195L473 111Q447 50 394 19T265 -12Z" />
<glyph unicode="b" horiz-adv-x="650" d="M362 564Q436 564 491 527T579 424T611 276Q611 194 579 129T492 26T362 -12Q308 -12 262 10T187 70L184 0H71V737H189V486Q219 522 264 543T362 564ZM334 87Q381 87 416 112T471 179T491 276Q491 331 471 373T416 440T334
465Q285 465 246 437T189 358V195Q207 146 246 117T334 87Z" />
<glyph unicode="c" horiz-adv-x="650" d="M338 -12Q252 -12 189 23T93 123T59 276Q59 366 94 430T192 529T341 564Q411 564 466 539T555 467T593 357H474Q466 410 431 437T341 465Q292 465 256 443T199 378T179 276Q179 186 223 136T338 85Q372 85 400 98T449
136T477 192H597Q588 130 553 84T462 13T338 -12Z" />
<glyph unicode="d" horiz-adv-x="650" d="M293 564Q347 564 392 543T466 486V737H585V0H471L468 70Q440 33 394 11T293 -12Q220 -12 164 25T77 128T45 276Q45 359 76 424T164 526T293 564ZM321 87Q371 87 409 116T466 195V358Q448 408 410 436T321 465Q275 465
240 441T184 374T164 276Q164 222 184 180T239 112T321 87Z" />
<glyph unicode="e" horiz-adv-x="650" d="M331 -12Q244 -12 181 22T85 122T51 277Q51 367 85 431T183 530T336 564Q474 564 539 487T596 276H146L147 363L474 362Q470 410 432 439T336 468Q254 468 212 417T170 272Q170 218 189 176T243 110T331 86Q390 86 429
114T478 189H598Q586 96 515 42T331 -12Z" />
<glyph unicode="f" horiz-adv-x="650" d="M245 0V612Q245 665 266 705T328 769T423 792H590V695H464Q436 695 413 689T377 665T364 614V0H245ZM122 455V552H524V455H122ZM75 0V97H579V0H75Z" />
<glyph unicode="g" horiz-adv-x="650" d="M467 480L470 552H584V65Q584 -60 517 -125T313 -190Q238 -190 183 -171T98 -112T63 -12H188Q193 -52 225 -72T319 -92Q392 -92 428 -55T465 51V111Q437 72 393 50T294 28Q224 28 170 63T84 158T53 295Q53 378 85 438T174
531T301 563Q354 563 397 540T467 480ZM322 120Q372 120 410 150T465 231V361Q449 412 411 441T322 471Q278 471 244 448T191 386T172 297Q172 246 191 207T244 144T322 120Z" />
<glyph unicode="h" horiz-adv-x="650" d="M460 0V344Q460 398 431 430T354 463Q300 463 257 425T182 301L164 419Q197 493 254 528T376 564Q439 564 484 538T554 463T579 351V0H460ZM75 0V738H194V0H75Z" />
<glyph unicode="i" horiz-adv-x="650" d="M269 0V552H388V0H269ZM74 0V97H575V0H74ZM145 455V552H328V455H145ZM262 639V761H392V639H262Z" />
<glyph unicode="j" horiz-adv-x="650" d="M478 552V3Q478 -51 458 -92T400 -155T307 -178H79V-81H266Q311 -81 335 -65T359 1V552H478ZM235 455V552H418V455H235ZM353 639V761H483V639H353Z" />
<glyph unicode="k" horiz-adv-x="650" d="M59 0V737H179V474L172 317L278 432L407 552H563L179 192V0H59ZM434 0L247 331L354 379L573 0H434Z" />
<glyph unicode="l" horiz-adv-x="650" d="M265 0V737H385V0H265ZM70 0V97H582V0H70ZM142 640V737H325V640H142Z" />
<glyph unicode="m" horiz-adv-x="650" d="M494 0V398Q494 430 484 448T450 466Q418 466 394 425T358 290L349 371Q348 462 386 513T484 564Q537 564 569 524T602 409V0H494ZM48 0V552H152L156 446V0H48ZM271 0V398Q271 432 260 449T225 466Q191 466 168 422T134
290L133 375Q133 434 151 476T199 541T262 564Q317 564 348 523T379 411V0H271Z" />
<glyph unicode="n" horiz-adv-x="650" d="M460 0V345Q460 399 431 431T354 463Q300 463 257 425T182 301L164 420Q197 493 254 528T376 564Q439 564 484 538T554 464T579 352V0H460ZM75 0V552H189L194 436V0H75Z" />
<glyph unicode="o" horiz-adv-x="650" d="M325 -12Q238 -12 176 23T80 122T46 276Q46 366 79 430T175 529T325 564Q455 564 529 488T603 276Q603 187 570 123T474 23T325 -12ZM325 86Q398 86 440 137T483 276Q483 365 441 415T325 466Q250 466 208 416T166 276Q166
188 208 137T325 86Z" />
<glyph unicode="p" horiz-adv-x="650" d="M362 564Q435 564 490 527T578 424T610 276Q610 194 578 129T491 26T362 -12Q308 -12 264 9T189 67V-178H70V552H184L187 484Q217 521 262 542T362 564ZM334 87Q381 87 416 112T470 179T490 276Q490 331 471 373T416 440T334
465Q285 465 246 437T189 360V193Q207 144 246 116T334 87Z" />
<glyph unicode="q" horiz-adv-x="650" d="M288 564Q344 564 389 543T463 484L466 552H580V-178H461V67Q432 30 387 9T288 -12Q216 -12 160 25T72 128T40 276Q40 359 72 424T160 526T288 564ZM316 87Q365 87 404 115T461 193V360Q443 409 404 437T316 465Q270 465
235 441T180 374T160 276Q160 222 179 180T234 112T316 87Z" />
<glyph unicode="r" horiz-adv-x="650" d="M465 302V371Q465 412 441 437T370 463Q314 463 268 422T191 293L176 405Q199 457 230 492T302 546T391 564Q476 564 530 514T584 371V302H465ZM93 0V552H206L212 435V0H93Z" />
<glyph unicode="s" horiz-adv-x="650" d="M339 -12Q265 -12 209 13T121 86T89 197H201Q200 141 237 109T339 77Q390 77 421 96T452 148Q452 174 433 190T383 215T314 231T238 249T169 277T118 324T99 398Q99 447 126 484T205 543T325 564Q429 564 493 516T562
382H451Q448 427 415 451T325 475Q274 475 247 455T219 404Q219 378 238 364T289 342T358 328T433 311T502 284T553 236T573 158Q573 79 510 34T339 -12Z" />
<glyph unicode="t" horiz-adv-x="650" d="M370 0Q317 0 279 22T221 84T201 179V652L321 712V179Q321 154 328 135T355 107T415 97H572V0H370ZM78 455V552H481V455H78Z" />
<glyph unicode="u" horiz-adv-x="650" d="M183 552V207Q183 153 212 121T289 89Q343 89 386 127T461 251L479 132Q446 59 389 24T267 -12Q204 -12 159 14T89 88T64 200V552H183ZM568 552V0H454L449 116V552H568Z" />
<glyph unicode="v" horiz-adv-x="650" d="M257 0L48 552H173L289 237L326 107L365 237L480 552H601L393 0H257Z" />
<glyph unicode="w" horiz-adv-x="650" d="M105 0L19 554H130L172 252L189 124L212 252L273 554H380L444 252L468 122L484 252L526 554H632L547 0H408L344 289L326 440L307 289L244 0H105Z" />
<glyph unicode="x" horiz-adv-x="650" d="M397 285L590 0H455L402 75L323 198L244 75L190 0H59L251 283L68 552H202L245 493L324 370L403 494L445 552H577L397 285Z" />
<glyph unicode="y" horiz-adv-x="650" d="M274 306L325 167L377 307L481 552H603L351 -43Q328 -99 300 -131T235 -176T152 -190H53V-93H142Q169 -93 187 -82T221 -48T250 8L264 40L47 552H171L274 306Z" />
<glyph unicode="z" horiz-adv-x="650" d="M89 0V87L321 353L421 456L274 455H102V552H563V467L329 200L228 96L375 97H563V0H89Z" />
<glyph unicode="{" horiz-adv-x="650" d="M433 -97Q376 -97 332 -76T262 -12T237 91V186Q237 216 217 235T164 258V342Q197 345 217 366T237 416V509Q237 569 262 611T332 675T433 698H477V604H447Q406 604 381 577T355 501V429Q355 370 324 335T244 286L245 316Q294
302 324 266T355 173V99Q355 49 380 23T447 -4H477V-97H433Z" />
<glyph unicode="|" horiz-adv-x="650" d="M262 -190V738H387V-190H262Z" />
<glyph unicode="}" horiz-adv-x="650" d="M217 -97H173V-4H203Q244 -4 269 22T295 99V173Q295 230 326 266T405 316L406 286Q358 299 327 334T295 429V501Q295 549 270 576T203 604H173V698H217Q274 698 318 676T387 611T413 509V416Q413 388 433 367T486 342V258Q454
255 434 236T413 186V91Q413 30 388 -12T319 -75T217 -97Z" />
<glyph unicode="~" horiz-adv-x="650" d="M432 218Q398 218 369 230T315 258T268 285T222 297Q196 297 178 277T159 222H56Q57 280 81 319T141 378T218 398Q253 398 282 386T335 359T383 331T428 319Q454 319 471 339T491 394H594Q593 339 570 300T510 239T432 218Z" />
<glyph unicode="&#xa0;" horiz-adv-x="650" />
<glyph unicode="&#xa1;" horiz-adv-x="650" d="M250 552H400V403H250V552ZM370 352L395 -26V-146H256V-26L281 352H370Z" />
<glyph unicode="&#xa2;" horiz-adv-x="650" d="M286 531V655H405V531H286ZM286 -97V17H405V-97H286ZM351 -12Q265 -12 202 23T106 123T72 276Q72 366 107 430T205 529T353 564Q423 564 478 539T568 467T606 357H487Q478 410 443 437T353 465Q305 465 269 443T212
378T191 276Q191 186 235 136T351 85Q385 85 413 98T462 136T490 192H609Q601 130 565 84T474 13T351 -12Z" />
<glyph unicode="&#xa3;" horiz-adv-x="650" d="M86 0V105Q138 142 163 185T189 268Q189 298 179 326T156 384T132 443T122 510Q122 569 150 614T230 686T349 712Q447 712 505 655T569 497H446Q444 549 416 578T347 607Q320 607 298 595T262 559T248 503Q248 474
257 445T279 386T302 326T312 265Q312 232 298 198T258 133T191 77L173 105H562V0H86ZM83 297V384H506V297H83Z" />
<glyph unicode="&#xa4;" horiz-adv-x="650" d="M140 458L11 596L93 679L231 533L140 458ZM93 -11L11 72L139 208L228 132L93 -11ZM558 -11L420 135L509 211L640 72L558 -11ZM510 458L419 536L557 679L639 596L510 458ZM331 47Q250 47 188 85T91 188T56 334Q56
415 91 479T188 582T331 620Q413 620 474 582T570 480T605 334Q605 253 571 188T475 85T331 47ZM330 148Q377 148 413 172T471 238T492 334Q492 389 471 430T414 495T330 519Q284 519 248 496T191 431T170 334Q170 280 190 238T247 172T330 148Z" />
<glyph unicode="&#xa5;" horiz-adv-x="650" d="M75 267V354H571V267H75ZM260 0V282L32 698H169L266 524L325 389L386 525L483 698H617L386 282V0H260Z" />
<glyph unicode="&#xa6;" horiz-adv-x="650" d="M262 363V738H387V363H262ZM262 -190V184H387V-190H262Z" />
<glyph unicode="&#xa7;" horiz-adv-x="650" d="M329 -190Q247 -190 187 -161T96 -77T68 49H191Q189 -15 224 -54T329 -94Q366 -94 394 -83T437 -52T453 -4Q453 26 433 44T379 74T306 95T226 117T153 148T99 200T79 280Q79 319 96 350T145 400Q112 423 96 454T79
529Q79 582 111 622T199 686T323 710Q393 710 450 686T542 615T579 505H453Q453 539 436 563T389 601T323 614Q273 614 241 592T208 531Q208 502 228 486T282 458T355 438T436 417T509 383T562 327T583 238Q583 204 570 175T531 122Q555 101 569 71T583 -3Q583
-60 550 -102T460 -167T329 -190ZM428 175Q439 190 446 205T453 238Q453 261 441 277T408 305T360 324T304 339T245 356Q228 343 218 327T208 290Q208 265 221 249T257 224T308 207T367 193T428 175Z" />
<glyph unicode="&#xa8;" horiz-adv-x="650" d="M470 641V762H599V641H470ZM262 641V762H391V641H262Z" />
<glyph unicode="&#xa9;" horiz-adv-x="650" d="M328 152Q280 152 244 178T187 249T167 353Q167 412 187 457T244 528T329 553Q387 553 426 514T470 413H396Q392 446 373 468T326 490Q288 490 265 452T241 354Q241 295 263 256T325 216Q356 216 375 238T399 296H471Q465
233 426 193T328 152ZM327 -12Q236 -12 167 34T59 162T19 349Q19 454 58 535T167 663T327 710Q416 710 485 664T593 536T633 349Q633 244 594 163T485 35T327 -12ZM326 52Q394 52 446 90T529 195T559 349Q559 436 529 503T447 608T326 646Q257 646 205 608T123
503T93 349Q93 262 122 196T204 91T326 52Z" />
<glyph unicode="&#xaa;" horiz-adv-x="650" d="M394 336L392 423V572Q392 605 372 624T315 644Q282 644 260 627T235 579H151Q156 634 199 671T317 708Q395 708 436 670T477 569V336H394ZM280 327Q246 327 219 340T177 379T161 438Q161 497 205 529T319 561H400V497H318Q285
497 266 482T247 445Q247 424 261 410T301 396Q340 396 366 422T406 492L421 441Q414 401 394 376T344 339T280 327Z" />
<glyph unicode="&#xab;" horiz-adv-x="650" d="M481 63L341 273L481 483H606L464 273L606 63H481ZM432 63L292 273L432 483H557L415 273L557 63H432Z" />
<glyph unicode="&#xac;" horiz-adv-x="650" d="M464 116V360H582V116H464ZM67 256V360H582V256H67Z" />
<glyph unicode="&#xad;" horiz-adv-x="650" d="M167 257V361H482V257H167Z" />
<glyph unicode="&#xae;" horiz-adv-x="650" d="M279 480V528H334Q348 528 357 536T366 557Q366 569 358 576T335 584H279V632H335Q377 632 400 612T424 557Q424 523 398 502T332 480H279ZM241 405V632H298V405H241ZM367 405Q364 420 359 436T339 469T297 495L351
512Q383 492 401 466T427 405H367ZM325 294Q258 294 207 323T126 403T96 517Q96 579 125 629T206 708T325 738Q391 738 442 709T523 630T553 517Q553 454 524 404T443 324T325 294ZM324 342Q373 342 411 364T472 427T495 517Q495 568 473 607T412 668T324 691Q276
691 238 669T177 607T154 517Q154 466 176 427T236 365T324 342Z" />
<glyph unicode="&#xaf;" horiz-adv-x="650" d="M266 644V734H600V644H266Z" />
<glyph unicode="&#xb0;" horiz-adv-x="650" d="M325 374Q273 374 234 395T174 454T152 543Q152 593 173 630T234 689T325 710Q377 710 416 689T476 631T498 543Q498 492 477 454T416 395T325 374ZM325 451Q360 451 382 476T404 543Q404 583 383 608T325 633Q290
633 269 608T247 543Q247 502 268 477T325 451Z" />
<glyph unicode="&#xb1;" horiz-adv-x="650" d="M70 333V437H579V333H70ZM271 152V616H378V152H271ZM67 0V104H582V0H67Z" />
<glyph unicode="&#xb2;" horiz-adv-x="650" d="M157 301V369Q241 428 292 473T366 552T389 615Q389 642 372 659T324 676Q293 676 274 655T252 596H155Q157 671 204 713T325 756Q398 756 443 719T489 620Q489 578 469 540T408 463T303 381H491V301H157Z" />
<glyph unicode="&#xb3;" horiz-adv-x="650" d="M329 293Q282 293 243 312T180 367T158 454H254Q255 418 275 396T328 374Q359 374 378 391T398 435Q398 465 374 481T315 498H292V567H316Q347 567 365 584T384 625Q384 647 369 661T327 676Q300 676 281 659T259
606H162Q164 656 187 689T247 739T328 756Q397 756 439 723T481 636Q481 595 459 569T410 537Q447 530 473 501T499 430Q499 370 453 332T329 293Z" />
<glyph unicode="&#xb4;" horiz-adv-x="650" d="M385 616L472 785H599L490 616H385Z" />
<glyph unicode="&#xb5;" horiz-adv-x="650" d="M64 -190V282H182V96L172 71V-190H64ZM183 552V207Q183 154 212 122T290 89Q344 89 387 127T461 251L480 132Q447 59 390 24T268 -12Q205 -12 160 14T89 89T64 200V552H183ZM569 552V0H454L449 116V552H569Z" />
<glyph unicode="&#xb6;" horiz-adv-x="650" d="M271 -190V266Q201 266 151 292T73 368T46 483Q46 550 73 598T150 672T271 698H379V-190H271ZM474 -190V698H582V-190H474Z" />
<glyph unicode="&#xb7;" horiz-adv-x="650" d="M285 240V380H427V240H285Z" />
<glyph unicode="&#xb8;" horiz-adv-x="650" d="M471 -221Q447 -221 422 -217T374 -204V-148Q392 -154 412 -157T451 -161Q476 -161 492 -154T509 -131Q509 -117 495 -110T461 -103Q450 -103 440 -104T420 -109L399 -77L460 25L522 4L484 -54Q491 -52 496 -52T505
-51Q530 -51 551 -59T585 -86T599 -131Q599 -161 582 -181T536 -211T471 -221Z" />
<glyph unicode="&#xb9;" horiz-adv-x="650" d="M315 300V645L162 530V629L327 748H413V300H315ZM161 380H534V300H161V380Z" />
<glyph unicode="&#xba;" horiz-adv-x="650" d="M325 327Q246 327 198 377T150 518Q150 608 198 658T325 709Q404 709 452 659T500 518Q500 427 452 377T325 327ZM325 393Q365 393 389 425T413 518Q413 579 389 610T325 642Q284 642 261 611T238 518Q238 457 261
425T325 393Z" />
<glyph unicode="&#xbb;" horiz-adv-x="650" d="M420 63H295L437 273L295 483H420L560 273L420 63ZM214 63H88L231 273L88 483H214L354 273L214 63Z" />
<glyph unicode="&#xbc;" horiz-adv-x="1300" d="M282 250V595L129 480V579L294 698H380V250H282ZM128 330H501V250H128V330ZM399 0L841 698H953L511 0H399ZM971 0V98H749V165L950 448H1068V178H1154V98H1068V0H971ZM847 178H971V351L847 178Z" />
<glyph unicode="&#xbd;" horiz-adv-x="1300" d="M282 250V595L129 480V579L294 698H380V250H282ZM128 330H501V250H128V330ZM403 0L845 698H957L515 0H403ZM834 0V68Q918 127 969 172T1043 251T1066 314Q1066 341 1049 358T1001 375Q970 375 951 354T929 295H832Q834
370 881 412T1002 455Q1075 455 1120 418T1166 319Q1166 277 1146 239T1085 162T980 80H1168V0H834Z" />
<glyph unicode="&#xbe;" horiz-adv-x="1300" d="M329 243Q282 243 243 262T180 317T158 404H254Q255 368 275 346T328 324Q359 324 378 341T398 385Q398 415 374 431T315 448H292V517H316Q347 517 365 534T384 575Q384 597 369 611T327 626Q300 626 281 609T259
556H162Q164 606 187 639T247 689T328 706Q397 706 439 673T481 586Q481 545 459 519T410 487Q447 480 473 451T499 380Q499 320 453 282T329 243ZM379 0L821 698H933L491 0H379ZM977 0V98H755V165L956 448H1074V178H1160V98H1074V0H977ZM853 178H977V351L853 178Z"
/>
<glyph unicode="&#xbf;" horiz-adv-x="650" d="M384 356V333Q384 290 371 261T337 213T294 177T250 143T217 102T204 43Q204 12 218 -10T257 -46T317 -59Q373 -59 410 -20T447 86H569Q569 12 537 -42T448 -127T317 -158Q244 -158 192 -133T111 -63T82 42Q82 90
95 122T130 175T176 213T222 246T258 283T273 333L274 356H384ZM402 552V412H259V552H402Z" />
<glyph unicode="&#xc0;" horiz-adv-x="650" d="M134 162V267H530V162H134ZM233 698H417L620 0H491L366 440L325 604L282 439L156 0H30L233 698ZM398 762H294L184 931H312L398 762Z" />
<glyph unicode="&#xc1;" horiz-adv-x="650" d="M134 162V267H530V162H134ZM233 698H417L620 0H491L366 440L325 604L282 439L156 0H30L233 698ZM245 761L332 930H459L350 761H245Z" />
<glyph unicode="&#xc2;" horiz-adv-x="650" d="M134 162V267H530V162H134ZM233 698H417L620 0H491L366 440L325 604L282 439L156 0H30L233 698ZM134 761L254 930H385L506 761H393L320 868L247 761H134Z" />
<glyph unicode="&#xc3;" horiz-adv-x="650" d="M134 162V267H530V162H134ZM233 698H417L620 0H491L366 440L325 604L282 439L156 0H30L233 698ZM211 768L122 782Q129 842 158 879T237 916Q262 916 282 909T320 893T353 876T382 869Q403 869 414 885T429 922L520
908Q511 849 481 812T402 774Q373 774 347 786T299 810T257 822Q237 822 226 806T211 768Z" />
<glyph unicode="&#xc4;" horiz-adv-x="650" d="M134 162V267H530V162H134ZM233 698H417L620 0H491L366 440L325 604L282 439L156 0H30L233 698ZM359 786V907H488V786H359ZM151 786V907H280V786H151Z" />
<glyph unicode="&#xc5;" horiz-adv-x="650" d="M134 162V267H530V162H134ZM233 698H417L620 0H491L366 440L325 604L282 439L156 0H30L233 698ZM319 739Q265 739 232 770T198 852Q198 903 232 934T319 966Q374 966 407 935T441 852Q441 802 408 771T319 739ZM319
800Q343 800 357 815T372 853Q372 876 358 890T319 904Q296 904 282 890T267 853Q267 830 281 815T319 800Z" />
<glyph unicode="&#xc6;" horiz-adv-x="650" d="M10 0L283 698H387L121 0H10ZM147 148V253H377V148H147ZM340 0V698H633V593H446V414H586V309H446V105H637V0H340Z" />
<glyph unicode="&#xc7;" horiz-adv-x="650" d="M335 -12Q242 -12 175 33T70 161T33 349Q33 459 71 540T178 665T340 710Q414 710 474 681T573 599T617 469H480Q473 531 436 568T339 605Q288 605 248 575T186 487T164 349Q164 268 186 211T247 124T335 93Q377 93
408 110T460 160T483 235H621Q614 160 578 105T480 19T335 -12ZM331 -221Q307 -221 282 -217T234 -204V-148Q252 -154 272 -157T311 -161Q336 -161 352 -154T369 -131Q369 -117 355 -110T321 -103Q310 -103 300 -104T280 -109L259 -77L320 25L382 4L344 -54Q351
-52 356 -52T365 -51Q390 -51 411 -59T445 -86T459 -131Q459 -161 442 -181T396 -211T331 -221Z" />
<glyph unicode="&#xc8;" horiz-adv-x="650" d="M80 0V698H586V593H205V414H462V309H205V105H590V0H80ZM418 763H314L204 932H332L418 763Z" />
<glyph unicode="&#xc9;" horiz-adv-x="650" d="M80 0V698H586V593H205V414H462V309H205V105H590V0H80ZM265 762L352 931H479L370 762H265Z" />
<glyph unicode="&#xca;" horiz-adv-x="650" d="M80 0V698H586V593H205V414H462V309H205V105H590V0H80ZM154 762L274 931H405L526 762H413L340 869L267 762H154Z" />
<glyph unicode="&#xcb;" horiz-adv-x="650" d="M80 0V698H586V593H205V414H462V309H205V105H590V0H80ZM379 787V908H508V787H379ZM171 787V908H300V787H171Z" />
<glyph unicode="&#xcc;" horiz-adv-x="650" d="M262 0V698H387V0H262ZM92 698H557V593H92V698ZM92 105H557V0H92V105ZM402 763H298L188 932H316L402 763Z" />
<glyph unicode="&#xcd;" horiz-adv-x="650" d="M262 0V698H387V0H262ZM92 698H557V593H92V698ZM92 105H557V0H92V105ZM250 762L337 931H464L355 762H250Z" />
<glyph unicode="&#xce;" horiz-adv-x="650" d="M262 0V698H387V0H262ZM92 698H557V593H92V698ZM92 105H557V0H92V105ZM139 762L259 931H390L511 762H398L325 869L252 762H139Z" />
<glyph unicode="&#xcf;" horiz-adv-x="650" d="M262 0V698H387V0H262ZM92 698H557V593H92V698ZM92 105H557V0H92V105ZM364 787V908H493V787H364ZM156 787V908H285V787H156Z" />
<glyph unicode="&#xd0;" horiz-adv-x="650" d="M2 303V399H377V303H2ZM64 0V698H285Q363 698 424 674T529 604T595 494T618 351Q618 271 595 207T529 96T425 25T285 0H64ZM189 105H285Q349 105 394 135T463 221T488 351Q488 425 464 479T394 563T285 593H189V105Z" />
<glyph unicode="&#xd1;" horiz-adv-x="650" d="M62 0V698H220L479 160L470 388V698H589V0H432L171 531L181 310V0H62ZM219 769L130 783Q137 843 166 880T245 917Q270 917 290 910T328 894T361 877T390 870Q411 870 422 886T437 923L528 909Q519 850 489 813T410
775Q381 775 355 787T307 811T265 823Q245 823 234 807T219 769Z" />
<glyph unicode="&#xd2;" horiz-adv-x="650" d="M326 -12Q236 -12 169 32T64 157T27 349Q27 460 64 541T168 666T326 710Q416 710 483 667T587 542T624 349Q624 238 587 157T483 32T326 -12ZM326 93Q375 93 413 124T472 212T494 349Q494 429 473 486T413 574T326
605Q277 605 239 574T179 486T158 349Q158 270 179 213T238 124T326 93ZM404 764H300L190 933H318L404 764Z" />
<glyph unicode="&#xd3;" horiz-adv-x="650" d="M326 -12Q236 -12 169 32T64 157T27 349Q27 460 64 541T168 666T326 710Q416 710 483 667T587 542T624 349Q624 238 587 157T483 32T326 -12ZM326 93Q375 93 413 124T472 212T494 349Q494 429 473 486T413 574T326
605Q277 605 239 574T179 486T158 349Q158 270 179 213T238 124T326 93ZM252 763L339 932H466L357 763H252Z" />
<glyph unicode="&#xd4;" horiz-adv-x="650" d="M326 -12Q236 -12 169 32T64 157T27 349Q27 460 64 541T168 666T326 710Q416 710 483 667T587 542T624 349Q624 238 587 157T483 32T326 -12ZM326 93Q375 93 413 124T472 212T494 349Q494 429 473 486T413 574T326
605Q277 605 239 574T179 486T158 349Q158 270 179 213T238 124T326 93ZM141 763L261 932H392L513 763H400L327 870L254 763H141Z" />
<glyph unicode="&#xd5;" horiz-adv-x="650" d="M326 -12Q236 -12 169 32T64 157T27 349Q27 460 64 541T168 666T326 710Q416 710 483 667T587 542T624 349Q624 238 587 157T483 32T326 -12ZM326 93Q375 93 413 124T472 212T494 349Q494 429 473 486T413 574T326
605Q277 605 239 574T179 486T158 349Q158 270 179 213T238 124T326 93ZM217 770L128 784Q135 844 164 881T243 918Q268 918 288 911T326 895T359 878T388 871Q409 871 420 887T435 924L526 910Q517 851 487 814T408 776Q379 776 353 788T305 812T263 824Q243 824
232 808T217 770Z" />
<glyph unicode="&#xd6;" horiz-adv-x="650" d="M326 -12Q236 -12 169 32T64 157T27 349Q27 460 64 541T168 666T326 710Q416 710 483 667T587 542T624 349Q624 238 587 157T483 32T326 -12ZM326 93Q375 93 413 124T472 212T494 349Q494 429 473 486T413 574T326
605Q277 605 239 574T179 486T158 349Q158 270 179 213T238 124T326 93ZM366 788V909H495V788H366ZM158 788V909H287V788H158Z" />
<glyph unicode="&#xd7;" horiz-adv-x="650" d="M170 76L97 149L480 534L553 460L170 76ZM480 76L97 460L170 534L553 149L480 76Z" />
<glyph unicode="&#xd8;" horiz-adv-x="650" d="M326 -12Q237 -12 169 32T62 158T24 349Q24 460 62 541T168 666T326 710Q415 710 483 666T589 541T627 349Q627 240 589 159T483 33T326 -12ZM326 93Q375 93 413 124T474 213T497 349Q497 428 475 485T414 574T326
605Q277 605 238 574T177 486T155 349Q155 271 177 214T238 125T326 93ZM191 -66L94 -22L462 764L560 721L191 -66Z" />
<glyph unicode="&#xd9;" horiz-adv-x="650" d="M325 -12Q240 -12 178 20T83 111T49 248V698H175V248Q175 201 193 167T246 113T325 94Q371 94 404 113T456 166T475 248V698H602V248Q602 170 568 112T472 21T325 -12ZM402 763H298L188 932H316L402 763Z" />
<glyph unicode="&#xda;" horiz-adv-x="650" d="M325 -12Q240 -12 178 20T83 111T49 248V698H175V248Q175 201 193 167T246 113T325 94Q371 94 404 113T456 166T475 248V698H602V248Q602 170 568 112T472 21T325 -12ZM249 762L336 931H463L354 762H249Z" />
<glyph unicode="&#xdb;" horiz-adv-x="650" d="M325 -12Q240 -12 178 20T83 111T49 248V698H175V248Q175 201 193 167T246 113T325 94Q371 94 404 113T456 166T475 248V698H602V248Q602 170 568 112T472 21T325 -12ZM138 762L258 931H389L510 762H397L324 869L251
762H138Z" />
<glyph unicode="&#xdc;" horiz-adv-x="650" d="M325 -12Q240 -12 178 20T83 111T49 248V698H175V248Q175 201 193 167T246 113T325 94Q371 94 404 113T456 166T475 248V698H602V248Q602 170 568 112T472 21T325 -12ZM363 787V908H492V787H363ZM155 787V908H284V787H155Z" />
<glyph unicode="&#xdd;" horiz-adv-x="650" d="M260 0V282L32 698H169L266 524L325 389L386 525L483 698H617L386 282V0H260ZM250 762L337 931H464L355 762H250Z" />
<glyph unicode="&#xde;" horiz-adv-x="650" d="M172 133V238H340Q406 238 444 272T482 361Q482 417 450 450T359 484H172V589H359Q437 589 493 561T581 482T612 361Q612 293 579 242T484 162T340 133H172ZM82 0V699H208V0H82Z" />
<glyph unicode="&#xdf;" horiz-adv-x="650" d="M353 -13Q330 -13 303 -9T250 2V101Q267 94 295 90T347 85Q390 85 424 99T478 141T498 208Q498 267 455 299T339 332H250V430H331Q367 430 392 443T431 481T445 535Q445 566 429 589T387 626T324 640Q260 640 221
598T182 489V0H64V489Q64 561 95 617T185 705T324 738Q399 738 452 711T534 640T563 542Q563 478 526 436T432 375L426 404Q485 402 528 376T594 305T618 204Q618 137 585 89T492 14T353 -13Z" />
<glyph unicode="&#xe0;" horiz-adv-x="650" d="M457 0L452 117V365Q452 417 417 447T320 477Q261 477 224 450T181 376H65Q70 435 103 477T193 541T324 564Q400 564 455 540T541 470T571 358V0H457ZM265 -12Q211 -12 170 8T105 65T82 151Q82 236 148 283T331 331H466V245L327
244Q267 244 233 222T199 157Q199 124 223 104T291 84Q346 84 389 113T460 195L473 111Q447 50 394 19T265 -12ZM399 617H295L185 786H313L399 617Z" />
<glyph unicode="&#xe1;" horiz-adv-x="650" d="M457 0L452 117V365Q452 417 417 447T320 477Q261 477 224 450T181 376H65Q70 435 103 477T193 541T324 564Q400 564 455 540T541 470T571 358V0H457ZM265 -12Q211 -12 170 8T105 65T82 151Q82 236 148 283T331 331H466V245L327
244Q267 244 233 222T199 157Q199 124 223 104T291 84Q346 84 389 113T460 195L473 111Q447 50 394 19T265 -12ZM246 616L333 785H460L351 616H246Z" />
<glyph unicode="&#xe2;" horiz-adv-x="650" d="M457 0L452 117V365Q452 417 417 447T320 477Q261 477 224 450T181 376H65Q70 435 103 477T193 541T324 564Q400 564 455 540T541 470T571 358V0H457ZM265 -12Q211 -12 170 8T105 65T82 151Q82 236 148 283T331 331H466V245L327
244Q267 244 233 222T199 157Q199 124 223 104T291 84Q346 84 389 113T460 195L473 111Q447 50 394 19T265 -12ZM391 616L511 785H642L763 616H650L577 723L504 616H391Z" />
<glyph unicode="&#xe3;" horiz-adv-x="650" d="M457 0L452 117V365Q452 417 417 447T320 477Q261 477 224 450T181 376H65Q70 435 103 477T193 541T324 564Q400 564 455 540T541 470T571 358V0H457ZM265 -12Q211 -12 170 8T105 65T82 151Q82 236 148 283T331 331H466V245L327
244Q267 244 233 222T199 157Q199 124 223 104T291 84Q346 84 389 113T460 195L473 111Q447 50 394 19T265 -12ZM468 623L379 637Q386 697 415 734T494 771Q519 771 539 764T577 748T610 731T639 724Q660 724 671 740T686 777L777 763Q768 704 738 667T659 629Q630
629 604 641T556 665T514 677Q494 677 483 661T468 623Z" />
<glyph unicode="&#xe4;" horiz-adv-x="650" d="M457 0L452 117V365Q452 417 417 447T320 477Q261 477 224 450T181 376H65Q70 435 103 477T193 541T324 564Q400 564 455 540T541 470T571 358V0H457ZM265 -12Q211 -12 170 8T105 65T82 151Q82 236 148 283T331 331H466V245L327
244Q267 244 233 222T199 157Q199 124 223 104T291 84Q346 84 389 113T460 195L473 111Q447 50 394 19T265 -12ZM616 641V762H745V641H616ZM408 641V762H537V641H408Z" />
<glyph unicode="&#xe5;" horiz-adv-x="650" d="M457 0L452 117V365Q452 417 417 447T320 477Q261 477 224 450T181 376H65Q70 435 103 477T193 541T324 564Q400 564 455 540T541 470T571 358V0H457ZM265 -12Q211 -12 170 8T105 65T82 151Q82 236 148 283T331 331H466V245L327
244Q267 244 233 222T199 157Q199 124 223 104T291 84Q346 84 389 113T460 195L473 111Q447 50 394 19T265 -12ZM576 594Q522 594 489 625T455 707Q455 758 489 789T576 821Q631 821 664 790T698 707Q698 657 665 626T576 594ZM576 655Q600 655 614 670T629 708Q629
731 615 745T576 759Q553 759 539 745T524 708Q524 685 538 670T576 655Z" />
<glyph unicode="&#xe6;" horiz-adv-x="650" d="M247 118V383Q247 427 231 446T187 465Q170 465 156 455T132 424T121 375H3Q7 434 31 476T95 541T188 564Q267 564 313 513T360 363V118H247ZM162 -12Q97 -12 54 27T11 146Q11 200 37 240T109 303T209 326H258L257
242H215Q178 242 151 219T124 154Q124 122 139 104T180 85Q212 85 231 118T255 216L318 144Q309 69 267 29T162 -12ZM447 -12Q351 -12 299 64T247 276Q247 411 303 487T455 564Q555 564 598 488T633 277H346L347 361L520 360Q518 414 501 443T450 472Q408 472 384
420T359 272Q359 216 369 174T399 109T446 85Q480 85 502 112T529 186H632Q626 94 577 41T447 -12Z" />
<glyph unicode="&#xe7;" horiz-adv-x="650" d="M338 -12Q252 -12 189 23T93 123T59 276Q59 366 94 430T192 529T341 564Q411 564 466 539T555 467T593 357H474Q466 410 431 437T341 465Q292 465 256 443T199 378T179 276Q179 186 223 136T338 85Q372 85 400 98T449
136T477 192H597Q588 130 553 84T462 13T338 -12ZM330 -221Q306 -221 281 -217T233 -204V-148Q251 -154 271 -157T310 -161Q335 -161 351 -154T368 -131Q368 -117 354 -110T320 -103Q309 -103 299 -104T279 -109L258 -77L319 25L381 4L343 -54Q350 -52 355 -52T364
-51Q389 -51 410 -59T444 -86T458 -131Q458 -161 441 -181T395 -211T330 -221Z" />
<glyph unicode="&#xe8;" horiz-adv-x="650" d="M331 -12Q244 -12 181 22T85 122T51 277Q51 367 85 431T183 530T336 564Q474 564 539 487T596 276H146L147 363L474 362Q470 410 432 439T336 468Q254 468 212 417T170 272Q170 218 189 176T243 110T331 86Q390 86
429 114T478 189H598Q586 96 515 42T331 -12ZM419 617H315L205 786H333L419 617Z" />
<glyph unicode="&#xe9;" horiz-adv-x="650" d="M331 -12Q244 -12 181 22T85 122T51 277Q51 367 85 431T183 530T336 564Q474 564 539 487T596 276H146L147 363L474 362Q470 410 432 439T336 468Q254 468 212 417T170 272Q170 218 189 176T243 110T331 86Q390 86
429 114T478 189H598Q586 96 515 42T331 -12ZM266 616L353 785H480L371 616H266Z" />
<glyph unicode="&#xea;" horiz-adv-x="650" d="M331 -12Q244 -12 181 22T85 122T51 277Q51 367 85 431T183 530T336 564Q474 564 539 487T596 276H146L147 363L474 362Q470 410 432 439T336 468Q254 468 212 417T170 272Q170 218 189 176T243 110T331 86Q390 86
429 114T478 189H598Q586 96 515 42T331 -12ZM155 616L275 785H406L527 616H414L341 723L268 616H155Z" />
<glyph unicode="&#xeb;" horiz-adv-x="650" d="M331 -12Q244 -12 181 22T85 122T51 277Q51 367 85 431T183 530T336 564Q474 564 539 487T596 276H146L147 363L474 362Q470 410 432 439T336 468Q254 468 212 417T170 272Q170 218 189 176T243 110T331 86Q390 86
429 114T478 189H598Q586 96 515 42T331 -12ZM380 641V762H509V641H380ZM172 641V762H301V641H172Z" />
<glyph unicode="&#xec;" horiz-adv-x="650" d="M269 0V552H388V0H269ZM74 0V97H575V0H74ZM145 455V552H328V455H145ZM405 617H301L191 786H319L405 617Z" />
<glyph unicode="&#xed;" horiz-adv-x="650" d="M269 0V552H388V0H269ZM74 0V97H575V0H74ZM145 455V552H328V455H145ZM252 616L339 785H466L357 616H252Z" />
<glyph unicode="&#xee;" horiz-adv-x="650" d="M269 0V552H388V0H269ZM74 0V97H575V0H74ZM145 455V552H328V455H145ZM141 616L261 785H392L513 616H400L327 723L254 616H141Z" />
<glyph unicode="&#xef;" horiz-adv-x="650" d="M269 0V552H388V0H269ZM74 0V97H575V0H74ZM145 455V552H328V455H145ZM366 641V762H495V641H366ZM158 641V762H287V641H158Z" />
<glyph unicode="&#xf0;" horiz-adv-x="650" d="M181 737H346Q399 704 444 661T524 566T577 454T596 326Q596 229 564 153T470 32T322 -12Q244 -12 184 18T88 107T53 248Q53 322 84 375T168 457T288 486Q341 486 383 474T458 434T514 359L503 226Q490 286 464 323T401
376T317 393Q276 393 244 375T194 322T175 238Q175 187 193 153T244 102T317 85Q369 85 404 117T458 204T477 326Q477 390 455 447T391 556T297 653T181 737ZM235 525L210 600L533 708L558 634L235 525Z" />
<glyph unicode="&#xf1;" horiz-adv-x="650" d="M460 0V345Q460 399 431 431T354 463Q300 463 257 425T182 301L164 420Q197 493 254 528T376 564Q439 564 484 538T554 464T579 352V0H460ZM75 0V552H189L194 436V0H75ZM233 623L144 637Q151 697 180 734T259 771Q284
771 304 764T342 748T375 731T404 724Q425 724 436 740T451 777L542 763Q533 704 503 667T424 629Q395 629 369 641T321 665T279 677Q259 677 248 661T233 623Z" />
<glyph unicode="&#xf2;" horiz-adv-x="650" d="M325 -12Q238 -12 176 23T80 122T46 276Q46 366 79 430T175 529T325 564Q455 564 529 488T603 276Q603 187 570 123T474 23T325 -12ZM325 86Q398 86 440 137T483 276Q483 365 441 415T325 466Q250 466 208 416T166
276Q166 188 208 137T325 86ZM402 617H298L188 786H316L402 617Z" />
<glyph unicode="&#xf3;" horiz-adv-x="650" d="M325 -12Q238 -12 176 23T80 122T46 276Q46 366 79 430T175 529T325 564Q455 564 529 488T603 276Q603 187 570 123T474 23T325 -12ZM325 86Q398 86 440 137T483 276Q483 365 441 415T325 466Q250 466 208 416T166
276Q166 188 208 137T325 86ZM250 616L337 785H464L355 616H250Z" />
<glyph unicode="&#xf4;" horiz-adv-x="650" d="M325 -12Q238 -12 176 23T80 122T46 276Q46 366 79 430T175 529T325 564Q455 564 529 488T603 276Q603 187 570 123T474 23T325 -12ZM325 86Q398 86 440 137T483 276Q483 365 441 415T325 466Q250 466 208 416T166
276Q166 188 208 137T325 86ZM139 616L259 785H390L511 616H398L325 723L252 616H139Z" />
<glyph unicode="&#xf5;" horiz-adv-x="650" d="M325 -12Q238 -12 176 23T80 122T46 276Q46 366 79 430T175 529T325 564Q455 564 529 488T603 276Q603 187 570 123T474 23T325 -12ZM325 86Q398 86 440 137T483 276Q483 365 441 415T325 466Q250 466 208 416T166
276Q166 188 208 137T325 86ZM215 623L126 637Q133 697 162 734T241 771Q266 771 286 764T324 748T357 731T386 724Q407 724 418 740T433 777L524 763Q515 704 485 667T406 629Q377 629 351 641T303 665T261 677Q241 677 230 661T215 623Z" />
<glyph unicode="&#xf6;" horiz-adv-x="650" d="M325 -12Q238 -12 176 23T80 122T46 276Q46 366 79 430T175 529T325 564Q455 564 529 488T603 276Q603 187 570 123T474 23T325 -12ZM325 86Q398 86 440 137T483 276Q483 365 441 415T325 466Q250 466 208 416T166
276Q166 188 208 137T325 86ZM364 641V762H493V641H364ZM156 641V762H285V641H156Z" />
<glyph unicode="&#xf7;" horiz-adv-x="650" d="M67 256V360H582V256H67ZM254 57V197H396V57H254ZM254 425V565H396V425H254Z" />
<glyph unicode="&#xf8;" horiz-adv-x="650" d="M183 -76L95 -31L467 629L555 585L183 -76ZM325 -12Q238 -12 176 23T80 122T46 276Q46 366 79 430T175 530T325 565Q411 565 473 530T569 431T603 276Q603 187 570 123T474 23T325 -12ZM325 86Q398 86 440 137T483
276Q483 365 441 416T325 467Q250 467 208 416T166 276Q166 188 208 137T325 86Z" />
<glyph unicode="&#xf9;" horiz-adv-x="650" d="M183 552V207Q183 153 212 121T289 89Q343 89 386 127T461 251L479 132Q446 59 389 24T267 -12Q204 -12 159 14T89 88T64 200V552H183ZM568 552V0H454L449 116V552H568ZM400 616H296L186 785H314L400 616Z" />
<glyph unicode="&#xfa;" horiz-adv-x="650" d="M183 552V207Q183 153 212 121T289 89Q343 89 386 127T461 251L479 132Q446 59 389 24T267 -12Q204 -12 159 14T89 88T64 200V552H183ZM568 552V0H454L449 116V552H568ZM248 871L335 1040H462L353 871H248Z" />
<glyph unicode="&#xfb;" horiz-adv-x="650" d="M183 552V207Q183 153 212 121T289 89Q343 89 386 127T461 251L479 132Q446 59 389 24T267 -12Q204 -12 159 14T89 88T64 200V552H183ZM568 552V0H454L449 116V552H568ZM393 871L513 1040H644L765 871H652L579 978L506
871H393Z" />
<glyph unicode="&#xfc;" horiz-adv-x="650" d="M183 552V207Q183 153 212 121T289 89Q343 89 386 127T461 251L479 132Q446 59 389 24T267 -12Q204 -12 159 14T89 88T64 200V552H183ZM568 552V0H454L449 116V552H568ZM618 896V1017H747V896H618ZM410 896V1017H539V896H410Z"
/>
<glyph unicode="&#xfd;" horiz-adv-x="650" d="M274 306L325 167L377 307L481 552H603L351 -43Q328 -99 300 -131T235 -176T152 -190H53V-93H142Q169 -93 187 -82T221 -48T250 8L264 40L47 552H171L274 306ZM251 616L338 785H465L356 616H251Z" />
<glyph unicode="&#xfe;" horiz-adv-x="650" d="M362 565Q436 565 491 528T579 425T611 276Q611 194 579 129T492 26T362 -12Q308 -12 263 10T189 67V-178H71V738H189V486Q219 522 264 543T362 565ZM334 87Q381 87 416 112T471 179T491 276Q491 331 471 373T416
441T334 466Q285 466 246 437T189 358V195Q207 146 246 117T334 87Z" />
<glyph unicode="&#xff;" horiz-adv-x="650" d="M274 306L325 167L377 307L481 552H603L351 -43Q328 -99 300 -131T235 -176T152 -190H53V-93H142Q169 -93 187 -82T221 -48T250 8L264 40L47 552H171L274 306ZM365 641V762H494V641H365ZM157 641V762H286V641H157Z" />
<glyph unicode="&#x2013;" horiz-adv-x="650" d="M53 257V361H597V257H53Z" />
<glyph unicode="&#x2014;" horiz-adv-x="1300" d="M135 256V360H1165V256H135Z" />
<glyph unicode="&#x2018;" horiz-adv-x="650" d="M387 599V459H243V599L309 755H417L381 689L309 599H387Z" />
<glyph unicode="&#x2019;" horiz-adv-x="650" d="M267 615V755H411V615L345 459H237L273 525L345 615H267Z" />
<glyph unicode="&#x201a;" horiz-adv-x="650" d="M257 0V140H401V0L335 -156H227L263 -90L335 0H257Z" />
<glyph unicode="&#x201c;" horiz-adv-x="650" d="M290 599V459H146V599L212 755H320L284 689L212 599H290ZM484 599V459H340V599L406 755H514L478 689L406 599H484Z" />
<glyph unicode="&#x201d;" horiz-adv-x="650" d="M360 616V756H504V616L438 460H330L366 526L438 616H360ZM166 616V756H310V616L244 460H136L172 526L244 616H166Z" />
<glyph unicode="&#x201e;" horiz-adv-x="650" d="M360 0V140H504V0L438 -156H330L366 -90L438 0H360ZM422 0V140H566V0L500 -156H392L428 -90L500 0H422Z" />
<glyph unicode="&#x2022;" horiz-adv-x="650" d="M211 191V408H439V191H211Z" />
<glyph unicode="&#x2039;" horiz-adv-x="650" d="M330 63L190 273L330 483H455L313 273L455 63H330Z" />
<glyph unicode="&#x203a;" horiz-adv-x="650" d="M320 63H195L337 273L195 483H320L460 273L320 63Z" />
</font>
</defs>
</svg>
