<?xml version="1.0" standalone="no"?>
<!DOCTYPE svg PUBLIC "-//W3C//DTD SVG 1.1//EN" "http://www.w3.org/Graphics/SVG/1.1/DTD/svg11.dtd">
<svg xmlns="http://www.w3.org/2000/svg">
<defs >
<font id="AzeretMono" horiz-adv-x="685" ><font-face
    font-family="Azeret Mono Thin ExtraLight"
    units-per-em="1000"
    panose-1="0 0 0 0 0 0 0 0 0 0"
    ascent="937"
    descent="-230"
    alphabetic="0" />
<glyph unicode=" " horiz-adv-x="650" />
<glyph unicode="!" horiz-adv-x="650" d="M301 176L287 577V698H364V577L350 176H301ZM282 0V91H368V0H282Z" />
<glyph unicode="&quot;" horiz-adv-x="650" d="M377 518L367 741H440L429 518H377ZM477 518L467 741H540L529 518H477Z" />
<glyph unicode="#" horiz-adv-x="650" d="M319 0L510 698H570L379 0H319ZM8 213L24 271H580L564 213H8ZM77 0L268 698H328L137 0H77ZM69 438L86 496H642L626 438H69Z" />
<glyph unicode="$" horiz-adv-x="650" d="M291 680V797H356V680H291ZM291 -105V20H356V-105H291ZM338 -12Q261 -12 202 17T110 104T77 246H144Q144 151 197 100T337 48Q413 48 460 84T508 184Q508 227 485 253T425 295T343 323T254 348T172 382T111 435T88 520Q88
577 117 619T198 686T322 710Q394 710 449 684T535 612T568 503H501Q501 547 478 580T414 631T322 650Q249 650 205 615T160 522Q160 483 183 460T243 423T325 397T414 372T496 336T557 278T580 186Q580 123 548 79T461 12T338 -12Z" />
<glyph unicode="%" horiz-adv-x="650" d="M73 0L515 698H577L136 0H73ZM475 -12Q431 -12 398 7T347 62T328 145Q328 192 346 226T398 280T475 300Q520 300 553 281T604 227T623 145Q623 98 605 63T553 8T475 -12ZM475 35Q517 35 542 65T568 145Q568 193 543 223T475
253Q434 253 409 223T383 145Q383 96 408 66T475 35ZM174 399Q130 399 97 418T46 473T27 556Q27 603 45 637T97 691T174 711Q219 711 252 692T303 638T322 556Q322 509 304 474T252 419T174 399ZM174 446Q216 446 241 476T267 556Q267 604 242 634T174 664Q133
664 108 634T82 556Q82 507 107 477T174 446Z" />
<glyph unicode="&amp;" horiz-adv-x="650" d="M255 -12Q188 -12 141 13T68 81T43 180Q43 222 58 258T107 326T202 387Q164 431 143 468T121 552Q121 601 144 636T205 691T292 710Q343 710 379 691T436 638T457 560Q457 527 443 495T394 433T298 373L466 180Q487
213 503 251T532 328H597Q580 274 558 224T508 131L621 0H537L465 83Q426 39 372 14T255 -12ZM258 48Q310 48 352 70T426 128L238 345Q203 326 173 304T125 253T107 182Q107 126 147 87T258 48ZM261 416Q334 451 364 484T394 558Q394 600 367 625T291 651Q247 651
216 624T185 553Q185 512 208 480T261 416Z" />
<glyph unicode="&apos;" horiz-adv-x="650" d="M298 516L288 739H361L350 516H298Z" />
<glyph unicode="(" horiz-adv-x="650" d="M363 -96Q306 8 279 105T252 301Q252 402 279 498T363 698H430Q371 597 344 500T317 301Q317 199 344 102T430 -96H363Z" />
<glyph unicode=")" horiz-adv-x="650" d="M287 -96H220Q280 5 307 102T334 301Q334 403 307 500T220 698H287Q345 594 371 498T398 301Q398 202 372 105T287 -96Z" />
<glyph unicode="*" horiz-adv-x="650" d="M238 382L193 415L282 525L144 565L161 617L296 572V710H352V572L490 617L507 565L367 525L461 414L415 381L324 493L238 382Z" />
<glyph unicode="+" horiz-adv-x="650" d="M75 281V338H575V281H75ZM296 57V557H354V57H296Z" />
<glyph unicode="," horiz-adv-x="650" d="M281 0V90H367V0L314 -168H259L277 -127L334 0H281Z" />
<glyph unicode="-" horiz-adv-x="650" d="M182 282V339H468V282H182Z" />
<glyph unicode="." horiz-adv-x="650" d="M282 0V91H368V0H282Z" />
<glyph unicode="/" horiz-adv-x="650" d="M98 -96L484 698H552L166 -96H98Z" />
<glyph unicode="0" horiz-adv-x="650" d="M325 -12Q241 -12 183 32T95 158T65 349Q65 460 95 541T183 666T325 710Q409 710 466 666T554 542T585 349Q585 238 555 157T467 32T325 -12ZM325 48Q419 48 466 129T514 349Q514 490 467 570T325 650Q232 650 184 570T136
349Q136 210 184 129T325 48Z" />
<glyph unicode="1" horiz-adv-x="650" d="M345 0V476L347 615L237 526L107 421V505L363 698H412V0H345ZM107 0V60H561V0H107Z" />
<glyph unicode="2" horiz-adv-x="650" d="M87 0V51Q231 162 318 244T446 391T486 508Q486 571 447 610T335 650Q261 650 214 607T159 484H90Q97 557 129 607T215 684T335 710Q406 710 455 685T530 616T556 513Q556 448 519 381T400 236T183 60H558V0H87Z" />
<glyph unicode="3" horiz-adv-x="650" d="M333 -12Q269 -12 214 14T126 90T90 214H158Q161 164 184 127T246 69T333 49Q410 49 456 89T503 192Q503 240 476 272T405 321T307 337H269V394H310Q360 394 395 413T450 463T469 529Q469 582 431 616T332 650Q261 650
215 609T164 487H95Q101 564 135 613T221 686T333 710Q393 710 439 688T513 627T540 534Q540 496 523 462T475 403T405 370Q453 364 490 341T550 280T573 192Q573 133 544 87T460 14T333 -12Z" />
<glyph unicode="4" horiz-adv-x="650" d="M411 0V176H49V227L387 698H479V236H602V176H479V0H411ZM126 236H411V497L412 636L331 522L126 236Z" />
<glyph unicode="5" horiz-adv-x="650" d="M325 -12Q258 -12 208 12T129 81T97 183H165Q172 124 212 86T325 48Q377 48 416 72T476 139T497 239Q497 313 452 358T331 404Q284 404 241 380T168 315H105L162 698H537V638H216L176 382Q207 419 253 442T345 465Q411
465 461 437T540 358T568 239Q568 164 538 107T453 19T325 -12Z" />
<glyph unicode="6" horiz-adv-x="650" d="M348 459Q413 459 464 431T546 352T576 231Q576 159 546 104T460 19T332 -12Q257 -12 200 28T111 143T79 322Q79 435 113 522T209 660T355 710Q399 710 434 697T494 661T536 607T557 539H487Q478 592 443 621T352 650Q290
650 246 612T178 504T150 342Q179 398 231 428T348 459ZM333 48Q385 48 423 70T483 133T505 226Q505 277 484 316T426 378T340 400Q267 400 219 359T153 255Q165 161 213 105T333 48Z" />
<glyph unicode="7" horiz-adv-x="650" d="M225 0Q239 100 263 191T321 363T401 514T504 639H86V698H585V649Q515 575 467 501T386 348T332 185T296 0H225ZM86 698H151V493H86V698Z" />
<glyph unicode="8" horiz-adv-x="650" d="M325 -12Q254 -12 200 14T116 85T85 190Q85 232 105 267T160 328T240 364H409Q454 355 489 330T544 269T565 191Q565 131 535 85T450 14T325 -12ZM325 48Q373 48 411 66T471 116T493 192Q493 231 471 261T411 310T325
333Q278 328 240 310T180 262T157 191Q157 148 178 116T238 66T325 48ZM325 386Q369 390 405 407T462 452T483 519Q483 579 439 615T325 651Q256 651 212 615T167 519Q167 481 188 453T245 407T325 386ZM246 356Q204 365 171 389T119 447T100 520Q100 576 128 619T208
686T325 710Q392 710 442 686T521 619T550 520Q550 480 531 447T479 389T404 356H246Z" />
<glyph unicode="9" horiz-adv-x="650" d="M302 239Q237 239 186 267T104 346T74 467Q74 539 104 594T190 679T318 710Q393 710 450 670T539 555T571 376Q571 263 537 176T441 38T295 -12Q251 -12 216 1T156 37T114 91T93 159H163Q172 106 207 77T298 48Q360 48
404 86T472 194T500 356Q471 300 419 270T302 239ZM317 650Q265 650 227 628T167 565T145 472Q145 421 166 382T224 320T310 298Q383 298 431 339T497 443Q485 537 437 593T317 650Z" />
<glyph unicode=":" horiz-adv-x="650" d="M282 390V481H368V390H282ZM282 0V91H368V0H282Z" />
<glyph unicode=";" horiz-adv-x="650" d="M279 0V98H369V0L314 -180H253L324 0H279ZM281 389V480H367V389H281Z" />
<glyph unicode="&lt;" horiz-adv-x="650" d="M586 79L70 282V337L586 539V477L146 310L586 141V79Z" />
<glyph unicode="=" horiz-adv-x="650" d="M67 379V436H583V379H67ZM67 181V239H583V181H67Z" />
<glyph unicode="&gt;" horiz-adv-x="650" d="M63 79V141L503 310L63 477V539L579 337V282L63 79Z" />
<glyph unicode="?" horiz-adv-x="650" d="M294 165V199Q294 244 307 274T341 326T385 366T429 404T463 451T477 520Q477 559 459 588T409 634T335 652Q264 652 219 606T172 483H104Q107 552 137 603T218 682T336 710Q399 710 445 686T518 619T545 521Q545 473
532 440T497 384T451 342T405 304T370 260T355 199V165H294ZM280 0V91H367V0H280Z" />
<glyph unicode="@" horiz-adv-x="650" d="M348 -160Q250 -160 177 -107T64 44T24 271Q24 402 63 499T172 649T336 703Q425 703 489 657T590 525T626 325Q626 265 617 218T590 137T549 87T495 70H407L403 150Q389 106 365 83T305 60Q267 60 238 87T191 162T173
276Q173 342 190 391T237 466T305 493Q341 493 365 470T403 404L407 483H460V120H496Q532 120 549 176T567 325Q567 424 539 497T459 610T336 650Q260 650 203 604T115 472T83 271Q83 156 116 71T209 -60T350 -107H510L473 -160H348ZM316 118Q350 118 372 147T403
233V320Q394 376 372 405T316 435Q276 435 254 391T232 276Q232 207 254 163T316 118Z" />
<glyph unicode="A" horiz-adv-x="650" d="M141 203V263H513V203H141ZM280 698H370L612 0H542L367 506L326 636L284 504L108 0H38L280 698Z" />
<glyph unicode="B" horiz-adv-x="650" d="M442 366Q480 358 511 336T563 278T584 191Q584 134 556 91T477 24T354 0H97V698H343Q447 698 506 652T566 528Q566 491 552 457T510 399T442 366ZM342 638H163V391H342Q413 391 453 425T494 518Q494 576 453 607T342
638ZM163 60H353Q427 60 469 96T512 195Q512 260 466 295T338 331H163V60Z" />
<glyph unicode="C" horiz-adv-x="650" d="M340 -12Q249 -12 182 35T80 165T44 350Q44 460 82 541T187 666T342 710Q415 710 471 682T564 601T607 478H533Q524 556 472 603T341 650Q273 650 222 613T143 507T115 349Q115 257 144 190T225 85T340 48Q396 48 438
71T506 135T536 230H611Q604 158 569 103T476 18T340 -12Z" />
<glyph unicode="D" horiz-adv-x="650" d="M78 0V698H280Q355 698 415 674T517 604T582 494T605 351Q605 271 582 207T517 96T415 25T280 0H78ZM145 60H280Q357 60 414 96T502 198T534 351Q534 439 503 503T414 603T280 638H145V60Z" />
<glyph unicode="E" horiz-adv-x="650" d="M90 0V698H580V638H156V392H458V332H156V60H584V0H90Z" />
<glyph unicode="F" horiz-adv-x="650" d="M86 0V698H578V638H152V392H456V332H152V0H86Z" />
<glyph unicode="G" horiz-adv-x="650" d="M347 -12Q255 -12 185 32T77 158T38 349Q38 456 77 537T186 664T345 710Q416 710 471 682T559 603T600 479H525Q515 559 467 604T343 650Q279 650 226 613T142 509T111 349Q111 251 143 184T229 83T350 48Q410 48 458
72T533 129V307L392 304L395 364H600V108Q561 51 494 20T347 -12Z" />
<glyph unicode="H" horiz-adv-x="650" d="M503 0V698H570V0H503ZM81 0V698H147V0H81ZM134 332V392H516V332H134Z" />
<glyph unicode="I" horiz-adv-x="650" d="M291 0V698H358V0H291ZM107 698H542V638H107V698ZM107 60H542V0H107V60Z" />
<glyph unicode="J" horiz-adv-x="650" d="M108 0V60H361Q413 60 441 91T469 174V698H535V176Q535 135 524 103T490 47T435 12T359 0H108ZM182 698H532V638H182V698Z" />
<glyph unicode="K" horiz-adv-x="650" d="M100 0V698H166V495L164 359L263 462L498 698H587L166 271V0H100ZM531 0L236 400L291 439L615 0H531Z" />
<glyph unicode="L" horiz-adv-x="650" d="M128 0V698H195V60H579V0H128Z" />
<glyph unicode="M" horiz-adv-x="650" d="M33 0L88 698H180L303 204L325 98L348 204L473 698H563L619 0H553L516 498L510 625L481 498L356 0H290L168 498L142 628L134 498L98 0H33Z" />
<glyph unicode="N" horiz-adv-x="650" d="M78 0V698H158L513 94L507 284V698H573V0H494L138 600L144 415V0H78Z" />
<glyph unicode="O" horiz-adv-x="650" d="M326 -12Q239 -12 175 33T76 159T41 349Q41 458 76 539T175 665T326 710Q413 710 477 666T576 540T611 349Q611 240 576 159T477 33T326 -12ZM326 48Q391 48 439 85T513 191T540 349Q540 440 514 507T439 612T326 650Q261
650 213 613T139 507T112 349Q112 259 138 191T213 86T326 48Z" />
<glyph unicode="P" horiz-adv-x="650" d="M143 279V339H340Q420 339 469 380T518 490Q518 557 474 597T356 638H143V698H356Q427 698 479 673T561 601T590 490Q590 427 559 380T472 306T341 279H143ZM95 0V698H162V0H95Z" />
<glyph unicode="Q" horiz-adv-x="650" d="M325 -12Q239 -12 173 35T70 163T33 349Q33 455 71 536T175 664T326 710Q411 710 476 664T580 537T618 349Q618 272 597 208T539 98T452 29L536 40L641 47L611 -12H325ZM326 48Q389 48 438 86T517 193T546 349Q546 438
517 506T439 612T326 650Q263 650 213 612T134 507T105 349Q105 261 134 193T213 87T326 48Z" />
<glyph unicode="R" horiz-adv-x="650" d="M147 313V372H337Q391 372 432 389T497 437T521 511Q521 551 500 579T444 622T367 638H147V698H367Q431 698 482 676T562 612T592 511Q592 472 575 437T524 373T444 329T336 313H147ZM100 0V698H166V0H100ZM515 0Q505
49 484 95T427 183T342 263T223 335L297 353Q369 318 419 278T503 193T555 100T581 0H515Z" />
<glyph unicode="S" horiz-adv-x="650" d="M338 -12Q261 -12 202 17T110 104T77 246H144Q144 151 197 100T337 48Q413 48 460 84T508 184Q508 227 485 253T425 295T343 323T254 348T172 382T111 435T88 520Q88 577 117 619T198 686T322 710Q394 710 449 684T535
612T568 503H501Q501 547 478 580T414 631T322 650Q249 650 205 615T160 522Q160 483 183 460T243 423T325 397T414 372T496 336T557 278T580 186Q580 123 548 79T461 12T338 -12Z" />
<glyph unicode="T" horiz-adv-x="650" d="M291 0V638H52V698H597V638H358V0H291Z" />
<glyph unicode="U" horiz-adv-x="650" d="M326 -12Q250 -12 191 20T99 111T65 246V698H133V246Q133 187 157 143T224 73T326 48Q384 48 427 73T494 142T518 246V698H586V246Q586 169 553 111T461 21T326 -12Z" />
<glyph unicode="V" horiz-adv-x="650" d="M280 0L34 698H105L285 195L326 64L367 193L547 698H616L370 0H280Z" />
<glyph unicode="W" horiz-adv-x="650" d="M116 0L18 698H84L153 204L168 67L193 204L294 698H363L463 204L487 66L500 204L568 698H633L535 0H443L349 470L329 597L307 470L210 0H116Z" />
<glyph unicode="X" horiz-adv-x="650" d="M51 0L277 356L60 698H137L249 522L324 404L400 523L512 698H587L370 360L598 0H522L399 193L324 312L250 192L125 0H51Z" />
<glyph unicode="Y" horiz-adv-x="650" d="M290 0V283L52 698H127L258 471L324 345L392 472L523 698H598L357 283V0H290Z" />
<glyph unicode="Z" horiz-adv-x="650" d="M60 0V51L416 528L501 638H360H75V698H587V648L231 170L147 60H287H587V0H60Z" />
<glyph unicode="[" horiz-adv-x="650" d="M249 -96V698H313V-96H249ZM267 -96V-42H462V-96H267ZM267 644V698H462V644H267Z" />
<glyph unicode="\" horiz-adv-x="650" d="M552 -96H484L99 698H166L552 -96Z" />
<glyph unicode="]" horiz-adv-x="650" d="M401 -96H337V698H401V-96ZM383 -96H188V-42H383V-96ZM383 644H188V698H383V644Z" />
<glyph unicode="^" horiz-adv-x="650" d="M135 375L299 698H350L514 375H449L324 626L200 375H135Z" />
<glyph unicode="_" horiz-adv-x="650" d="M99 -57V0H552V-57H99Z" />
<glyph unicode="`" horiz-adv-x="650" d="M412 615H354L251 780H326L412 615Z" />
<glyph unicode="a" horiz-adv-x="650" d="M493 0L489 142V351Q489 422 444 463T322 505Q247 505 199 469T147 371H83Q87 430 119 471T203 535T322 558Q393 558 445 533T525 461T553 349V0H493ZM280 -12Q227 -12 186 6T123 59T100 144Q100 229 165 276T348 323H501V270H344Q259
270 212 237T165 146Q165 96 198 70T287 44Q356 44 409 82T495 189L502 136Q475 67 420 28T280 -12Z" />
<glyph unicode="b" horiz-adv-x="650" d="M349 558Q423 558 479 523T566 423T598 273Q598 188 567 124T479 24T349 -12Q286 -12 235 16T155 90L152 0H93V732H157V460Q187 506 237 532T349 558ZM339 44Q398 44 441 73T509 153T533 273Q533 342 509 393T442 473T339
502Q279 502 230 470T157 378V169Q181 111 230 78T339 44Z" />
<glyph unicode="c" horiz-adv-x="650" d="M346 -12Q263 -12 201 23T105 123T71 273Q71 359 105 423T202 523T346 558Q407 558 457 535T541 470T580 368H516Q507 431 460 466T346 502Q282 502 235 474T162 395T136 273Q136 167 192 106T346 44Q385 44 421 60T483
107T519 178H584Q572 119 537 77T452 11T346 -12Z" />
<glyph unicode="d" horiz-adv-x="650" d="M302 558Q364 558 414 532T495 460V732H559V0H500L497 90Q468 44 417 16T302 -12Q228 -12 172 23T85 123T53 273Q53 359 84 423T172 522T302 558ZM312 44Q373 44 422 77T495 169V378Q471 437 422 469T312 502Q253 502
210 474T143 394T118 273Q118 205 142 154T210 73T312 44Z" />
<glyph unicode="e" horiz-adv-x="650" d="M330 -12Q248 -12 188 22T96 121T64 274Q64 361 96 425T188 523T332 558Q454 558 518 491T577 306H115L116 360L511 359Q507 426 459 464T332 502Q236 502 183 441T129 273Q129 204 153 152T222 72T330 44Q407 44 458
80T521 179H585Q570 90 502 39T330 -12Z" />
<glyph unicode="f" horiz-adv-x="650" d="M272 0V613Q272 658 286 692T333 745T419 764H578V712H429Q402 712 381 704T348 675T336 618V0H272ZM129 493V546H534V493H129ZM86 0V53H568V0H86Z" />
<glyph unicode="g" horiz-adv-x="650" d="M498 453L501 546H560V51Q560 -67 497 -128T312 -190Q244 -190 193 -170T113 -111T76 -12H142Q147 -69 189 -101T314 -134Q403 -134 449 -89T496 41V141Q468 92 417 64T301 36Q229 36 175 69T89 161T58 297Q58 377 89
435T175 526T303 558Q368 558 419 529T498 453ZM311 88Q374 88 424 123T496 219V375Q475 437 425 471T311 506Q254 506 212 480T146 408T122 298Q122 235 145 188T211 115T311 88Z" />
<glyph unicode="h" horiz-adv-x="650" d="M499 0V348Q499 417 459 459T353 501Q280 501 224 446T146 278L133 377Q160 464 221 511T360 558Q422 558 467 532T538 459T563 349V0H499ZM92 0V733H157V0H92Z" />
<glyph unicode="i" horiz-adv-x="650" d="M301 0V546H366V0H301ZM84 0V53H560V0H84ZM158 493V546H333V493H158ZM293 653V738H371V653H293Z" />
<glyph unicode="j" horiz-adv-x="650" d="M471 546V-26Q471 -73 456 -107T409 -159T325 -178H105V-125H316Q358 -125 382 -105T406 -31V546H471ZM263 493V546H438V493H263ZM399 653V738H477V653H399Z" />
<glyph unicode="k" horiz-adv-x="650" d="M84 0V732H148V431L147 291L253 384L444 546H535L148 216V0H84ZM472 0L269 348L322 384L548 0H472Z" />
<glyph unicode="l" horiz-adv-x="650" d="M293 0V732H357V0H293ZM75 0V53H577V0H75ZM150 679V732H325V679H150Z" />
<glyph unicode="m" horiz-adv-x="650" d="M534 0V408Q534 453 517 477T468 502Q422 502 387 447T340 281L332 372Q340 462 382 510T480 558Q535 558 565 519T595 410V0H534ZM55 0V546H112L116 436V0H55ZM294 0V408Q294 454 277 478T225 502Q179 502 144 446T98
281L94 373Q100 433 120 474T171 536T237 558Q295 558 325 519T356 410V0H294Z" />
<glyph unicode="n" horiz-adv-x="650" d="M499 0V349Q499 418 459 459T353 501Q280 501 224 446T146 278L133 378Q160 464 221 511T360 558Q422 558 467 532T538 459T563 350V0H499ZM92 0V546H152L157 405V0H92Z" />
<glyph unicode="o" horiz-adv-x="650" d="M324 -12Q241 -12 181 22T89 121T57 273Q57 362 89 425T181 523T324 558Q449 558 520 482T592 273Q592 186 560 122T467 23T324 -12ZM324 44Q418 44 472 105T527 273Q527 380 473 441T324 502Q230 502 177 441T123 273Q123
167 176 106T324 44Z" />
<glyph unicode="p" horiz-adv-x="650" d="M348 558Q422 558 477 523T565 423T597 273Q597 188 565 124T478 24T348 -12Q286 -12 236 14T155 87V-178H91V546H150L153 457Q183 503 234 530T348 558ZM338 44Q397 44 440 73T507 153T531 273Q531 342 507 393T440 473T338
502Q278 502 229 470T155 379V168Q179 110 228 77T338 44Z" />
<glyph unicode="q" horiz-adv-x="650" d="M302 558Q366 558 416 531T497 457L500 546H559V-178H495V87Q465 41 415 15T302 -12Q229 -12 173 23T86 123T54 273Q54 359 85 423T173 522T302 558ZM312 44Q373 44 422 77T495 168V379Q472 437 423 469T312 502Q254 502
211 474T143 394T119 273Q119 205 143 154T210 73T312 44Z" />
<glyph unicode="r" horiz-adv-x="650" d="M496 337V397Q496 444 466 472T380 501Q307 501 252 444T173 277L160 360Q179 425 211 469T287 535T385 558Q464 558 512 515T560 397V337H496ZM123 0V546H181L187 404V0H123Z" />
<glyph unicode="s" horiz-adv-x="650" d="M340 -12Q270 -12 218 13T136 84T106 195H169Q170 124 217 83T340 42Q408 42 449 69T490 141Q490 176 470 196T416 229T343 248T263 266T190 291T136 333T115 403Q115 447 139 482T211 537T325 558Q425 558 484 512T548
386H486Q482 442 440 473T324 504Q252 504 216 475T180 405Q180 373 200 355T254 328T328 311T408 295T481 268T535 221T556 142Q556 71 497 30T340 -12Z" />
<glyph unicode="t" horiz-adv-x="650" d="M370 0Q322 0 291 17T244 67T229 147V657L293 702V147Q293 123 300 101T327 66T390 53H571V0H370ZM86 493V546H491V493H86Z" />
<glyph unicode="u" horiz-adv-x="650" d="M148 546V197Q148 128 188 87T294 45Q367 45 423 100T501 268L514 168Q487 82 426 35T287 -12Q225 -12 180 14T109 87T84 196V546H148ZM555 546V0H495L490 141V546H555Z" />
<glyph unicode="v" horiz-adv-x="650" d="M289 0L64 546H133L283 182L325 64L368 182L518 546H585L360 0H289Z" />
<glyph unicode="w" horiz-adv-x="650" d="M125 0L24 547H84L145 216L172 71L208 216L298 547H355L447 216L483 70L508 216L569 547H628L526 0H447L358 329L327 472L294 329L205 0H125Z" />
<glyph unicode="x" horiz-adv-x="650" d="M363 284L571 0H495L406 121L325 237L243 120L153 0H79L286 283L91 546H166L241 446L323 330L405 447L480 546H555L363 284Z" />
<glyph unicode="y" horiz-adv-x="650" d="M273 221L327 88L380 222L518 546H586L325 -67Q304 -116 282 -143T231 -180T165 -190H71V-137H165Q189 -137 207 -127T240 -94T273 -29L292 17L66 546H135L273 221Z" />
<glyph unicode="z" horiz-adv-x="650" d="M94 0V47L389 390L480 494L341 493H110V546H559V499L266 157L172 52L312 53H559V0H94Z" />
<glyph unicode="{" horiz-adv-x="650" d="M430 -96Q382 -96 345 -76T288 -20T267 68V184Q267 220 244 245T181 278V321Q220 328 243 355T267 417V534Q267 583 287 620T345 677T430 698H465V644H433Q387 644 359 613T330 532V430Q330 374 305 339T237 293V306Q280
295 305 261T330 171V70Q330 18 358 -12T433 -42H465V-96H430Z" />
<glyph unicode="|" horiz-adv-x="650" d="M292 -190V733H358V-190H292Z" />
<glyph unicode="}" horiz-adv-x="650" d="M220 -96H185V-42H217Q264 -42 292 -12T320 70V171Q320 226 345 260T413 306L414 293Q372 304 346 339T320 430V532Q320 581 292 612T217 644H185V698H220Q269 698 305 678T362 620T383 534V417Q383 383 407 356T470 321V278Q432
271 408 246T383 184V68Q383 17 363 -19T306 -76T220 -96Z" />
<glyph unicode="~" horiz-adv-x="650" d="M440 238Q406 238 376 251T319 281T265 312T211 325Q179 325 158 303T136 241H79Q80 288 99 319T147 366T210 382Q245 382 274 369T331 338T385 308T439 294Q472 294 493 316T514 378H572Q570 332 552 301T504 254T440 238Z" />
<glyph unicode="&#xa0;" horiz-adv-x="650" />
<glyph unicode="&#xa1;" horiz-adv-x="650" d="M280 547H370V449H280V547ZM350 371L364 -30V-151H287V-30L301 371H350Z" />
<glyph unicode="&#xa2;" horiz-adv-x="650" d="M322 535V655H386V535H322ZM322 -97V12H386V-97H322ZM359 -12Q276 -12 215 23T119 123T85 273Q85 359 119 423T216 523T360 558Q421 558 471 535T555 470T594 368H530Q521 431 474 466T360 502Q296 502 249 474T176
395T150 273Q150 167 206 106T359 44Q399 44 435 60T497 107T533 178H598Q586 119 551 77T465 11T359 -12Z" />
<glyph unicode="&#xa3;" horiz-adv-x="650" d="M103 0V60Q158 105 188 159T218 263Q218 297 208 328T183 389T158 452T147 522Q147 578 173 621T247 688T353 712Q436 712 491 664T555 530H489Q483 585 446 618T353 652Q315 652 284 636T235 589T216 517Q216 484
226 453T250 391T275 328T286 261Q286 225 271 185T230 109T168 46L147 60H551V0H103ZM100 311V363H493V311H100Z" />
<glyph unicode="&#xa4;" horiz-adv-x="650" d="M139 481L13 608L58 653L188 521L139 481ZM59 12L14 57L135 180L182 137L59 12ZM593 13L464 144L509 188L638 58L593 13ZM512 481L462 521L592 653L637 608L512 481ZM340 64Q261 64 202 99T110 196T77 333Q77 408
110 468T202 564T340 600Q420 600 478 565T569 469T601 333Q601 257 569 196T479 100T340 64ZM339 122Q396 122 440 149T511 223T538 333Q538 394 512 441T441 515T339 542Q283 542 239 516T168 442T142 333Q142 271 168 224T238 149T339 122Z" />
<glyph unicode="&#xa5;" horiz-adv-x="650" d="M90 280V332H558V280H90ZM290 0V283L52 698H127L258 471L324 345L392 472L523 698H598L357 283V0H290Z" />
<glyph unicode="&#xa6;" horiz-adv-x="650" d="M292 361V733H358V361H292ZM292 -190V181H358V-190H292Z" />
<glyph unicode="&#xa7;" horiz-adv-x="650" d="M329 -190Q254 -190 199 -163T113 -84T84 43H151Q151 -41 196 -87T328 -134Q377 -134 415 -120T475 -79T497 -13Q497 26 475 50T418 89T340 116T254 139T175 169T118 218T96 297Q96 336 115 368T168 422Q135 442
116 471T96 545Q96 595 125 631T204 689T321 710Q389 710 442 687T527 621T559 521H491Q491 561 470 591T411 638T321 655Q252 655 209 625T165 545Q165 509 187 487T244 451T323 427T408 404T487 371T544 318T566 234Q566 196 550 165T506 111Q533 91 549 62T566
-11Q566 -68 535 -108T449 -169T329 -190ZM453 140Q473 161 485 183T497 233Q497 267 480 290T435 328T371 353T298 373T226 396Q198 378 182 354T165 300Q165 267 183 245T233 210T302 187T379 166T453 140Z" />
<glyph unicode="&#xa8;" horiz-adv-x="650" d="M526 655V740H600V655H526ZM362 655V740H436V655H362Z" />
<glyph unicode="&#xa9;" horiz-adv-x="650" d="M330 152Q279 152 242 177T184 247T163 351Q163 410 183 455T242 527T331 552Q391 552 431 517T478 422H424Q419 459 393 483T330 507Q277 507 247 463T216 350Q216 287 244 243T327 199Q370 199 395 224T428 288H480Q473
229 433 191T330 152ZM327 -11Q237 -11 168 35T60 163T20 350Q20 455 59 536T168 664T327 710Q416 710 485 664T593 537T633 350Q633 245 594 164T485 36T327 -11ZM327 34Q402 34 459 74T547 186T579 350Q579 442 548 513T459 624T327 665Q252 665 195 625T106
513T74 350Q74 258 106 187T195 75T327 34Z" />
<glyph unicode="&#xaa;" horiz-adv-x="650" d="M414 346L411 443V568Q411 613 386 640T314 667Q272 667 245 644T215 581H165Q169 635 208 672T313 709Q381 709 421 671T461 569V346H414ZM288 337Q254 337 229 350T189 387T175 442Q175 496 216 528T326 560H419V519H324Q280
519 253 498T226 444Q226 417 244 399T297 381Q335 381 367 405T417 473L432 440Q422 408 400 385T350 350T288 337Z" />
<glyph unicode="&#xab;" horiz-adv-x="650" d="M519 65L382 271L519 476H589L452 271L589 65H519ZM445 65L308 271L445 476H515L378 271L515 65H445Z" />
<glyph unicode="&#xac;" horiz-adv-x="650" d="M519 123V338H583V123H519ZM67 281V338H583V281H67Z" />
<glyph unicode="&#xad;" horiz-adv-x="650" d="M182 282V339H468V282H182Z" />
<glyph unicode="&#xae;" horiz-adv-x="650" d="M277 490V527H339Q357 527 368 537T379 563Q379 577 368 586T341 596H277V634H337Q376 634 399 614T422 563Q422 531 398 511T333 490H277ZM246 406V634H288V406H246ZM379 406Q375 424 367 441T343 475T295 506L338
517Q376 496 395 468T422 406H379ZM326 301Q263 301 214 329T136 407T107 519Q107 579 135 627T213 703T326 732Q387 732 436 704T513 628T542 519Q542 457 514 408T437 330T326 301ZM325 339Q374 339 413 362T476 427T500 519Q500 570 477 610T414 673T325 696Q277
696 237 673T174 610T150 519Q150 468 173 427T235 363T325 339Z" />
<glyph unicode="&#xaf;" horiz-adv-x="650" d="M316 661V715H600V661H316Z" />
<glyph unicode="&#xb0;" horiz-adv-x="650" d="M324 399Q278 399 244 418T190 473T171 556Q171 602 190 637T243 691T324 711Q371 711 405 692T459 637T479 556Q479 508 460 473T406 419T324 399ZM324 446Q368 446 395 476T422 556Q422 603 395 633T324 664Q281
664 254 634T227 556Q227 506 254 476T324 446Z" />
<glyph unicode="&#xb1;" horiz-adv-x="650" d="M75 323V381H575V323H75ZM296 112V587H354V112H296ZM67 0V58H583V0H67Z" />
<glyph unicode="&#xb2;" horiz-adv-x="650" d="M167 301V343Q257 411 311 462T391 553T416 624Q416 661 392 684T325 707Q285 707 257 682T226 607H168Q173 679 216 717T325 756Q394 756 434 720T475 625Q475 585 453 544T381 455T250 350H477V301H167Z" />
<glyph unicode="&#xb3;" horiz-adv-x="650" d="M331 293Q288 293 252 311T195 362T172 442H229Q230 397 259 370T331 343Q374 343 402 366T430 426Q430 469 397 490T316 512H292V558H318Q361 558 385 582T410 638Q410 669 389 688T331 707Q292 707 265 683T235
611H177Q181 661 203 693T259 740T331 756Q394 756 432 725T470 640Q470 602 446 574T388 539Q432 532 461 502T490 426Q490 367 447 330T331 293Z" />
<glyph unicode="&#xb4;" horiz-adv-x="650" d="M437 615L524 780H599L496 615H437Z" />
<glyph unicode="&#xb5;" horiz-adv-x="650" d="M84 -190V261H148V110L145 82V-190H84ZM148 546V197Q148 129 188 87T294 45Q367 45 424 100T501 268L514 168Q487 82 426 35T287 -12Q225 -12 180 14T109 87T84 196V546H148ZM555 546V0H495L490 141V546H555Z" />
<glyph unicode="&#xb6;" horiz-adv-x="650" d="M308 -190V293Q230 293 175 317T92 387T63 497Q63 561 91 606T175 675T308 699H371V-190H308ZM475 -190V699H538V-190H475Z" />
<glyph unicode="&#xb7;" horiz-adv-x="650" d="M290 251V342H376V251H290Z" />
<glyph unicode="&#xb8;" horiz-adv-x="650" d="M484 -220Q458 -220 434 -215T390 -203V-164Q414 -171 434 -175T473 -180Q506 -180 526 -168T546 -138Q546 -118 532 -108T494 -98Q481 -98 468 -99T442 -105L421 -84L484 21L522 2L479 -67Q490 -63 497 -63T510
-62Q537 -62 556 -70T587 -96T599 -138Q599 -163 584 -181T544 -210T484 -220Z" />
<glyph unicode="&#xb9;" horiz-adv-x="650" d="M319 300V683L164 560V624L326 748H376V300H319ZM146 349H514V300H146V349Z" />
<glyph unicode="&#xba;" horiz-adv-x="650" d="M325 334Q249 334 203 384T157 522Q157 609 203 659T325 709Q401 709 447 659T493 522Q493 434 447 384T325 334ZM325 377Q378 377 410 415T442 522Q442 590 410 628T325 666Q272 666 241 628T209 522Q209 453 240
415T325 377Z" />
<glyph unicode="&#xbb;" horiz-adv-x="650" d="M386 65H315L453 271L315 476H386L523 271L386 65ZM204 65H134L272 271L134 476H204L341 271L204 65Z" />
<glyph unicode="&#xbc;" horiz-adv-x="1300" d="M281 250V633L126 510V574L288 698H338V250H281ZM108 299H476V250H108V299ZM417 0L859 698H925L484 0H417ZM1000 0V109H766V150L982 448H1056V158H1148V109H1056V0H1000ZM827 158H1000V394L827 158Z" />
<glyph unicode="&#xbd;" horiz-adv-x="1300" d="M281 250V633L126 510V574L288 698H338V250H281ZM108 299H476V250H108V299ZM410 0L852 698H918L477 0H410ZM837 0V42Q927 110 981 161T1061 252T1086 323Q1086 360 1062 383T995 406Q955 406 927 381T896 306H838Q843
378 886 416T995 455Q1064 455 1104 419T1145 324Q1145 284 1123 243T1051 154T920 49H1147V0H837Z" />
<glyph unicode="&#xbe;" horiz-adv-x="1300" d="M331 243Q288 243 252 261T195 312T172 392H229Q230 347 259 320T331 293Q374 293 402 316T430 376Q430 419 397 440T316 462H292V508H318Q361 508 385 532T410 588Q410 619 389 638T331 657Q292 657 265 633T235
561H177Q181 611 203 643T259 690T331 706Q394 706 432 675T470 590Q470 552 446 524T388 489Q432 482 461 452T490 376Q490 317 447 280T331 243ZM412 0L854 698H920L479 0H412ZM1001 0V109H767V150L983 448H1057V158H1149V109H1057V0H1001ZM828 158H1001V394L828
158Z" />
<glyph unicode="&#xbf;" horiz-adv-x="650" d="M356 381V347Q356 302 343 272T309 220T265 180T221 142T187 95T173 26Q173 -13 191 -42T241 -88T315 -106Q386 -106 431 -60T478 63H546Q543 -6 513 -57T432 -136T314 -164Q251 -164 205 -140T132 -73T105 25Q105
73 118 106T153 162T199 204T245 242T280 286T295 347V381H356ZM370 546V455H283V546H370Z" />
<glyph unicode="&#xc0;" horiz-adv-x="650" d="M141 203V263H513V203H141ZM280 698H370L612 0H542L367 506L326 636L284 504L108 0H38L280 698ZM377 767H319L216 932H291L377 767Z" />
<glyph unicode="&#xc1;" horiz-adv-x="650" d="M141 203V263H513V203H141ZM280 698H370L612 0H542L367 506L326 636L284 504L108 0H38L280 698ZM274 766L361 931H436L333 766H274Z" />
<glyph unicode="&#xc2;" horiz-adv-x="650" d="M141 203V263H513V203H141ZM280 698H370L612 0H542L367 506L326 636L284 504L108 0H38L280 698ZM165 766L288 931H361L484 766H418L325 891L232 766H165Z" />
<glyph unicode="&#xc3;" horiz-adv-x="650" d="M141 203V263H513V203H141ZM280 698H370L612 0H542L367 506L326 636L284 504L108 0H38L280 698ZM199 792L146 800Q156 850 183 878T248 906Q268 906 288 898T329 878T366 859T396 850Q415 850 429 867T450 909L504
901Q492 851 465 823T401 795Q375 795 348 809T296 837T253 851Q234 851 219 835T199 792Z" />
<glyph unicode="&#xc4;" horiz-adv-x="650" d="M141 203V263H513V203H141ZM280 698H370L612 0H542L367 506L326 636L284 504L108 0H38L280 698ZM370 806V891H444V806H370ZM206 806V891H280V806H206Z" />
<glyph unicode="&#xc5;" horiz-adv-x="650" d="M141 203V263H513V203H141ZM280 698H370L612 0H542L367 506L326 636L284 504L108 0H38L280 698ZM324 751Q276 751 246 780T216 854Q216 900 246 929T324 958Q373 958 403 929T433 854Q433 809 403 780T324 751ZM324
793Q352 793 368 810T385 854Q385 881 369 898T324 915Q297 915 281 898T264 855Q264 828 280 811T324 793Z" />
<glyph unicode="&#xc6;" horiz-adv-x="650" d="M19 0L315 698H377L83 0H19ZM137 171V231H374V171H137ZM335 0V698H637V638H397V392H572V332H397V60H641V0H335Z" />
<glyph unicode="&#xc7;" horiz-adv-x="650" d="M340 -12Q249 -12 182 35T80 165T44 350Q44 460 82 541T187 666T342 710Q415 710 471 682T564 601T607 478H533Q524 556 472 603T341 650Q273 650 222 613T143 507T115 349Q115 257 144 190T225 85T340 48Q396 48
438 71T506 135T536 230H611Q604 158 569 103T476 18T340 -12ZM330 -220Q304 -220 280 -215T236 -203V-164Q260 -171 280 -175T319 -180Q352 -180 372 -168T392 -138Q392 -118 378 -108T340 -98Q327 -98 314 -99T288 -105L267 -84L330 21L368 2L325 -67Q336 -63
343 -63T356 -62Q383 -62 402 -70T433 -96T445 -138Q445 -163 430 -181T390 -210T330 -220Z" />
<glyph unicode="&#xc8;" horiz-adv-x="650" d="M90 0V698H580V638H156V392H458V332H156V60H584V0H90ZM398 768H340L237 933H312L398 768Z" />
<glyph unicode="&#xc9;" horiz-adv-x="650" d="M90 0V698H580V638H156V392H458V332H156V60H584V0H90ZM296 767L383 932H458L355 767H296Z" />
<glyph unicode="&#xca;" horiz-adv-x="650" d="M90 0V698H580V638H156V392H458V332H156V60H584V0H90ZM186 767L309 932H382L505 767H439L346 892L253 767H186Z" />
<glyph unicode="&#xcb;" horiz-adv-x="650" d="M90 0V698H580V638H156V392H458V332H156V60H584V0H90ZM391 807V892H465V807H391ZM227 807V892H301V807H227Z" />
<glyph unicode="&#xcc;" horiz-adv-x="650" d="M291 0V698H358V0H291ZM107 698H542V638H107V698ZM107 60H542V0H107V60ZM376 768H318L215 933H290L376 768Z" />
<glyph unicode="&#xcd;" horiz-adv-x="650" d="M291 0V698H358V0H291ZM107 698H542V638H107V698ZM107 60H542V0H107V60ZM274 767L361 932H436L333 767H274Z" />
<glyph unicode="&#xce;" horiz-adv-x="650" d="M291 0V698H358V0H291ZM107 698H542V638H107V698ZM107 60H542V0H107V60ZM164 767L287 932H360L483 767H417L324 892L231 767H164Z" />
<glyph unicode="&#xcf;" horiz-adv-x="650" d="M291 0V698H358V0H291ZM107 698H542V638H107V698ZM107 60H542V0H107V60ZM369 807V892H443V807H369ZM205 807V892H279V807H205Z" />
<glyph unicode="&#xd0;" horiz-adv-x="650" d="M3 324V377H367V324H3ZM78 0V698H280Q355 698 415 674T517 604T582 494T605 351Q605 271 582 207T517 96T415 25T280 0H78ZM145 60H280Q357 60 414 96T502 197T534 351Q534 439 503 503T414 603T280 638H145V60Z" />
<glyph unicode="&#xd1;" horiz-adv-x="650" d="M78 0V698H158L513 94L507 284V698H573V0H494L138 600L144 415V0H78ZM201 793L148 801Q158 851 185 879T250 907Q270 907 290 899T331 879T368 860T398 851Q417 851 431 868T452 910L506 902Q494 852 467 824T403
796Q377 796 350 810T298 838T255 852Q236 852 221 836T201 793Z" />
<glyph unicode="&#xd2;" horiz-adv-x="650" d="M326 -12Q239 -12 175 33T76 159T41 349Q41 458 76 539T175 665T326 710Q413 710 477 666T576 540T611 349Q611 240 576 159T477 33T326 -12ZM326 48Q391 48 439 85T513 191T540 349Q540 440 514 507T439 612T326
650Q261 650 213 613T139 507T112 349Q112 259 138 191T213 86T326 48ZM378 769H320L217 934H292L378 769Z" />
<glyph unicode="&#xd3;" horiz-adv-x="650" d="M326 -12Q239 -12 175 33T76 159T41 349Q41 458 76 539T175 665T326 710Q413 710 477 666T576 540T611 349Q611 240 576 159T477 33T326 -12ZM326 48Q391 48 439 85T513 191T540 349Q540 440 514 507T439 612T326
650Q261 650 213 613T139 507T112 349Q112 259 138 191T213 86T326 48ZM276 768L363 933H438L335 768H276Z" />
<glyph unicode="&#xd4;" horiz-adv-x="650" d="M326 -12Q239 -12 175 33T76 159T41 349Q41 458 76 539T175 665T326 710Q413 710 477 666T576 540T611 349Q611 240 576 159T477 33T326 -12ZM326 48Q391 48 439 85T513 191T540 349Q540 440 514 507T439 612T326
650Q261 650 213 613T139 507T112 349Q112 259 138 191T213 86T326 48ZM166 768L289 933H362L485 768H419L326 893L233 768H166Z" />
<glyph unicode="&#xd5;" horiz-adv-x="650" d="M326 -12Q239 -12 175 33T76 159T41 349Q41 458 76 539T175 665T326 710Q413 710 477 666T576 540T611 349Q611 240 576 159T477 33T326 -12ZM326 48Q391 48 439 85T513 191T540 349Q540 440 514 507T439 612T326
650Q261 650 213 613T139 507T112 349Q112 259 138 191T213 86T326 48ZM200 794L147 802Q157 852 184 880T249 908Q269 908 289 900T330 880T367 861T397 852Q416 852 430 869T451 911L505 903Q493 853 466 825T402 797Q376 797 349 811T297 839T254 853Q235 853
220 837T200 794Z" />
<glyph unicode="&#xd6;" horiz-adv-x="650" d="M326 -12Q239 -12 175 33T76 159T41 349Q41 458 76 539T175 665T326 710Q413 710 477 666T576 540T611 349Q611 240 576 159T477 33T326 -12ZM326 48Q391 48 439 85T513 191T540 349Q540 440 514 507T439 612T326
650Q261 650 213 613T139 507T112 349Q112 259 138 191T213 86T326 48ZM371 808V893H445V808H371ZM207 808V893H281V808H207Z" />
<glyph unicode="&#xd7;" horiz-adv-x="650" d="M155 96L115 136L495 518L535 477L155 96ZM495 96L115 477L155 518L535 136L495 96Z" />
<glyph unicode="&#xd8;" horiz-adv-x="650" d="M326 -12Q241 -12 175 34T71 161T33 349Q33 456 70 537T174 664T326 710Q411 710 477 664T581 537T619 349Q619 244 582 163T478 35T326 -12ZM326 48Q390 48 440 87T518 194T547 349Q547 438 519 505T440 611T326
650Q263 650 213 612T134 507T105 349Q105 261 133 193T212 87T326 48ZM169 -52L113 -26L483 750L540 725L169 -52Z" />
<glyph unicode="&#xd9;" horiz-adv-x="650" d="M326 -12Q250 -12 191 20T99 111T65 246V698H133V246Q133 187 157 143T224 73T326 48Q384 48 427 73T494 142T518 246V698H586V246Q586 169 553 111T461 21T326 -12ZM377 768H319L216 933H291L377 768Z" />
<glyph unicode="&#xda;" horiz-adv-x="650" d="M326 -12Q250 -12 191 20T99 111T65 246V698H133V246Q133 187 157 143T224 73T326 48Q384 48 427 73T494 142T518 246V698H586V246Q586 169 553 111T461 21T326 -12ZM274 767L361 932H436L333 767H274Z" />
<glyph unicode="&#xdb;" horiz-adv-x="650" d="M326 -12Q250 -12 191 20T99 111T65 246V698H133V246Q133 187 157 143T224 73T326 48Q384 48 427 73T494 142T518 246V698H586V246Q586 169 553 111T461 21T326 -12ZM165 767L288 932H361L484 767H418L325 892L232 767H165Z" />
<glyph unicode="&#xdc;" horiz-adv-x="650" d="M326 -12Q250 -12 191 20T99 111T65 246V698H133V246Q133 187 157 143T224 73T326 48Q384 48 427 73T494 142T518 246V698H586V246Q586 169 553 111T461 21T326 -12ZM370 807V892H444V807H370ZM206 807V892H280V807H206Z" />
<glyph unicode="&#xdd;" horiz-adv-x="650" d="M290 0V283L52 698H127L258 471L324 345L392 472L523 698H598L357 283V0H290ZM275 767L362 932H437L334 767H275Z" />
<glyph unicode="&#xde;" horiz-adv-x="650" d="M151 146V206H347Q428 206 477 247T526 356Q526 424 483 465T366 506H151V566H366Q436 566 488 540T569 467T598 356Q598 293 567 246T479 172T347 146H151ZM102 0V699H170V0H102Z" />
<glyph unicode="&#xdf;" horiz-adv-x="650" d="M348 -14Q319 -14 289 -10T235 3V59Q257 51 287 47T345 42Q397 42 439 59T507 111T533 198Q533 274 479 314T338 355H235V411H336Q377 411 408 429T456 477T474 545Q474 579 457 609T407 658T326 677Q250 677 203
627T156 496V0H92V496Q92 568 121 621T202 703T326 733Q395 733 442 707T514 639T539 549Q539 485 502 441T410 379L398 400Q459 396 504 369T574 298T599 195Q599 128 566 82T476 11T348 -14Z" />
<glyph unicode="&#xe0;" horiz-adv-x="650" d="M493 0L489 142V351Q489 422 444 463T322 505Q247 505 199 469T147 371H83Q87 430 119 471T203 535T322 558Q393 558 445 533T525 461T553 349V0H493ZM280 -12Q227 -12 186 6T123 59T100 144Q100 229 165 276T348
323H501V270H344Q259 270 212 237T165 146Q165 96 198 70T287 44Q356 44 409 82T495 189L502 136Q475 67 420 28T280 -12ZM378 616H320L217 781H292L378 616Z" />
<glyph unicode="&#xe1;" horiz-adv-x="650" d="M493 0L489 142V351Q489 422 444 463T322 505Q247 505 199 469T147 371H83Q87 430 119 471T203 535T322 558Q393 558 445 533T525 461T553 349V0H493ZM280 -12Q227 -12 186 6T123 59T100 144Q100 229 165 276T348
323H501V270H344Q259 270 212 237T165 146Q165 96 198 70T287 44Q356 44 409 82T495 189L502 136Q475 67 420 28T280 -12ZM275 615L362 780H437L334 615H275Z" />
<glyph unicode="&#xe2;" horiz-adv-x="650" d="M493 0L489 142V351Q489 422 444 463T322 505Q247 505 199 469T147 371H83Q87 430 119 471T203 535T322 558Q393 558 445 533T525 461T553 349V0H493ZM280 -12Q227 -12 186 6T123 59T100 144Q100 229 165 276T348
323H501V270H344Q259 270 212 237T165 146Q165 96 198 70T287 44Q356 44 409 82T495 189L502 136Q475 67 420 28T280 -12ZM166 615L289 780H362L485 615H419L326 740L233 615H166Z" />
<glyph unicode="&#xe3;" horiz-adv-x="650" d="M493 0L489 142V351Q489 422 444 463T322 505Q247 505 199 469T147 371H83Q87 430 119 471T203 535T322 558Q393 558 445 533T525 461T553 349V0H493ZM280 -12Q227 -12 186 6T123 59T100 144Q100 229 165 276T348
323H501V270H344Q259 270 212 237T165 146Q165 96 198 70T287 44Q356 44 409 82T495 189L502 136Q475 67 420 28T280 -12ZM200 641L147 649Q157 699 184 727T249 755Q269 755 289 747T330 727T367 708T397 699Q416 699 430 716T451 758L505 750Q493 700 466 672T402
644Q376 644 349 658T297 686T254 700Q235 700 220 684T200 641Z" />
<glyph unicode="&#xe4;" horiz-adv-x="650" d="M493 0L489 142V351Q489 422 444 463T322 505Q247 505 199 469T147 371H83Q87 430 119 471T203 535T322 558Q393 558 445 533T525 461T553 349V0H493ZM280 -12Q227 -12 186 6T123 59T100 144Q100 229 165 276T348
323H501V270H344Q259 270 212 237T165 146Q165 96 198 70T287 44Q356 44 409 82T495 189L502 136Q475 67 420 28T280 -12ZM371 655V740H445V655H371ZM207 655V740H281V655H207Z" />
<glyph unicode="&#xe5;" horiz-adv-x="650" d="M493 0L489 142V351Q489 422 444 463T322 505Q247 505 199 469T147 371H83Q87 430 119 471T203 535T322 558Q393 558 445 533T525 461T553 349V0H493ZM280 -12Q227 -12 186 6T123 59T100 144Q100 229 165 276T348
323H501V270H344Q259 270 212 237T165 146Q165 96 198 70T287 44Q356 44 409 82T495 189L502 136Q475 67 420 28T280 -12ZM325 600Q277 600 247 629T217 703Q217 749 247 778T325 807Q374 807 404 778T434 703Q434 658 404 629T325 600ZM325 642Q353 642 369 659T386
703Q386 730 370 747T325 764Q298 764 282 747T265 704Q265 677 281 660T325 642Z" />
<glyph unicode="&#xe6;" horiz-adv-x="650" d="M274 117V370Q274 441 247 472T174 503Q148 503 125 487T86 442T68 370H5Q9 429 32 471T93 535T174 558Q248 558 291 511T335 365V117H274ZM161 -12Q95 -12 54 27T13 139Q13 194 39 232T110 292T214 313H284L283
262H215Q155 262 115 232T75 143Q75 97 100 70T166 42Q211 42 240 77T283 170L314 122Q299 61 259 25T161 -12ZM457 -12Q368 -12 321 62T274 274Q274 406 328 482T472 558Q557 558 598 492T635 306H329V359L573 358Q570 428 544 466T470 504Q408 504 372 443T335
274Q335 199 349 147T391 69T457 42Q503 42 537 78T579 178H638Q629 90 581 39T457 -12Z" />
<glyph unicode="&#xe7;" horiz-adv-x="650" d="M346 -12Q263 -12 201 23T105 123T71 273Q71 359 105 423T202 523T346 558Q407 558 457 535T541 470T580 368H516Q507 431 460 466T346 502Q282 502 235 474T162 395T136 273Q136 167 192 106T346 44Q385 44 421
60T483 107T519 178H584Q572 119 537 77T452 11T346 -12ZM337 -220Q311 -220 287 -215T243 -203V-164Q267 -171 287 -175T326 -180Q359 -180 379 -168T399 -138Q399 -118 385 -108T347 -98Q334 -98 321 -99T295 -105L274 -84L337 21L375 2L332 -67Q343 -63 350
-63T363 -62Q390 -62 409 -70T440 -96T452 -138Q452 -163 437 -181T397 -210T337 -220Z" />
<glyph unicode="&#xe8;" horiz-adv-x="650" d="M330 -12Q248 -12 188 22T96 121T64 274Q64 361 96 425T188 523T332 558Q454 558 518 491T577 306H115L116 360L511 359Q507 426 459 464T332 502Q236 502 183 441T129 273Q129 204 153 152T222 72T330 44Q407 44
458 80T521 179H585Q570 90 502 39T330 -12ZM396 616H338L235 781H310L396 616Z" />
<glyph unicode="&#xe9;" horiz-adv-x="650" d="M330 -12Q248 -12 188 22T96 121T64 274Q64 361 96 425T188 523T332 558Q454 558 518 491T577 306H115L116 360L511 359Q507 426 459 464T332 502Q236 502 183 441T129 273Q129 204 153 152T222 72T330 44Q407 44
458 80T521 179H585Q570 90 502 39T330 -12ZM294 615L381 780H456L353 615H294Z" />
<glyph unicode="&#xea;" horiz-adv-x="650" d="M330 -12Q248 -12 188 22T96 121T64 274Q64 361 96 425T188 523T332 558Q454 558 518 491T577 306H115L116 360L511 359Q507 426 459 464T332 502Q236 502 183 441T129 273Q129 204 153 152T222 72T330 44Q407 44
458 80T521 179H585Q570 90 502 39T330 -12ZM184 615L307 780H380L503 615H437L344 740L251 615H184Z" />
<glyph unicode="&#xeb;" horiz-adv-x="650" d="M330 -12Q248 -12 188 22T96 121T64 274Q64 361 96 425T188 523T332 558Q454 558 518 491T577 306H115L116 360L511 359Q507 426 459 464T332 502Q236 502 183 441T129 273Q129 204 153 152T222 72T330 44Q407 44
458 80T521 179H585Q570 90 502 39T330 -12ZM389 655V740H463V655H389ZM225 655V740H299V655H225Z" />
<glyph unicode="&#xec;" horiz-adv-x="650" d="M301 0V546H366V0H301ZM84 0V53H560V0H84ZM158 493V546H333V493H158ZM385 616H327L224 781H299L385 616Z" />
<glyph unicode="&#xed;" horiz-adv-x="650" d="M301 0V546H366V0H301ZM84 0V53H560V0H84ZM158 493V546H333V493H158ZM282 615L369 780H444L341 615H282Z" />
<glyph unicode="&#xee;" horiz-adv-x="650" d="M301 0V546H366V0H301ZM84 0V53H560V0H84ZM158 493V546H333V493H158ZM172 615L295 780H368L491 615H425L332 740L239 615H172Z" />
<glyph unicode="&#xef;" horiz-adv-x="650" d="M301 0V546H366V0H301ZM84 0V53H560V0H84ZM158 493V546H333V493H158ZM377 655V740H451V655H377ZM213 655V740H287V655H213Z" />
<glyph unicode="&#xf0;" horiz-adv-x="650" d="M216 732H318Q380 700 429 659T513 567T566 460T584 340Q584 235 552 156T460 33T313 -12Q242 -12 186 20T98 112T66 250Q66 326 96 382T180 469T305 500Q362 500 408 481T488 423T538 330L528 232Q521 296 493 344T419
419T312 446Q259 446 219 421T155 352T131 248Q131 186 154 140T219 69T312 44Q379 44 426 81T497 185T522 340Q522 404 501 460T439 565T343 655T216 732ZM247 550L227 596L501 710L521 665L247 550Z" />
<glyph unicode="&#xf1;" horiz-adv-x="650" d="M499 0V349Q499 418 459 459T353 501Q280 501 224 446T146 278L133 378Q160 464 221 511T360 558Q422 558 467 532T538 459T563 350V0H499ZM92 0V546H152L157 405V0H92ZM205 641L152 649Q162 699 189 727T254 755Q274
755 294 747T335 727T372 708T402 699Q421 699 435 716T456 758L510 750Q498 700 471 672T407 644Q381 644 354 658T302 686T259 700Q240 700 225 684T205 641Z" />
<glyph unicode="&#xf2;" horiz-adv-x="650" d="M324 -12Q241 -12 181 22T89 121T57 273Q57 362 89 425T181 523T324 558Q449 558 520 482T592 273Q592 186 560 122T467 23T324 -12ZM324 44Q418 44 472 105T527 273Q527 380 473 441T324 502Q230 502 177 441T123
273Q123 167 176 106T324 44ZM376 616H318L215 781H290L376 616Z" />
<glyph unicode="&#xf3;" horiz-adv-x="650" d="M324 -12Q241 -12 181 22T89 121T57 273Q57 362 89 425T181 523T324 558Q449 558 520 482T592 273Q592 186 560 122T467 23T324 -12ZM324 44Q418 44 472 105T527 273Q527 380 473 441T324 502Q230 502 177 441T123
273Q123 167 176 106T324 44ZM274 615L361 780H436L333 615H274Z" />
<glyph unicode="&#xf4;" horiz-adv-x="650" d="M324 -12Q241 -12 181 22T89 121T57 273Q57 362 89 425T181 523T324 558Q449 558 520 482T592 273Q592 186 560 122T467 23T324 -12ZM324 44Q418 44 472 105T527 273Q527 380 473 441T324 502Q230 502 177 441T123
273Q123 167 176 106T324 44ZM420 615L543 780H616L739 615H673L580 740L487 615H420Z" />
<glyph unicode="&#xf5;" horiz-adv-x="650" d="M324 -12Q241 -12 181 22T89 121T57 273Q57 362 89 425T181 523T324 558Q449 558 520 482T592 273Q592 186 560 122T467 23T324 -12ZM324 44Q418 44 472 105T527 273Q527 380 473 441T324 502Q230 502 177 441T123
273Q123 167 176 106T324 44ZM454 641L401 649Q411 699 438 727T503 755Q523 755 543 747T584 727T621 708T651 699Q670 699 684 716T705 758L759 750Q747 700 720 672T656 644Q630 644 603 658T551 686T508 700Q489 700 474 684T454 641Z" />
<glyph unicode="&#xf6;" horiz-adv-x="650" d="M324 -12Q241 -12 181 22T89 121T57 273Q57 362 89 425T181 523T324 558Q449 558 520 482T592 273Q592 186 560 122T467 23T324 -12ZM324 44Q418 44 472 105T527 273Q527 380 473 441T324 502Q230 502 177 441T123
273Q123 167 176 106T324 44ZM625 655V740H699V655H625ZM461 655V740H535V655H461Z" />
<glyph unicode="&#xf7;" horiz-adv-x="650" d="M67 281V338H583V281H67ZM282 85V176H368V85H282ZM282 445V536H368V445H282Z" />
<glyph unicode="&#xf8;" horiz-adv-x="650" d="M167 -63L115 -38L483 610L535 584L167 -63ZM324 -12Q241 -12 181 22T89 121T57 273Q57 362 89 426T181 524T324 559Q407 559 467 525T559 426T592 273Q592 186 560 122T467 23T324 -12ZM324 44Q418 44 472 105T527
273Q527 380 473 441T324 503Q230 503 177 442T123 273Q123 167 176 106T324 44Z" />
<glyph unicode="&#xf9;" horiz-adv-x="650" d="M148 546V197Q148 128 188 87T294 45Q367 45 423 100T501 268L514 168Q487 82 426 35T287 -12Q225 -12 180 14T109 87T84 196V546H148ZM555 546V0H495L490 141V546H555ZM374 615H316L213 780H288L374 615Z" />
<glyph unicode="&#xfa;" horiz-adv-x="650" d="M148 546V197Q148 128 188 87T294 45Q367 45 423 100T501 268L514 168Q487 82 426 35T287 -12Q225 -12 180 14T109 87T84 196V546H148ZM555 546V0H495L490 141V546H555ZM272 870L359 1035H434L331 870H272Z" />
<glyph unicode="&#xfb;" horiz-adv-x="650" d="M148 546V197Q148 128 188 87T294 45Q367 45 423 100T501 268L514 168Q487 82 426 35T287 -12Q225 -12 180 14T109 87T84 196V546H148ZM555 546V0H495L490 141V546H555ZM418 870L541 1035H614L737 870H671L578 995L485
870H418Z" />
<glyph unicode="&#xfc;" horiz-adv-x="650" d="M148 546V197Q148 128 188 87T294 45Q367 45 423 100T501 268L514 168Q487 82 426 35T287 -12Q225 -12 180 14T109 87T84 196V546H148ZM555 546V0H495L490 141V546H555ZM623 910V995H697V910H623ZM459 910V995H533V910H459Z" />
<glyph unicode="&#xfd;" horiz-adv-x="650" d="M273 221L327 88L380 222L518 546H586L325 -67Q304 -116 282 -143T231 -180T165 -190H71V-137H165Q189 -137 207 -127T240 -94T273 -29L292 17L66 546H135L273 221ZM273 615L360 780H435L332 615H273Z" />
<glyph unicode="&#xfe;" horiz-adv-x="650" d="M349 559Q423 559 479 524T566 424T598 273Q598 188 567 124T479 24T349 -12Q286 -12 236 15T157 87V-178H93V733H157V460Q187 506 237 532T349 559ZM339 44Q398 44 441 73T509 153T533 273Q533 342 509 393T442
474T339 503Q279 503 230 470T157 378V169Q181 111 230 78T339 44Z" />
<glyph unicode="&#xff;" horiz-adv-x="650" d="M273 221L327 88L380 222L518 546H586L325 -67Q304 -116 282 -143T231 -180T165 -190H71V-137H165Q189 -137 207 -127T240 -94T273 -29L292 17L66 546H135L273 221ZM625 655V740H699V655H625ZM461 655V740H535V655H461Z" />
<glyph unicode="&#x2013;" horiz-adv-x="650" d="M66 282V339H584V282H66Z" />
<glyph unicode="&#x2014;" horiz-adv-x="1300" d="M152 281V338H1149V281H152Z" />
<glyph unicode="&#x2018;" horiz-adv-x="650" d="M354 589V498H267V589L321 739H375L355 692L300 589H354Z" />
<glyph unicode="&#x2019;" horiz-adv-x="650" d="M297 649V740H384V649L330 499H276L296 546L351 649H297Z" />
<glyph unicode="&#x201a;" horiz-adv-x="650" d="M283 0V91H370V0L316 -150H262L282 -103L337 0H283Z" />
<glyph unicode="&#x201c;" horiz-adv-x="650" d="M289 589V498H202V589L256 739H310L290 692L235 589H289ZM431 589V498H344V589L398 739H452L432 692L377 589H431Z" />
<glyph unicode="&#x201d;" horiz-adv-x="650" d="M361 650V741H448V650L394 500H340L360 547L415 650H361ZM219 650V741H306V650L252 500H198L218 547L273 650H219Z" />
<glyph unicode="&#x201e;" horiz-adv-x="650" d="M361 0V91H448V0L394 -150H340L360 -103L415 0H361ZM475 0V91H562V0L508 -150H454L474 -103L529 0H475Z" />
<glyph unicode="&#x2022;" horiz-adv-x="650" d="M235 211V382H414V211H235Z" />
<glyph unicode="&#x2039;" horiz-adv-x="650" d="M357 65L220 271L357 476H427L290 271L427 65H357Z" />
<glyph unicode="&#x203a;" horiz-adv-x="650" d="M293 65H223L360 271L223 476H293L430 271L293 65Z" />
</font>
</defs>
</svg>
