<?xml version="1.0" standalone="no"?>
<!DOCTYPE svg PUBLIC "-//W3C//DTD SVG 1.1//EN" "http://www.w3.org/Graphics/SVG/1.1/DTD/svg11.dtd">
<svg xmlns="http://www.w3.org/2000/svg">
<defs >
<font id="AzeretMono" horiz-adv-x="685" ><font-face
    font-family="Azeret Mono Thin ExtraBold"
    units-per-em="1000"
    panose-1="0 0 0 0 0 0 0 0 0 0"
    ascent="937"
    descent="-230"
    alphabetic="0" />
<glyph unicode=" " horiz-adv-x="650" />
<glyph unicode="!" horiz-adv-x="650" d="M256 229L223 569V698H428V569L395 229H256ZM229 0V184H420V0H229Z" />
<glyph unicode="&quot;" horiz-adv-x="650" d="M379 437L358 770H547L525 437H379ZM383 437L362 770H551L529 437H383Z" />
<glyph unicode="#" horiz-adv-x="650" d="M278 0L460 700H598L416 0H278ZM1 132L41 281H581L540 132H1ZM58 0L240 700H378L196 0H58ZM69 399L110 547H649L610 399H69Z" />
<glyph unicode="$" horiz-adv-x="650" d="M234 680V797H418V680H234ZM234 -94V20H418V-94H234ZM330 -12Q237 -12 174 21T77 113T44 252H235Q235 202 257 175T328 148Q364 148 385 163T406 204Q406 228 387 241T337 263T268 280T193 302T125 339T74 399T55 495Q55
559 89 607T184 682T324 710Q398 710 462 684T565 605T607 473H415Q414 499 402 516T370 542T326 551Q297 551 277 538T257 500Q257 478 276 466T326 445T395 429T470 408T538 371T589 308T608 207Q608 142 573 93T475 16T330 -12Z" />
<glyph unicode="%" horiz-adv-x="650" d="M43 0L485 698H607L165 0H43ZM479 -12Q435 -12 401 10T348 72T329 165Q329 218 348 257T401 319T479 341Q525 341 559 319T612 258T631 165Q631 112 612 73T559 11T479 -12ZM480 91Q496 91 506 111T517 165Q517 197 507
217T480 238Q464 238 455 218T445 165Q445 132 454 112T480 91ZM170 359Q125 359 92 381T39 443T20 536Q20 589 39 628T91 690T170 712Q216 712 250 690T303 629T322 536Q322 483 303 444T250 382T170 359ZM171 462Q187 462 197 482T208 536Q208 568 198 588T171
609Q155 609 146 589T136 536Q136 503 145 483T171 462Z" />
<glyph unicode="&amp;" horiz-adv-x="650" d="M252 -12Q184 -12 132 13T50 85T20 191Q20 238 36 275T78 338T130 381Q105 420 95 451T84 520Q84 577 110 620T182 686T288 710Q345 710 388 688T455 627T479 534Q479 495 463 460T418 399T357 355L431 262Q438 284
445 309T456 362H622Q612 299 589 242T531 136L641 0H429L405 31Q372 11 334 0T252 -12ZM264 129Q280 129 293 133T318 144L215 275Q206 265 199 255T189 232T185 206Q185 171 208 150T264 129ZM275 452Q302 466 314 483T327 524Q327 548 316 561T287 575Q267 575
256 560T244 524Q244 508 250 492T275 452Z" />
<glyph unicode="&apos;" horiz-adv-x="650" d="M252 435L231 768H420L398 435H252Z" />
<glyph unicode="(" horiz-adv-x="650" d="M305 -98Q242 2 214 100T186 299Q186 402 214 500T305 698H486Q424 602 396 501T368 299Q368 199 396 99T486 -98H305Z" />
<glyph unicode=")" horiz-adv-x="650" d="M345 -98H164Q228 -1 255 99T282 299Q282 400 255 501T164 698H345Q408 598 436 500T464 299Q464 198 436 100T345 -98Z" />
<glyph unicode="*" horiz-adv-x="650" d="M245 311L139 389L230 483L109 514L151 633L257 588V710H392V588L499 633L542 514L421 483L511 389L404 311L325 412L245 311Z" />
<glyph unicode="+" horiz-adv-x="650" d="M65 226V386H585V226H65ZM245 46V566H405V46H245Z" />
<glyph unicode="," horiz-adv-x="650" d="M231 0V184H422V0L328 -190H169L227 -103L327 2L231 0Z" />
<glyph unicode="-" horiz-adv-x="650" d="M144 227V387H505V227H144Z" />
<glyph unicode="." horiz-adv-x="650" d="M230 0V184H421V0H230Z" />
<glyph unicode="/" horiz-adv-x="650" d="M36 -98L424 700H614L226 -98H36Z" />
<glyph unicode="0" horiz-adv-x="650" d="M325 -12Q236 -12 171 33T71 159T36 349Q36 459 71 540T171 665T325 710Q414 710 479 666T579 541T614 349Q614 240 579 159T479 33T325 -12ZM324 147Q369 147 391 197T414 349Q414 451 392 501T324 552Q281 552 259 502T237
349Q237 247 259 197T324 147Z" />
<glyph unicode="1" horiz-adv-x="650" d="M255 0V341L265 488L145 394L42 315V525L299 698H453V0H255ZM42 0V160H610V0H42Z" />
<glyph unicode="2" horiz-adv-x="650" d="M53 0V134Q178 217 253 279T363 390T398 480Q398 512 378 531T325 550Q284 550 261 522T240 447H47Q47 528 82 587T181 678T329 710Q408 710 469 684T565 608T600 492Q600 423 572 368T489 262T351 160H601V0H53Z" />
<glyph unicode="3" horiz-adv-x="650" d="M326 -12Q246 -12 182 18T82 108T48 253H241Q238 222 248 199T278 162T327 149Q360 149 382 168T405 219Q405 243 393 258T360 281T308 289H273V425H310Q334 425 351 433T377 458T387 493Q387 519 370 534T323 550Q288
550 267 529T248 471H54Q55 542 89 595T186 679T330 710Q406 710 462 687T550 621T581 521Q581 485 568 455T531 401T477 365Q516 357 545 335T590 281T606 207Q606 143 572 94T475 16T326 -12Z" />
<glyph unicode="4" horiz-adv-x="650" d="M339 0V144H24V278L278 698H535V299H628V144H535V0H339ZM209 299H339V397L348 548L273 413L209 299Z" />
<glyph unicode="5" horiz-adv-x="650" d="M318 -10Q238 -10 181 16T91 90T54 206H246Q248 180 268 165T317 149Q344 149 363 160T394 193T405 245Q405 283 384 307T328 331Q297 331 276 317T242 284H61L124 698H561V539H281L264 439Q292 461 324 471T395 481Q456
481 503 452T578 370T606 249Q606 166 570 108T468 20T318 -10Z" />
<glyph unicode="6" horiz-adv-x="650" d="M381 456Q441 456 493 430T576 355T608 234Q608 163 573 108T475 20T332 -12Q239 -12 175 28T77 145T43 326Q43 441 82 527T192 662T357 710Q427 710 475 687T551 630T592 560T605 499H414Q411 523 395 538T352 554Q323
554 302 536T268 486T250 418Q280 440 312 448T381 456ZM332 148Q354 148 370 158T396 188T406 231Q406 256 397 274T370 301T331 311Q308 311 289 304T249 278Q251 217 271 183T332 148Z" />
<glyph unicode="7" horiz-adv-x="650" d="M158 0Q168 74 187 145T236 285T305 417T391 540H44V698H618V566Q564 512 521 450T444 318T388 168T350 0H158ZM44 698H222V431H44V698Z" />
<glyph unicode="8" horiz-adv-x="650" d="M324 -12Q243 -12 182 15T86 89T52 196Q52 236 67 270T110 330T174 372H476Q512 355 539 330T582 271T597 200Q597 137 563 90T467 15T324 -12ZM324 146Q345 146 362 154T389 177T400 211Q400 231 390 246T363 270T324
281Q304 280 287 271T259 247T249 211Q249 192 259 177T287 154T324 146ZM324 423Q343 423 359 431T384 454T394 490Q394 520 374 537T324 555Q296 555 276 538T255 490Q255 470 264 455T289 432T324 423ZM181 345Q145 362 119 386T78 442T64 511Q64 571 96 615T187
685T324 710Q402 710 461 685T553 615T586 507Q586 470 571 440T530 385T468 345H181Z" />
<glyph unicode="9" horiz-adv-x="650" d="M269 242Q209 242 157 268T74 343T42 464Q42 535 77 590T175 678T318 710Q411 710 475 670T573 553T607 372Q607 257 568 171T458 36T293 -12Q223 -12 175 11T99 68T58 138T45 199H236Q239 175 255 160T298 144Q327 144
348 162T382 212T400 280Q370 258 338 250T269 242ZM318 550Q296 550 280 540T254 510T244 467Q244 442 253 424T280 397T319 387Q342 387 361 394T401 420Q399 481 379 515T318 550Z" />
<glyph unicode=":" horiz-adv-x="650" d="M230 332V516H421V332H230ZM230 0V184H421V0H230Z" />
<glyph unicode=";" horiz-adv-x="650" d="M225 0V194H425V0L342 -190H183L322 0H225ZM229 331V515H420V331H229Z" />
<glyph unicode="&lt;" horiz-adv-x="650" d="M579 44L65 225V389L579 569V409L259 308L579 205V44Z" />
<glyph unicode="=" horiz-adv-x="650" d="M68 351V510H582V351H68ZM68 96V255H582V96H68Z" />
<glyph unicode="&gt;" horiz-adv-x="650" d="M64 44V205L384 308L64 409V569L578 389V225L64 44Z" />
<glyph unicode="?" horiz-adv-x="650" d="M244 223V238Q244 279 256 307T286 354T326 389T365 418T396 451T408 496Q408 516 400 531T374 555T332 564Q291 564 266 532T242 448H56Q53 527 87 586T185 677T332 710Q415 710 474 685T564 613T595 502Q595 456 582
425T547 374T502 338T456 309T420 279T404 238L403 223H244ZM227 0V184H418V0H227Z" />
<glyph unicode="@" horiz-adv-x="650" d="M331 -176Q230 -176 159 -123T51 28T14 255Q14 392 54 494T168 654T342 711Q431 711 497 663T599 527T636 322Q636 246 622 195T583 114T530 71T472 58H351L348 116Q343 87 326 68T283 49Q254 49 230 76T190 153T175 268Q175
333 190 382T229 458T283 486Q308 486 325 467T348 420L351 478H462V163H473Q494 163 504 202T514 322Q514 409 493 470T433 564T342 597Q280 597 235 556T165 439T140 255Q140 156 164 84T234 -28T342 -68H489L419 -176H331ZM322 201Q334 201 340 215T347 241V294Q347
306 341 320T322 334Q310 334 303 316T295 268Q295 237 302 219T322 201Z" />
<glyph unicode="A" horiz-adv-x="650" d="M120 129V284H547V129H120ZM182 698H467L628 0H426L364 341L322 557L279 341L217 0H23L182 698Z" />
<glyph unicode="B" horiz-adv-x="650" d="M495 365Q535 353 562 330T604 275T619 202Q619 141 588 96T499 25T361 0H52V698H348Q470 698 535 649T600 516Q600 481 587 452T551 400T495 365ZM327 539H249V425H327Q360 425 380 441T400 483Q400 508 380 523T327
539ZM249 160H342Q375 160 395 176T415 219Q415 246 396 262T344 278H249V160Z" />
<glyph unicode="C" horiz-adv-x="650" d="M332 -12Q239 -12 170 33T63 159T24 349Q24 459 63 540T174 665T340 710Q416 710 479 680T582 591T625 451H423Q419 493 398 522T337 551Q303 551 278 528T240 461T226 349Q226 279 240 235T278 169T332 148Q359 148 379
160T411 196T427 252H629Q621 172 585 113T486 21T332 -12Z" />
<glyph unicode="D" horiz-adv-x="650" d="M43 0V698H283Q366 698 430 672T539 600T606 490T629 351Q629 275 606 211T539 100T431 26T283 0H43ZM240 160H283Q325 160 357 182T408 247T427 351Q427 412 409 454T358 517T283 539H240V160Z" />
<glyph unicode="E" horiz-adv-x="650" d="M60 0V698H594V539H257V435H471V280H257V160H598V0H60Z" />
<glyph unicode="F" horiz-adv-x="650" d="M58 0V698H598V539H255V435H474V280H255V0H58Z" />
<glyph unicode="G" horiz-adv-x="650" d="M327 -12Q237 -12 168 32T59 157T19 349Q19 458 58 539T170 665T339 710Q410 710 473 682T577 598T623 464H415Q411 499 391 525T336 551Q298 551 273 527T234 457T221 349Q221 284 235 239T276 171T339 148Q368 148 388
156T427 180V245L350 240L355 391H622V121Q575 59 503 24T327 -12Z" />
<glyph unicode="H" horiz-adv-x="650" d="M416 0V698H613V0H416ZM38 0V698H235V0H38ZM217 280V439H433V280H217Z" />
<glyph unicode="I" horiz-adv-x="650" d="M226 0V698H423V0H226ZM77 698H572V539H77V698ZM77 160H572V0H77V160Z" />
<glyph unicode="J" horiz-adv-x="650" d="M77 0V159H316Q354 159 372 182T390 247V698H587V250Q587 192 574 146T529 68T446 18T317 0H77ZM152 698H572V539H152V698Z" />
<glyph unicode="K" horiz-adv-x="650" d="M35 0V698H232V584L213 424L313 574L406 698H623L232 189V0H35ZM416 0L233 367L400 450L638 0H416Z" />
<glyph unicode="L" horiz-adv-x="650" d="M70 0V698H267V160H593V0H70Z" />
<glyph unicode="M" horiz-adv-x="650" d="M16 0L53 698H281L316 412L329 264L342 412L377 698H599L636 0H465L462 313L460 518L435 313L391 0H257L213 313L188 523V313L182 0H16Z" />
<glyph unicode="N" horiz-adv-x="650" d="M46 0V698H281L443 236L427 478V698H605V0H371L207 449L225 221V0H46Z" />
<glyph unicode="O" horiz-adv-x="650" d="M326 -12Q233 -12 165 32T58 158T19 349Q19 461 57 542T164 666T326 710Q419 710 488 667T595 542T633 349Q633 239 595 158T488 33T326 -12ZM326 148Q359 148 383 172T420 241T433 349Q433 413 420 458T383 527T326 551Q293
551 269 527T232 457T219 349Q219 287 232 242T269 172T326 148Z" />
<glyph unicode="P" horiz-adv-x="650" d="M193 210V369H322Q363 369 387 393T412 457Q412 494 388 516T322 539H193V698H323Q410 698 475 668T577 584T614 457Q614 382 578 327T476 241T323 210H193ZM52 0V698H249V0H52Z" />
<glyph unicode="Q" horiz-adv-x="650" d="M314 -12Q224 -12 158 31T55 155T19 349Q19 459 56 540T160 665T314 710Q406 710 472 668T573 547T609 354Q609 308 598 263T569 178T526 113L605 142L653 149L626 -12H314ZM314 148Q345 148 365 172T396 242T407 349Q407
412 396 457T365 526T314 551Q284 551 264 527T232 457T221 349Q221 287 232 242T263 173T314 148Z" />
<glyph unicode="R" horiz-adv-x="650" d="M194 244V403H333Q357 403 374 412T401 438T411 474Q411 493 402 507T376 530T338 539H194V698H343Q423 698 484 672T579 595T613 474Q613 433 593 392T535 318T444 264T325 244H194ZM52 0V698H249V0H52ZM418 0Q418 43
405 88T366 175T302 248T212 298L413 341Q470 313 510 273T574 186T609 92T622 0H418Z" />
<glyph unicode="S" horiz-adv-x="650" d="M330 -12Q237 -12 174 21T77 113T44 252H235Q235 202 257 175T328 148Q364 148 385 163T406 204Q406 228 387 241T337 263T268 280T193 302T125 339T74 399T55 495Q55 559 89 607T184 682T324 710Q398 710 462 684T565
605T607 473H415Q414 499 402 516T370 542T326 551Q297 551 277 538T257 500Q257 478 276 466T326 445T395 429T470 408T538 371T589 308T608 207Q608 142 573 93T475 16T330 -12Z" />
<glyph unicode="T" horiz-adv-x="650" d="M227 0V539H34V698H617V539H424V0H227Z" />
<glyph unicode="U" horiz-adv-x="650" d="M325 -12Q232 -12 167 21T67 114T32 257V698H229V252Q229 220 240 197T274 161T325 148Q356 148 377 160T410 196T422 252V698H619V257Q619 175 585 115T485 21T325 -12Z" />
<glyph unicode="V" horiz-adv-x="650" d="M183 0L24 698H221L301 325L327 147L352 325L433 698H629L468 0H183Z" />
<glyph unicode="W" horiz-adv-x="650" d="M68 0L13 698H185L196 412L201 183L224 412L260 698H392L431 412L457 183L462 412L473 698H638L579 0H363L341 203L325 387L311 203L292 0H68Z" />
<glyph unicode="X" horiz-adv-x="650" d="M20 0L183 356L23 698H239L298 563L328 455L360 563L421 698H629L468 360L634 0H425L363 132L327 231L291 132L231 0H20Z" />
<glyph unicode="Y" horiz-adv-x="650" d="M224 0V282L15 698H217L282 566L326 420L372 567L437 698H634L421 282V0H224Z" />
<glyph unicode="Z" horiz-adv-x="650" d="M38 0V134L270 432L375 539H223H49V698H610V565L374 265L268 160H420H610V0H38Z" />
<glyph unicode="[" horiz-adv-x="650" d="M177 -98V699H362V-98H177ZM241 -98V43H492V-98H241ZM241 558V699H492V558H241Z" />
<glyph unicode="\" horiz-adv-x="650" d="M614 -98H425L37 700H226L614 -98Z" />
<glyph unicode="]" horiz-adv-x="650" d="M474 -98H289V699H474V-98ZM409 -98H159V43H409V-98ZM409 558H159V699H409V558Z" />
<glyph unicode="^" horiz-adv-x="650" d="M67 334L254 698H396L583 334H411L325 518L239 334H67Z" />
<glyph unicode="_" horiz-adv-x="650" d="M48 -160V0H602V-160H48Z" />
<glyph unicode="`" horiz-adv-x="650" d="M453 616H303L187 789H367L453 616Z" />
<glyph unicode="a" horiz-adv-x="650" d="M410 0L405 87V374Q405 406 382 424T317 443Q277 443 253 427T225 382H46Q52 441 87 483T183 549T326 572Q405 572 464 548T557 477T591 364V0H410ZM246 -12Q193 -12 151 9T86 69T62 157Q62 245 126 294T307 343H421L420
222L309 220Q277 220 259 208T241 173Q241 154 256 142T297 129Q335 129 365 146T413 193L431 84Q405 35 359 12T246 -12Z" />
<glyph unicode="b" horiz-adv-x="650" d="M384 572Q454 572 508 534T592 430T623 280Q623 197 593 131T508 27T384 -12Q339 -12 300 5T231 51L228 0H48V740H233V512Q262 540 301 556T384 572ZM330 140Q362 140 386 158T423 208T437 280Q437 321 424 352T386 402T330
420Q296 420 271 399T233 341V220Q245 184 270 162T330 140Z" />
<glyph unicode="c" horiz-adv-x="650" d="M330 -12Q240 -12 176 23T79 123T45 280Q45 371 81 436T182 537T335 572Q416 572 476 543T571 461T607 337H422Q416 381 395 401T335 421Q305 421 281 405T244 358T231 280Q231 207 260 172T330 136Q355 136 374 145T407
173T425 218H610Q605 148 569 97T472 17T330 -12Z" />
<glyph unicode="d" horiz-adv-x="650" d="M271 572Q314 572 353 556T421 512V740H607V0H426L423 51Q395 22 356 5T271 -12Q200 -12 146 26T62 131T31 280Q31 364 61 430T146 534T271 572ZM325 140Q358 140 384 162T421 220V341Q410 378 384 399T324 420Q293 420
269 402T231 353T217 280Q217 240 231 209T269 159T325 140Z" />
<glyph unicode="e" horiz-adv-x="650" d="M329 -12Q237 -12 172 23T72 123T37 280Q37 370 72 435T175 536T335 572Q487 572 555 487T611 248H182L183 363L422 364Q420 395 396 415T336 436Q274 436 248 395T222 271Q222 231 234 201T270 153T333 135Q367 135 394
152T426 196H610Q601 101 526 45T329 -12Z" />
<glyph unicode="f" horiz-adv-x="650" d="M205 0V610Q205 674 234 722T313 798T426 825H601V676H473Q450 676 432 670T402 650T391 610V0H205ZM95 411V560H529V411H95ZM63 0V149H590V0H63Z" />
<glyph unicode="g" horiz-adv-x="650" d="M423 511L426 560H607V63Q607 -63 533 -126T305 -190Q229 -190 171 -171T77 -109T38 1H233Q237 -25 257 -36T320 -47Q370 -47 395 -21T421 55V95Q394 64 358 49T279 34Q208 34 154 68T70 163T39 300Q39 383 70 444T157
538T284 571Q325 571 361 555T423 511ZM326 172Q359 172 384 194T421 252V354Q410 391 385 412T326 434Q294 434 271 417T236 371T223 303Q223 266 235 237T271 190T326 172Z" />
<glyph unicode="h" horiz-adv-x="650" d="M415 0V338Q415 373 399 394T352 415Q317 415 287 392T220 312L202 456Q243 518 294 545T401 572Q466 572 510 546T578 471T601 357V0H415ZM53 0V741H239V0H53Z" />
<glyph unicode="i" horiz-adv-x="650" d="M242 0V560H428V0H242ZM62 0V149H595V0H62ZM132 411V560H335V411H132ZM239 623V780H431V623H239Z" />
<glyph unicode="j" horiz-adv-x="650" d="M518 560V19Q518 -40 493 -84T423 -153T317 -178H69V-29H265Q297 -29 314 -17T332 29V560H518ZM222 411V560H385V411H222ZM328 623V780H520V623H328Z" />
<glyph unicode="k" horiz-adv-x="650" d="M42 0V740H228V537L213 360L323 500L379 560H606L228 189V0H42ZM403 0L239 321L404 394L613 0H403Z" />
<glyph unicode="l" horiz-adv-x="650" d="M232 0V740H418V0H232ZM57 0V149H595V0H57ZM122 591V740H325V591H122Z" />
<glyph unicode="m" horiz-adv-x="650" d="M464 0V379Q464 400 458 411T437 422Q417 422 403 392T376 287L366 375Q358 465 393 518T492 572Q545 572 578 532T612 412V0H464ZM38 0V560H181L185 459V0H38ZM251 0V379Q251 402 244 412T224 422Q201 422 189 391T165
287L166 381Q161 439 177 482T223 548T286 572Q337 572 368 528T399 414V0H251Z" />
<glyph unicode="n" horiz-adv-x="650" d="M415 0V339Q415 373 399 394T352 415Q317 415 287 392T220 313L202 456Q243 518 294 545T401 572Q466 572 510 546T578 471T601 358V0H415ZM53 0V560H234L239 474V0H53Z" />
<glyph unicode="o" horiz-adv-x="650" d="M325 -12Q236 -12 171 23T71 124T36 279Q36 371 70 436T170 536T325 572Q461 572 537 495T614 279Q614 189 580 124T480 24T325 -12ZM325 137Q373 137 400 175T428 280Q428 349 401 386T325 423Q277 423 249 386T221 279Q221
212 249 175T325 137Z" />
<glyph unicode="p" horiz-adv-x="650" d="M384 572Q455 572 510 534T595 430T626 280Q626 197 596 131T510 27T384 -12Q339 -12 300 4T231 49V-178H45V560H226L229 510Q259 539 299 555T384 572ZM330 140Q363 140 388 158T427 208T441 280Q441 321 427 352T388
402T330 420Q296 420 270 399T231 342V219Q243 183 269 162T330 140Z" />
<glyph unicode="q" horiz-adv-x="650" d="M267 572Q312 572 352 556T421 510L424 560H605V-178H419V49Q391 21 351 5T267 -12Q195 -12 141 26T55 131T24 280Q24 364 55 430T140 534T267 572ZM320 140Q354 140 380 161T419 219V342Q407 378 381 399T320 420Q287
420 263 402T224 353T210 280Q210 239 224 208T262 159T320 140Z" />
<glyph unicode="r" horiz-adv-x="650" d="M416 263V341Q416 376 401 397T352 418Q320 418 287 394T220 312L203 449Q230 488 258 515T320 557T399 572Q497 572 549 515T602 341V263H416ZM58 0V560H238L244 473V0H58Z" />
<glyph unicode="s" horiz-adv-x="650" d="M336 -12Q256 -12 195 12T101 83T66 192H233Q232 156 259 137T333 118Q366 118 387 129T409 159Q409 178 391 188T344 205T279 219T209 236T144 265T96 314T78 391Q78 446 109 486T195 549T325 572Q436 572 503 522T576
384H410Q408 412 386 427T324 442Q293 442 276 432T258 402Q258 384 276 375T323 360T387 349T458 333T523 305T570 255T588 176Q588 88 520 38T336 -12Z" />
<glyph unicode="t" horiz-adv-x="650" d="M368 0Q308 0 262 24T191 95T165 208V662L351 740V217Q351 188 360 174T390 154T444 149H580V0H368ZM55 411V560H489V411H55Z" />
<glyph unicode="u" horiz-adv-x="650" d="M231 560V221Q231 187 247 166T294 145Q329 145 359 168T426 247L444 104Q403 42 352 15T245 -12Q180 -12 136 14T68 89T45 202V560H231ZM593 560V0H412L407 86V560H593Z" />
<glyph unicode="v" horiz-adv-x="650" d="M216 0L23 560H219L296 304L327 159L360 304L435 560H625L433 0H216Z" />
<glyph unicode="w" horiz-adv-x="650" d="M89 0L12 560H168L197 278L204 165L214 278L252 560H401L443 283L454 164L462 283L489 560H638L564 0H378L333 274L325 411L316 274L273 0H89Z" />
<glyph unicode="x" horiz-adv-x="650" d="M439 285L618 0H411L377 57L325 162L271 57L237 0H32L211 284L38 560H244L271 515L326 407L380 514L408 560H608L439 285Z" />
<glyph unicode="y" horiz-adv-x="650" d="M281 388L325 245L370 388L437 560H628L392 -14Q366 -77 328 -115T240 -172T131 -190H27V-40H114Q143 -40 162 -27T195 7T218 48L225 63L23 560H215L281 388Z" />
<glyph unicode="z" horiz-adv-x="650" d="M76 0V135L256 329L345 410H194H87V560H574V428L395 235L298 150H454H574V0H76Z" />
<glyph unicode="{" horiz-adv-x="650" d="M419 -98Q354 -98 307 -75T234 -7T208 105V193Q208 216 188 227T141 240V363Q168 363 188 376T208 411V495Q208 561 233 606T306 674T419 698H499V557H467Q433 557 413 537T393 476V419Q393 360 356 328T256 282L258 324Q316
309 354 277T393 185V124Q393 84 413 64T467 43H499V-98H419Z" />
<glyph unicode="|" horiz-adv-x="650" d="M227 -190V741H423V-190H227Z" />
<glyph unicode="}" horiz-adv-x="650" d="M232 -98H152V43H183Q218 43 238 63T258 124V185Q258 244 296 276T393 324L394 282Q333 295 296 327T258 419V476Q258 516 238 536T183 557H152V698H232Q297 698 344 675T417 606T443 495V411Q443 390 463 377T509 363V240Q484
239 464 228T443 193V105Q443 38 418 -7T345 -75T232 -98Z" />
<glyph unicode="~" horiz-adv-x="650" d="M424 195Q389 195 362 205T314 229T275 253T240 264Q221 264 209 248T195 199H37Q36 270 62 319T132 393T227 418Q263 418 290 408T339 384T377 360T411 350Q430 350 441 366T456 414H614Q614 346 588 297T519 222T424 195Z" />
<glyph unicode="&#xa0;" horiz-adv-x="650" />
<glyph unicode="&#xa1;" horiz-adv-x="650" d="M225 560H425V366H225V560ZM395 331L428 -9V-138H223V-9L256 331H395Z" />
<glyph unicode="&#xa2;" horiz-adv-x="650" d="M246 528V657H431V528H246ZM246 -95V24H431V-95H246ZM339 -12Q249 -12 185 23T88 123T54 280Q54 371 90 436T191 537T344 572Q425 572 485 543T580 461T616 337H431Q425 381 404 401T344 421Q314 421 290 405T253
358T240 280Q240 207 269 172T339 136Q364 136 383 145T416 173T434 218H619Q614 148 578 97T481 17T339 -12Z" />
<glyph unicode="&#xa3;" horiz-adv-x="650" d="M66 0V160Q113 188 133 217T154 275Q154 299 145 324T123 377T101 433T91 496Q91 557 121 605T207 682T342 711Q457 711 521 652T587 472H398Q399 510 384 531T341 553Q325 553 312 546T291 524T283 488Q283 465
292 440T313 387T334 333T343 279Q343 251 328 222T283 165T208 115L204 160H576V0H66ZM58 280V395H512V280H58Z" />
<glyph unicode="&#xa4;" horiz-adv-x="650" d="M137 445L10 589L130 706L268 550L137 445ZM130 -34L10 83L137 227L268 122L130 -34ZM521 -34L383 122L514 227L641 83L521 -34ZM514 445L383 553L521 706L641 589L514 445ZM327 30Q247 30 184 70T84 180T47 336Q47
422 83 491T183 600T327 641Q409 641 472 601T572 491T608 336Q608 249 572 180T473 71T327 30ZM326 177Q362 177 389 197T432 253T448 336Q448 383 433 419T390 475T326 495Q291 495 264 475T222 419T206 336Q206 289 221 253T264 197T326 177Z" />
<glyph unicode="&#xa5;" horiz-adv-x="650" d="M59 256V371H586V256H59ZM224 0V282L15 698H217L282 566L326 420L372 567L437 698H634L421 282V0H224Z" />
<glyph unicode="&#xa6;" horiz-adv-x="650" d="M227 363V741H423V363H227ZM227 -190V188H423V-190H227Z" />
<glyph unicode="&#xa7;" horiz-adv-x="650" d="M328 -190Q236 -190 172 -159T76 -74T48 48H239Q236 8 258 -18T329 -45Q353 -45 369 -39T393 -20T401 7Q401 27 382 38T333 57T266 73T192 93T125 125T76 176T57 254Q57 292 73 323T121 374Q87 400 72 434T57 512Q57
570 92 615T187 685T322 710Q400 710 462 684T562 608T602 491H407Q407 519 394 535T361 558T325 565Q298 565 279 552T259 515Q259 494 277 483T326 464T394 449T467 429T534 394T584 336T603 243Q603 212 591 183T554 130Q577 108 590 79T603 7Q603 -49 568 -93T472
-164T328 -190ZM401 209Q405 216 407 223T410 239Q410 253 402 262T380 278T348 290T309 300T267 311Q261 303 258 295T254 276Q254 262 262 253T286 237T320 227T360 218T401 209Z" />
<glyph unicode="&#xa8;" horiz-adv-x="650" d="M426 628V780H603V628H426ZM181 628V780H358V628H181Z" />
<glyph unicode="&#xa9;" horiz-adv-x="650" d="M328 160Q282 160 247 184T192 253T173 355Q173 413 192 456T247 524T329 547Q388 546 426 504T467 394H374Q372 423 359 441T326 460Q302 460 286 431T270 357Q270 307 286 277T327 246Q347 246 360 265T376 314H468Q463
245 425 203T328 160ZM326 -12Q237 -12 168 34T60 162T20 349Q20 454 59 535T168 663T326 710Q415 710 484 664T592 536T632 349Q632 244 593 163T484 35T326 -12ZM324 69Q386 69 433 105T508 204T535 349Q535 431 508 494T434 593T324 629Q264 629 217 593T143
494T116 348Q116 267 142 204T216 105T324 69Z" />
<glyph unicode="&#xaa;" horiz-adv-x="650" d="M372 325L370 398V573Q370 595 356 607T318 619Q294 619 278 608T260 578H136Q143 637 192 673T324 709Q408 709 452 670T497 566V325H372ZM273 317Q239 317 210 330T164 370T146 433Q146 498 193 530T312 562H380V474L311
473Q292 473 282 465T272 445Q272 432 280 423T306 414Q345 414 365 440T393 514L410 442Q407 394 387 367T337 328T273 317Z" />
<glyph unicode="&#xab;" horiz-adv-x="650" d="M432 60L288 277L432 492H614L465 277L614 60H432ZM429 60L285 277L429 492H611L462 277L611 60H429Z" />
<glyph unicode="&#xac;" horiz-adv-x="650" d="M398 109V386H582V109H398ZM68 226V386H582V226H68Z" />
<glyph unicode="&#xad;" horiz-adv-x="650" d="M144 227V387H505V227H144Z" />
<glyph unicode="&#xae;" horiz-adv-x="650" d="M281 470V527H330Q341 527 348 533T355 550Q355 560 348 565T331 571H281V628H333Q378 628 402 609T427 550Q427 515 399 493T332 470H281ZM237 404V628H309V404H237ZM357 404Q356 416 353 431T338 462T300 483L363
505Q391 487 409 463T432 404H357ZM325 287Q255 287 201 317T117 398T87 514Q87 578 117 629T200 711T325 742Q396 742 449 712T533 630T563 514Q563 450 533 399T450 317T325 287ZM324 345Q373 345 411 366T470 426T492 514Q492 565 471 603T411 662T324 684Q276
684 239 663T180 603T158 514Q158 464 179 426T238 367T324 345Z" />
<glyph unicode="&#xaf;" horiz-adv-x="650" d="M223 634V759H603V634H223Z" />
<glyph unicode="&#xb0;" horiz-adv-x="650" d="M325 349Q267 349 224 371T156 435T132 530Q132 583 156 624T223 687T325 710Q384 710 427 688T495 624T519 530Q519 476 495 435T427 372T325 349ZM325 459Q352 459 368 478T384 530Q384 562 368 581T325 600Q300
600 285 581T269 530Q269 497 284 478T325 459Z" />
<glyph unicode="&#xb1;" horiz-adv-x="650" d="M65 346V505H585V346H65ZM244 200V651H406V200H244ZM68 0V160H582V0H68Z" />
<glyph unicode="&#xb2;" horiz-adv-x="650" d="M148 301V395Q227 447 274 485T342 552T364 607Q364 624 353 635T325 646Q303 646 291 630T277 585H142Q143 664 192 710T326 756Q406 756 455 717T504 611Q504 572 487 537T436 471T356 412H505V301H148Z" />
<glyph unicode="&#xb3;" horiz-adv-x="650" d="M328 292Q277 292 234 312T167 370T143 464H277Q278 437 291 421T326 404Q345 404 356 415T368 442Q368 462 353 472T315 483H294V574H316Q335 574 346 584T358 611Q358 625 349 634T323 644Q306 644 294 634T282
601H147Q147 649 171 683T235 736T326 755Q401 755 448 721T495 631Q495 595 477 570T433 535Q466 528 488 500T511 433Q511 372 462 332T328 292Z" />
<glyph unicode="&#xb4;" horiz-adv-x="650" d="M337 616L423 789H603L487 616H337Z" />
<glyph unicode="&#xb5;" horiz-adv-x="650" d="M47 -190V308H231V80L212 59V-190H47ZM232 560V221Q232 187 248 166T295 145Q330 145 360 168T427 247L445 104Q404 42 353 15T246 -12Q182 -12 137 14T69 89T46 202V560H232ZM594 560V0H413L408 86V560H594Z" />
<glyph unicode="&#xb6;" horiz-adv-x="650" d="M240 -190V235Q177 235 130 263T56 344T30 467Q30 537 56 589T129 669T240 698H387V-190H240ZM472 -190V698H619V-190H472Z" />
<glyph unicode="&#xb7;" horiz-adv-x="650" d="M254 212V396H445V212H254Z" />
<glyph unicode="&#xb8;" horiz-adv-x="650" d="M459 -222Q438 -222 412 -218T359 -205V-133Q373 -137 395 -141T435 -146Q451 -146 463 -141T476 -126Q476 -117 465 -112T439 -107Q429 -107 420 -108T403 -113L379 -71L442 31L523 6L490 -42Q493 -42 496 -42T501
-41Q529 -41 552 -50T590 -78T604 -124Q604 -160 584 -181T530 -212T459 -222Z" />
<glyph unicode="&#xb9;" horiz-adv-x="650" d="M298 300V608L148 501V635L313 748H436V300H298ZM153 411H547V300H153V411Z" />
<glyph unicode="&#xba;" horiz-adv-x="650" d="M325 319Q240 319 190 370T140 514Q140 606 190 657T325 709Q411 709 460 658T510 514Q510 421 460 370T325 319ZM325 413Q353 413 369 438T385 514Q385 564 369 588T325 613Q298 613 282 589T266 514Q266 463 282
438T325 413Z" />
<glyph unicode="&#xbb;" horiz-adv-x="650" d="M471 60H289L438 277L289 492H471L615 277L471 60ZM219 60H37L185 277L37 492H219L362 277L219 60Z" />
<glyph unicode="&#xbc;" horiz-adv-x="1300" d="M263 250V558L113 451V585L278 698H401V250H263ZM118 361H512V250H118V361ZM379 0L820 698H972L530 0H379ZM949 0V87H739V190L920 448H1086V198H1167V87H1086V0H949ZM870 198H949V315L870 198Z" />
<glyph unicode="&#xbd;" horiz-adv-x="1300" d="M263 250V558L113 451V585L278 698H401V250H263ZM118 361H512V250H118V361ZM389 0L830 698H982L540 0H389ZM824 0V94Q903 146 950 184T1018 251T1040 306Q1040 323 1029 334T1001 345Q979 345 967 329T953 284H818Q819
363 868 409T1002 455Q1082 455 1131 416T1180 310Q1180 271 1163 236T1112 170T1032 111H1181V0H824Z" />
<glyph unicode="&#xbe;" horiz-adv-x="1300" d="M318 242Q267 242 224 262T157 320T133 414H267Q268 387 281 371T316 354Q335 354 346 365T358 392Q358 412 343 422T305 433H284V524H306Q325 524 336 534T348 561Q348 575 339 584T313 594Q296 594 284 584T272
551H137Q137 599 161 633T225 686T316 705Q391 705 438 671T485 581Q485 545 467 520T423 485Q456 478 478 450T501 383Q501 322 452 282T318 242ZM354 0L795 698H947L505 0H354ZM954 0V87H744V190L925 448H1091V198H1172V87H1091V0H954ZM875 198H954V315L875 198Z"
/>
<glyph unicode="&#xbf;" horiz-adv-x="650" d="M406 337V322Q406 281 394 253T364 206T324 171T285 142T254 109T242 64Q242 44 250 29T276 5T318 -4Q359 -4 384 28T408 112H594Q597 33 563 -26T465 -117T318 -150Q235 -150 176 -125T86 -53T55 58Q55 104 68 135T103
186T148 222T194 251T230 281T246 322L247 337H406ZM423 560V376H232V560H423Z" />
<glyph unicode="&#xc0;" horiz-adv-x="650" d="M120 129V284H547V129H120ZM182 698H467L628 0H426L364 341L322 557L279 341L217 0H23L182 698ZM421 755H271L155 928H335L421 755Z" />
<glyph unicode="&#xc1;" horiz-adv-x="650" d="M120 129V284H547V129H120ZM182 698H467L628 0H426L364 341L322 557L279 341L217 0H23L182 698ZM226 754L312 927H492L376 754H226Z" />
<glyph unicode="&#xc2;" horiz-adv-x="650" d="M120 129V284H547V129H120ZM182 698H467L628 0H426L364 341L322 557L279 341L217 0H23L182 698ZM100 754L217 927H419L537 754H368L318 841L270 754H100Z" />
<glyph unicode="&#xc3;" horiz-adv-x="650" d="M120 129V284H547V129H120ZM182 698H467L628 0H426L364 341L322 557L279 341L217 0H23L182 698ZM226 747L95 768Q99 839 130 883T223 927Q252 927 273 922T312 909T342 896T370 890Q388 890 397 902T408 934L542
914Q536 843 504 799T410 755Q377 755 351 765T303 784T262 794Q245 794 237 781T226 747Z" />
<glyph unicode="&#xc4;" horiz-adv-x="650" d="M120 129V284H547V129H120ZM182 698H467L628 0H426L364 341L322 557L279 341L217 0H23L182 698ZM352 766V918H529V766H352ZM107 766V918H284V766H107Z" />
<glyph unicode="&#xc5;" horiz-adv-x="650" d="M120 129V284H547V129H120ZM182 698H467L628 0H426L364 341L322 557L279 341L217 0H23L182 698ZM317 727Q258 727 222 760T186 848Q186 903 222 936T317 970Q377 970 413 937T450 848Q450 794 414 761T317 727ZM318
806Q338 806 350 818T362 849Q362 867 350 879T318 891Q299 891 287 879T275 849Q275 830 286 818T318 806Z" />
<glyph unicode="&#xc6;" horiz-adv-x="650" d="M5 0L236 698H389L171 0H5ZM168 119V279H367V119H168ZM341 0V698H634V539H498V435H605V280H498V160H638V0H341Z" />
<glyph unicode="&#xc7;" horiz-adv-x="650" d="M332 -12Q239 -12 170 33T63 159T24 349Q24 459 63 540T174 665T340 710Q416 710 479 680T582 591T625 451H423Q419 493 398 522T337 551Q303 551 278 528T240 461T226 349Q226 279 240 235T278 169T332 148Q359
148 379 160T411 196T427 252H629Q621 172 585 113T486 21T332 -12ZM332 -222Q311 -222 285 -218T232 -205V-133Q246 -137 268 -141T308 -146Q324 -146 336 -141T349 -126Q349 -117 338 -112T312 -107Q302 -107 293 -108T276 -113L252 -71L315 31L396 6L363 -42Q366
-42 369 -42T374 -41Q402 -41 425 -50T463 -78T477 -124Q477 -160 457 -181T403 -212T332 -222Z" />
<glyph unicode="&#xc8;" horiz-adv-x="650" d="M60 0V698H594V539H257V435H471V280H257V160H598V0H60ZM430 756H280L164 929H344L430 756Z" />
<glyph unicode="&#xc9;" horiz-adv-x="650" d="M60 0V698H594V539H257V435H471V280H257V160H598V0H60ZM235 755L321 928H501L385 755H235Z" />
<glyph unicode="&#xca;" horiz-adv-x="650" d="M60 0V698H594V539H257V435H471V280H257V160H598V0H60ZM109 755L226 928H428L546 755H377L327 842L279 755H109Z" />
<glyph unicode="&#xcb;" horiz-adv-x="650" d="M60 0V698H594V539H257V435H471V280H257V160H598V0H60ZM361 767V919H538V767H361ZM116 767V919H293V767H116Z" />
<glyph unicode="&#xcc;" horiz-adv-x="650" d="M226 0V698H423V0H226ZM77 698H572V539H77V698ZM77 160H572V0H77V160ZM428 756H278L162 929H342L428 756Z" />
<glyph unicode="&#xcd;" horiz-adv-x="650" d="M226 0V698H423V0H226ZM77 698H572V539H77V698ZM77 160H572V0H77V160ZM234 755L320 928H500L384 755H234Z" />
<glyph unicode="&#xce;" horiz-adv-x="650" d="M226 0V698H423V0H226ZM77 698H572V539H77V698ZM77 160H572V0H77V160ZM108 755L225 928H427L545 755H376L326 842L278 755H108Z" />
<glyph unicode="&#xcf;" horiz-adv-x="650" d="M226 0V698H423V0H226ZM77 698H572V539H77V698ZM77 160H572V0H77V160ZM359 767V919H536V767H359ZM114 767V919H291V767H114Z" />
<glyph unicode="&#xd0;" horiz-adv-x="650" d="M1 285V416H369V285H1ZM43 0V698H283Q366 698 430 672T539 600T606 490T629 351Q629 275 606 211T539 100T431 26T283 0H43ZM240 160H283Q325 160 357 182T408 247T427 351Q427 412 409 454T358 517T283 539H240V160Z" />
<glyph unicode="&#xd1;" horiz-adv-x="650" d="M46 0V698H281L443 236L427 478V698H605V0H371L207 449L225 221V0H46ZM239 748L108 769Q112 840 143 884T236 928Q265 928 286 923T325 910T355 897T383 891Q401 891 410 903T421 935L555 915Q549 844 517 800T423
756Q390 756 364 766T316 785T275 795Q258 795 250 782T239 748Z" />
<glyph unicode="&#xd2;" horiz-adv-x="650" d="M326 -12Q233 -12 165 32T58 158T19 349Q19 461 57 542T164 666T326 710Q419 710 488 667T595 542T633 349Q633 239 595 158T488 33T326 -12ZM326 148Q359 148 383 172T420 241T433 349Q433 413 420 458T383 527T326
551Q293 551 269 527T232 457T219 349Q219 287 232 242T269 172T326 148ZM430 757H280L164 930H344L430 757Z" />
<glyph unicode="&#xd3;" horiz-adv-x="650" d="M326 -12Q233 -12 165 32T58 158T19 349Q19 461 57 542T164 666T326 710Q419 710 488 667T595 542T633 349Q633 239 595 158T488 33T326 -12ZM326 148Q359 148 383 172T420 241T433 349Q433 413 420 458T383 527T326
551Q293 551 269 527T232 457T219 349Q219 287 232 242T269 172T326 148ZM236 756L322 929H502L386 756H236Z" />
<glyph unicode="&#xd4;" horiz-adv-x="650" d="M326 -12Q233 -12 165 32T58 158T19 349Q19 461 57 542T164 666T326 710Q419 710 488 667T595 542T633 349Q633 239 595 158T488 33T326 -12ZM326 148Q359 148 383 172T420 241T433 349Q433 413 420 458T383 527T326
551Q293 551 269 527T232 457T219 349Q219 287 232 242T269 172T326 148ZM110 756L227 929H429L547 756H378L328 843L280 756H110Z" />
<glyph unicode="&#xd5;" horiz-adv-x="650" d="M326 -12Q233 -12 165 32T58 158T19 349Q19 461 57 542T164 666T326 710Q419 710 488 667T595 542T633 349Q633 239 595 158T488 33T326 -12ZM326 148Q359 148 383 172T420 241T433 349Q433 413 420 458T383 527T326
551Q293 551 269 527T232 457T219 349Q219 287 232 242T269 172T326 148ZM236 749L105 770Q109 841 140 885T233 929Q262 929 283 924T322 911T352 898T380 892Q398 892 407 904T418 936L552 916Q546 845 514 801T420 757Q387 757 361 767T313 786T272 796Q255
796 247 783T236 749Z" />
<glyph unicode="&#xd6;" horiz-adv-x="650" d="M326 -12Q233 -12 165 32T58 158T19 349Q19 461 57 542T164 666T326 710Q419 710 488 667T595 542T633 349Q633 239 595 158T488 33T326 -12ZM326 148Q359 148 383 172T420 241T433 349Q433 413 420 458T383 527T326
551Q293 551 269 527T232 457T219 349Q219 287 232 242T269 172T326 148ZM361 768V920H538V768H361ZM116 768V920H293V768H116Z" />
<glyph unicode="&#xd7;" horiz-adv-x="650" d="M186 55L78 163L464 552L572 443L186 55ZM464 55L78 443L186 552L572 163L464 55Z" />
<glyph unicode="&#xd8;" horiz-adv-x="650" d="M326 -12Q234 -12 165 32T58 158T19 349Q19 461 57 542T165 666T326 710Q419 710 488 667T595 542T633 349Q633 239 595 158T488 33T326 -12ZM326 139Q365 139 393 164T435 236T450 349Q450 415 436 462T393 535T326
560Q286 560 259 535T217 462T202 349Q202 284 216 237T258 164T326 139ZM212 -78L75 -17L441 782L579 722L212 -78Z" />
<glyph unicode="&#xd9;" horiz-adv-x="650" d="M325 -12Q232 -12 167 21T67 114T32 257V698H229V252Q229 220 240 197T274 161T325 148Q356 148 377 160T410 196T422 252V698H619V257Q619 175 585 115T485 21T325 -12ZM427 756H277L161 929H341L427 756Z" />
<glyph unicode="&#xda;" horiz-adv-x="650" d="M325 -12Q232 -12 167 21T67 114T32 257V698H229V252Q229 220 240 197T274 161T325 148Q356 148 377 160T410 196T422 252V698H619V257Q619 175 585 115T485 21T325 -12ZM232 755L318 928H498L382 755H232Z" />
<glyph unicode="&#xdb;" horiz-adv-x="650" d="M325 -12Q232 -12 167 21T67 114T32 257V698H229V252Q229 220 240 197T274 161T325 148Q356 148 377 160T410 196T422 252V698H619V257Q619 175 585 115T485 21T325 -12ZM106 755L223 928H425L543 755H374L324 842L276
755H106Z" />
<glyph unicode="&#xdc;" horiz-adv-x="650" d="M325 -12Q232 -12 167 21T67 114T32 257V698H229V252Q229 220 240 197T274 161T325 148Q356 148 377 160T410 196T422 252V698H619V257Q619 175 585 115T485 21T325 -12ZM358 767V919H535V767H358ZM113 767V919H290V767H113Z"
/>
<glyph unicode="&#xdd;" horiz-adv-x="650" d="M224 0V282L15 698H217L282 566L326 420L372 567L437 698H634L421 282V0H224ZM233 755L319 928H499L383 755H233Z" />
<glyph unicode="&#xde;" horiz-adv-x="650" d="M196 120V279H331Q376 279 401 303T426 366Q426 404 404 427T341 450H196V609H345Q432 609 495 579T592 495T627 366Q627 292 590 237T486 151T326 120H196ZM55 0V699H252V0H55Z" />
<glyph unicode="&#xdf;" horiz-adv-x="650" d="M360 -11Q340 -11 317 -8T268 2V152Q281 146 301 142T344 138Q377 138 401 148T438 179T451 227Q451 268 420 291T335 314H268V449H320Q347 449 364 458T391 484T401 524Q401 547 390 562T359 586T316 595Q270 595
243 564T216 483V0H31V480Q31 554 65 613T164 706T322 741Q404 741 462 715T552 641T584 533Q584 471 545 430T444 372L442 409Q505 408 548 381T614 311T637 215Q637 148 604 97T510 18T360 -11Z" />
<glyph unicode="&#xe0;" horiz-adv-x="650" d="M410 0L405 87V374Q405 406 382 424T317 443Q277 443 253 427T225 382H46Q52 441 87 483T183 549T326 572Q405 572 464 548T557 477T591 364V0H410ZM246 -12Q193 -12 151 9T86 69T62 157Q62 245 126 294T307 343H421L420
222L309 220Q277 220 259 208T241 173Q241 154 256 142T297 129Q335 129 365 146T413 193L431 84Q405 35 359 12T246 -12ZM423 617H273L157 790H337L423 617Z" />
<glyph unicode="&#xe1;" horiz-adv-x="650" d="M410 0L405 87V374Q405 406 382 424T317 443Q277 443 253 427T225 382H46Q52 441 87 483T183 549T326 572Q405 572 464 548T557 477T591 364V0H410ZM246 -12Q193 -12 151 9T86 69T62 157Q62 245 126 294T307 343H421L420
222L309 220Q277 220 259 208T241 173Q241 154 256 142T297 129Q335 129 365 146T413 193L431 84Q405 35 359 12T246 -12ZM228 616L314 789H494L378 616H228Z" />
<glyph unicode="&#xe2;" horiz-adv-x="650" d="M410 0L405 87V374Q405 406 382 424T317 443Q277 443 253 427T225 382H46Q52 441 87 483T183 549T326 572Q405 572 464 548T557 477T591 364V0H410ZM246 -12Q193 -12 151 9T86 69T62 157Q62 245 126 294T307 343H421L420
222L309 220Q277 220 259 208T241 173Q241 154 256 142T297 129Q335 129 365 146T413 193L431 84Q405 35 359 12T246 -12ZM358 616L475 789H677L795 616H626L576 703L528 616H358Z" />
<glyph unicode="&#xe3;" horiz-adv-x="650" d="M410 0L405 87V374Q405 406 382 424T317 443Q277 443 253 427T225 382H46Q52 441 87 483T183 549T326 572Q405 572 464 548T557 477T591 364V0H410ZM246 -12Q193 -12 151 9T86 69T62 157Q62 245 126 294T307 343H421L420
222L309 220Q277 220 259 208T241 173Q241 154 256 142T297 129Q335 129 365 146T413 193L431 84Q405 35 359 12T246 -12ZM484 609L353 630Q357 701 388 745T481 789Q510 789 531 784T570 771T600 758T628 752Q646 752 655 764T666 796L800 776Q794 705 762 661T668
617Q635 617 609 627T561 646T520 656Q503 656 495 643T484 609Z" />
<glyph unicode="&#xe4;" horiz-adv-x="650" d="M410 0L405 87V374Q405 406 382 424T317 443Q277 443 253 427T225 382H46Q52 441 87 483T183 549T326 572Q405 572 464 548T557 477T591 364V0H410ZM246 -12Q193 -12 151 9T86 69T62 157Q62 245 126 294T307 343H421L420
222L309 220Q277 220 259 208T241 173Q241 154 256 142T297 129Q335 129 365 146T413 193L431 84Q405 35 359 12T246 -12ZM610 628V780H787V628H610ZM365 628V780H542V628H365Z" />
<glyph unicode="&#xe5;" horiz-adv-x="650" d="M410 0L405 87V374Q405 406 382 424T317 443Q277 443 253 427T225 382H46Q52 441 87 483T183 549T326 572Q405 572 464 548T557 477T591 364V0H410ZM246 -12Q193 -12 151 9T86 69T62 157Q62 245 126 294T307 343H421L420
222L309 220Q277 220 259 208T241 173Q241 154 256 142T297 129Q335 129 365 146T413 193L431 84Q405 35 359 12T246 -12ZM575 589Q516 589 480 622T444 710Q444 765 480 798T575 832Q635 832 671 799T708 710Q708 656 672 623T575 589ZM576 668Q596 668 608 680T620
711Q620 729 608 741T576 753Q557 753 545 741T533 711Q533 692 544 680T576 668Z" />
<glyph unicode="&#xe6;" horiz-adv-x="650" d="M229 119V391Q229 417 221 429T199 441Q189 441 181 434T168 414T161 381H5Q9 441 33 483T99 549T200 572Q283 572 330 518T378 365V119H229ZM167 -12Q100 -12 56 30T11 152Q11 206 37 247T108 312T209 335H241L239
223H217Q197 223 179 208T161 163Q161 143 170 132T193 120Q216 120 227 149T237 251L325 161Q319 74 275 31T167 -12ZM440 -12Q340 -12 285 66T229 279Q229 417 284 494T440 572Q551 572 598 488T635 257H358L361 364L476 365Q475 406 465 426T435 446Q408 446
394 404T379 275Q379 233 386 199T407 145T439 125Q460 125 472 143T487 193H630Q626 97 574 43T440 -12Z" />
<glyph unicode="&#xe7;" horiz-adv-x="650" d="M330 -12Q240 -12 176 23T79 123T45 280Q45 371 81 436T182 537T335 572Q416 572 476 543T571 461T607 337H422Q416 381 395 401T335 421Q305 421 281 405T244 358T231 280Q231 207 260 172T330 136Q355 136 374
145T407 173T425 218H610Q605 148 569 97T472 17T330 -12ZM323 -222Q302 -222 276 -218T223 -205V-133Q237 -137 259 -141T299 -146Q315 -146 327 -141T340 -126Q340 -117 329 -112T303 -107Q293 -107 284 -108T267 -113L243 -71L306 31L387 6L354 -42Q357 -42
360 -42T365 -41Q393 -41 416 -50T454 -78T468 -124Q468 -160 448 -181T394 -212T323 -222Z" />
<glyph unicode="&#xe8;" horiz-adv-x="650" d="M329 -12Q237 -12 172 23T72 123T37 280Q37 370 72 435T175 536T335 572Q487 572 555 487T611 248H182L183 363L422 364Q420 395 396 415T336 436Q274 436 248 395T222 271Q222 231 234 201T270 153T333 135Q367
135 394 152T426 196H610Q601 101 526 45T329 -12ZM438 617H288L172 790H352L438 617Z" />
<glyph unicode="&#xe9;" horiz-adv-x="650" d="M329 -12Q237 -12 172 23T72 123T37 280Q37 370 72 435T175 536T335 572Q487 572 555 487T611 248H182L183 363L422 364Q420 395 396 415T336 436Q274 436 248 395T222 271Q222 231 234 201T270 153T333 135Q367
135 394 152T426 196H610Q601 101 526 45T329 -12ZM244 616L330 789H510L394 616H244Z" />
<glyph unicode="&#xea;" horiz-adv-x="650" d="M329 -12Q237 -12 172 23T72 123T37 280Q37 370 72 435T175 536T335 572Q487 572 555 487T611 248H182L183 363L422 364Q420 395 396 415T336 436Q274 436 248 395T222 271Q222 231 234 201T270 153T333 135Q367
135 394 152T426 196H610Q601 101 526 45T329 -12ZM118 616L235 789H437L555 616H386L336 703L288 616H118Z" />
<glyph unicode="&#xeb;" horiz-adv-x="650" d="M329 -12Q237 -12 172 23T72 123T37 280Q37 370 72 435T175 536T335 572Q487 572 555 487T611 248H182L183 363L422 364Q420 395 396 415T336 436Q274 436 248 395T222 271Q222 231 234 201T270 153T333 135Q367
135 394 152T426 196H610Q601 101 526 45T329 -12ZM369 628V780H546V628H369ZM124 628V780H301V628H124Z" />
<glyph unicode="&#xec;" horiz-adv-x="650" d="M242 0V560H428V0H242ZM62 0V149H595V0H62ZM132 411V560H335V411H132ZM437 617H287L171 790H351L437 617Z" />
<glyph unicode="&#xed;" horiz-adv-x="650" d="M242 0V560H428V0H242ZM62 0V149H595V0H62ZM132 411V560H335V411H132ZM243 616L329 789H509L393 616H243Z" />
<glyph unicode="&#xee;" horiz-adv-x="650" d="M242 0V560H428V0H242ZM62 0V149H595V0H62ZM132 411V560H335V411H132ZM117 616L234 789H436L554 616H385L335 703L287 616H117Z" />
<glyph unicode="&#xef;" horiz-adv-x="650" d="M242 0V560H428V0H242ZM62 0V149H595V0H62ZM132 411V560H335V411H132ZM368 628V780H545V628H368ZM123 628V780H300V628H123Z" />
<glyph unicode="&#xf0;" horiz-adv-x="650" d="M153 740H378Q421 710 463 667T538 569T592 453T612 323Q612 224 578 149T479 31T322 -12Q236 -12 172 18T73 106T37 246Q37 323 70 376T159 456T285 484Q332 484 368 474T436 441T498 377L460 230Q448 276 429 302T384
340T325 352Q294 352 272 339T237 301T225 239Q225 202 236 178T269 143T320 131Q356 131 379 155T414 219T426 308Q426 377 408 435T355 544T269 643T153 740ZM221 511L192 611L560 715L590 615L221 511Z" />
<glyph unicode="&#xf1;" horiz-adv-x="650" d="M415 0V339Q415 373 399 394T352 415Q317 415 287 392T220 313L202 456Q243 518 294 545T401 572Q466 572 510 546T578 471T601 358V0H415ZM53 0V560H234L239 474V0H53ZM263 609L132 630Q136 701 167 745T260 789Q289
789 310 784T349 771T379 758T407 752Q425 752 434 764T445 796L579 776Q573 705 541 661T447 617Q414 617 388 627T340 646T299 656Q282 656 274 643T263 609Z" />
<glyph unicode="&#xf2;" horiz-adv-x="650" d="M325 -12Q236 -12 171 23T71 124T36 279Q36 371 70 436T170 536T325 572Q461 572 537 495T614 279Q614 189 580 124T480 24T325 -12ZM325 137Q373 137 400 175T428 280Q428 349 401 386T325 423Q277 423 249 386T221
279Q221 212 249 175T325 137ZM428 617H278L162 790H342L428 617Z" />
<glyph unicode="&#xf3;" horiz-adv-x="650" d="M325 -12Q236 -12 171 23T71 124T36 279Q36 371 70 436T170 536T325 572Q461 572 537 495T614 279Q614 189 580 124T480 24T325 -12ZM325 137Q373 137 400 175T428 280Q428 349 401 386T325 423Q277 423 249 386T221
279Q221 212 249 175T325 137ZM233 616L319 789H499L383 616H233Z" />
<glyph unicode="&#xf4;" horiz-adv-x="650" d="M325 -12Q236 -12 171 23T71 124T36 279Q36 371 70 436T170 536T325 572Q461 572 537 495T614 279Q614 189 580 124T480 24T325 -12ZM325 137Q373 137 400 175T428 280Q428 349 401 386T325 423Q277 423 249 386T221
279Q221 212 249 175T325 137ZM107 616L224 789H426L544 616H375L325 703L277 616H107Z" />
<glyph unicode="&#xf5;" horiz-adv-x="650" d="M325 -12Q236 -12 171 23T71 124T36 279Q36 371 70 436T170 536T325 572Q461 572 537 495T614 279Q614 189 580 124T480 24T325 -12ZM325 137Q373 137 400 175T428 280Q428 349 401 386T325 423Q277 423 249 386T221
279Q221 212 249 175T325 137ZM233 609L102 630Q106 701 137 745T230 789Q259 789 280 784T319 771T349 758T377 752Q395 752 404 764T415 796L549 776Q543 705 511 661T417 617Q384 617 358 627T310 646T269 656Q252 656 244 643T233 609Z" />
<glyph unicode="&#xf6;" horiz-adv-x="650" d="M325 -12Q236 -12 171 23T71 124T36 279Q36 371 70 436T170 536T325 572Q461 572 537 495T614 279Q614 189 580 124T480 24T325 -12ZM325 137Q373 137 400 175T428 280Q428 349 401 386T325 423Q277 423 249 386T221
279Q221 212 249 175T325 137ZM359 628V780H536V628H359ZM114 628V780H291V628H114Z" />
<glyph unicode="&#xf7;" horiz-adv-x="650" d="M68 226V386H582V226H68ZM230 17V201H421V17H230ZM230 421V605H421V421H230Z" />
<glyph unicode="&#xf8;" horiz-adv-x="650" d="M192 -86L81 -30L458 643L569 588L192 -86ZM325 -12Q234 -12 169 23T68 124T33 279Q33 371 68 436T168 537T325 573Q416 573 481 538T581 437T616 279Q616 189 582 124T482 24T325 -12ZM325 131Q376 131 405 170T435
280Q435 352 406 391T325 430Q274 430 245 391T215 280Q215 209 244 170T325 131Z" />
<glyph unicode="&#xf9;" horiz-adv-x="650" d="M231 560V221Q231 187 247 166T294 145Q329 145 359 168T426 247L444 104Q403 42 352 15T245 -12Q180 -12 136 14T68 89T45 202V560H231ZM593 560V0H412L407 86V560H593ZM428 616H278L162 789H342L428 616Z" />
<glyph unicode="&#xfa;" horiz-adv-x="650" d="M231 560V221Q231 187 247 166T294 145Q329 145 359 168T426 247L444 104Q403 42 352 15T245 -12Q180 -12 136 14T68 89T45 202V560H231ZM593 560V0H412L407 86V560H593ZM234 871L320 1044H500L384 871H234Z" />
<glyph unicode="&#xfb;" horiz-adv-x="650" d="M231 560V221Q231 187 247 166T294 145Q329 145 359 168T426 247L444 104Q403 42 352 15T245 -12Q180 -12 136 14T68 89T45 202V560H231ZM593 560V0H412L407 86V560H593ZM108 871L225 1044H427L545 871H376L326 958L278
871H108Z" />
<glyph unicode="&#xfc;" horiz-adv-x="650" d="M231 560V221Q231 187 247 166T294 145Q329 145 359 168T426 247L444 104Q403 42 352 15T245 -12Q180 -12 136 14T68 89T45 202V560H231ZM593 560V0H412L407 86V560H593ZM359 883V1035H536V883H359ZM114 883V1035H291V883H114Z"
/>
<glyph unicode="&#xfd;" horiz-adv-x="650" d="M281 388L325 245L370 388L437 560H628L392 -14Q366 -77 328 -115T240 -172T131 -190H27V-40H114Q143 -40 162 -27T195 7T218 48L225 63L23 560H215L281 388ZM237 616L323 789H503L387 616H237Z" />
<glyph unicode="&#xfe;" horiz-adv-x="650" d="M384 573Q455 573 510 535T595 430T626 280Q626 197 596 131T510 27T384 -12Q339 -12 299 5T231 49V-178H45V741H231V512Q260 540 300 556T384 573ZM330 140Q363 140 388 158T427 208T441 280Q441 321 427 352T388
402T330 421Q296 421 270 400T231 341V220Q243 184 269 162T330 140Z" />
<glyph unicode="&#xff;" horiz-adv-x="650" d="M281 388L325 245L370 388L437 560H628L392 -14Q366 -77 328 -115T240 -172T131 -190H27V-40H114Q143 -40 162 -27T195 7T218 48L225 63L23 560H215L281 388ZM363 628V780H540V628H363ZM118 628V780H295V628H118Z" />
<glyph unicode="&#x2013;" horiz-adv-x="650" d="M41 227V387H609V227H41Z" />
<glyph unicode="&#x2014;" horiz-adv-x="1300" d="M99 226V386H1201V226H99Z" />
<glyph unicode="&#x2018;" horiz-adv-x="650" d="M412 608V424H221V608L295 773H454L401 689L311 608H412Z" />
<glyph unicode="&#x2019;" horiz-adv-x="650" d="M237 588V772H428V588L354 423H195L248 507L338 588H237Z" />
<glyph unicode="&#x201a;" horiz-adv-x="650" d="M242 0V184H433V0L359 -165H200L253 -81L343 0H242Z" />
<glyph unicode="&#x201c;" horiz-adv-x="650" d="M283 608V424H92V608L166 773H325L272 689L182 608H283ZM535 608V424H344V608L418 773H577L524 689L434 608H535Z" />
<glyph unicode="&#x201d;" horiz-adv-x="650" d="M368 588V772H559V588L485 423H326L379 507L469 588H368ZM116 588V772H307V588L233 423H74L127 507L217 588H116Z" />
<glyph unicode="&#x201e;" horiz-adv-x="650" d="M368 0V184H559V0L485 -165H326L379 -81L469 0H368ZM372 0V184H563V0L489 -165H330L383 -81L473 0H372Z" />
<glyph unicode="&#x2022;" horiz-adv-x="650" d="M182 166V439H468V166H182Z" />
<glyph unicode="&#x2039;" horiz-adv-x="650" d="M304 60L160 277L304 492H486L337 277L486 60H304Z" />
<glyph unicode="&#x203a;" horiz-adv-x="650" d="M347 60H165L313 277L165 492H347L490 277L347 60Z" />
</font>
</defs>
</svg>
